<?xml version="1.0" encoding="UTF-8" standalone="no"?>
<svg
   width="128"
   height="128"
   viewBox="0 0 80 80"
   version="1.1"
   id="svg6"
   sodipodi:docname="1inch.svg"
   style="fill:none"
   inkscape:version="1.1.2 (b8e25be833, 2022-02-05)"
   xmlns:inkscape="http://www.inkscape.org/namespaces/inkscape"
   xmlns:sodipodi="http://sodipodi.sourceforge.net/DTD/sodipodi-0.dtd"
   xmlns="http://www.w3.org/2000/svg"
   xmlns:svg="http://www.w3.org/2000/svg"
   xmlns:rdf="http://www.w3.org/1999/02/22-rdf-syntax-ns#"
   xmlns:cc="http://creativecommons.org/ns#"
   xmlns:dc="http://purl.org/dc/elements/1.1/">
  <metadata
     id="metadata12">
    <rdf:RDF>
      <cc:Work
         rdf:about="">
        <dc:format>image/svg+xml</dc:format>
        <dc:type
           rdf:resource="http://purl.org/dc/dcmitype/StillImage" />
      </cc:Work>
    </rdf:RDF>
  </metadata>
  <defs
     id="defs10" />
  <sodipodi:namedview
     pagecolor="#ffffff"
     bordercolor="#666666"
     borderopacity="1"
     objecttolerance="10"
     gridtolerance="10"
     guidetolerance="10"
     inkscape:pageopacity="0"
     inkscape:pageshadow="2"
     inkscape:window-width="1280"
     inkscape:window-height="658"
     id="namedview8"
     showgrid="false"
     scale-x="0.8"
     fit-margin-top="0"
     fit-margin-left="0"
     fit-margin-right="0"
     fit-margin-bottom="0"
     inkscape:zoom="2.0757576"
     inkscape:cx="71.058393"
     inkscape:cy="32.518248"
     inkscape:window-x="-6"
     inkscape:window-y="-6"
     inkscape:window-maximized="1"
     inkscape:current-layer="svg6"
     inkscape:pagecheckerboard="0" />
  <circle
     style="fill:#ffffff;fill-opacity:1;stroke-width:0.451977"
     cx="40"
     cy="40"
     id="circle2"
     r="40" />
  <g
     id="g970"
     transform="matrix(0.62373691,0,0,0.62373691,-75.629282,-42.667695)">
    <path
       inkscape:connector-curvature="0"
       id="path906"
       d="m 198.13485,185.85354 c 1.32995,-1.41703 2.27789,-2.65493 2.27789,-2.97463 0,-0.42947 -0.93923,-0.24199 -2.88653,0.57618 -3.83252,1.61025 -10.26125,2.62663 -14.55663,2.30139 -3.42924,-0.25966 -8.11221,-1.00059 -7.70024,-1.21832 0.20512,-0.1084 1.22995,-0.26494 2.2774,-0.34786 5.53052,-0.4378 11.82228,-3.24614 16.1653,-7.21542 2.22284,-2.03154 4.34979,-4.96133 5.71049,-7.86594 1.849,-3.947 2.20663,-5.65105 2.18738,-10.42254 -0.0146,-3.6094 -0.0973,-4.32542 -0.7446,-6.44211 -1.11581,-3.64882 -2.64864,-6.46316 -5.17336,-9.49849 -1.27757,-1.53594 -3.82329,-3.68627 -4.36409,-3.68627 -0.53718,0 -5.7385,6.87733 -6.6541,8.79825 -0.64045,1.34363 -0.77426,1.97833 -0.77444,3.6732 -2.7e-4,2.89144 -0.58553,4.63503 -2.09869,6.25272 -1.91559,2.04792 -6.50056,6.0057 -7.4019,6.38937 -0.4433,0.1887 -1.92853,0.37344 -3.30052,0.41053 -2.408,0.0651 -2.54616,0.10355 -3.98345,1.10878 -1.46681,1.02587 -1.51722,1.03901 -3.39205,0.88386 -2.65126,-0.21939 -6.6337,-1.39554 -7.26338,-2.14512 -1.30406,-1.55235 -3.42177,-6.95884 -3.42177,-8.73574 0,-0.55908 0.69453,-2.28764 1.86245,-4.63529 1.02434,-2.05906 1.93315,-4.05015 2.01957,-4.42466 0.33761,-1.46308 2.07371,-15.61656 2.0735,-16.90422 -1.5e-4,-0.95772 -0.24528,-1.88296 -0.82165,-3.10131 -0.89908,-1.90049 -1.01519,-2.78836 -0.71112,-5.43758 l 0.20197,-1.75965 -1.42484,-0.9475 c -1.53486,-1.02067 -13.21535,-9.48277 -18.45118,-13.36722 -1.76246,-1.30756 -3.14941,-2.43245 -3.08211,-2.49974 0.0673,-0.0673 4.3938,1.40427 9.61446,3.27014 5.22066,1.86587 9.76046,3.3925 10.08845,3.3925 0.53955,0 0.57979,-0.0967 0.42249,-1.01519 -0.61885,-3.61352 -0.70706,-4.94134 -0.4491,-6.76023 0.35437,-2.498635 1.12918,-4.534475 2.51634,-6.611755 0.94146,-1.40986 1.14729,-1.5905 1.31542,-1.15446 0.10962,0.28431 0.61038,1.79556 1.1128,3.35833 1.16596,3.626715 1.47038,3.730525 2.75924,0.94095 2.37968,-5.1505 5.97236,-8.494246 10.74734,-10.002656 2.0097,-0.63487 5.65321,-1.19867 5.65321,-0.87478 0,0.0845 -0.62097,1.12924 -1.37994,2.32165 -1.85574,2.915546 -1.53255,3.396946 1.31998,1.966176 2.11884,-1.062766 5.39898,-2.163606 8.31678,-2.791156 3.1621,-0.6801 9.98034,-0.94502 13.26505,-0.51541 4.90153,0.64108 10.11379,2.32541 14.62887,4.727296 2.41634,1.28542 6.67901,3.99183 6.52687,4.14397 -0.0464,0.0464 -1.46321,-0.0264 -3.1484,-0.16187 -1.68518,-0.13546 -3.2284,-0.18319 -3.42938,-0.10607 -0.79029,0.30326 -0.2759,0.89437 1.73264,1.99103 8.30452,4.534255 15.15855,11.525735 19.21502,19.600355 1.51891,3.02349 3.38222,8.63438 4.00484,12.05961 0.50903,2.80037 0.90517,13.54192 0.49887,13.5274 -0.1288,-0.005 -0.64866,-0.55845 -1.15526,-1.23078 -1.05089,-1.39468 -1.86663,-1.95898 -2.04116,-1.412 -0.0614,0.19254 -0.17444,2.42104 -0.25114,4.95223 -0.19976,6.59314 -1.07133,10.10593 -3.96293,15.9722 -1.71417,3.4776 -4.00076,6.83555 -6.73168,9.88576 -1.79779,2.00798 -5.9606,5.7996 -6.15449,5.6057 -0.0634,-0.0634 0.0695,-0.99421 0.2955,-2.06839 0.51682,-2.45687 0.53356,-3.81267 0.0471,-3.81267 -0.20007,0 -1.36453,1.21111 -2.58768,2.69135 -3.29583,3.98856 -7.5285,7.40805 -11.88064,9.59811 -1.97168,0.99217 -5.84887,2.38214 -7.63729,2.73796 l -0.9475,0.18851 z"
       style="fill:#1a304e;stroke-width:0.27071533" />
    <path
       inkscape:connector-curvature="0"
       id="path904"
       d="m 206.40933,172.3305 c 1.39202,-0.93575 3.70701,-2.8423 5.14443,-4.23678 7.56833,-7.34226 11.76096,-17.75189 11.24862,-27.92851 -0.68163,-13.53935 -8.60479,-25.6124 -20.62999,-31.43531 -3.29606,-1.59604 -5.04117,-2.16895 -9.00846,-2.95744 -3.44334,-0.68435 -3.34226,-0.71183 -4.71358,1.28131 l -0.81737,1.18802 2.36797,6.13687 2.36797,6.13687 -0.79292,2.30108 -0.79292,2.30108 -1.34394,0.16377 c -0.73917,0.0901 -1.39262,0.12262 -1.4521,0.0723 -0.0595,-0.0503 0.33643,-1.16406 0.87982,-2.47504 0.54339,-1.31097 0.98798,-2.65111 0.98798,-2.97807 0,-0.6108 -2.30964,-6.61363 -3.26571,-8.48767 -0.60886,-1.19347 -0.95957,-1.27336 -2.20973,-0.50336 -1.1171,0.68805 -4.07102,1.61979 -5.13528,1.61979 -0.80505,0 -0.8031,-0.004 0.54258,-1.06752 1.54425,-1.22066 3.63271,-3.688 4.40798,-5.20765 1.41093,-2.76565 1.61407,-5.98012 0.62064,-9.820685 -0.85595,-3.30903 -1.28362,-3.16388 -4.38646,1.48876 -3.67583,5.511815 -8.33681,11.983365 -9.63394,13.376265 -1.2168,1.30664 -1.84793,1.3963 -2.75708,0.3917 -0.67565,-0.74659 -1.1363,-0.63466 -1.55983,0.37899 -1.00668,2.40932 -3.75181,10.43316 -3.97867,11.62939 -0.36418,1.92026 0.0797,4.25613 1.27126,6.68957 1.13721,2.32251 1.48514,3.75992 1.26343,5.21966 -0.14057,0.92548 -0.62643,1.4606 -0.62643,0.68995 0,-0.17888 -0.38871,-0.96661 -0.8638,-1.75051 -1.69464,-2.79614 -1.9797,-2.37599 -2.79616,4.12137 -1.21318,9.6545 -1.21479,9.66121 -3.25717,13.60335 l -1.82495,3.52247 0.71636,2.25808 c 0.394,1.24194 1.05178,2.86718 1.46174,3.61165 0.73951,1.34291 0.7635,1.35843 3.04557,1.97088 3.16919,0.85051 3.79552,0.64629 6.69372,-2.18257 1.22956,-1.20015 2.47176,-2.67898 2.76042,-3.28628 0.28944,-0.60895 0.66591,-2.31839 0.83937,-3.81135 0.35881,-3.08835 0.78803,-4.33903 1.5748,-4.58874 0.81724,-0.25938 3.4907,0.60601 3.96527,1.28355 0.71322,1.01826 0.51338,2.0532 -0.59195,3.06564 -0.55023,0.50399 -1.09056,0.91634 -1.20074,0.91634 -0.42674,0 -5.6496,6.02531 -5.6496,6.51761 0,0.47057 0.20867,0.52099 2.1563,0.52099 2.44538,0 1.95513,0.29319 6.68425,-3.99757 2.71556,-2.46384 3.34567,-3.53792 3.33569,-5.68598 -0.008,-1.67001 -0.75982,-3.27901 -2.20926,-4.72661 -1.60154,-1.59949 -2.9255,-2.18043 -4.86902,-2.1365 -0.86826,0.0196 -1.57866,-0.0238 -1.57866,-0.0964 0,-0.0727 0.63956,-0.45796 1.42125,-0.8562 1.29844,-0.6615 1.65952,-0.71887 4.17838,-0.66384 2.62355,0.0573 2.7755,0.0299 3.13663,-0.56638 0.20873,-0.34465 1.06167,-1.79195 1.89541,-3.21624 0.83374,-1.42429 2.08221,-3.34299 2.77437,-4.26377 1.17246,-1.55971 1.33201,-1.67415 2.33422,-1.67415 2.09664,0 4.99162,-0.6029 6.64057,-1.38294 5.53758,-2.61958 7.96415,-9.78693 5.69545,-16.82266 -0.37209,-1.15393 -0.58161,-2.09805 -0.4656,-2.09805 0.42696,0 3.47372,3.50562 4.2685,4.91137 0.91959,1.6265 2.05741,4.6852 2.35223,6.32332 0.10719,0.59557 0.43228,1.46914 0.72243,1.94125 0.29014,0.47211 0.42053,0.92452 0.28976,1.00534 -0.13078,0.0808 -0.31448,1.88734 -0.40824,4.01449 -0.0937,2.12714 -0.30518,4.69222 -0.46984,5.70018 -0.2935,1.79658 -0.28068,1.8765 0.65105,4.06073 1.68955,3.96073 1.93126,5.24503 1.92236,10.21418 -0.007,3.67966 -0.10991,4.8528 -0.58629,6.65715 -1.24627,4.72053 -3.18902,8.69238 -6.10571,12.48285 -1.19449,1.55233 -1.63013,2.88941 -1.11065,3.40888 0.28788,0.28788 1.83043,-0.49567 4.47327,-2.27225 z"
       style="fill:#ffffff;stroke-width:0.27071533" />
    <path
       transform="scale(0.8)"
       id="path944"
       d="m 274.53125,195.56055 c -0.19295,0.43236 -0.39146,0.86214 -0.59766,1.28906 0.21767,-0.43496 0.39769,-0.64502 0.6211,-1.10547 -0.008,-0.0649 -0.0157,-0.11882 -0.0234,-0.18359 z"
       style="fill:#94a6c3;fill-opacity:0.52112672;stroke:none;stroke-width:1px;stroke-linecap:butt;stroke-linejoin:miter;stroke-opacity:1"
       inkscape:connector-curvature="0" />
    <path
       transform="scale(0.8)"
       id="path942"
       d="m 250.62305,142.45898 c 0.32235,0.0902 1.29183,1.04715 2.38476,2.30469 1.14301,1.31516 2.34506,2.84992 2.8418,3.72852 0.57474,1.01656 1.2164,2.48132 1.76172,3.94726 0.54532,1.46594 0.99347,2.93321 1.17773,3.95703 0.13399,0.74447 0.53966,1.8376 0.90235,2.42774 0.36267,0.59014 0.52674,1.15483 0.36328,1.25586 -0.16348,0.101 -0.39452,2.35864 -0.51172,5.01758 -0.11713,2.65892 -0.38011,5.867 -0.58594,7.12695 -0.18344,1.12286 -0.2717,1.70849 -0.16797,2.35547 0.10373,0.64697 0.39814,1.3536 0.98047,2.71875 1.05597,2.47545 1.65991,4.11547 1.99805,5.91211 0.33813,1.79663 0.41181,3.74975 0.40625,6.85547 -0.004,2.29978 -0.0388,3.81753 -0.14649,5.04101 -0.10768,1.22348 -0.2882,2.15353 -0.58593,3.28125 -0.77892,2.95033 -1.77564,5.66724 -3.03321,8.23828 -1.25757,2.57105 -2.77667,4.99619 -4.59961,7.36524 -0.74655,0.9702 -1.25644,1.87368 -1.49804,2.61523 -0.24161,0.74156 -0.2153,1.32182 0.10937,1.64649 0.17993,0.17992 0.75144,0.0243 1.69141,-0.45313 0.93997,-0.47747 2.24861,-1.27636 3.90039,-2.38672 1.74002,-1.16969 4.63291,-3.55377 6.42969,-5.29687 1.18255,-1.14723 2.30021,-2.35429 3.34765,-3.61328 1.03132,-1.23961 1.99263,-2.53083 2.88672,-3.86329 1.05159,-1.69295 2.11722,-3.51174 3.25781,-5.79101 0.2062,-0.42692 0.40471,-0.8567 0.59766,-1.28906 -2.66099,-22.15495 -3.45627,-39.17828 -23.9082,-53.10157 z"
       style="fill:#94a6c3;fill-opacity:0.52112672;stroke:none;stroke-width:1px;stroke-linecap:butt;stroke-linejoin:miter;stroke-opacity:1"
       inkscape:connector-curvature="0" />
    <path
       transform="scale(0.8)"
       id="path910"
       d="m 223.05859,179.88477 c 1.57868,0.0341 2.45707,0.0421 2.96094,-0.0488 0.51384,-0.0928 0.67469,-0.28748 0.90039,-0.66016 0.26091,-0.43081 1.32697,-2.23917 2.36914,-4.01953 1.04218,-1.78036 2.60355,-4.1791 3.46875,-5.33008 0.73279,-0.97482 1.14941,-1.49787 1.53907,-1.77734 0.38965,-0.27947 0.75252,-0.31641 1.3789,-0.31641 1.3104,0 2.86945,-0.18776 4.35938,-0.49804 1.48993,-0.31029 2.91081,-0.74295 3.9414,-1.23047 0.86525,-0.40931 1.66835,-0.90689 2.40821,-1.48243 0.73985,-0.57553 1.41475,-1.22835 2.02148,-1.94726 0.60673,-0.71891 1.14546,-1.50432 1.61133,-2.34375 0.46586,-0.83943 0.86047,-1.73281 1.17773,-2.66992 0.31727,-0.93711 0.55782,-1.91775 0.71875,-2.92969 0.16093,-1.01194 0.24142,-2.05522 0.23828,-3.11914 -0.003,-1.06392 -0.0907,-2.14719 -0.26562,-3.24024 -0.17494,-1.09305 -0.43653,-2.19558 -0.79102,-3.29492 -0.4478,-1.38873 -0.67127,-2.44204 -0.56054,-2.52539 -0.18698,13.75688 -4.40281,20.16964 -13.51368,22.46485 l -9.27343,1.92773 z"
       style="fill:#94a6c3;fill-opacity:0.52112672;stroke:none;stroke-width:1px;stroke-linecap:butt;stroke-linejoin:miter;stroke-opacity:1"
       inkscape:connector-curvature="0" />
    <path
       inkscape:connector-curvature="0"
       id="path902"
       d="m 159.71521,157.2877 c -0.34184,-0.34184 -0.17922,-1.46785 0.36645,-2.53746 0.30081,-0.58964 0.60965,-1.07208 0.68631,-1.07208 0.51762,0 1.47391,0.97277 1.47391,1.4993 0,1.2298 -1.85655,2.78036 -2.52667,2.11024 z"
       style="fill:#1b314f;fill-opacity:1;stroke-width:0.27071533" />
    <path
       sodipodi:nodetypes="cscsccscscssc"
       inkscape:connector-curvature="0"
       id="path900"
       d="m 166.98143,132.73478 c -0.63652,-0.37001 -1.4167,-2.04393 -1.4167,-3.03962 0,-0.62539 0.0335,-0.63513 0.55641,-0.16189 0.30602,0.27693 0.82793,0.50353 1.1598,0.50353 0.69321,0 0.91193,-0.27779 5.39027,-6.84574 1.82562,-2.67744 5.83835,-8.72337 5.73763,-8.43053 -0.24719,0.7187 -2.24721,5.73281 -1.69102,5.73281 0.24984,0 0.63072,0.2728 1.19967,0.84176 0.90415,0.90415 1.03448,1.22862 1.03448,2.57558 0,1.28813 -0.15418,1.71672 -0.93921,2.61081 -1.21913,1.38851 -4.67729,3.67864 -7.0953,4.69878 -1.04944,0.44275 -2.14524,1.04217 -2.4351,1.33203 -0.60875,0.60875 -0.74012,0.62472 -1.50093,0.18248 z"
       style="fill:#1a304e;fill-opacity:1;stroke-width:0.30425522" />
    <path
       inkscape:connector-curvature="0"
       id="path898"
       d="m 173.19145,128.37053 c 1.63414,-1.0562 2.99416,-2.36656 3.30513,-3.18448 0.41044,-1.07952 -0.52193,-2.80687 -1.51507,-2.80687 -0.40562,0 -0.86769,0.62469 -2.37268,3.20779 -1.02794,1.76428 -1.86897,3.31243 -1.86897,3.44033 0,0.49722 1.13771,0.19244 2.45159,-0.65677 z"
       style="fill:#ffd923;fill-opacity:1;stroke-width:0.22935541" />
    <path
       inkscape:connector-curvature="0"
       id="path896"
       d="m 178.21409,107.25676 c 0,-0.0878 0.87919,-1.46521 1.95376,-3.06085 1.95705,-2.90605 2.45212,-3.15797 1.85609,-0.94449 -0.3257,1.20958 -1.74283,2.9651 -2.9674,3.67597 -0.46335,0.26898 -0.84245,0.4172 -0.84245,0.32937 z"
       style="fill:#1b314f;fill-opacity:1;stroke-width:0.27071533" />
    <path
       inkscape:connector-curvature="0"
       id="path894"
       d="m 224.92518,170.12412 c 3.00537,-3.33419 5.23419,-7.11504 6.43045,-10.90825 1.01212,-3.20931 1.32449,-5.30712 1.31095,-8.80378 -0.0186,-4.796 -1.17997,-9.33407 -3.45961,-13.51828 -1.65182,-3.03187 -5.49062,-7.69236 -5.95424,-7.22873 -0.0984,0.0984 0.31901,1.43012 0.9276,2.95936 1.249,3.13841 2.21123,6.65108 2.91223,10.63118 0.58006,3.2935 0.666,10.88473 0.15936,14.0772 -0.54271,3.41974 -1.81352,8.01581 -3.00444,10.86603 -1.60185,3.83367 -1.44476,4.27994 0.6777,1.92527 z"
       style="fill:#d82122;fill-opacity:1;stroke-width:0.27071533" />
    <path
       inkscape:connector-curvature="0"
       id="path892"
       d="m 173.90213,154.70978 c 0.54021,-0.49372 1.0544,-0.89767 1.14265,-0.89767 0.27783,0 0.69364,-1.00463 0.58608,-1.41596 -0.1134,-0.43365 -0.90297,-0.91799 -1.4965,-0.91799 -0.98685,0 -1.29091,0.58296 -1.52169,2.91743 -0.0874,0.88401 -0.062,1.21186 0.0937,1.21186 0.11744,0 0.65552,-0.40395 1.19573,-0.89767 z"
       style="fill:#ffffff;stroke-width:0.17953433" />
    <path
       inkscape:connector-curvature="0"
       id="path890"
       d="m 238.18429,137.42431 c 0.22042,-0.35665 -0.31358,-5.43684 -0.85254,-8.11053 -1.85622,-9.20848 -7.43468,-18.25794 -14.62632,-23.72704 -2.19269,-1.6675 -6.50294,-3.732 -9.56907,-4.58335 -3.50251,-0.97253 -9.36976,-1.199515 -13.6846,-0.52942 -5.4568,0.84744 -8.8801,1.79574 -8.34008,2.31032 0.12765,0.12164 1.69396,0.35494 3.48068,0.51845 11.49084,1.05154 21.11238,5.6003 30.18974,14.27276 2.25963,2.15884 5.72084,6.46066 7.49734,9.3182 1.25919,2.02543 3.4144,6.29132 4.53936,8.98493 0.75085,1.79783 1.0208,2.1034 1.36549,1.54568 z"
       style="fill:#d82122;fill-opacity:1;stroke-width:0.27071533" />
    <path
       inkscape:connector-curvature="0"
       id="path888"
       d="m 161.81647,117.51833 c 0.23565,-0.23565 0.42541,-0.87876 0.42541,-1.44175 0,-1.75567 -0.52353,-2.04297 -9.94442,-5.45708 -2.44248,-0.88515 -4.67611,-1.60937 -4.96361,-1.60937 -1.68668,0 0.40476,1.62394 7.73407,6.00527 5.17962,3.09628 5.89126,3.36022 6.74855,2.50293 z"
       style="fill:#ffffff;fill-opacity:1;stroke-width:0.27071533" />
    <path
       inkscape:connector-curvature="0"
       id="path886"
       d="m 163.72071,111.46292 c 0.0865,-0.13991 -0.32898,-0.70421 -0.92321,-1.25401 -2.24964,-2.08146 -4.05026,-5.64839 -4.87575,-9.65863 -0.37615,-1.827385 -0.96344,-2.076375 -1.27707,-0.54143 -0.37964,1.85797 -0.21894,5.79966 0.2842,6.97092 1.09208,2.54221 2.58563,3.88407 4.93765,4.43616 1.43194,0.33612 1.67173,0.3422 1.85418,0.047 z"
       style="fill:#d82122;fill-opacity:1;stroke-width:0.27071533" />
    <path
       inkscape:connector-curvature="0"
       id="path884"
       d="m 168.01958,102.83476 c 0.3341,-5.098125 1.54522,-8.328745 4.20025,-11.203985 1.65434,-1.791566 1.36941,-2.060146 -0.91114,-0.85884 -4.4624,2.35063 -6.75083,6.45293 -5.81564,10.425255 0.46789,1.98743 1.62571,4.29364 2.15559,4.29364 0.10828,0 0.2752,-1.19523 0.37094,-2.65607 z"
       style="fill:#d82122;fill-opacity:1;stroke-width:0.27071533" />
    <path
       inkscape:connector-curvature="0"
       id="path882"
       d="m 176.02389,101.35501 c 0.83237,-0.78576 1.82037,-1.668975 2.19554,-1.962685 0.37518,-0.29371 1.69275,-1.84361 2.92794,-3.44421 1.23519,-1.60061 2.36396,-2.91019 2.50839,-2.91019 0.14442,0 0.50341,0.5618 0.79774,1.24845 0.61543,1.43573 0.34651,1.41881 4.61236,0.29034 5.16928,-1.36744 12.13252,-1.5782 19.58048,-0.59265 4.84859,0.64159 4.7076,-0.0507 -0.38285,-1.88002 -5.47135,-1.966186 -11.83557,-2.869916 -16.67501,-2.367866 -3.76957,0.39105 -5.64395,0.89136 -8.49137,2.266516 -2.97049,1.43458 -6.40817,4.77311 -7.93626,7.70734 -0.92355,1.773405 -1.27421,3.073645 -0.82893,3.073645 0.0982,0 0.85959,-0.6429 1.69197,-1.42867 z"
       style="fill:#d82122;fill-opacity:1;stroke-width:0.27071533" />
    <path
       inkscape:connector-curvature="0"
       id="path908"
       d="m 175.70726,144.31471 4.15593,-12.94469 8.51625,-6.47236 2.40364,0.22003 -9.89794,7.5468 -3.88341,11.78649 z"
       style="fill:#1a304e;fill-opacity:1;stroke:none;stroke-width:0.80000001px;stroke-linecap:butt;stroke-linejoin:miter;stroke-opacity:1" />
    <path
       transform="scale(0.8)"
       id="path949"
       d="m 209.39258,201.89453 0.89258,0.11719 4.33593,-4.93945 0.66993,-4.5 0.63867,-3.19336 3.875,-0.55469 0.42578,2.72461 -2.64063,2.42773 -1.70312,1.78906 -2.85352,3.91797 -2.34179,2.59571 2.68359,0.81054 6.42969,-0.89453 6.68554,-6.98437 1.53321,-7.57813 -7.24024,-7.11133 0.13672,-0.58593 c -0.31182,0.0153 -0.85765,-0.0117 -1.10351,0.0273 -0.70929,0.11269 -1.22949,0.33656 -2.04102,0.75 -0.97711,0.4978 -1.77539,0.97944 -1.77539,1.07031 0,0.0908 0.88733,0.1456 1.97266,0.1211 1.2147,-0.0275 2.23547,0.13985 3.20312,0.56445 0.96765,0.4246 1.88185,1.10774 2.88281,2.10742 0.9059,0.90475 1.59398,1.85967 2.05664,2.84961 0.46267,0.98994 0.70008,2.01484 0.70508,3.0586 0.003,0.67126 -0.0428,1.25701 -0.16797,1.80859 -0.12512,0.55158 -0.32884,1.06757 -0.63867,1.5957 -0.61965,1.05626 -1.66605,2.16323 -3.36328,3.70313 -2.9557,2.68172 -4.28023,3.93095 -5.24805,4.50976 -0.4839,0.28941 -0.87703,0.40954 -1.34179,0.45899 -0.46477,0.0494 -0.99949,0.0273 -1.76367,0.0273 -1.21727,0 -1.8922,-0.0162 -2.26172,-0.10547 -0.36953,-0.0893 -0.4336,-0.25081 -0.4336,-0.54492 0,-0.30769 1.63126,-2.34486 3.33008,-4.30469 1.69882,-1.95983 3.46376,-3.84375 3.73047,-3.84375 0.13772,0 0.81416,-0.51454 1.50195,-1.14453 0.69083,-0.63277 1.09894,-1.27335 1.22266,-1.91406 0.12372,-0.64072 -0.0367,-1.28156 -0.48242,-1.91797 -0.29661,-0.42346 -1.28106,-0.90642 -2.31836,-1.24219 -1.0373,-0.33577 -2.1279,-0.52539 -2.63867,-0.36328 -0.49174,0.15607 -0.87242,0.6247 -1.18555,1.53711 -0.31313,0.91241 -0.55895,2.269 -0.7832,4.19922 -0.21683,1.8662 -0.68703,4.00248 -1.04883,4.76367 -0.36083,0.75913 -1.91422,2.60919 -3.45117,4.10938 -0.0342,0.0334 -0.0523,0.0453 -0.0859,0.0781 z"
       style="fill:#1a304e;fill-opacity:1;stroke:none;stroke-width:1px;stroke-linecap:butt;stroke-linejoin:miter;stroke-opacity:1"
       inkscape:connector-curvature="0" />
    <path
       transform="scale(0.8)"
       id="path924"
       d="m 209.39258,201.89453 c 0.0337,-0.0328 0.0517,-0.0447 0.0859,-0.0781 1.53695,-1.50019 3.09034,-3.35025 3.45117,-4.10938 0.3618,-0.76119 0.832,-2.89747 1.04883,-4.76367 0.22425,-1.93022 0.47007,-3.28681 0.7832,-4.19922 0.31313,-0.91241 0.69381,-1.38104 1.18555,-1.53711 0.51077,-0.16211 1.60137,0.0275 2.63867,0.36328 1.0373,0.33577 2.02175,0.81873 2.31836,1.24219 0.44576,0.63641 0.60614,1.27725 0.48242,1.91797 -0.12372,0.64071 -0.53183,1.28129 -1.22266,1.91406 -0.68779,0.62999 -1.36423,1.14453 -1.50195,1.14453 -0.26671,0 -2.03165,1.88392 -3.73047,3.84375 -1.69882,1.95983 -3.33008,3.997 -3.33008,4.30469 0,0.29411 0.0641,0.45564 0.4336,0.54492 0.36952,0.0893 1.04445,0.10547 2.26172,0.10547 0.76418,0 1.2989,0.0221 1.76367,-0.0273 0.46476,-0.0495 0.85789,-0.16958 1.34179,-0.45899 0.96782,-0.57881 2.29235,-1.82804 5.24805,-4.50976 1.69723,-1.5399 2.74363,-2.64687 3.36328,-3.70313 0.30983,-0.52813 0.51355,-1.04412 0.63867,-1.5957 0.12513,-0.55158 0.17109,-1.13733 0.16797,-1.80859 -0.005,-1.04376 -0.24241,-2.06866 -0.70508,-3.0586 -0.46266,-0.98994 -1.15074,-1.94486 -2.05664,-2.84961 -1.00096,-0.99968 -1.91516,-1.68282 -2.88281,-2.10742 -0.96765,-0.4246 -1.98842,-0.59191 -3.20312,-0.56445 -1.08533,0.0245 -1.97266,-0.0303 -1.97266,-0.1211 0,-0.0909 0.79828,-0.57251 1.77539,-1.07031 0.81153,-0.41344 1.33173,-0.63731 2.04102,-0.75 0.24586,-0.0391 0.79169,-0.012 1.10351,-0.0273 l 0.9707,-4.1836 -0.12695,-0.12695 -10.75586,2.66016 -3.01172,14.45117 -5.05859,-5.41797 c 0,0 2.52927,6.41216 1.80664,7.85742 -0.72264,1.44525 -2.76953,5.75195 -2.76953,5.75195 z"
       style="fill:#d2d9e6;fill-opacity:1;stroke:none;stroke-width:1px;stroke-linecap:butt;stroke-linejoin:miter;stroke-opacity:1"
       inkscape:connector-curvature="0" />
  </g>
</svg>
