<?xml version="1.0" encoding="UTF-8" standalone="no"?>
<svg
   viewBox="0 0 128 128"
   version="1.1"
   id="svg13"
   sodipodi:docname="aave.svg"
   width="128"
   height="128"
   inkscape:version="1.1.2 (b8e25be833, 2022-02-05)"
   xmlns:inkscape="http://www.inkscape.org/namespaces/inkscape"
   xmlns:sodipodi="http://sodipodi.sourceforge.net/DTD/sodipodi-0.dtd"
   xmlns="http://www.w3.org/2000/svg"
   xmlns:svg="http://www.w3.org/2000/svg">
  <sodipodi:namedview
     id="namedview15"
     pagecolor="#ffffff"
     bordercolor="#999999"
     borderopacity="1"
     inkscape:pageshadow="0"
     inkscape:pageopacity="0"
     inkscape:pagecheckerboard="0"
     showgrid="false"
     fit-margin-top="0"
     fit-margin-left="0"
     fit-margin-right="0"
     fit-margin-bottom="0"
     inkscape:zoom="1"
     inkscape:cx="64.5"
     inkscape:cy="53.5"
     inkscape:window-width="1280"
     inkscape:window-height="658"
     inkscape:window-x="-6"
     inkscape:window-y="-6"
     inkscape:window-maximized="1"
     inkscape:current-layer="svg13" />
  <defs
     id="defs7">
    <linearGradient
       id="a"
       x1="21.768"
       x2="3.9120002"
       y1="5.448"
       y2="20.472"
       gradientUnits="userSpaceOnUse"
       gradientTransform="scale(5.3333333)">
      <stop
         offset="0"
         stop-color="#b6509e"
         id="stop2" />
      <stop
         offset="1"
         stop-color="#2ebac6"
         id="stop4" />
    </linearGradient>
  </defs>
  <circle
     cx="64"
     cy="64"
     r="64"
     fill="url(#a)"
     id="circle9"
     style="fill:url(#a);stroke-width:5.33333" />
  <path
     fill="#ffffff"
     d="m 92.005333,89.493333 -21.648,-52.314666 a 5.8186667,5.8186667 0 0 0 -5.424,-4.026667 h -1.914666 a 5.8186667,5.8186667 0 0 0 -5.424,4.026667 L 48.176,59.973333 H 41.050667 A 3.8986667,3.8986667 0 0 0 37.168,63.84 v 0.05333 A 3.8986667,3.8986667 0 0 0 41.050667,67.76 H 44.88 L 35.893333,89.493333 A 4.5866667,4.5866667 0 0 0 35.626667,90.976 4.0906667,4.0906667 0 0 0 36.693333,93.893333 3.7333333,3.7333333 0 0 0 39.568,95.008 3.888,3.888 0 0 0 41.802667,94.266667 4.72,4.72 0 0 0 43.344,92.304 l 9.882667,-24.538667 h 6.864 a 3.8986667,3.8986667 0 0 0 3.882666,-3.866666 V 63.792 a 3.8986667,3.8986667 0 0 0 -3.882666,-3.866667 h -3.664 L 63.973333,41.104 84.554667,92.304 A 4.72,4.72 0 0 0 86.096,94.266667 3.888,3.888 0 0 0 88.330667,95.008 3.7333333,3.7333333 0 0 0 91.205333,93.893333 4.0906667,4.0906667 0 0 0 92.272,90.976 3.504,3.504 0 0 0 92.005333,89.493333 Z"
     id="path11"
     style="stroke-width:5.33333" />
</svg>
