<?xml version="1.0" encoding="UTF-8" standalone="no"?>
<svg
   viewBox="0 0 128 128"
   version="1.1"
   id="svg13"
   sodipodi:docname="alpha.svg"
   width="128"
   height="128"
   inkscape:version="1.1.2 (b8e25be833, 2022-02-05)"
   xmlns:inkscape="http://www.inkscape.org/namespaces/inkscape"
   xmlns:sodipodi="http://sodipodi.sourceforge.net/DTD/sodipodi-0.dtd"
   xmlns="http://www.w3.org/2000/svg"
   xmlns:svg="http://www.w3.org/2000/svg">
  <sodipodi:namedview
     id="namedview15"
     pagecolor="#ffffff"
     bordercolor="#999999"
     borderopacity="1"
     inkscape:pageshadow="0"
     inkscape:pageopacity="0"
     inkscape:pagecheckerboard="0"
     showgrid="false"
     fit-margin-top="0"
     fit-margin-left="0"
     fit-margin-right="0"
     fit-margin-bottom="0"
     inkscape:zoom="1"
     inkscape:cx="68.5"
     inkscape:cy="-22.5"
     inkscape:window-width="1280"
     inkscape:window-height="658"
     inkscape:window-x="-6"
     inkscape:window-y="-6"
     inkscape:window-maximized="1"
     inkscape:current-layer="svg13" />
  <defs
     id="defs7">
    <linearGradient
       id="a"
       x1="21.768"
       x2="3.9120002"
       y1="5.448"
       y2="20.472"
       gradientUnits="userSpaceOnUse"
       gradientTransform="scale(5.3333333)">
      <stop
         offset="0"
         stop-color="#b6509e"
         id="stop2" />
      <stop
         offset="1"
         stop-color="#2ebac6"
         id="stop4" />
    </linearGradient>
    <linearGradient
       id="paint0_linear"
       x1="4.6862602"
       y1="27.316099"
       x2="27.315399"
       y2="4.6869001"
       gradientUnits="userSpaceOnUse"
       gradientTransform="matrix(4,0,0,4,1e-6,-1e-6)">
      <stop
         stop-color="#102054"
         id="stop14" />
      <stop
         offset="1"
         stop-color="#1A45B8"
         id="stop16" />
    </linearGradient>
    <linearGradient
       id="paint1_linear"
       x1="19.393"
       y1="6.2750602"
       x2="19.393"
       y2="23.4688"
       gradientUnits="userSpaceOnUse"
       gradientTransform="matrix(4,0,0,4,1e-6,-1e-6)">
      <stop
         stop-color="white"
         id="stop19" />
      <stop
         offset="1"
         stop-color="white"
         stop-opacity="0.6"
         id="stop21" />
    </linearGradient>
    <linearGradient
       id="paint2_linear"
       x1="12.6097"
       y1="23.349001"
       x2="12.6097"
       y2="6.4753799"
       gradientUnits="userSpaceOnUse"
       gradientTransform="matrix(4,0,0,4,1e-6,-1e-6)">
      <stop
         stop-color="white"
         id="stop24" />
      <stop
         offset="1"
         stop-color="white"
         stop-opacity="0.6"
         id="stop26" />
    </linearGradient>
  </defs>
  <path
     d="M 64,128 C 99.3464,128 128,99.3464 128,64 128,28.65376 99.3464,0 64,0 28.65376,0 0,28.65376 0,64 c 0,35.3464 28.65376,64 64,64 z"
     fill="url(#paint0_linear)"
     id="path6"
     style="fill:url(#paint0_linear);stroke-width:4" />
  <path
     d="m 64,25.30176 v 0.036 l 0.012,25.32512 4.584,11.4544 -4.5724,-3.814 v 12.2244 c 0.024,0.036 0.0476,0.0592 0.0712,0.0944 7.3676,9.2156 16.5596,16.9152 27.0428,22.53 z"
     fill="url(#paint1_linear)"
     id="path8"
     style="fill:url(#paint1_linear);stroke-width:4" />
  <path
     d="m 64.0008,25.30176 v 0.036 l -0.012,25.32512 -4.584,11.4544 4.5724,-3.814 v 12.2244 c -0.024,0.036 -0.0476,0.0592 -0.0712,0.0944 -7.3676,9.2156 -16.5596,16.9152 -27.04272,22.53 z"
     fill="url(#paint2_linear)"
     id="path10"
     style="fill:url(#paint2_linear);stroke-width:4" />
  <path
     d="m 63.9992,86.0556 c 3.402,0 6.1596,-2.758 6.1596,-6.1596 0,-3.402 -2.7576,-6.1596 -6.1596,-6.1596 -3.4016,0 -6.1592,2.7576 -6.1592,6.1596 0,3.4016 2.7576,6.1596 6.1592,6.1596 z"
     fill="#f5cc02"
     id="path12"
     style="stroke-width:4" />
</svg>
