<?xml version="1.0" encoding="UTF-8" standalone="no"?>
<svg
   width="128"
   height="128"
   viewBox="0 0 18 18"
   fill="none"
   version="1.1"
   id="svg10"
   sodipodi:docname="alusd.svg"
   inkscape:version="1.1.2 (b8e25be833, 2022-02-05)"
   xmlns:inkscape="http://www.inkscape.org/namespaces/inkscape"
   xmlns:sodipodi="http://sodipodi.sourceforge.net/DTD/sodipodi-0.dtd"
   xmlns="http://www.w3.org/2000/svg"
   xmlns:svg="http://www.w3.org/2000/svg">
  <defs
     id="defs14" />
  <sodipodi:namedview
     id="namedview12"
     pagecolor="#ffffff"
     bordercolor="#999999"
     borderopacity="1"
     inkscape:pageshadow="0"
     inkscape:pageopacity="0"
     inkscape:pagecheckerboard="0"
     showgrid="false"
     fit-margin-top="0"
     fit-margin-left="0"
     fit-margin-right="0"
     fit-margin-bottom="0"
     inkscape:zoom="3.6796875"
     inkscape:cx="45.52017"
     inkscape:cy="85.469214"
     inkscape:window-width="1280"
     inkscape:window-height="658"
     inkscape:window-x="-6"
     inkscape:window-y="-6"
     inkscape:window-maximized="1"
     inkscape:current-layer="svg10" />
  <circle
     cx="9"
     cy="9"
     r="9"
     fill="#f5c19b"
     id="circle2"
     style="stroke-width:1.03644" />
  <path
     d="M 7.8488182,0.43723977 C 4.7297833,0.85262535 1.9897011,3.0388559 0.88200836,5.9902781 0.50306289,6.9813716 0.37188823,7.7611252 0.36460103,8.9271176 c -0.007287,1.2825504 0.15303625,2.1570964 0.60486191,3.2793514 0.56112736,1.391936 1.63238936,2.762003 2.88582606,3.702052 1.1732785,0.874442 2.9878529,1.574038 4.1902865,1.603265 l 0.5465551,0.01451 0.021869,-0.604865 c 0.014572,-0.415404 -0.00729,-0.648603 -0.072872,-0.721464 -0.051013,-0.0655 -1.3919048,-1.136765 -2.9805772,-2.397488 -1.5813759,-1.253468 -2.914981,-2.32473 -2.9514118,-2.375722 -0.051013,-0.05835 -0.051013,-0.932794 -0.014572,-2.4267571 L 2.6528666,6.6680151 2.929782,6.4421027 C 3.0755354,6.3109312 4.3945579,5.232383 5.8593449,4.037246 7.3241216,2.8493847 8.5411275,1.8364327 8.5775583,1.7927054 8.6067132,1.7489781 8.6212856,1.413763 8.6139994,1.0566688 8.5921306,0.30606511 8.6285717,0.33521492 7.8488182,0.43723977 Z"
     fill="#202233"
     id="path4"
     style="stroke-width:1.03644" />
  <path
     d="m 9.3354222,0.41537715 c -0.029155,0.0218626 -0.051013,0.34979358 -0.051013,0.71417395 v 0.6704405 l 3.0242528,2.3902844 3.024325,2.3975706 v 2.4121533 2.4193981 l -3.024325,2.390336 -3.0242528,2.397592 v 0.677726 0.677727 h 0.3279392 c 0.4518036,0 1.3189906,-0.182206 2.1133166,-0.444528 2.587052,-0.859933 4.693198,-3.068063 5.458296,-5.706108 0.298805,-1.027524 0.357156,-1.4939318 0.313419,-2.72551 C 17.460897,7.2874421 17.264181,6.4785335 16.68844,5.2833965 15.726522,3.2939232 14.050395,1.7344058 12.02447,0.95465227 11.193765,0.63400125 9.4593076,0.28420353 9.3354222,0.41537715 Z"
     fill="#202233"
     id="path6"
     style="stroke-width:1.03644" />
  <path
     d="M 8.2861638,2.951422 C 7.8780664,3.2793613 7.571996,3.600004 7.4845414,3.7676167 7.3533699,4.0445425 7.2294845,4.1465694 6.4351482,4.5910976 5.4659235,5.137663 4.5112608,6.2599281 4.190618,7.2364493 3.9865642,7.841304 3.8699649,8.8105391 3.9355507,9.4008215 c 0.1821954,1.7781225 1.144134,3.0679695 3.1117487,4.1829695 0.3497978,0.196819 0.4882555,0.408149 0.4882555,0.736078 0,0.123854 0.1748988,0.30606 0.6995954,0.721464 l 0.7068816,0.546514 0.5757101,-0.451783 c 0.3206531,-0.247813 0.626734,-0.488266 0.684982,-0.532004 0.05835,-0.04374 0.102089,-0.174951 0.102089,-0.29155 0,-0.327929 0.152978,-0.480907 0.874442,-0.910925 1.165993,-0.677727 2.025925,-1.617776 2.375723,-2.579693 0.342543,-0.9473874 0.40079,-2.4048779 0.131213,-3.3158134 C 13.343648,6.3255139 12.359862,5.1595214 11.157387,4.4963671 10.501529,4.1247006 10.304813,3.9425156 10.304813,3.6801725 c 0,-0.1676127 -0.160337,-0.3352255 -0.8818014,-0.8963632 L 8.9420319,2.4121531 Z m 1.1587063,1.8364433 c 0.094741,0.087444 0.1311715,0.2186158 0.1311715,0.5028277 v 0.393525 l 0.4299664,0.21134 c 0.721464,0.3643701 1.180606,1.0639655 1.020269,1.5376487 -0.06561,0.1676127 -0.131213,0.21134 -0.40079,0.2550569 -0.444632,0.065586 -0.59761,0 -0.9619908,-0.4080973 C 9.2845435,6.8574966 8.9711869,6.7408974 8.50479,6.8647828 8.1258372,6.9595235 7.9728072,7.1489947 7.9728072,7.5206509 c 0,0.3497977 0.1603162,0.4372523 1.2607228,0.677737 1.45746,0.3279392 1.974953,0.7360366 2.069683,1.6542478 0.08737,0.8817803 -0.342542,1.6105003 -1.217088,2.0550283 -0.4517838,0.225943 -0.4736422,0.247812 -0.4955111,0.524748 -0.036431,0.539259 -0.072872,0.604865 -0.3862285,0.684982 C 8.86916,13.212124 8.5120761,13.153874 8.3226049,12.986285 8.2278639,12.906065 8.191423,12.767596 8.191423,12.498019 V 12.118993 L 7.7760395,11.966015 C 7.1930433,11.747327 6.8286733,11.426757 6.5809025,10.902008 6.3695625,10.450225 6.3258352,10.238895 6.4278621,10.078559 6.5080305,9.9546627 6.8505317,9.8380634 7.1420299,9.8380634 c 0.2769257,0 0.5174104,0.2040126 0.7943362,0.6631546 0.1894711,0.320674 0.4226696,0.429914 0.9327939,0.429914 0.6850231,0 0.9983797,-0.233198 0.9983797,-0.750588 0,-0.4007802 -0.2404846,-0.5392379 -1.3773221,-0.7797225 C 7.6813091,9.2259226 7.2440568,9.0291549 6.9161175,8.6647849 6.4205759,8.1182298 6.4132898,7.1125536 6.9015452,6.4639716 7.1128852,6.1870562 7.6521541,5.8445446 8.0675376,5.7279453 8.1622784,5.6987904 8.191423,5.6113461 8.191423,5.3417065 c 0,-0.5465551 0.1311819,-0.677737 0.6704508,-0.677737 0.3133566,0 0.4882555,0.036441 0.5829963,0.1238958 z"
     fill="#202233"
     id="path8"
     style="stroke-width:1.03644" />
</svg>
