<?xml version="1.0" encoding="UTF-8" standalone="no"?>
<svg
   width="128"
   height="128"
   viewBox="0 0 256 256"
   version="1.1"
   id="svg6"
   sodipodi:docname="ampl2.svg"
   inkscape:version="1.1.2 (b8e25be833, 2022-02-05)"
   xmlns:inkscape="http://www.inkscape.org/namespaces/inkscape"
   xmlns:sodipodi="http://sodipodi.sourceforge.net/DTD/sodipodi-0.dtd"
   xmlns="http://www.w3.org/2000/svg"
   xmlns:svg="http://www.w3.org/2000/svg">
  <defs
     id="defs10" />
  <sodipodi:namedview
     id="namedview8"
     pagecolor="#ffffff"
     bordercolor="#999999"
     borderopacity="1"
     inkscape:pageshadow="0"
     inkscape:pageopacity="0"
     inkscape:pagecheckerboard="0"
     showgrid="false"
     fit-margin-top="0"
     fit-margin-left="0"
     fit-margin-right="0"
     fit-margin-bottom="0"
     inkscape:zoom="3.6796875"
     inkscape:cx="64"
     inkscape:cy="56.66242"
     inkscape:window-width="1280"
     inkscape:window-height="658"
     inkscape:window-x="-6"
     inkscape:window-y="-6"
     inkscape:window-maximized="1"
     inkscape:current-layer="svg6" />
  <circle
     cx="128"
     cy="128"
     r="128"
     fill="#ffffff"
     id="circle2" />
  <path
     d="m 39.113584,200 c -0.125623,-2.44337 -0.16331,-4.88675 -0.0402,-7.33012 a 16.833521,16.833521 0 0 1 2.483573,-0.52887 62.495076,62.495076 0 0 0 7.248464,-1.70974 c 0.651985,-0.20351 1.302713,-0.44847 1.954698,-0.69218 a 19.471611,19.471611 0 0 0 8.022304,-5.8641 37.561365,37.561365 0 0 0 3.827741,-5.90429 87.04438,87.04438 0 0 0 4.112907,-8.83634 c 2.443373,-6.10781 4.886746,-12.17541 7.286151,-18.28322 L 98.93163,87.818399 q 11.78974,-29.995074 23.17121,-60.108234 l 0.48868,-1.221059 c 2.81271,-0.773839 5.53747,-1.587878 8.38787,-2.361717 0.16331,0.407019 0.32536,0.773839 0.44847,1.140659 q 4.82519,13.441692 9.61018,26.916047 c 10.95436,30.581735 21.90745,61.122015 33.14697,91.579385 3.09535,8.30746 6.18946,16.65513 9.32501,24.96134 a 79.290911,79.290911 0 0 0 4.35662,9.89535 c 0.73238,1.38186 1.50748,2.68708 2.36172,3.99105 a 19.106047,19.106047 0 0 0 11.31991,8.18436 60.579321,60.579321 0 0 0 7.65549,1.50748 l 1.83284,0.28517 a 7.7509572,7.7509572 0 0 1 0.12562,2.36171 v 2.48358 a 23.648585,23.648585 0 0 1 -0.0402,2.40191 c -0.24371,0.0402 -0.44847,0.0817 -0.69218,0.12563 h -64.42339 a 1.4584864,1.4584864 0 0 1 -0.16332,-0.44848 v -6.59773 a 0.75373976,0.75373976 0 0 1 0.0817,-0.28517 10.483264,10.483264 0 0 1 1.6331,-0.32536 65.360544,65.360544 0 0 0 7.859,-1.54768 27.07182,27.07182 0 0 0 3.0539,-1.05901 12.299777,12.299777 0 0 0 1.46602,-0.73238 6.261065,6.261065 0 0 0 3.33907,-6.51482 20.410017,20.410017 0 0 0 -0.69218,-3.82775 c -0.52888,-1.95469 -1.22106,-3.86794 -1.87305,-5.74098 Q 140.67122,116.99064 121.08404,60.935014 a 2.3227747,2.3227747 0 0 0 -0.61053,-1.221059 3.5802639,3.5802639 0 0 0 -0.40702,0.243709 1.9195239,1.9195239 0 0 0 -0.24371,0.61053 c -6.39297,18.364869 -13.19044,36.607886 -19.95275,54.809446 -5.00985,13.48314 -10.0172,27.00272 -14.66526,40.6027 -1.87304,5.45708 -3.66443,10.95435 -5.415619,16.45665 a 39.822584,39.822584 0 0 0 -1.50748,6.43443 16.176512,16.176512 0 0 0 -0.125623,4.43827 6.8100388,6.8100388 0 0 0 2.810192,4.80509 12.573635,12.573635 0 0 0 3.37927,1.70973 32.635676,32.635676 0 0 0 5.86409,1.50748 c 2.19841,0.40702 4.39682,0.73239 6.63794,1.05901 0.16331,0.0402 0.28516,0.0402 0.48867,0.0816 l 0.12563,0.48868 v 6.39297 a 1.1883964,1.1883964 0 0 1 -0.0817,0.36682 3.1405823,3.1405823 0 0 1 -0.61053,0.0816 h -0.85549 z"
     id="path4"
     style="stroke-width:1.25623" />
</svg>
