<?xml version="1.0" encoding="UTF-8" standalone="no"?>
<svg
   width="128"
   height="128"
   viewBox="0 0 100 100"
   version="1.1"
   id="svg10"
   sodipodi:docname="bifi.svg"
   inkscape:version="1.1.2 (b8e25be833, 2022-02-05)"
   xmlns:inkscape="http://www.inkscape.org/namespaces/inkscape"
   xmlns:sodipodi="http://sodipodi.sourceforge.net/DTD/sodipodi-0.dtd"
   xmlns="http://www.w3.org/2000/svg"
   xmlns:svg="http://www.w3.org/2000/svg"
   xmlns:rdf="http://www.w3.org/1999/02/22-rdf-syntax-ns#"
   xmlns:cc="http://creativecommons.org/ns#"
   xmlns:dc="http://purl.org/dc/elements/1.1/">
  <metadata
     id="metadata16">
    <rdf:RDF>
      <cc:Work
         rdf:about="">
        <dc:format>image/svg+xml</dc:format>
        <dc:type
           rdf:resource="http://purl.org/dc/dcmitype/StillImage" />
        <dc:title>uniswap</dc:title>
      </cc:Work>
    </rdf:RDF>
  </metadata>
  <defs
     id="defs14" />
  <sodipodi:namedview
     pagecolor="#ffffff"
     bordercolor="#666666"
     borderopacity="1"
     objecttolerance="10"
     gridtolerance="10"
     guidetolerance="10"
     inkscape:pageopacity="0"
     inkscape:pageshadow="2"
     inkscape:window-width="1268"
     inkscape:window-height="680"
     id="namedview12"
     showgrid="false"
     inkscape:zoom="4.72"
     inkscape:cx="59.216102"
     inkscape:cy="67.266949"
     inkscape:window-x="204"
     inkscape:window-y="152"
     inkscape:window-maximized="0"
     inkscape:current-layer="svg10"
     inkscape:pagecheckerboard="0"
     fit-margin-top="0"
     fit-margin-left="0"
     fit-margin-right="0"
     fit-margin-bottom="0" />
  <!-- Generator: Sketch 54.1 (76490) - https://sketchapp.com -->
  <title
     id="title2">uniswap</title>
  <desc
     id="desc4">Created with Sketch.</desc>
  <circle
     id="Oval"
     cx="50"
     cy="50"
     style="fill:#ffffff;fill-opacity:1;fill-rule:evenodd;stroke:none;stroke-width:1"
     r="50" />
  <path
     style="fill:#000000;stroke-width:0.78125"
     d="M 41.23068,76.218667 C 34.700886,73.220174 33.109758,69.315268 33.061846,56.17096 l -0.03429,-9.40765 -3.580096,-3.482975 c -4.34393,-4.226089 -6.874317,-8.829272 -6.240865,-11.353144 0.425311,-1.694572 0.905353,-1.846845 6.487907,-2.058026 l 6.028613,-0.228056 0.588695,-3.515625 c 1.436933,-8.581211 11.007492,-8.261681 11.700003,0.390625 l 0.250118,3.125 h 3.515625 3.515625 l 0.459756,-3.445317 c 1.150428,-8.621071 11.096104,-8.350864 11.790125,0.320317 l 0.250118,3.125 5.311991,0.231887 c 5.929185,0.258829 6.509818,0.797867 5.671701,5.265416 -0.352953,1.881403 -1.828475,4.063512 -4.667259,6.902296 l -4.151133,4.151134 -0.35815,10.560182 c -0.328404,9.683096 -0.530961,10.855057 -2.438796,14.110533 -3.028604,5.167922 -6.892667,6.830235 -15.825951,6.808274 -5.089341,-0.0125 -7.826335,-0.405844 -10.104903,-1.452164 z m 18.771829,-4.932782 c 2.551967,-1.16275 4.275046,-4.38682 4.275046,-7.99907 0,-2.524516 -0.330835,-2.927655 -3.877411,-4.724841 -8.22685,-4.168861 -12.96719,-10.832772 -13.860115,-19.484379 l -0.45597,-4.417921 -6.33294,0.225093 c -6.204064,0.220512 -6.337818,0.267231 -6.572643,2.295787 -0.164825,1.423856 0.506299,2.920344 2.148438,4.790637 2.375737,2.705816 2.388163,2.768096 2.392498,11.991805 0.0077,16.253686 1.428672,18.256241 12.954866,18.256241 4.003866,0 8.20157,-0.420008 9.328231,-0.933352 z M 42.430957,52.331582 c -1.187029,-1.430283 -0.41132,-2.768597 1.604724,-2.768597 1.90206,0 2.896629,2.250811 1.410403,3.191884 -1.499579,0.949527 -1.925407,0.889746 -3.015127,-0.423287 z m 21.035059,0.412998 c 1.474658,-2.755424 -0.835853,-5.318363 -3.913849,-4.341445 -3.212151,1.019497 -2.213313,5.84735 1.209763,5.84735 1.074796,0 2.247738,-0.653211 2.704086,-1.505905 z M 44.35568,26.526808 c 0,-2.376561 -0.332761,-3.178384 -1.404718,-3.384825 -2.026154,-0.390201 -3.673407,1.282521 -3.673407,3.730203 0,2.684918 0.62282,3.288493 3.095762,3.000103 1.752126,-0.20433 1.982363,-0.592883 1.982363,-3.345481 z m 19.53125,0 c 0,-2.376561 -0.33276,-3.178384 -1.404718,-3.384825 -2.026154,-0.390201 -3.673407,1.282521 -3.673407,3.730203 0,2.684918 0.62282,3.288493 3.095762,3.000103 1.752126,-0.20433 1.982363,-0.592883 1.982363,-3.345481 z"
     id="path1111" />
</svg>
