<?xml version="1.0" encoding="UTF-8" standalone="no"?>
<svg
   width="128"
   height="128"
   viewBox="0 0 256 256"
   fill="none"
   version="1.1"
   id="svg6"
   sodipodi:docname="bprotocol1.svg"
   inkscape:version="1.1.2 (b8e25be833, 2022-02-05)"
   xmlns:inkscape="http://www.inkscape.org/namespaces/inkscape"
   xmlns:sodipodi="http://sodipodi.sourceforge.net/DTD/sodipodi-0.dtd"
   xmlns:xlink="http://www.w3.org/1999/xlink"
   xmlns="http://www.w3.org/2000/svg"
   xmlns:svg="http://www.w3.org/2000/svg">
  <defs
     id="defs10">
    <polygon
       id="path-1"
       points="0.37603442 0.491832026 21.8015076 0.491832026 21.8015076 18.9725662 0.37603442 18.9725662" />
    <polygon
       id="path-3"
       points="0.138736807 0.266976014 24.7335133 0.266976014 24.7335133 27.8069775 0.138736807 27.8069775" />
  </defs>
  <sodipodi:namedview
     id="namedview8"
     pagecolor="#ffffff"
     bordercolor="#999999"
     borderopacity="1"
     inkscape:pageshadow="0"
     inkscape:pageopacity="0"
     inkscape:pagecheckerboard="0"
     showgrid="false"
     inkscape:zoom="3.6796875"
     inkscape:cx="63.864119"
     inkscape:cy="59.10828"
     inkscape:window-width="1280"
     inkscape:window-height="658"
     inkscape:window-x="-6"
     inkscape:window-y="-6"
     inkscape:window-maximized="1"
     inkscape:current-layer="svg6" />
  <path
     d="M128 256C198.692 256 256 198.692 256 128C256 57.3075 198.692 0 128 0C57.3075 0 0 57.3075 0 128C0 198.692 57.3075 256 128 256Z"
     fill="white"
     id="path2" />
  <g
     id="Group-11"
     style="fill:none;fill-rule:evenodd;stroke:none;stroke-width:1"
     transform="matrix(3.925865,2.068309e-8,0,3.925865,18.402539,36.846537)">
    <path
       d="M 22.942052,19.919975 14.743556,11.721478 1.0409473,25.422791 c -1.38736812,1.388664 -1.38736812,3.639816 0,5.02848 L 9.2400917,38.649768 22.942052,24.948455 c 1.388664,-1.388664 1.388664,-3.639816 0,-5.02848"
       id="Fill-1"
       fill="#25c068" />
    <g
       id="Group-5"
       transform="translate(16.200001,0.156298)">
      <mask
         id="mask-2"
         fill="#ffffff">
        <use
           xlink:href="#path-1"
           id="use21"
           x="0"
           y="0"
           width="100%"
           height="100%" />
      </mask>
      <g
         id="Clip-4" />
      <path
         d="M 13.603011,17.931068 21.801508,9.7325717 13.603011,1.5327793 c -1.388664,-1.38801609 -3.6391681,-1.38801609 -5.0278321,0 L 0.37603442,9.7325717 8.5751789,17.931068 c 1.388664,1.388664 3.6391681,1.388664 5.0278321,0"
         id="Fill-3"
         fill="#25c068"
         mask="url(#mask-2)" />
    </g>
    <path
       d="m 24.775309,26.780934 -8.199144,8.198497 8.199144,8.199792 c 1.388664,1.388016 3.639168,1.388016 5.027833,0 l 8.198496,-8.199792 -8.198496,-8.198497 c -1.388665,-1.388664 -3.639169,-1.388664 -5.027833,0"
       id="Fill-6"
       fill="#25c068" />
    <g
       id="Group-10"
       transform="translate(30.456002,5.340298)">
      <mask
         id="mask-4"
         fill="#ffffff">
        <use
           xlink:href="#path-3"
           id="use28"
           x="0"
           y="0"
           width="100%"
           height="100%" />
      </mask>
      <g
         id="Clip-9" />
      <path
         d="M 23.692566,8.4654725 15.49407,0.26697601 1.1797489,14.580001 c -1.38801611,1.388016 -1.38801611,3.639816 0,5.027832 L 9.3788933,27.806977 23.692566,13.493305 c 1.388664,-1.388016 1.388664,-3.6391685 0,-5.0278325"
         id="Fill-8"
         fill="#25c068"
         mask="url(#mask-4)" />
    </g>
  </g>
</svg>
