<?xml version="1.0" encoding="UTF-8" standalone="no"?>
<svg
   width="128"
   height="128"
   viewBox="0 0 256 256"
   version="1.1"
   id="svg6"
   sodipodi:docname="brz.svg"
   inkscape:version="1.1.2 (b8e25be833, 2022-02-05)"
   xmlns:inkscape="http://www.inkscape.org/namespaces/inkscape"
   xmlns:sodipodi="http://sodipodi.sourceforge.net/DTD/sodipodi-0.dtd"
   xmlns="http://www.w3.org/2000/svg"
   xmlns:svg="http://www.w3.org/2000/svg">
  <defs
     id="defs10">
    <radialGradient
       id="paint0_radial"
       cx="0"
       cy="0"
       r="1"
       gradientUnits="userSpaceOnUse"
       gradientTransform="matrix(0,-87.407858,114.23722,0,127.94124,219.98427)">
      <stop
         offset="0.203695"
         stop-color="#56F2FF"
         id="stop12" />
      <stop
         offset="1"
         stop-color="#4A8CEA"
         id="stop14" />
    </radialGradient>
    <radialGradient
       id="paint1_radial"
       cx="0"
       cy="0"
       r="1"
       gradientUnits="userSpaceOnUse"
       gradientTransform="matrix(-0.07421765,26.461399,-50.097368,-0.14051066,128.01797,135.23596)">
      <stop
         stop-color="#EEFF83"
         id="stop17" />
      <stop
         offset="0.689596"
         stop-color="#5699EC"
         id="stop19" />
    </radialGradient>
    <radialGradient
       id="paint2_diamond"
       cx="0"
       cy="0"
       r="1"
       gradientUnits="userSpaceOnUse"
       gradientTransform="matrix(-0.08609386,30.830016,-58.131497,-0.16233419,128.00001,146.5429)">
      <stop
         stop-color="#56F2FF"
         id="stop22" />
      <stop
         offset="1"
         stop-color="#5699EC"
         id="stop24" />
    </radialGradient>
    <linearGradient
       id="paint3_linear"
       x1="191.38499"
       y1="0.097656198"
       x2="191.38499"
       y2="272.17599"
       gradientUnits="userSpaceOnUse"
       gradientTransform="matrix(0.49973041,0.17188283,0.15284493,-0.44437979,1.4365855,130.95833)">
      <stop
         offset="0.377179"
         stop-color="#FFE336"
         id="stop27" />
      <stop
         offset="1"
         stop-color="#13C0B6"
         stop-opacity="0.7"
         id="stop29" />
    </linearGradient>
    <linearGradient
       id="paint4_linear"
       x1="320.672"
       y1="0"
       x2="320.672"
       y2="272.189"
       gradientUnits="userSpaceOnUse"
       gradientTransform="matrix(0.50133695,0,0,0.46973972,-44.633556,74.126017)">
      <stop
         offset="0.408817"
         stop-color="#FF7F72"
         id="stop32" />
      <stop
         offset="1"
         stop-color="#2978EF"
         stop-opacity="0.7"
         id="stop34" />
    </linearGradient>
  </defs>
  <sodipodi:namedview
     id="namedview8"
     pagecolor="#ffffff"
     bordercolor="#999999"
     borderopacity="1"
     inkscape:pageshadow="0"
     inkscape:pageopacity="0"
     inkscape:pagecheckerboard="0"
     showgrid="false"
     fit-margin-top="0"
     fit-margin-left="0"
     fit-margin-right="0"
     fit-margin-bottom="0"
     inkscape:zoom="2.8284271"
     inkscape:cx="69.826795"
     inkscape:cy="50.734912"
     inkscape:window-width="1280"
     inkscape:window-height="658"
     inkscape:window-x="-6"
     inkscape:window-y="-6"
     inkscape:window-maximized="1"
     inkscape:current-layer="svg6" />
  <circle
     cx="128"
     cy="128"
     r="128"
     fill="#ffffff"
     id="circle2"
     style="fill:#ffffff;fill-opacity:1" />
  <g
     id="g845"
     transform="matrix(2,0,0,2,0.00907,0.4954955)">
    <path
       style="fill:#e1efdd"
       d="M 36.119871,91.619931 C 21.068301,76.560892 8.93041,63.848392 9.1467805,63.369931 9.363151,62.891469 21.798691,50.356064 36.781315,35.513477 L 64.022449,8.526953 91.756688,36.261193 119.49093,63.995432 92.002283,91.497716 C 76.883528,106.62397 64.282501,119 64,119 63.717499,119 51.171441,106.67897 36.119871,91.619931 Z M 89.584863,88.227431 114.44991,63.954862 89.224956,38.729906 64,13.50495 38.75,38.819388 13.5,64.133826 l 25,24.396832 c 13.75,13.418262 25.274458,24.300652 25.609908,24.183092 0.335449,-0.11756 11.799179,-11.13641 25.474955,-24.486319 z M 62.6875,89.354167 C 62.309375,88.976042 62,87.897917 62,86.958333 62,85.833683 60.898069,85.029614 58.774846,84.604969 50.276412,82.905282 43,73.438974 43,64.082553 43,58.324133 44.994992,52.707057 48.297728,49.166329 50.789403,46.495107 57.130356,43 59.484913,43 60.345437,43 61.477226,41.875 62,40.5 c 1.1968,-3.147822 2.784139,-3.197958 3.952537,-0.124838 0.612699,1.611522 1.979581,2.577123 4.25144,3.003326 8.18708,1.535905 15.137979,11.164509 15.054973,20.854622 -0.08278,9.663637 -7.077676,18.580635 -15.970711,20.359242 -2.17627,0.435254 -3.275117,1.284835 -3.483637,2.6934 -0.31953,2.158429 -1.947088,3.238428 -3.117102,2.068415 z M 62,64 C 62,47.315907 61.96038,47 59.868034,47 54.600383,47 48.004466,53.766783 46.546797,60.666321 45.111428,67.460312 49.986977,76.778103 56.450423,79.593404 62.120149,82.062982 62,82.40058 62,64 Z m 9.282119,15.628879 c 4.051159,-1.726177 7.179436,-5.09595 9.183573,-9.892526 L 82.02684,66 H 74.01342 66 v 7.5 c 0,4.488929 0.414371,7.5 1.032119,7.5 0.567665,0 2.480165,-0.617005 4.25,-1.371121 z M 81.453367,59.75 C 79.540318,53.433143 74.866152,48.68239 68.873103,46.963606 L 66,46.139611 V 54.069806 62 h 8.067388 c 7.901412,0 8.053368,-0.04629 7.385979,-2.25 z"
       id="path859" />
    <path
       style="fill:#d5ece5"
       d="M 35.498063,90.979516 8.5454715,63.959033 36.272736,36.231769 64,8.5045045 91.745401,36.249905 119.4908,63.995306 92.502346,90.997653 C 77.658695,105.84894 64.824662,118 63.982272,118 63.139883,118 50.321989,105.84078 35.498063,90.979516 Z M 89.594345,88.238626 114.4723,63.977253 89.236151,38.741102 64,13.50495 38.75,38.762097 13.5,64.019243 38.156314,88.624184 C 51.717286,102.1569 63.240973,113.06507 63.764507,112.86456 64.288042,112.66405 75.911468,101.58238 89.594345,88.238626 Z M 63,87.207405 C 63,85.929598 61.716305,85.071474 58.529916,84.219244 49.651527,81.844637 42.982056,72.715642 43.027539,63 43.065044,54.988628 50.175266,45.759408 57.908976,43.683578 60.591951,42.963433 62.497113,41.815041 62.775608,40.750075 63.390644,38.398172 66,38.510362 66,40.888709 c 0,1.354232 0.95704,2.068251 3.38194,2.523165 4.990636,0.936249 11.05955,5.802949 13.485353,10.813991 5.595191,11.55812 -0.683464,26.241917 -12.769079,29.862855 -2.351923,0.704654 -4.131273,1.929697 -4.42296,3.045109 C 65.051991,89.517189 63,89.573623 63,87.207405 Z M 75.272639,77.762833 C 78.111308,75.785578 82,69.298224 82,66.539838 82,65.281707 80.536432,65 74,65 h -8 v 8.44798 8.447981 l 3.25,-1.100933 c 1.7875,-0.605513 4.497688,-1.970001 6.022639,-3.032195 z M 63,63.5 C 63,43.936739 63.179223,44.337434 56.054688,47.9721 46.299349,52.948903 43.2391,64.718506 49.313671,73.897802 51.917785,77.832884 56.934889,80.938621 60.75,80.97723 62.998486,80.999985 63,80.988228 63,63.5 Z M 81.541919,59.310995 C 80.146154,53.749825 74.250175,47.853846 68.689005,46.458081 L 66,45.783184 V 53.891592 62 h 8.108408 8.108408 z"
       id="path857" />
    <path
       style="fill:#cce6cb"
       d="M 36,91.046116 8.5,64.122477 35.493055,37.061238 C 50.339235,22.177557 63.167419,10 64.000131,10 66.029029,10 118,62.076312 118,64.109321 118,65.516868 66.368909,117.06699 64.31037,117.71475 63.864667,117.855 51.125,105.85412 36,91.046116 Z M 89.502512,88.997486 114.49002,63.994973 89.245011,38.749962 64,13.50495 38.754989,38.749962 13.509978,63.994973 38.497488,88.997486 C 52.240619,102.74887 63.716749,114 64,114 64.283251,114 75.759381,102.74887 89.502512,88.997486 Z M 63,87.207405 C 63,85.929598 61.716305,85.071474 58.529916,84.219244 49.651527,81.844637 42.982056,72.715642 43.027539,63 43.065044,54.988628 50.175266,45.759408 57.908976,43.683578 60.591951,42.963433 62.497113,41.815041 62.775608,40.750075 63.390644,38.398172 66,38.510362 66,40.888709 c 0,1.354232 0.95704,2.068251 3.38194,2.523165 4.990636,0.936249 11.05955,5.802949 13.485353,10.813991 5.595191,11.55812 -0.683464,26.241917 -12.769079,29.862855 -2.351923,0.704654 -4.131273,1.929697 -4.42296,3.045109 C 65.051991,89.517189 63,89.573623 63,87.207405 Z M 75.272639,77.762833 C 78.111308,75.785578 82,69.298224 82,66.539838 82,65.281707 80.536432,65 74,65 h -8 v 8.44798 8.447981 l 3.25,-1.100933 c 1.7875,-0.605513 4.497688,-1.970001 6.022639,-3.032195 z M 63,63.5 C 63,43.936739 63.179223,44.337434 56.054688,47.9721 46.299349,52.948903 43.2391,64.718506 49.313671,73.897802 51.917785,77.832884 56.934889,80.938621 60.75,80.97723 62.998486,80.999985 63,80.988228 63,63.5 Z M 81.541919,59.310995 C 80.146154,53.749825 74.250175,47.853846 68.689005,46.458081 L 66,45.783184 V 53.891592 62 h 8.108408 8.108408 z"
       id="path855" />
    <path
       style="fill:#c3e0bb"
       d="M 36.743055,91.24318 C 22.034375,76.526929 10,64.067926 10,63.556507 10,61.978825 62.404831,10.021137 64.007076,10.010245 65.963591,9.9969447 118,62.042348 118,64.012501 118,65.214405 65.029515,118 63.823401,118 63.637891,118 51.451735,105.95943 36.743055,91.24318 Z M 89.5,89 114.485,64 89.5,39 C 75.758251,25.25 64.286626,14.020377 64.007501,14.045283 63.728375,14.070189 52.067898,25.236096 38.09533,38.85841 L 12.690659,63.626254 38.09533,88.781907 C 52.067898,102.61752 63.728375,113.95161 64.007501,113.96878 64.286626,113.98595 75.758251,102.75 89.5,89 Z M 63,87.019052 C 63,85.679193 62.110025,84.831842 60.25,84.400758 52.129992,82.518847 45.223521,75.425167 43.50889,67.205856 41.581198,57.96521 48.924093,46.349921 58.274462,43.849079 61.681043,42.937957 63,42.084855 63,40.792595 63,39.806668 63.45,39 64,39 c 0.55,0 1,0.806668 1,1.792595 0,1.276218 1.28005,2.134956 4.443674,2.981097 8.272646,2.212595 15.482259,11.081822 15.534364,19.110288 0.06211,9.570705 -6.66084,18.791507 -15.284198,20.962894 C 66.074843,84.758148 65,85.483479 65,87.014398 65,88.106479 64.55,89 64,89 63.45,89 63,88.108573 63,87.019052 Z M 63,63.875 V 45.75 l -3.214138,0.642828 c -11.049859,2.209971 -17.115331,15.16333 -11.892272,25.39701 2.29847,4.503452 4.565769,6.644316 9.136163,8.626687 C 63.20462,83.094823 63,83.661756 63,63.875 Z m 7.768471,16.577272 C 77.013593,77.842894 82,71.892601 82,67.04966 82,65.144204 81.40198,65 73.5,65 H 65 v 7.833333 C 65,79.749876 65.416998,82 66.698785,82 c 0.200999,0 2.032358,-0.696478 4.069686,-1.547728 z M 82,60.386155 C 82,54.999171 72.718269,46 67.162142,46 65.126131,46 65,46.466689 65,54 v 8 h 8.5 c 7.155385,0 8.5,-0.255294 8.5,-1.613845 z"
       id="path853" />
    <path
       style="fill:#bddebe"
       d="m 41.618584,96.118676 c -13.206392,-13.216634 -21.667837,-22.4233 -21.368059,-23.25 0.314689,-0.867822 8.415528,6.492958 22.137044,20.114697 L 64.028304,114.46675 89.261677,89.233373 114.49505,64 89.334263,38.839213 64.173476,13.678427 43.080573,34.089213 C 31.479476,45.315146 21.540444,54.65 20.993835,54.833333 17.672536,55.947301 22.333708,50.555916 41.202396,31.45893 52.863714,19.656519 63.104399,10 63.959472,10 65.954333,10 118,62.018675 118,64.012501 118,65.215418 65.028988,118 63.821822,118 63.635444,118 53.643987,108.1534 41.618584,96.118676 Z"
       id="path851" />
    <path
       style="fill:#acdac7"
       d="m 55.661968,110.16292 c -4.285111,-4.31039 -7.887208,-8.47289 -8.00466,-9.25 C 47.539856,100.13582 47.058142,98.825 46.586831,98 c -0.471311,-0.825 3.257987,2.54474 8.287329,7.48832 l 9.144257,8.98831 L 89.256733,89.238316 114.49505,64 89.303613,38.808564 64.112177,13.617128 55.053901,21.896052 C 50.071849,26.44946 46.305795,29.348106 46.684892,28.337488 47.781124,25.415091 62.268479,10 63.918764,10 65.896561,10 118,62.006322 118,63.980432 118,65.214173 65.04459,118 63.806886,118 c -0.194594,0 -3.859807,-3.52668 -8.144918,-7.83708 z"
       id="path849" />
    <path
       style="fill:#97d2cc"
       d="m 80,99.739284 c 0,-0.693395 7.781698,-9.032885 17.292663,-18.532201 L 114.58533,63.935598 98.267789,47.217799 C 89.293144,38.02301 81.226275,29.16849 80.341414,27.541089 79.456553,25.913688 87.567746,33.088884 98.366288,43.485969 109.16483,53.883054 118,62.869126 118,63.455017 118,64.638465 81.914588,101 80.740126,101 80.333057,101 80,100.43268 80,99.739284 Z"
       id="path847" />
  </g>
</svg>
