<svg width="24" height="24" viewBox="0 0 24 24" fill="none" xmlns="http://www.w3.org/2000/svg">
<path d="M24 12C24 5.37258 18.6274 2.2213e-07 12 1.43099e-07C5.37258 6.40674e-08 2.2213e-07 5.37258 1.43099e-07 12C6.40674e-08 18.6274 5.37258 24 12 24C18.6274 24 24 18.6274 24 12Z" fill="white"/>
<path d="M17.9104 9.92255C18.2402 9.92255 18.5075 9.65525 18.5075 9.32553C18.5075 8.99581 18.2402 8.72852 17.9104 8.72852C17.5807 8.72852 17.3134 8.99581 17.3134 9.32553C17.3134 9.65525 17.5807 9.92255 17.9104 9.92255Z" fill="#F09A3A"/>
<path d="M11.9403 0C5.34925 0 0 5.34925 0 11.9403C0 18.5313 5.34925 23.8806 11.9403 23.8806C18.5313 23.8806 23.8806 18.5313 23.8806 11.9403C23.8806 5.34925 18.5313 0 11.9403 0ZM17.3612 16.9313C15.9522 18.4836 13.9463 19.3791 11.8687 19.3791H11.8567C9.74328 19.3791 7.72537 18.4716 6.31642 16.8955C4.88358 15.2955 4.22687 13.2418 4.45373 11.1045C4.82388 7.68955 7.57015 4.93134 10.9851 4.53731C11.2716 4.50149 11.5701 4.48955 11.8567 4.48955C13.5045 4.48955 15.0806 5.02687 16.394 6.04179C16.4776 6.10149 16.5254 6.19701 16.5254 6.30448C16.5254 6.41194 16.4896 6.50746 16.406 6.5791L15.6179 7.28358C15.5343 7.35522 15.4269 7.40299 15.3075 7.40299C15.2119 7.40299 15.1164 7.3791 15.0448 7.3194C14.1015 6.66269 12.991 6.31642 11.8567 6.31642C10.2567 6.31642 8.72836 7.00896 7.66567 8.20299C6.59104 9.40896 6.08955 10.9731 6.2806 12.5851C6.56716 15.1522 8.64478 17.2299 11.2239 17.5164C11.4388 17.5403 11.6537 17.5522 11.8687 17.5522C13.3731 17.5522 14.7821 16.9552 15.8567 15.8806C15.9403 15.797 16.0597 15.7373 16.191 15.7373C16.2746 15.7373 16.3701 15.7612 16.4418 15.809L17.3134 16.3821C17.397 16.4418 17.4567 16.5254 17.4687 16.6328C17.4687 16.7522 17.4328 16.8597 17.3612 16.9313ZM17.9104 11.1284C16.9194 11.1284 16.1075 10.3164 16.1075 9.32537C16.1075 8.33433 16.9194 7.52239 17.9104 7.52239C18.9015 7.52239 19.7134 8.33433 19.7134 9.32537C19.7134 10.3164 18.9015 11.1284 17.9104 11.1284Z" fill="url(#paint0_linear)"/>
<path d="M12 0.5C18.3513 0.5 23.5 5.64872 23.5 12C23.5 18.3513 18.3513 23.5 12 23.5C5.64873 23.5 0.5 18.3513 0.5 12C0.5 5.64872 5.64873 0.5 12 0.5Z" stroke="black" stroke-opacity="0.097"/>
<defs>
<linearGradient id="paint0_linear" x1="19.4189" y1="1.85469" x2="5.55224" y2="22.1214" gradientUnits="userSpaceOnUse">
<stop stop-color="#F3BC4D"/>
<stop offset="1" stop-color="#E95B16"/>
</linearGradient>
</defs>
</svg>
