<?xml version="1.0" encoding="UTF-8" standalone="no"?>
<svg
   width="128"
   height="128"
   viewBox="0 0 100 100.00018"
   version="1.1"
   id="svg8"
   sodipodi:docname="comp(white).svg"
   style="fill:none"
   inkscape:version="1.1.2 (b8e25be833, 2022-02-05)"
   xmlns:inkscape="http://www.inkscape.org/namespaces/inkscape"
   xmlns:sodipodi="http://sodipodi.sourceforge.net/DTD/sodipodi-0.dtd"
   xmlns="http://www.w3.org/2000/svg"
   xmlns:svg="http://www.w3.org/2000/svg"
   xmlns:rdf="http://www.w3.org/1999/02/22-rdf-syntax-ns#"
   xmlns:cc="http://creativecommons.org/ns#"
   xmlns:dc="http://purl.org/dc/elements/1.1/">
  <metadata
     id="metadata14">
    <rdf:RDF>
      <cc:Work
         rdf:about="">
        <dc:format>image/svg+xml</dc:format>
        <dc:type
           rdf:resource="http://purl.org/dc/dcmitype/StillImage" />
      </cc:Work>
    </rdf:RDF>
  </metadata>
  <defs
     id="defs12" />
  <sodipodi:namedview
     pagecolor="#ffffff"
     bordercolor="#666666"
     borderopacity="1"
     objecttolerance="10"
     gridtolerance="10"
     guidetolerance="10"
     inkscape:pageopacity="0"
     inkscape:pageshadow="2"
     inkscape:window-width="1280"
     inkscape:window-height="658"
     id="namedview10"
     showgrid="false"
     fit-margin-top="0"
     fit-margin-left="0"
     fit-margin-right="0"
     fit-margin-bottom="0"
     inkscape:zoom="4.17193"
     inkscape:cx="74.785531"
     inkscape:cy="61.482336"
     inkscape:window-x="-6"
     inkscape:window-y="-6"
     inkscape:window-maximized="1"
     inkscape:current-layer="g823"
     inkscape:pagecheckerboard="0" />
  <g
     id="g823"
     transform="matrix(5.4302507,0,0,5.4302507,-3.8817821,-5.1332811)">
    <path
       style="fill:#ffffff"
       id="path2"
       d="m 9.92255,19.3607 c 5.08525,0 9.20765,-4.1224 9.20765,-9.2077 0,-5.08526 -4.1224,-9.207688 -9.20765,-9.207688 -5.08528,0 -9.207706,4.122428 -9.207706,9.207688 0,5.0853 4.122426,9.2077 9.207706,9.2077 z"
       inkscape:connector-curvature="0" />
    <path
       id="path6"
       d="M 6.03371,13.2405 C 5.75829,13.0721 5.58984,12.7721 5.58984,12.45 v -1.7988 c 0,-0.0689 0.01845,-0.1353 0.05287,-0.1943 0.10697,-0.1844 0.34427,-0.2471 0.5287,-0.1389 l 4.05989,2.3668 c 0.2373,0.1389 0.3837,0.3922 0.3837,0.6676 v 1.864 c 0,0.0848 -0.0234,0.1696 -0.0677,0.2422 -0.134,0.2188 -0.4192,0.2877 -0.6381,0.1537 z M 12.0855,9.82495 c 0.2373,0.13894 0.3836,0.39225 0.3836,0.66765 v 3.782 c 0,0.1119 -0.0603,0.2151 -0.1574,0.2692 l -0.8889,0.5004 c -0.0111,0.0062 -0.0234,0.0111 -0.0357,0.0148 v -2.1 c 0,-0.2717 -0.1426,-0.5238 -0.3762,-0.664 L 7.44521,10.1618 V 7.79133 c 0,-0.06885 0.01845,-0.13524 0.05287,-0.19426 0.10697,-0.18443 0.34427,-0.24713 0.5287,-0.13894 z m 1.7767,-2.79346 c 0.2385,0.13771 0.3848,0.39345 0.3848,0.66886 v 5.52425 c 0,0.1131 -0.0627,0.2176 -0.1623,0.2717 l -0.8422,0.4549 v -3.8459 c 0,-0.27174 -0.1427,-0.52256 -0.375,-0.66273 L 9.22312,7.25649 V 5.00771 c 0,-0.06885 0.01844,-0.13525 0.05164,-0.19426 0.10697,-0.18443 0.34427,-0.24713 0.5287,-0.14017 z"
       inkscape:connector-curvature="0"
       style="clip-rule:evenodd;fill:#00d395;fill-rule:evenodd" />
  </g>
</svg>
