<?xml version="1.0" encoding="UTF-8" standalone="no"?>
<svg
   width="128"
   height="128"
   viewBox="0 0 256 256"
   version="1.1"
   id="svg6"
   sodipodi:docname="crbtc.svg"
   inkscape:version="1.1.2 (b8e25be833, 2022-02-05)"
   xmlns:inkscape="http://www.inkscape.org/namespaces/inkscape"
   xmlns:sodipodi="http://sodipodi.sourceforge.net/DTD/sodipodi-0.dtd"
   xmlns="http://www.w3.org/2000/svg"
   xmlns:svg="http://www.w3.org/2000/svg">
  <defs
     id="defs10">
    <radialGradient
       id="paint0_radial"
       cx="0"
       cy="0"
       r="1"
       gradientUnits="userSpaceOnUse"
       gradientTransform="matrix(0,-87.407858,114.23722,0,127.94124,219.98427)">
      <stop
         offset="0.203695"
         stop-color="#56F2FF"
         id="stop12" />
      <stop
         offset="1"
         stop-color="#4A8CEA"
         id="stop14" />
    </radialGradient>
    <radialGradient
       id="paint1_radial"
       cx="0"
       cy="0"
       r="1"
       gradientUnits="userSpaceOnUse"
       gradientTransform="matrix(-0.07421765,26.461399,-50.097368,-0.14051066,128.01797,135.23596)">
      <stop
         stop-color="#EEFF83"
         id="stop17" />
      <stop
         offset="0.689596"
         stop-color="#5699EC"
         id="stop19" />
    </radialGradient>
    <radialGradient
       id="paint2_diamond"
       cx="0"
       cy="0"
       r="1"
       gradientUnits="userSpaceOnUse"
       gradientTransform="matrix(-0.08609386,30.830016,-58.131497,-0.16233419,128.00001,146.5429)">
      <stop
         stop-color="#56F2FF"
         id="stop22" />
      <stop
         offset="1"
         stop-color="#5699EC"
         id="stop24" />
    </radialGradient>
    <linearGradient
       id="paint3_linear"
       x1="191.38499"
       y1="0.097656198"
       x2="191.38499"
       y2="272.17599"
       gradientUnits="userSpaceOnUse"
       gradientTransform="matrix(0.49973041,0.17188283,0.15284493,-0.44437979,1.4365855,130.95833)">
      <stop
         offset="0.377179"
         stop-color="#FFE336"
         id="stop27" />
      <stop
         offset="1"
         stop-color="#13C0B6"
         stop-opacity="0.7"
         id="stop29" />
    </linearGradient>
    <linearGradient
       id="paint4_linear"
       x1="320.672"
       y1="0"
       x2="320.672"
       y2="272.189"
       gradientUnits="userSpaceOnUse"
       gradientTransform="matrix(0.50133695,0,0,0.46973972,-44.633556,74.126017)">
      <stop
         offset="0.408817"
         stop-color="#FF7F72"
         id="stop32" />
      <stop
         offset="1"
         stop-color="#2978EF"
         stop-opacity="0.7"
         id="stop34" />
    </linearGradient>
  </defs>
  <sodipodi:namedview
     id="namedview8"
     pagecolor="#ffffff"
     bordercolor="#999999"
     borderopacity="1"
     inkscape:pageshadow="0"
     inkscape:pageopacity="0"
     inkscape:pagecheckerboard="0"
     showgrid="false"
     fit-margin-top="0"
     fit-margin-left="0"
     fit-margin-right="0"
     fit-margin-bottom="0"
     inkscape:zoom="2.8284271"
     inkscape:cx="69.826795"
     inkscape:cy="64.877048"
     inkscape:window-width="1268"
     inkscape:window-height="680"
     inkscape:window-x="0"
     inkscape:window-y="0"
     inkscape:window-maximized="0"
     inkscape:current-layer="svg6" />
  <circle
     cx="128"
     cy="128"
     r="128"
     fill="#ffffff"
     id="circle2"
     style="fill:#ffffff;fill-opacity:1" />
  <g
     id="g845"
     transform="matrix(1.9926874,0,0,1.992687,-21.580885,-34.619628)">
    <path
       style="fill:#a2d3f5"
       d="M 62.130856,141.459 C 34.004712,135.3561 14.068163,110.49598 14.014781,81.460099 13.967167,55.561344 31.564749,31.278906 55.968038,23.56991 71.170712,18.767388 86.462596,19.519987 100,25.73697 c 7.14505,3.281325 16.96089,10.134314 16.98481,11.858042 0.008,0.602257 -0.86184,1.88871 -1.93376,2.858785 -1.8789,1.700382 -2.10684,1.634389 -6.34222,-1.836188 C 103.44704,34.305965 93.492638,29.66379 86.200779,28.121112 58.345885,22.228085 30.751375,39.171617 22.279788,67.369764 c -0.929283,3.093169 -1.534459,8.911478 -1.5241,14.653078 0.02842,15.749999 5.403043,28.101088 17.071488,39.230898 11.037425,10.52792 24.389079,15.33587 40.172138,14.46605 C 86.991301,135.22423 97,132.74875 97,131.0203 c 0,-0.43543 -0.672228,-2.08062 -1.493839,-3.65599 -0.821612,-1.57537 -1.496612,-4.40351 -1.5,-6.28476 -0.0052,-2.87123 0.957265,-4.35444 5.993839,-9.23711 3.3,-3.19915 6,-6.32755 6,-6.95199 0,-0.84426 0.34892,-0.84576 1.36097,-0.006 1.70402,1.41421 6.97945,-0.61729 11.51625,-4.43476 2.90105,-2.441073 3.17113,-2.495988 3.87072,-0.787019 0.41363,1.010439 0.73728,5.212159 0.71922,9.337159 -0.0412,9.41827 -2.40826,14.31662 -9.73134,20.13818 -14.426946,11.46884 -33.997465,16.14136 -51.604964,12.32082 z m 49.599564,-18.77916 c 0.82685,-2.49845 0.9418,-4.94162 0.35045,-7.44886 L 111.2009,111.5 l -0.10045,4.81574 c -0.11667,5.59348 -1.2586,8.26296 -4.94465,11.55918 l -2.6558,2.37491 3.5,-1.92605 c 2.39218,-1.31641 3.88945,-3.10284 4.73042,-5.64394 z M 65.324227,107.36246 C 52.401638,102.78347 44.612316,87.725167 48.409569,74.663074 52.769105,59.6668 68.043033,50.996544 82.23679,55.461028 c 2.997657,0.942879 6.729748,2.734534 8.293537,3.981455 l 2.843252,2.26713 -2.160508,2.746641 c -1.18828,1.510652 -2.447416,4.275989 -2.79808,6.145193 -0.668071,3.561123 -2.096231,4.1747 -5.489744,2.358547 -1.438072,-0.769633 -1.782757,-1.679539 -1.32585,-3.5 C 82.341285,66.504077 80.425409,66.084294 79.5,69 c -0.972442,3.063893 -3.688042,2.597399 -2.910644,-0.5 0.408632,-1.628122 0.208251,-2.5 -0.574568,-2.5 -0.661115,0 -1.443374,0.922911 -1.738353,2.050914 -0.437823,1.674238 -1.063449,1.935139 -3.406381,1.420545 -3.177149,-0.697819 -3.609799,0.05365 -1.422446,2.470649 2.141152,2.365945 -1.184934,15.549064 -3.92434,15.554332 -2.936752,0.0056 -2.938913,2.361136 -0.0028,3.098043 2.140927,0.537338 2.573803,1.132255 2.209711,3.036881 C 67.433207,95.184656 67.745947,96 68.638672,96 69.387402,96 70,95.1 70,94 c 0,-1.151589 0.666667,-2 1.571566,-2 1.115794,0 1.478307,0.772226 1.25,2.662749 -0.393947,3.262104 1.893352,4.37581 2.351331,1.144883 0.274935,-1.939602 0.836428,-2.258764 3.520688,-2.001217 5.419671,0.520002 9.638208,-6.074622 6.130044,-9.582786 -0.901829,-0.901829 -0.820612,-1.590303 0.348,-2.95 0.838405,-0.975496 1.801717,-2.556095 2.140694,-3.512443 0.504128,-1.422282 1.089765,-1.558811 3.217099,-0.75 C 91.95985,77.555034 95.188404,78 97.703988,78 h 4.573792 l -0.52936,5.83785 c -0.64215,7.081714 -2.658072,11.306349 -8.074755,16.92171 -7.129609,7.39112 -18.591168,10.06065 -28.349438,6.6029 z M 72.484921,88.975601 C 71.922624,88.065785 72.74464,82 73.430232,82 c 0.149227,0 1.670085,0.487612 3.379685,1.083581 3.083425,1.074888 4.893792,3.968776 3.695614,5.90747 -0.815571,1.319622 -7.203095,1.307317 -8.02061,-0.01545 z m 3.179224,-8.681461 c -1.434797,-0.370339 -1.690113,-1.054539 -1.168716,-3.131949 0.867359,-3.455835 0.955863,-3.516724 4.000821,-2.752488 3.090146,0.775577 4.19976,3.04673 2.493181,5.103032 -1.254017,1.510997 -2.047533,1.627434 -5.325286,0.781405 z m 17.903458,-5.184756 c -0.302737,-0.489839 0.585045,-1.634608 1.972849,-2.543932 3.461093,-2.267796 2.130642,-3.963848 -1.597203,-2.036105 C 91.276803,71.90822 91,71.900641 91,70.448757 c 0,-0.881432 1.315385,-2.917988 2.923077,-4.52568 3.107521,-3.107522 8.319493,-3.933991 12.088483,-1.916888 1.59744,0.854923 1.72368,1.454868 0.83968,3.99069 -0.57222,1.641475 -2.38236,4.11369 -4.02254,5.493811 -2.93315,2.468078 -8.170406,3.383469 -9.261097,1.618694 z"
       id="path859" />
    <path
       style="fill:#5eb0ee"
       d="M 67.944144,141.81766 C 34.157627,138.73811 9.0103704,105.26868 15.061122,71.433659 19.34448,47.481678 36.974354,28.485011 60.460099,22.515032 63.738153,21.681765 70.234403,21 74.89621,21 c 14.141013,0 25.694,3.805422 36.8458,12.136582 4.70929,3.518166 5.11675,4.116714 4.00945,5.889781 C 115.07356,40.111863 114.12848,41 113.6513,41 113.17411,41 109.42392,38.75285 105.31754,36.006333 95.062866,29.147592 89.190663,27.5 75,27.5 61.049105,27.5 54.727482,29.287 44.521785,36.115599 35.999126,41.818083 29.841252,49.082321 25.315053,58.773138 11.113953,89.178395 27.748073,125.01414 60.5,134.57389 c 8.462723,2.47013 22.013974,2.24068 30.75,-0.52066 3.7125,-1.17348 6.75,-2.24536 6.75,-2.38197 0,-0.13661 -0.9,-2.01367 -2,-4.17126 -3.461979,-6.79047 -2.616889,-9.28255 5.84236,-17.22846 5.97197,-5.60957 6.35087,-5.5757 8.14848,0.72846 2.24219,7.86334 0.0596,14.16955 -6.2317,18.0054 -1.86539,1.13734 -2.574,1.98872 -1.65702,1.99086 2.38348,0.006 8.18158,-4.20346 9.67898,-7.02628 1.58084,-2.9801 0.96862,-10.6195 -1.18476,-14.78367 -1.50975,-2.91954 -1.50833,-2.92225 2.48129,-4.72132 2.19555,-0.99005 5.0831,-2.81138 6.41678,-4.04739 l 2.42487,-2.247292 0.67834,2.137262 c 1.17788,3.71119 0.65502,15.15202 -0.85796,18.77309 -4.27157,10.22329 -23.314365,21.27262 -39.23966,22.76828 -3.85,0.36158 -10.400135,0.3475 -14.555856,-0.0313 z M 67.698727,107.62537 C 61.203779,105.80966 55.11861,101.23682 51.5,95.452467 48.986544,91.434705 48.445826,89.427874 48.165969,83.078481 47.665291,71.719091 51.267698,64.821835 61.09964,58.315364 c 7.574871,-5.012813 22.242796,-4.261274 29.74071,1.52382 l 2.34035,1.805721 -2.59035,3.817094 C 89.165658,67.561401 88,70.08974 88,71.08053 c 0,2.497826 -1.569607,3.220177 -4.078989,1.877196 -1.521553,-0.81431 -1.990143,-1.815754 -1.659339,-3.546244 C 82.83591,66.407551 80.067911,66.024303 79.289749,69 c -0.751325,2.873072 -2.10363,2.463005 -2.473327,-0.75 -0.38096,-3.310892 -2.188237,-3.652616 -2.636175,-0.498455 -0.258824,1.822508 -0.772012,2.138035 -2.693165,1.655857 -3.413887,-0.856831 -5.28554,0.535583 -2.983028,2.219221 1.683334,1.230884 1.710818,1.785188 0.40149,8.097356 -1.206432,5.816116 -1.732564,6.822374 -3.713999,7.103232 -2.996238,0.424701 -2.530765,3.550259 0.595074,3.9958 1.774561,0.252937 2.206225,0.881003 1.989785,2.895108 -0.331258,3.08255 1.927376,4.307675 2.396493,1.299902 0.440693,-2.825535 2.404211,-2.120742 2.039254,0.731979 -0.363805,2.843712 2.341852,3.063498 3.077598,0.25 0.395096,-1.51085 1.364016,-2 3.961644,-2 2.061299,0 4.101532,-0.732496 5.093619,-1.828741 1.819133,-2.010119 2.2429,-7.689875 0.647317,-8.676 -0.624701,-0.386087 -0.434675,-1.195771 0.5,-2.130445 C 86.321548,80.535595 87,79.158036 87,78.303571 c 0,-1.248686 0.637806,-1.398005 3.25,-0.76087 1.7875,0.435986 5.05,0.89066 7.25,1.010386 l 4,0.217683 -0.19601,4.864615 C 100.64278,100.04546 83.742134,112.11043 67.698727,107.62537 Z M 73.19201,89.13983 C 71.290097,87.933613 72.740984,83 74.997624,83 c 0.979444,0 2.828566,0.848423 4.109159,1.885384 1.99611,1.616352 2.13714,2.115781 0.988339,3.5 -1.440159,1.735287 -4.780876,2.100396 -6.903112,0.754446 z M 74.393011,78.418213 C 74.726855,77.548229 75,76.198229 75,75.418213 75,73.568132 77.004368,73.614331 79.735608,75.527366 82.834432,77.697867 81.573593,80 77.286022,80 74.505323,80 73.910767,79.67492 74.393011,78.418213 Z M 95.25,73.279275 C 96.7625,72.320895 98,70.91351 98,70.151752 c 0,-1.364259 -1.327129,-1.269875 -5.35106,0.380564 -1.752059,0.718617 -1.767952,0.598509 -0.297159,-2.245693 1.943761,-3.758818 6.46522,-5.731137 11.131549,-4.855727 4.22803,0.793182 4.54221,2.747109 1.23349,7.671221 -2.02438,3.012719 -2.8462,3.427456 -7.250004,3.658775 L 92.5,75.021784 Z"
       id="path857" />
    <path
       style="fill:#0591f8"
       d="M 57.847564,139.62761 C 37.807693,133.69553 21.586365,116.9767 16.36776,96.875647 14.349612,89.10213 14.153654,75.435966 15.953714,68 22.648121,40.345714 47.09423,20.957898 75.197405,21.014781 c 13.188268,0.02669 24.760674,3.891839 36.219155,12.097077 l 5.77829,4.13774 -2.02031,2.020307 -2.02031,2.020308 -3.96757,-3.142374 C 107.0045,36.419534 101.9073,33.436879 97.859546,31.519717 71.200989,18.893258 38.365821,30.689402 25.542104,57.5 c -10.408324,21.760725 -6.24519,45.95775 10.825142,62.91804 8.351606,8.29777 16.68022,12.87545 27.632754,15.18789 9.057704,1.91237 20.094279,1.28606 28.53968,-1.61958 C 95.715062,132.89386 99.000577,132 99.840826,132 c 3.054394,0 9.744834,-4.02857 11.431014,-6.88305 2.06594,-3.49735 2.15893,-9.16139 0.23889,-14.55083 C 110.03778,106.43165 110.26882,105 112.40898,105 c 0.71002,0 3.11994,-1.32492 5.35538,-2.94426 3.34491,-2.423043 4.16811,-2.67411 4.65004,-1.41822 0.95931,2.49991 0.65478,12.5662 -0.51012,16.86248 -2.25248,8.30737 -17.65448,19.24577 -32.364379,22.98497 -8.84363,2.24801 -22.4447,1.88007 -31.692337,-0.85736 z m 38.868044,-11.5319 C 95.772023,126.49835 95,123.52506 95,121.4884 c 0,-3.15893 0.844862,-4.56786 5.75,-9.589 3.1625,-3.23728 6.03291,-5.88899 6.37868,-5.89268 1.367,-0.0146 3.24442,6.58048 3.17542,11.1547 -0.0841,5.57655 -2.04306,9.0989 -6.60843,11.88258 -4.22835,2.57819 -4.955255,2.47943 -6.980062,-0.94829 z M 63.492721,105.64869 C 58.319652,103.23971 53.336277,98.368706 50.282667,92.736502 49.025626,90.417964 48.527934,87.230974 48.527934,81.5 c 0,-8.732458 1.106092,-11.735712 6.646086,-18.045416 6.92552,-7.887732 19.755742,-10.691338 29.582095,-6.464155 7.406437,3.186164 7.770272,3.913744 4.77455,9.547923 C 88.138799,69.156091 87,71.905856 87,72.648939 c 0,1.702504 -0.994401,1.670564 -3.340696,-0.107304 -1.198009,-0.907771 -1.624047,-2.07736 -1.220199,-3.349772 0.411175,-1.295497 0.07321,-2.165029 -1.001844,-2.577565 -1.096569,-0.420793 -1.792191,0.02695 -2.146433,1.381576 -0.715226,2.735027 -2.493017,2.548075 -2.103686,-0.221224 C 77.395337,66.293766 76.914557,65.43289 75.75,65.201326 74.520654,64.95688 74,65.489232 74,66.990646 c 0,1.805594 -0.499778,2.088567 -3.220303,1.823324 -2.42222,-0.236159 -3.307791,0.11973 -3.573324,1.43603 -0.2168,1.074723 0.254081,1.75 1.220303,1.75 1.958201,0 1.954985,0.569569 -0.04825,8.544484 C 67.14735,85.445423 66.330267,87 64.985415,87 63.181556,87 61.649746,89.316413 62.735568,90.402234 63.064339,90.731005 64.158333,91 65.166667,91 66.537037,91 67,91.757576 67,94 c 0,3.4612 2.492793,4.173427 3.5,1 0.91164,-2.872323 2.31266,-2.470827 1.744751,0.5 -0.592506,3.099492 2.289695,3.542193 3.255249,0.5 0.468912,-1.477411 1.513034,-2 3.995959,-2 5.178663,0 8.749794,-4.803773 6.582134,-8.854081 -1.460205,-2.728419 1.445458,-8.566424 3.778178,-7.591045 0.904051,0.37801 3.781229,0.915057 6.393729,1.193438 l 4.75,0.506147 v 4.289865 c 0,9.309773 -7.656466,19.787686 -16.714692,22.874126 -6.79875,2.31657 -14.801147,2.02031 -20.792587,-0.76976 z M 74.248455,89.294065 c -1.879073,-0.361846 -2.145303,-0.876963 -1.609324,-3.113818 0.851256,-3.552629 0.813004,-3.529465 4.048369,-2.451547 3.082631,1.027031 4.290132,4.036802 2.160893,5.38616 C 78.106777,89.584843 77.275,89.914983 77,89.848505 76.725,89.782027 75.486805,89.532529 74.248455,89.294065 Z M 75,77.559017 c 0,-3.009858 0.849285,-3.570121 3.75,-2.473828 C 80.066266,75.582657 81,76.77891 81,77.967776 81,79.559136 80.34919,80 78,80 75.486009,80 75,79.604554 75,77.559017 Z M 95.25,73.241774 C 96.7625,72.304019 98,70.91351 98,70.151752 c 0,-1.364259 -1.327129,-1.269875 -5.35106,0.380564 -1.752059,0.718617 -1.767952,0.598509 -0.297159,-2.245693 1.959336,-3.788937 6.256022,-5.638427 11.021919,-4.744339 4.02348,0.754809 4.43071,2.001485 2.11595,6.477732 -1.90106,3.676241 -4.32895,4.987161 -9.173909,4.953375 L 92.5,74.946781 Z"
       id="path855" />
    <path
       style="fill:#0077c8"
       d="m 102.73903,125 c 3.78479,-6.37663 3.93565,-6.49735 6.26097,-5.00979 1.33168,0.85191 1.32879,1.26847 -0.0257,3.71218 -1.41532,2.55343 -7.28786,7.29761 -9.03328,7.29761 -0.419773,0 0.83934,-2.7 2.79802,-6 z m 4.28846,4.29589 c 3.25145,-2.24097 4.81055,-4.25245 5.62759,-7.26044 0.85101,-3.13304 5.5271,-9.95235 6.84492,-9.98219 6.79297,-0.15378 0.14478,14.10808 -8.20226,17.5957 -1.77843,0.74307 -4.02308,1.35104 -4.98813,1.35104 -1.39199,0 -1.24362,-0.35219 0.71788,-1.70411 z M 63.492721,105.64869 C 58.319652,103.23971 53.336277,98.368706 50.282667,92.736502 49.025626,90.417964 48.527934,87.230974 48.527934,81.5 c 0,-8.732458 1.106092,-11.735712 6.646086,-18.045416 6.92552,-7.887732 19.755742,-10.691338 29.582095,-6.464155 7.406437,3.186164 7.770272,3.913744 4.77455,9.547923 C 88.138799,69.156091 87,71.905856 87,72.648939 c 0,1.702504 -0.994401,1.670564 -3.340696,-0.107304 -1.198009,-0.907771 -1.624047,-2.07736 -1.220199,-3.349772 0.411175,-1.295497 0.07321,-2.165029 -1.001844,-2.577565 -1.096569,-0.420793 -1.792191,0.02695 -2.146433,1.381576 -0.715226,2.735027 -2.493017,2.548075 -2.103686,-0.221224 C 77.395337,66.293766 76.914557,65.43289 75.75,65.201326 74.520654,64.95688 74,65.489232 74,66.990646 c 0,1.805594 -0.499778,2.088567 -3.220303,1.823324 -2.42222,-0.236159 -3.307791,0.11973 -3.573324,1.43603 -0.2168,1.074723 0.254081,1.75 1.220303,1.75 1.958201,0 1.954985,0.569569 -0.04825,8.544484 C 67.14735,85.445423 66.330267,87 64.985415,87 63.181556,87 61.649746,89.316413 62.735568,90.402234 63.064339,90.731005 64.158333,91 65.166667,91 66.537037,91 67,91.757576 67,94 c 0,3.4612 2.492793,4.173427 3.5,1 0.91164,-2.872323 2.31266,-2.470827 1.744751,0.5 -0.592506,3.099492 2.289695,3.542193 3.255249,0.5 0.468912,-1.477411 1.513034,-2 3.995959,-2 5.178663,0 8.749794,-4.803773 6.582134,-8.854081 -1.460205,-2.728419 1.445458,-8.566424 3.778178,-7.591045 0.904051,0.37801 3.781229,0.915057 6.393729,1.193438 l 4.75,0.506147 v 4.289865 c 0,9.309773 -7.656466,19.787686 -16.714692,22.874126 -6.79875,2.31657 -14.801147,2.02031 -20.792587,-0.76976 z M 74.248455,89.294065 c -1.879073,-0.361846 -2.145303,-0.876963 -1.609324,-3.113818 0.851256,-3.552629 0.813004,-3.529465 4.048369,-2.451547 3.082631,1.027031 4.290132,4.036802 2.160893,5.38616 C 78.106777,89.584843 77.275,89.914983 77,89.848505 76.725,89.782027 75.486805,89.532529 74.248455,89.294065 Z M 75,77.559017 c 0,-3.009858 0.849285,-3.570121 3.75,-2.473828 C 80.066266,75.582657 81,76.77891 81,77.967776 81,79.559136 80.34919,80 78,80 75.486009,80 75,79.604554 75,77.559017 Z M 95.25,73.241774 C 96.7625,72.304019 98,70.91351 98,70.151752 c 0,-1.364259 -1.327129,-1.269875 -5.35106,0.380564 -1.752059,0.718617 -1.767952,0.598509 -0.297159,-2.245693 1.959336,-3.788937 6.256022,-5.638427 11.021919,-4.744339 4.02348,0.754809 4.43071,2.001485 2.11595,6.477732 -1.90106,3.676241 -4.32895,4.987161 -9.173909,4.953375 L 92.5,74.946781 Z"
       id="path853" />
    <path
       style="fill:#0370ad"
       d="m 101.7595,127.02033 c 2.66554,-3.87082 5.7405,-4.96703 5.7405,-2.04647 0,1.38424 -5.8838,6.02614 -7.63838,6.02614 -0.463437,0 0.39061,-1.79085 1.89788,-3.97967 z m 5.5259,2.29844 c 1.53196,-1.00033 3.55696,-3.49466 4.5,-5.54297 1.94617,-4.22719 1.99978,-4.25252 4.69252,-2.2171 1.55868,1.17821 1.74826,1.86032 0.89442,3.2182 -1.3918,2.21342 -6.03823,4.90667 -9.87234,5.72238 l -3,0.63825 z M 95.25,73.241774 C 96.7625,72.304019 98,70.91351 98,70.151752 c 0,-1.364259 -1.327129,-1.269875 -5.35106,0.380564 -1.752059,0.718617 -1.767952,0.598509 -0.297159,-2.245693 1.959336,-3.788937 6.256022,-5.638427 11.021919,-4.744339 4.02348,0.754809 4.43071,2.001485 2.11595,6.477732 -1.90106,3.676241 -4.32895,4.987161 -9.173909,4.953375 L 92.5,74.946781 Z"
       id="path851" />
    <path
       style="fill:#11ab45"
       d="M 95.25,73.241774 C 96.7625,72.304019 98,70.91351 98,70.151752 c 0,-1.364259 -1.327129,-1.269875 -5.35106,0.380564 -1.752059,0.718617 -1.767952,0.598509 -0.297159,-2.245693 1.959336,-3.788937 6.256022,-5.638427 11.021919,-4.744339 4.02348,0.754809 4.43071,2.001485 2.11595,6.477732 -1.90106,3.676241 -4.32895,4.987161 -9.173909,4.953375 L 92.5,74.946781 Z"
       id="path849" />
    <path
       style="fill:#006e3b"
       d="M 92.602394,68.734942 C 94.753033,64.95059 96.470057,64 101.15499,64 c 5.80702,0 6.18602,1.132619 1.09501,3.2724 -5.355623,2.251001 -10.54255,3.037321 -9.647606,1.462542 z"
       id="path847" />
  </g>
</svg>
