<svg width="24" height="24" viewBox="0 0 24 24" fill="none" xmlns="http://www.w3.org/2000/svg">
<path fill-rule="evenodd" clip-rule="evenodd" d="M12 0C18.6264 0 24 5.3736 24 12C24 18.6264 18.6264 24 12 24C5.3736 24 0 18.6264 0 12C0 5.3736 5.3736 0 12 0Z" fill="#1E1E1E"/>
<path d="M23.5 12C23.5 18.3513 18.3513 23.5 12 23.5C5.64873 23.5 0.5 18.3513 0.5 12C0.5 5.64873 5.64873 0.5 12 0.5C18.3513 0.5 23.5 5.64873 23.5 12Z" stroke="white" stroke-opacity="0.327"/>
<path d="M14.214 10.0157C14.4024 9.29044 14.572 8.62932 14.7415 7.96821C14.8546 7.51925 14.9723 7.07028 15.0854 6.61638C15.123 6.45357 15.1937 6.3845 15.3727 6.3697C15.8813 6.33023 16.39 6.3697 16.894 6.34503C17.0871 6.33516 17.1106 6.38943 17.0588 6.57691C16.4748 8.70333 15.9049 10.8347 15.3256 12.9611C15.0006 14.1452 15.3491 15.1812 16.0226 16.1038C16.5501 16.8291 17.6381 16.612 18.0338 15.7486C18.1374 15.5217 18.208 15.275 18.2645 15.0283C18.3258 14.7372 18.5377 14.8704 18.679 14.8704C18.8439 14.8655 18.7638 15.0234 18.7591 15.1122C18.7167 15.6943 18.6225 16.2667 18.3823 16.7995C18.0997 17.4261 17.6899 17.8997 16.9929 17.9786C16.244 18.0625 15.7259 17.6629 15.3256 17.0511C14.9817 16.5232 14.7981 15.9262 14.6568 15.3095C14.6379 15.2207 14.6191 15.1368 14.5861 15.0036C14.5013 15.1714 14.426 15.3046 14.36 15.4378C13.7054 16.8143 12.6598 17.658 11.2091 17.9046C9.75846 18.1513 8.38318 17.9441 7.17744 16.9919C6.24488 16.2617 5.75505 15.2355 5.46775 14.081C4.94024 11.9349 5.24639 9.91701 6.38618 8.04715C7.08324 6.90254 8.13826 6.34503 9.37696 6.08354C10.9312 5.75792 12.0804 6.40423 12.9942 7.67219C13.4934 8.36784 13.8702 9.13749 14.214 10.0157ZM10.1117 17.1597C10.5591 17.1597 10.8747 17.0708 11.1667 16.9031C11.7931 16.538 12.2123 15.9756 12.5043 15.3095C12.8953 14.4264 13.2108 13.5137 13.517 12.596C13.7525 11.8954 13.8514 11.2047 13.5264 10.5041C13.4463 10.3265 13.3945 10.139 13.3239 9.95648C12.9942 9.12762 12.5891 8.3481 11.9721 7.70672C11.5011 7.21829 10.9218 6.93214 10.2718 6.95187C9.64543 6.97161 9.09908 7.27749 8.6799 7.78566C8.18065 8.38264 7.92632 9.10296 7.79444 9.86274C7.5872 11.0666 7.54481 12.2852 7.65785 13.5038C7.7285 14.2981 7.88864 15.0727 8.26072 15.7782C8.68461 16.5873 9.30631 17.1054 10.1117 17.1597Z" fill="#FBFBFB"/>
</svg>
