<?xml version="1.0" encoding="UTF-8" standalone="no"?>
<svg
   id="Layer_1"
   data-name="Layer 1"
   viewBox="0 0 128 128"
   version="1.1"
   sodipodi:docname="doc.svg"
   width="128"
   height="128"
   inkscape:version="1.1.2 (b8e25be833, 2022-02-05)"
   xmlns:inkscape="http://www.inkscape.org/namespaces/inkscape"
   xmlns:sodipodi="http://sodipodi.sourceforge.net/DTD/sodipodi-0.dtd"
   xmlns="http://www.w3.org/2000/svg"
   xmlns:svg="http://www.w3.org/2000/svg">
  <sodipodi:namedview
     id="namedview17"
     pagecolor="#ffffff"
     bordercolor="#999999"
     borderopacity="1"
     inkscape:pageshadow="0"
     inkscape:pageopacity="0"
     inkscape:pagecheckerboard="0"
     showgrid="false"
     fit-margin-top="0"
     fit-margin-left="0"
     fit-margin-right="0"
     fit-margin-bottom="0"
     inkscape:zoom="0.46606437"
     inkscape:cx="121.22789"
     inkscape:cy="65.441605"
     inkscape:window-width="1280"
     inkscape:window-height="658"
     inkscape:window-x="-6"
     inkscape:window-y="-6"
     inkscape:window-maximized="1"
     inkscape:current-layer="Layer_1" />
  <defs
     id="defs4">
    <style
       id="style2">.cls-1{fill:#fff;}.cls-2{fill:#00a651;}</style>
  </defs>
  <circle
     class="cls-1"
     cx="63.999989"
     cy="63.999989"
     r="56.939518"
     id="circle6"
     style="stroke-width:0.128" />
  <path
     class="cls-2"
     d="m 30.11328,45.69728 q 5.1648,0 9.16224,2.23488 a 15.79776,15.79776 0 0 1 6.20672,6.1824 q 2.20928,3.94752 2.21056,8.96 0.001,5.01248 -2.21056,8.96 a 15.80544,15.80544 0 0 1 -6.20672,6.1824 q -3.99744,2.2336 -9.16224,2.2336 h -13.056 V 45.69728 Z m 6.08384,24.576 q 2.16448,-2.72768 2.16448,-7.19616 0,-4.46848 -2.15936,-7.2 Q 34.04288,53.1456 30.1184,53.1456 h -3.92704 v 19.86304 h 3.92192 q 3.92448,0 6.08384,-2.73152 z"
     id="path8"
     style="stroke-width:0.128" />
  <path
     class="cls-2"
     d="m 50.89536,74.54848 q -1.71264,-2.97984 -1.71264,-6.90304 0,-3.9232 1.71264,-6.90176 a 11.55072,11.55072 0 0 1 4.864,-4.59392 q 3.15264,-1.6128 7.37408,-1.61408 4.22144,-10e-4 7.37664,1.61792 a 11.54304,11.54304 0 0 1 4.864,4.59392 q 1.71264,2.97984 1.71392,6.90176 0.001,3.92192 -1.71392,6.90304 a 11.5328,11.5328 0 0 1 -4.864,4.59264 q -3.15264,1.61408 -7.37408,1.61408 -4.22144,0 -7.37408,-1.61408 a 11.5392,11.5392 0 0 1 -4.86656,-4.59648 z m 17.45536,-6.90304 q 0,-2.83008 -1.39136,-4.54272 Q 65.568,61.39008 63.136,61.3888 q -2.432,0 -3.82336,1.71392 -1.39136,1.71392 -1.39008,4.54272 0,2.83264 1.39008,4.544 1.39008,1.71136 3.82336,1.71264 2.432,0 3.82336,-1.71264 1.39136,-1.71264 1.39136,-4.544 z"
     id="path10"
     style="stroke-width:0.128" />
  <path
     class="cls-2"
     d="m 86.64832,47.584 q 3.8976,-2.18496 9.216,-2.18496 4.224,0 7.552,1.68832 a 13.64096,13.64096 0 0 1 5.31456,4.69248 q 1.98528,3.00544 2.28352,6.87744 h -9.1456 q -0.49792,-2.58304 -2.20928,-4.14592 -1.71136,-1.56288 -4.29568,-1.55776 -3.5264,0 -5.48736,2.78016 -1.96096,2.78016 -1.96224,7.34976 0,4.5696 1.96224,7.34976 1.96224,2.78016 5.48736,2.78016 2.58176,0 4.29568,-1.56416 1.71392,-1.56416 2.20928,-4.14592 h 9.13664 q -0.29696,3.872 -2.28352,6.87744 a 13.64096,13.64096 0 0 1 -5.31456,4.6848 q -3.328,1.68704 -7.552,1.68832 -5.31456,0 -9.216,-2.18496 A 14.80448,14.80448 0 0 1 80.66432,72.4096 q -2.08512,-3.968 -2.08512,-9.33632 0,-5.36832 2.08512,-9.33504 a 14.80832,14.80832 0 0 1 5.984,-6.15424 z"
     id="path12"
     style="stroke-width:0.128" />
  <path
     class="cls-2"
     d="M 64,7.9232 A 56.09216,56.09216 0 0 1 85.82528,115.6736 56.09216,56.09216 0 0 1 42.17728,12.33024 55.73504,55.73504 0 0 1 64,7.9232 M 64,0 C 28.6528,0 0,28.6528 0,64 0,99.3472 28.6528,128 64,128 99.3472,128 128,99.34592 128,64 128,28.65408 99.34592,0 64,0 Z"
     id="path14"
     style="stroke-width:0.128" />
</svg>
