<?xml version="1.0" encoding="UTF-8" standalone="no"?>
<svg
   xmlns:dc="http://purl.org/dc/elements/1.1/"
   xmlns:cc="http://creativecommons.org/ns#"
   xmlns:rdf="http://www.w3.org/1999/02/22-rdf-syntax-ns#"
   xmlns:svg="http://www.w3.org/2000/svg"
   xmlns="http://www.w3.org/2000/svg"
   xmlns:sodipodi="http://sodipodi.sourceforge.net/DTD/sodipodi-0.dtd"
   xmlns:inkscape="http://www.inkscape.org/namespaces/inkscape"
   width="128"   height="128"
   viewBox="0 0 100 100.00018"
   version="1.1"
   id="svg8"
   sodipodi:docname="dpi.svg"
   style="fill:none"
   inkscape:version="0.92.5 (2060ec1f9f, 2020-04-08)">
  <metadata
     id="metadata14">
    <rdf:RDF>
      <cc:Work
         rdf:about="">
        <dc:format>image/svg+xml</dc:format>
        <dc:type
           rdf:resource="http://purl.org/dc/dcmitype/StillImage" />
        <dc:title></dc:title>
      </cc:Work>
    </rdf:RDF>
  </metadata>
  <defs
     id="defs12" />
  <sodipodi:namedview
     pagecolor="#ffffff"
     bordercolor="#666666"
     borderopacity="1"
     objecttolerance="10"
     gridtolerance="10"
     guidetolerance="10"
     inkscape:pageopacity="0"
     inkscape:pageshadow="2"
     inkscape:window-width="1920"
     inkscape:window-height="1043"
     id="namedview10"
     showgrid="false"
     fit-margin-top="0"
     fit-margin-left="0"
     fit-margin-right="0"
     fit-margin-bottom="0"
     inkscape:zoom="5.9"
     inkscape:cx="26.491929"
     inkscape:cy="34.094371"
     inkscape:window-x="0"
     inkscape:window-y="0"
     inkscape:window-maximized="1"
     inkscape:current-layer="svg8"
     showguides="true"
     inkscape:guide-bbox="true"
     inkscape:snap-nodes="true" />
  <path
     style="fill:#8150e6;fill-opacity:1;stroke-width:5.43025064"
     d="M 50 0 C 22.385655 0 0 22.385764 0 50 C 0 77.614454 22.385655 100 50 100 C 53.796516 100 57.4594 99.495038 61.013672 98.693359 L 60.714844 98.392578 C 78.327569 94.419966 92.23103 81.136267 97.375 63.998047 L 97.673828 64.296875 C 99.041848 59.738419 100 55.003925 100 50 C 100 22.385764 77.614182 4.7369516e-15 50 0 z M 63.175781 29.798828 L 67.927734 34.550781 C 67.033108 33.677214 66.116555 32.852721 65.138672 32.166016 C 64.550036 31.357786 63.894855 30.582507 63.181641 29.835938 L 63.175781 29.798828 z "
     id="path903" />
  <path
     style="fill:#3c176b;fill-opacity:1;stroke-width:5.43025064"
     d="M 44.673828 63.886719 L 44.673828 65.753906 L 52.789062 65.753906 C 53.77364 65.753906 54.71526 65.671609 55.613281 65.503906 C 56.511302 65.336204 57.36627 65.083452 58.177734 64.748047 C 58.989199 64.412641 59.757513 63.993342 60.482422 63.490234 C 61.20733 62.987126 61.888992 62.40128 62.527344 61.730469 C 63.176516 61.059658 63.74359 60.334895 64.230469 59.558594 C 64.717348 58.782293 65.12268 57.954057 65.447266 57.072266 C 65.771852 56.190474 66.015441 55.25486 66.177734 54.267578 C 66.340027 53.280296 66.421875 52.24121 66.421875 51.148438 C 66.421875 50.055665 66.340027 49.014626 66.177734 48.027344 C 66.015441 47.040062 65.771852 46.106401 65.447266 45.224609 C 65.315956 44.867886 65.112948 44.55821 64.955078 44.21875 L 64.955078 54.783203 L 57.197266 61.341797 L 49.351562 63.267578 L 44.673828 63.886719 z "
     id="path901" />
  <path
     style="fill:#3c176b;fill-opacity:1;stroke-width:5.43025064"
     d="M 67.955078 34.576172 L 62.876953 29.498047 L 63.167969 31.070312 C 63.802684 31.417331 64.467278 31.697112 65.070312 32.115234 C 66.084172 32.818208 67.030767 33.672212 67.955078 34.576172 z "
     id="path899" />
  <path
     style="fill:#3c176b;fill-opacity:1;stroke-width:5.43025064"
     d="M 36.236328 65.001953 L 34.701172 65.205078 L 30.357422 68.035156 L 60.714844 98.392578 C 78.328181 94.419828 92.23146 81.135177 97.375 63.996094 L 68.746094 35.367188 C 69.671716 36.341977 70.532035 37.348232 71.246094 38.427734 C 72.049444 39.642227 72.71834 40.924453 73.253906 42.271484 C 73.789473 43.618516 74.191201 45.030195 74.458984 46.509766 C 74.726768 47.989336 74.861328 49.536328 74.861328 51.148438 C 74.861328 52.760547 74.726768 54.306787 74.458984 55.789062 C 74.191201 57.271338 73.789473 58.688574 73.253906 60.041016 C 72.71834 61.393457 72.049444 62.68169 71.246094 63.904297 C 70.442744 65.126904 69.504727 66.284181 68.433594 67.376953 C 67.37328 68.458906 66.252346 69.405332 65.070312 70.216797 C 63.888279 71.028262 62.64555 71.705117 61.341797 72.246094 C 60.038044 72.78707 58.67352 73.192402 57.248047 73.462891 C 55.822574 73.733379 54.336255 73.869141 52.789062 73.869141 L 36.236328 73.869141 L 36.236328 65.001953 z "
     id="path897" />
  <path
     style="fill:#9b74ec;fill-opacity:1;stroke-width:5.43025064"
     d="M 36.236328 65.001953 L 36.236328 73.869141 L 52.789062 73.869141 C 54.336255 73.869141 55.822574 73.733379 57.248047 73.462891 C 58.67352 73.192402 60.038044 72.78707 61.341797 72.246094 C 62.64555 71.705117 63.888279 71.028262 65.070312 70.216797 C 66.252346 69.405332 67.37328 68.458906 68.433594 67.376953 C 69.504727 66.284181 70.442744 65.126904 71.246094 63.904297 C 72.049444 62.68169 72.71834 61.393457 73.253906 60.041016 C 73.789473 58.688574 74.191201 57.271338 74.458984 55.789062 C 74.726768 54.306787 74.861328 52.760547 74.861328 51.148438 C 74.861328 49.536328 74.726768 47.989336 74.458984 46.509766 C 74.191201 45.030195 73.789473 43.618516 73.253906 42.271484 C 72.71834 40.924453 72.049444 39.642227 71.246094 38.427734 C 70.532035 37.348232 69.671716 36.341977 68.746094 35.367188 L 67.955078 34.576172 C 67.030767 33.672212 66.084172 32.818208 65.070312 32.115234 C 64.467278 31.697112 63.802684 31.417331 63.167969 31.070312 L 64.955078 40.716797 L 64.955078 44.21875 C 65.112948 44.55821 65.315956 44.867886 65.447266 45.224609 C 65.771852 46.106401 66.015441 47.040062 66.177734 48.027344 C 66.340027 49.014626 66.421875 50.055665 66.421875 51.148438 C 66.421875 52.24121 66.340027 53.280296 66.177734 54.267578 C 66.015441 55.25486 65.771852 56.190474 65.447266 57.072266 C 65.12268 57.954057 64.717348 58.782293 64.230469 59.558594 C 63.74359 60.334895 63.176516 61.059658 62.527344 61.730469 C 61.888992 62.40128 61.20733 62.987126 60.482422 63.490234 C 59.757513 63.993342 58.989199 64.412641 58.177734 64.748047 C 57.36627 65.083452 56.511302 65.336204 55.613281 65.503906 C 54.71526 65.671609 53.77364 65.753906 52.789062 65.753906 L 44.673828 65.753906 L 44.673828 63.886719 L 36.236328 65.001953 z "
     id="path876" />
  <path
     style="fill:#8150e6;stroke-width:5.43025064;fill-opacity:1"
     d="M 50 0 C 22.385655 0 0 22.385764 0 50 C 0 77.614454 22.385655 100 50 100 C 53.796516 100 57.4594 99.495038 61.013672 98.693359 L 30.65625 68.335938 L 35 65.505859 L 49.650391 63.568359 L 57.496094 61.642578 L 65.253906 55.083984 L 65.253906 41.017578 L 63.175781 29.798828 L 97.673828 64.296875 C 99.041848 59.738419 100 55.003925 100 50 C 100 22.385764 77.614182 -4.7369516e-15 50 0 z "
     id="path2" />
  <path
     style="opacity:1;fill:#3c176b;fill-opacity:1;stroke:none;stroke-width:3;stroke-linecap:round;stroke-linejoin:round;stroke-miterlimit:4;stroke-dasharray:none;stroke-dashoffset:0;stroke-opacity:1"
     d="M 44.576172 36.949219 L 44.576172 60.507812 L 57.496094 61.642578 L 62.880859 53.558594 L 62.246094 39.873047 C 59.224518 38.778513 56.647553 38.009518 53.90625 37.533203 C 51.164947 37.056889 48.258875 36.873156 44.576172 36.949219 z "
     id="path883" />
  <text
     xml:space="preserve"
     style="font-style:normal;font-weight:normal;font-size:64.91717529px;line-height:1.25;font-family:sans-serif;letter-spacing:-0.84392327px;word-spacing:0px;fill:#ffffff;fill-opacity:1;stroke:none;stroke-width:1.62292933;"
     x="25.818352"
     y="68.406548"
     id="text847"><tspan
       sodipodi:role="line"
       id="tspan845"
       x="25.818352"
       y="68.406548"
       style="font-style:normal;font-variant:normal;font-weight:600;font-stretch:normal;font-family:'TT Hoves';-inkscape-font-specification:'TT Hoves Semi-Bold';fill:#ffffff;stroke-width:1.62292933;">D</tspan></text>
</svg>
