<?xml version="1.0" encoding="UTF-8" standalone="no"?>
<svg
   fill="none"
   height="128"
   viewBox="0 0 31.999935 32"
   width="127.99974"
   version="1.1"
   id="svg90"
   sodipodi:docname="enj.svg"
   inkscape:version="1.1.2 (b8e25be833, 2022-02-05)"
   xmlns:inkscape="http://www.inkscape.org/namespaces/inkscape"
   xmlns:sodipodi="http://sodipodi.sourceforge.net/DTD/sodipodi-0.dtd"
   xmlns:xlink="http://www.w3.org/1999/xlink"
   xmlns="http://www.w3.org/2000/svg"
   xmlns:svg="http://www.w3.org/2000/svg">
  <defs
     id="defs94" />
  <sodipodi:namedview
     id="namedview92"
     pagecolor="#ffffff"
     bordercolor="#999999"
     borderopacity="1"
     inkscape:pageshadow="0"
     inkscape:pageopacity="0"
     inkscape:pagecheckerboard="0"
     showgrid="false"
     fit-margin-top="0"
     fit-margin-left="0"
     fit-margin-right="0"
     fit-margin-bottom="0"
     inkscape:zoom="3.6796875"
     inkscape:cx="64"
     inkscape:cy="64.815287"
     inkscape:window-width="1280"
     inkscape:window-height="658"
     inkscape:window-x="-6"
     inkscape:window-y="-6"
     inkscape:window-maximized="1"
     inkscape:current-layer="svg90" />
  <linearGradient
     id="a">
    <stop
       offset="0"
       stop-color="#21ffe3"
       id="stop2" />
    <stop
       offset="1"
       stop-color="#8549df"
       id="stop4" />
  </linearGradient>
  <radialGradient
     id="b"
     cx="8.6973696"
     cy="6.3859401"
     gradientUnits="userSpaceOnUse"
     r="16.455799"
     xlink:href="#a"
     gradientTransform="matrix(1.0496031,0,0,1.0496031,-0.76542098,-0.57159917)" />
  <linearGradient
     id="c"
     gradientUnits="userSpaceOnUse"
     x1="17.044201"
     x2="16.148701"
     xlink:href="#a"
     y1="28.267"
     y2="9.2382002"
     gradientTransform="translate(0.02689346,0.211557)" />
  <radialGradient
     id="d"
     cx="16.0788"
     cy="19.9403"
     gradientUnits="userSpaceOnUse"
     r="14.2632"
     gradientTransform="translate(0.02689346,0.211557)">
    <stop
       offset="0"
       stop-color="#21ffe3"
       id="stop9" />
    <stop
       offset=".1916"
       stop-color="#23fce3"
       stop-opacity=".8084"
       id="stop11" />
    <stop
       offset=".3419"
       stop-color="#28f2e3"
       stop-opacity=".6581"
       id="stop13" />
    <stop
       offset=".478"
       stop-color="#31e1e2"
       stop-opacity=".522"
       id="stop15" />
    <stop
       offset=".6059"
       stop-color="#3ecae2"
       stop-opacity=".3941"
       id="stop17" />
    <stop
       offset=".728"
       stop-color="#4face1"
       stop-opacity=".272"
       id="stop19" />
    <stop
       offset=".8458"
       stop-color="#6386e0"
       stop-opacity=".1542"
       id="stop21" />
    <stop
       offset=".958"
       stop-color="#7b5bdf"
       stop-opacity=".042"
       id="stop23" />
    <stop
       offset="1"
       stop-color="#8549df"
       stop-opacity="0"
       id="stop25" />
  </radialGradient>
  <linearGradient
     id="e"
     gradientUnits="userSpaceOnUse"
     x1="5.6844702"
     x2="25.1975"
     y1="8.5057297"
     y2="19.975"
     gradientTransform="translate(0.02689346,0.211557)">
    <stop
       offset="0"
       stop-color="#21ffe3"
       id="stop28" />
    <stop
       offset="1"
       stop-color="#f8fffb"
       id="stop30" />
  </linearGradient>
  <linearGradient
     id="f">
    <stop
       offset="0"
       stop-color="#692cc2"
       id="stop33" />
    <stop
       offset=".5189"
       stop-color="#3e5bde"
       id="stop35" />
    <stop
       offset="1"
       stop-color="#229ee7"
       id="stop37" />
  </linearGradient>
  <linearGradient
     id="g"
     gradientUnits="userSpaceOnUse"
     x1="9.1688604"
     x2="25.6126"
     xlink:href="#f"
     y1="10.5161"
     y2="10.5161"
     gradientTransform="translate(0.02689346,0.211557)" />
  <linearGradient
     id="h"
     gradientUnits="userSpaceOnUse"
     x1="9.1689196"
     x2="25.9907"
     xlink:href="#f"
     y1="17.2988"
     y2="17.2988"
     gradientTransform="translate(0.02689346,0.211557)" />
  <linearGradient
     id="i"
     gradientUnits="userSpaceOnUse"
     x1="7.3260102"
     x2="24.573099"
     y1="23.890499"
     y2="23.890499"
     gradientTransform="translate(0.02689346,0.211557)">
    <stop
       offset="0"
       stop-color="#677cf4"
       id="stop42" />
    <stop
       offset=".2764"
       stop-color="#374cd7"
       id="stop44" />
    <stop
       offset=".3631"
       stop-color="#3752d8"
       id="stop46" />
    <stop
       offset=".4747"
       stop-color="#3562db"
       id="stop48" />
    <stop
       offset=".5999"
       stop-color="#337ce1"
       id="stop50" />
    <stop
       offset=".7351"
       stop-color="#30a1e9"
       id="stop52" />
    <stop
       offset=".8766"
       stop-color="#2dd0f2"
       id="stop54" />
    <stop
       offset="1"
       stop-color="#29fffc"
       id="stop56" />
  </linearGradient>
  <linearGradient
     id="j">
    <stop
       offset="0"
       stop-color="#f8fffb"
       id="stop59" />
    <stop
       offset="1"
       stop-color="#f8fffb"
       stop-opacity="0"
       id="stop61" />
  </linearGradient>
  <linearGradient
     id="k"
     gradientUnits="userSpaceOnUse"
     x1="5.2034202"
     x2="2.2785101"
     xlink:href="#j"
     y1="9.2596397"
     y2="16.704901"
     gradientTransform="translate(0.02689346,0.211557)" />
  <linearGradient
     id="l"
     gradientUnits="userSpaceOnUse"
     x1="6.5311899"
     x2="6.0433998"
     xlink:href="#j"
     y1="9.66364"
     y2="16.353399"
     gradientTransform="translate(0.02689346,0.211557)" />
  <path
     d="m 15.999994,32 c 8.836504,0 15.99994,-7.163436 15.99994,-16.000045 C 31.999934,7.1634406 24.836498,0 15.999994,0 7.1634385,0 0,7.1634406 0,15.999955 0,24.836564 7.1634385,32 15.999994,32 Z"
     fill="url(#b)"
     id="path66"
     style="fill:url(#b);stroke-width:1.0496" />
  <path
     d="m 16.577793,28.461957 c 6.1699,0 11.1716,-4.6857 11.1716,-10.4658 0,-5.7802 -5.0017,-10.46587 -11.1716,-10.46587 -6.1699,0 -11.1715695,4.68567 -11.1715695,10.46587 0,5.7801 5.0016695,10.4658 11.1715695,10.4658 z"
     fill="url(#c)"
     id="path68"
     style="fill:url(#c)" />
  <path
     d="m 16.105693,31.451157 c 6.6612,0 12.0612,-5.0588 12.0612,-11.2993 0,-6.2404 -5.4,-11.29922 -12.0612,-11.29922 -6.6612795,0 -12.0612795,5.05882 -12.0612795,11.29922 0,6.2405 5.4,11.2993 12.0612795,11.2993 z"
     fill="url(#d)"
     id="path70"
     style="fill:url(#d)" />
  <path
     d="m 12.726093,26.450157 c -0.0551,-0.0059 -1.3575,-0.149 -2.0345,-0.5359 -0.1153,-0.0659 -2.8357795,-1.6357 -3.9230795,-3.5928 -0.91667,-1.6501 -2.46925,-4.6308 -2.56736,-6.0545 -0.08928,-1.2941 -0.01907,-4.0652 0.43846,-4.9802 0.03187,-0.0637 0.07123,-0.1509 0.12109,-0.2613 0.29843,-0.6612 0.91949,-2.03696 2.15258,-3.252 1.52838,-1.50598 3.4886095,-2.27142 5.8263095,-2.27501 0.0154,-1.9e-4 1.7015,-0.02099 3.5983,-0.02099 1.1144,0 2.0826,0.00704 2.8777,0.02106 2.5246,0.04428 4.5413,0.25779 5.5012,0.4272 l 0.1654,0.02886 c 0.6729,0.11654 0.9247,0.16019 0.9791,0.65011 0.0467,0.41965 0.4213,3.46445 0.4252,3.49517 l 0.01,0.08211 -2.3258,1.41209 h 2.4991 l 0.2464,4.6794 -2.716,1.9831 h 2.4523 l -0.8385,4.9818 -4.6617,2.6433 -8.2149,0.5698 z"
     fill="url(#e)"
     id="path72"
     style="fill:url(#e)" />
  <path
     d="m 16.337893,5.605467 c 0.9592,0 1.9775,0.00525 2.8754,0.02099 2.6934,0.04723 4.6779,0.28352 5.4813,0.42528 0.8032,0.14176 0.9923,0.14176 1.0395,0.56704 0.0473,0.42528 0.4253,3.49664 0.4253,3.49664 l -2.6461,1.60664 h 2.8351 l 0.2363,4.4889 -2.9769,2.1736 h 2.6934 l -0.8033,4.7725 -4.5835,2.5988 -8.1746,0.567 c 0,0 -1.3231,-0.1417 -1.9846,-0.5197 -0.6615,-0.378 -2.9296195,-1.8428 -3.8746395,-3.5439 -0.94503,-1.7011 -2.45709,-4.6308 -2.55162,-6.0011 -0.09453,-1.3703 0,-4.0636 0.42528,-4.9142 0.42528,-0.8506 2.12627,-5.70854 7.9855795,-5.7175 -10e-5,0 1.6801,-0.02099 3.5981,-0.02099 z m 0,-0.256 c -1.8976,0 -3.5846,0.0208 -3.6013,0.02099 -2.3696,0.00359 -4.3600395,0.78144 -5.9131995,2.31181 -1.25011,1.23181 -1.87776,2.62229 -2.17939,3.29049 -0.04729,0.1048 -0.08819,0.1953 -0.11885,0.2567 -0.4679,0.9359 -0.54182,3.7397 -0.45171,5.0463 0.09991,1.4484 1.66138,4.4484 2.58323,6.1078 1.10439,1.9879 3.8549195,3.5752 3.9714195,3.6418 0.7,0.4 2.0282,0.5461 2.0844,0.5521 l 0.0225,0.0024 0.0225,-0.0015 8.1746,-0.5671 0.058,-0.004 0.0505,-0.0287 4.5835,-2.5988 0.106,-0.0601 0.0202,-0.1201 0.8033,-4.7725 0.0502,-0.2985 h -0.3027 -1.9087 l 2.3431,-1.7109 0.112,-0.0817 -0.0073,-0.1384 -0.2362,-4.489 -0.0128,-0.2425 h -0.2429 -1.9202 l 1.8641,-1.1318 0.1414,-0.0859 -0.0202,-0.16424 c -0.0038,-0.03072 -0.3783,-3.07475 -0.4249,-3.49363 -0.065,-0.58547 -0.4057,-0.64448 -1.0844,-0.76205 -0.0519,-0.00902 -0.1069,-0.01849 -0.165,-0.02879 -0.9645,-0.17018 -2.9892,-0.38471 -5.5213,-0.42912 -0.7958,-0.01396 -1.7648,-0.02106 -2.8799,-0.02106 z"
     fill="#692cc2"
     id="path74" />
  <path
     d="m 4.4693335,16.268757 c 0,0 0.128,1.6641 0.81069,3.2001 0.68269,1.5361 2.34983,3.9654 2.94413,4.6082 0.88448,0.9567 2.6030395,2.0779 3.6697395,2.2059 1.0666,0.128 3.982,-0.0752 4.6421,-0.0845 0.4288,-0.006 3.9089,-0.3573 4.3783,-0.4426 0.4693,-0.0853 4.4714,-2.3767 4.5835,-2.5988 0.0916,-0.1817 0.1425,-0.8466 0.1425,-0.8466 l -3.2603,0.7504 -9.8216,0.4642 c -0.3216,0.0129 -0.8001,-0.04 -1.1782,-0.0727 -0.4759,-0.0413 -0.931,-0.131 -1.4836595,-0.3055 -0.59244,-0.1871 -1.33369,-0.5702 -1.93894,-1.0293 -0.85146,-0.646 -1.87238,-1.6602 -2.46406,-3.118 -0.37581,-0.9255 -1.0242,-2.7308 -1.0242,-2.7308 z"
     fill="#ffffff"
     id="path76" />
  <path
     d="m 9.1957735,11.769257 1.1813195,-1.60658 c 0,0 -0.0472,-0.42529 2.1736,-0.47252 2.2208,-0.04723 13.0888,0.33076 13.0888,0.33076 l -2.2209,1.74834 z"
     fill="url(#g)"
     id="path78"
     style="fill:url(#g)" />
  <path
     d="m 26.017593,16.258257 -2.7879,2.1263 -12.3328,0.378 c 0,0 -1.0867795,-0.8978 -1.2758395,-1.2521 -0.18899,-0.3544 -0.42528,-0.827 -0.42528,-0.827 0,0 12.8526195,-0.0945 14.0811195,-0.1417 1.2286,-0.0473 2.7407,-0.2835 2.7407,-0.2835 z"
     fill="url(#h)"
     id="path80"
     style="fill:url(#h)" />
  <path
     d="m 24.599893,23.298757 c 0,0 -3.5911,2.1264 -3.8747,2.2209 -0.2835,0.0945 -7.1243,0.5668 -7.7966,0.567 -0.8672,2e-4 -1.9373,-0.2835 -2.6461,-0.8032 -0.7088095,-0.5198 -1.7955895,-1.5593 -2.0318795,-1.9846 -0.23629,-0.4253 -0.89779,-1.1813 -0.89779,-1.1813 0,0 1.60659,1.0395 2.7405695,1.3703 1.1341,0.3307 3.5239,0.2559 4.6108,0.2086 1.0868,-0.0472 9.8957,-0.3977 9.8957,-0.3977 z"
     fill="url(#i)"
     id="path82"
     style="fill:url(#i)" />
  <path
     d="m 23.266193,4.546457 c 0,0 -2.5206,-0.75616 -4.1409,-0.72013 -1.6204,0.03603 -3.7088,0.18003 -4.7891,0.54009 -1.0802,0.36007 -1.5123,0.57613 -1.5123,0.57613 0,0 0.6842,0.82816 0.6122,1.62035 -0.072,0.79219 -0.8642,1.72838 -1.8004,1.98042 -0.9362,0.25203 -1.8724095,0.39609 -2.5926095,0.25203 -0.72019,-0.144 -2.37651,-1.08026 -2.37651,-1.08026 l -1.26029,-0.90022 c 0,0 1.26029,-1.72838 3.34874,-2.73657 2.0884695,-1.00819 4.2129695,-1.87239 6.8774695,-1.87239 2.6646,0 4.573,0.61216 5.6893,1.15226 1.1162,0.54016 1.9444,1.18829 1.9444,1.18829 z"
     fill="#ffffff"
     id="path84" />
  <path
     d="m 5.4062235,6.814947 c 0,0 -0.95866,1.21332 -1.2018,1.7481 -0.24313,0.53485 -1.04537,2.09071 -1.19123,3.62231 -0.14585,1.5315 -0.17017,2.7185 0,3.5229 0.17018,0.8044 0.46189,1.9227 0.46189,1.9227 0,0 0.99674,-4.1085 1.14259,-5.1052 0.14586,-0.9968 0.85088,-3.11177 1.45863,-3.84111 0.60774,-0.72934 1.16691,-1.60448 1.16691,-1.60448 z"
     fill="url(#k)"
     id="path86"
     style="fill:url(#k)" />
  <path
     d="m 7.2431435,7.080087 c 0,0 -1.06298,1.38765 -1.29222,1.77248 -0.22925,0.38483 -1.17779,1.90559 -1.2361,2.67639 -0.0583,0.7707 -0.21881,2.4067 -0.21881,2.4067 0,0 1.70175,-3.0631 2.16364,-3.598 0.46189,-0.53482 1.79897,-2.30947 1.79897,-2.30947 z"
     fill="url(#l)"
     id="path88"
     style="fill:url(#l)" />
</svg>
