<svg width="24" height="24" viewBox="0 0 24 24" fill="none" xmlns="http://www.w3.org/2000/svg">
<path d="M12 24C18.6274 24 24 18.6274 24 12C24 5.37258 18.6274 0 12 0C5.37258 0 0 5.37258 0 12C0 18.6274 5.37258 24 12 24Z" fill="#0B0926"/>
<path d="M23.5 12C23.5 18.3513 18.3513 23.5 12 23.5C5.64873 23.5 0.5 18.3513 0.5 12C0.5 5.64873 5.64873 0.5 12 0.5C18.3513 0.5 23.5 5.64873 23.5 12Z" stroke="black" stroke-opacity="0.097"/>
<path d="M8.03937 10.4951C8.3245 10.4951 8.65715 10.5902 8.89476 10.7327C8.65715 10.5902 8.37202 10.4951 8.03937 10.4951Z" fill="white"/>
<path d="M6.85132 10.9703C7.18397 10.6852 7.61167 10.4951 8.03936 10.4951C7.56415 10.4951 7.18397 10.6377 6.85132 10.9703Z" fill="white"/>
<path d="M15.0251 10.9701C15.3577 10.6375 15.7379 10.4949 16.2131 10.4949C16.6408 10.4949 17.0685 10.685 17.4012 10.9701C17.7338 11.3028 17.8764 11.6829 17.8764 12.1582C17.8764 12.5859 17.6863 13.0136 17.4012 13.3462C17.0685 13.6789 16.6883 13.8214 16.2131 13.8214C15.7854 13.8214 15.3577 13.6313 15.0251 13.3462L14.4548 12.7284L13.8845 13.2987L14.5023 13.9165C14.9776 14.3917 15.5953 14.6293 16.2606 14.6293C16.9259 14.6293 17.5437 14.3917 18.019 13.9165C18.4942 13.4413 18.7318 12.8235 18.7318 12.1582C18.7318 11.4929 18.4942 10.8751 18.019 10.3999C17.5437 9.92464 16.9259 9.68703 16.2606 9.68703C15.5953 9.68703 14.9776 9.92464 14.5023 10.3999L14.2172 10.685L12.744 12.1582L10.9857 13.869L10.7956 14.059L10.4155 14.4392L10.3679 14.4867C9.08484 15.7698 6.99388 15.7698 5.71079 14.4867C5.093 13.869 4.76035 13.0136 4.76035 12.1582C4.76035 11.2552 5.093 10.4474 5.71079 9.82959C6.32857 9.21181 7.18396 8.87915 8.03936 8.87915C8.89475 8.87915 9.75015 9.21181 10.3679 9.82959L11.556 11.0176L9.32245 13.2512L9.22741 13.3462C8.89475 13.6789 8.51458 13.8214 8.03936 13.8214C7.75423 13.8214 7.4691 13.7264 7.23149 13.6313L9.6551 11.2077L10.1303 10.7325L9.79767 10.3999C9.70262 10.3048 9.60758 10.2098 9.51254 10.1622C9.08484 9.87711 8.60962 9.68703 8.03936 9.68703C7.37405 9.68703 6.75627 9.92464 6.28105 10.3999C5.80583 10.8751 5.56822 11.4929 5.56822 12.1582C5.56822 12.8235 5.80583 13.4413 6.28105 13.9165C6.75627 14.3917 7.37405 14.6293 8.03936 14.6293C8.70466 14.6293 9.32245 14.3917 9.79767 13.9165L10.9382 12.7759L11.6035 12.1106L12.1738 11.5404L12.6965 11.0176L12.744 10.9701L10.9857 9.21181C9.36997 7.59606 6.75627 7.59606 5.18805 9.21181C4.4277 9.97216 4 11.0176 4 12.1106C4 13.2036 4.4277 14.2491 5.18805 15.0095C5.9484 15.8649 6.99388 16.245 8.03936 16.245C9.08484 16.245 10.1303 15.8649 10.9382 15.057L11.556 14.4392L13.2668 12.7284L15.0251 10.9701ZM6.37609 12.1582C6.37609 11.6829 6.51866 11.3028 6.85131 10.9701C7.18396 10.6375 7.56414 10.4949 8.03936 10.4949C8.37201 10.4949 8.65714 10.5899 8.89475 10.7325L6.6137 13.0136C6.47114 12.7759 6.37609 12.4908 6.37609 12.1582Z" fill="white"/>
<path d="M6.3761 12.1583C6.3761 11.7306 6.56619 11.3029 6.85132 10.9702C6.51866 11.3029 6.3761 11.683 6.3761 12.1583Z" fill="white"/>
<path d="M6.61371 13.0136C6.47114 12.776 6.3761 12.4433 6.3761 12.1582C6.3761 12.4909 6.47114 12.776 6.61371 13.0136Z" fill="white"/>
<path d="M19.112 9.25917C17.4962 7.64343 14.8825 7.64343 13.3143 9.25917L12.6965 9.87695L13.2668 10.4472L13.8845 9.82943C15.1676 8.54634 17.2586 8.54634 18.5417 9.82943C19.1595 10.4472 19.4921 11.3026 19.4921 12.158C19.4921 13.0609 19.1595 13.8688 18.5417 14.4866C17.9239 15.1044 17.0685 15.437 16.2131 15.437C15.3102 15.437 14.5023 15.1044 13.8845 14.4866L13.2668 13.8688L12.6965 14.4391L13.3143 15.0568C14.1222 15.8647 15.1676 16.2449 16.2131 16.2449C17.2586 16.2449 18.3041 15.8647 19.112 15.0568C19.8723 14.2965 20.3 13.251 20.3 12.158C20.3 11.065 19.8723 10.0195 19.112 9.25917Z" fill="white"/>
</svg>
