<?xml version="1.0" encoding="UTF-8" standalone="no"?>
<svg
   width="128"
   height="128"
   viewBox="0 0 100 100.00018"
   version="1.1"
   id="svg8"
   sodipodi:docname="farm.svg"
   style="fill:none"
   inkscape:version="1.1.2 (b8e25be833, 2022-02-05)"
   xmlns:inkscape="http://www.inkscape.org/namespaces/inkscape"
   xmlns:sodipodi="http://sodipodi.sourceforge.net/DTD/sodipodi-0.dtd"
   xmlns="http://www.w3.org/2000/svg"
   xmlns:svg="http://www.w3.org/2000/svg"
   xmlns:rdf="http://www.w3.org/1999/02/22-rdf-syntax-ns#"
   xmlns:cc="http://creativecommons.org/ns#"
   xmlns:dc="http://purl.org/dc/elements/1.1/">
  <metadata
     id="metadata14">
    <rdf:RDF>
      <cc:Work
         rdf:about="">
        <dc:format>image/svg+xml</dc:format>
        <dc:type
           rdf:resource="http://purl.org/dc/dcmitype/StillImage" />
        <dc:title />
      </cc:Work>
    </rdf:RDF>
  </metadata>
  <defs
     id="defs12" />
  <sodipodi:namedview
     pagecolor="#ffffff"
     bordercolor="#666666"
     borderopacity="1"
     objecttolerance="10"
     gridtolerance="10"
     guidetolerance="10"
     inkscape:pageopacity="0"
     inkscape:pageshadow="2"
     inkscape:window-width="1280"
     inkscape:window-height="658"
     id="namedview10"
     showgrid="false"
     fit-margin-top="0"
     fit-margin-left="0"
     fit-margin-right="0"
     fit-margin-bottom="0"
     inkscape:zoom="2.085965"
     inkscape:cx="118.88982"
     inkscape:cy="60.164001"
     inkscape:window-x="-6"
     inkscape:window-y="-6"
     inkscape:window-maximized="1"
     inkscape:current-layer="svg8"
     inkscape:snap-nodes="false"
     inkscape:pagecheckerboard="0" />
  <path
     inkscape:connector-curvature="0"
     d="M 50.000152,100.00017 C 77.614334,100.00017 100,77.614508 100,50.000054 100,22.385818 77.614334,4.9718407e-8 50.000152,4.9718407e-8 22.385807,4.9718407e-8 3.1390797e-8,22.385818 3.1390797e-8,50.000054 3.1390797e-8,77.614508 22.385807,100.00017 50.000152,100.00017 Z"
     id="path2"
     style="fill:#ffffff;stroke-width:5.43025064;fill-opacity:1" />
  <path
     sodipodi:nodetypes="csccscc"
     inkscape:connector-curvature="0"
     id="path910"
     d="m 40.034758,39.574663 c 0,0 0.403821,-10.216546 0.12115,-10.822271 -0.282672,-0.605724 -1.453735,-2.099844 -1.655649,-2.220989 -0.201907,-0.121144 1.029732,-1.060017 1.029732,-1.060017 0,0 2.281558,2.513755 2.443087,3.563677 0.161528,1.049922 -0.242286,9.731968 -0.242286,9.731968 z"
     style="fill:#313131;fill-opacity:1;stroke:none;stroke-width:0.67387694px;stroke-linecap:butt;stroke-linejoin:miter;stroke-opacity:1" />
  <path
     sodipodi:nodetypes="ccccccccccc"
     inkscape:connector-curvature="0"
     id="path904"
     d="m 38.360929,64.529139 13.53465,0.171325 3.712038,-15.190786 11.678625,-3.169506 -2.569871,-21.272811 c -4.183495,-0.682702 -11.401142,-0.924878 -16.01885,0.62819 0,0 -4.111795,11.193211 -4.511553,12.906457 l -18.902815,11.707185 -1.884571,1.713246 1.713245,6.339013 z"
     style="fill:#313131;fill-opacity:1;stroke:none;stroke-width:0.67387694px;stroke-linecap:butt;stroke-linejoin:miter;stroke-opacity:1" />
  <path
     inkscape:connector-curvature="0"
     style="fill:#ececec;fill-opacity:1;stroke:none;stroke-width:0.67387694px;stroke-linecap:butt;stroke-linejoin:miter;stroke-opacity:1"
     d="m 21.460249,50.763347 7.249441,-2.624434 c 0,0 0.271841,-0.185557 0.650183,-0.792332 0.378341,-0.606775 0.862852,-1.634678 1.291162,-3.31937 0.107079,-0.421174 0.01833,-0.695695 -0.219799,-0.854192 -0.238141,-0.158498 -0.624933,-0.200794 -1.11348,-0.156624 -0.977082,0.08834 -2.360955,0.521871 -3.770814,1.06083 -2.10728,0.805567 -3.334094,1.451034 -4.294651,1.92555 -4.92e-4,1.26476 0.06557,2.839497 0.207958,4.760572 z"
     id="path925" />
  <path
     inkscape:connector-curvature="0"
     style="fill:#fbd900;fill-opacity:1;stroke:none;stroke-width:0.67387694px;stroke-linecap:butt;stroke-linejoin:miter;stroke-opacity:1"
     d="m 42.447831,38.336109 c -4.34247,0.152223 -20.576867,3.639127 -21.162635,5.920114 -0.06651,0.258936 -0.03268,1.097957 -0.03289,1.746552 0.960558,-0.474516 2.187371,-1.119983 4.294652,-1.92555 1.409858,-0.538959 2.793732,-0.972491 3.770813,-1.06083 0.488547,-0.04417 0.875339,-0.0019 1.11348,0.156624 0.238135,0.158497 0.326878,0.433018 0.219799,0.854192 -0.42831,1.684692 -0.91282,2.712595 -1.291162,3.31937 -0.378341,0.606775 -0.650183,0.792332 -0.650183,0.792332 l -7.249441,2.624434 c 0.282038,3.805101 0.681768,7.769328 0.681768,7.769328 l 0.04347,-0.140829 3.393072,-1.736023 -0.202689,-3.311474 c 6.407836,-0.519726 13.095155,1.071675 16.637659,10.701746 0.363428,0.363434 1.009495,-0.08029 1.009495,-0.08029 -0.102794,-3.753001 -1.848688,-7.029485 -5.289672,-9.813333 1.759783,-1.634294 3.680541,-2.529637 5.976709,-1.696538 L 43.500811,38.487468 c -0.05465,-0.1276 -0.432582,-0.173105 -1.052933,-0.151359 z"
     id="path900" />
  <circle
     r="10.108154"
     cy="64.472031"
     cx="29.22361"
     id="circle894"
     style="opacity:1;fill:#313131;fill-opacity:1;stroke:none;stroke-width:9.01007462;stroke-linecap:round;stroke-linejoin:round;stroke-miterlimit:4;stroke-dasharray:none;stroke-dashoffset:0;stroke-opacity:1" />
  <circle
     style="opacity:1;fill:#fbd900;fill-opacity:1;stroke:none;stroke-width:5.05740643;stroke-linecap:round;stroke-linejoin:round;stroke-miterlimit:4;stroke-dasharray:none;stroke-dashoffset:0;stroke-opacity:1"
     id="circle896"
     cx="29.22361"
     cy="64.472031"
     r="5.6737652" />
  <circle
     r="1.2656564"
     cy="64.472031"
     cx="29.22361"
     id="circle898"
     style="opacity:1;fill:#212209;fill-opacity:1;stroke:none;stroke-width:1.12816417;stroke-linecap:round;stroke-linejoin:round;stroke-miterlimit:4;stroke-dasharray:none;stroke-dashoffset:0;stroke-opacity:1" />
  <path
     sodipodi:nodetypes="ccccc"
     inkscape:connector-curvature="0"
     id="path906"
     d="m 48.326316,25.666997 c -8.35185,0.252703 12.041777,-6.011763 16.704156,-2.569873 1.51497,1.43924 1.384541,2.119235 -0.898931,2.156851 -0.91373,0.02855 -9.066456,0.07037 -10.979579,0.184587 -1.607662,0.09367 -3.216637,0.162829 -4.825646,0.228435 z"
     style="fill:#fbd900;fill-opacity:1;stroke:none;stroke-width:0.67387694px;stroke-linecap:butt;stroke-linejoin:miter;stroke-opacity:1" />
  <path
     sodipodi:nodetypes="csccsscc"
     inkscape:connector-curvature="0"
     id="path908"
     d="m 47.479335,46.038313 c -2.223316,-0.807632 -0.01134,-10.807922 0.625266,-12.543026 0.510758,-1.392104 1.586069,-5.645175 2.448921,-6.11582 1.452152,-0.998182 12.142179,-1.192384 12.66547,-0.08336 0,0 2.377328,11.067104 0.398634,12.197788 -1.978698,1.130686 -6.016859,2.382516 -8.076321,3.311293 -2.059463,0.928777 -6.138009,3.351673 -6.138009,3.351673 z"
     style="fill:#65b2c4;fill-opacity:1;stroke:none;stroke-width:0.67387694px;stroke-linecap:butt;stroke-linejoin:miter;stroke-opacity:1" />
  <path
     sodipodi:nodetypes="ccccsscc"
     inkscape:connector-curvature="0"
     id="path902"
     d="m 49.611251,51.622682 c 0,0 -3.140954,1.484814 -3.140954,0.285541 1.997526,-12.881993 20.915894,-17.668512 29.639164,-8.566233 1.527652,1.580789 3.882185,9.790427 3.08385,9.479965 0,0 -5.311067,-6.681662 -9.023098,-7.252744 -3.712038,-0.571083 -6.339013,-2.341437 -11.021892,-0.399757 -4.682872,1.941679 -6.738769,2.398545 -7.081416,3.255168 -0.342652,0.856623 -2.455654,3.19806 -2.455654,3.19806 z"
     style="fill:#fbd900;fill-opacity:1;stroke:none;stroke-width:0.67387694px;stroke-linecap:butt;stroke-linejoin:miter;stroke-opacity:1" />
  <circle
     style="opacity:1;fill:#313131;fill-opacity:1;stroke:none;stroke-width:14.2023201;stroke-linecap:round;stroke-linejoin:round;stroke-miterlimit:4;stroke-dasharray:none;stroke-dashoffset:0;stroke-opacity:1"
     id="circle888"
     cx="63.260113"
     cy="58.646992"
     r="15.933193" />
  <circle
     r="8.0522594"
     cy="58.646992"
     cx="63.260113"
     id="circle890"
     style="opacity:1;fill:#fbd900;fill-opacity:1;stroke:none;stroke-width:7.17751694;stroke-linecap:round;stroke-linejoin:round;stroke-miterlimit:4;stroke-dasharray:none;stroke-dashoffset:0;stroke-opacity:1" />
  <circle
     style="opacity:1;fill:#212209;fill-opacity:1;stroke:none;stroke-width:1.77829266;stroke-linecap:round;stroke-linejoin:round;stroke-miterlimit:4;stroke-dasharray:none;stroke-dashoffset:0;stroke-opacity:1"
     id="circle892"
     cx="63.260113"
     cy="58.646992"
     r="1.9950178" />
</svg>
