<?xml version="1.0" encoding="UTF-8"?>
<svg width="128px" height="128px" viewBox="0 0 32 32" version="1.1" xmlns="http://www.w3.org/2000/svg" xmlns:xlink="http://www.w3.org/1999/xlink">
    <title>FTM</title>
    <g id="FTM" stroke="none" stroke-width="1" fill="none" fill-rule="evenodd">
        <circle id="Oval" fill="#1969FF" cx="16" cy="16" r="16"></circle>
        <path d="M14.5368304,4.11658481 C15.1207137,3.80975006 15.999323,3.79985216 16.6022209,4.08689113 L16.6615705,4.11658481 L22.8181675,7.35191915 C23.1815407,7.54287428 23.3811076,7.8274103 23.4168681,8.12115587 L23.4227233,8.12114935 L23.4227233,24.383535 C23.4150631,24.6906213 23.2297401,24.9957322 22.866549,25.2033757 L22.8181675,25.229899 L16.6615705,28.4652334 C16.0776872,28.7720681 15.1990779,28.781966 14.59618,28.4949271 L14.5368304,28.4652334 L8.38023338,25.229899 C7.98677761,25.0231353 7.79795201,24.7026238 7.78859838,24.383535 L7.7878902,24.3275686 C7.7878902,24.3193262 7.78815463,24.3116044 7.78845014,24.3043702 L7.7884087,8.22561381 L7.7878902,8.19921679 L7.7878902,8.19921679 L7.78859838,8.12114935 L7.79135266,8.12113099 C7.81746076,7.83766372 7.99222834,7.57214165 8.33075656,7.37901092 L8.38023338,7.35191915 L14.5368304,4.11658481 Z M22.4535273,17.1938909 L16.6615705,20.2376232 C16.0776872,20.544458 15.1990779,20.5543559 14.59618,20.2673169 L14.5368304,20.2376232 L8.75752727,17.2006788 L8.75752727,24.3514182 L14.6679779,27.4412894 C14.9533576,27.588429 15.2460451,27.7180003 15.5330703,27.7365819 L15.5992004,27.7388629 C15.8796075,27.7397918 16.1533652,27.6248612 16.4284124,27.4931989 L16.6191333,27.4005932 L22.4535273,24.3254303 L22.4535273,17.1938909 Z M6.39936036,24.4178837 C6.39936036,25.0409678 6.47214303,25.4504947 6.6166528,25.7390053 C6.72894373,25.9631918 6.89391609,26.1378227 7.18448706,26.342 L7.26303121,26.3958826 L7.35359565,26.4553758 L7.35359565,26.4553758 L7.45499344,26.5195993 C7.47300742,26.5308372 7.49163145,26.5423771 7.51094489,26.5542713 L7.62482309,26.6236659 L7.97451484,26.8336309 L7.47296258,27.6586184 L7.08156851,27.4234265 L7.01578153,27.3832413 C6.97051384,27.3554406 6.9283457,27.3292064 6.88844085,27.3039775 L6.77467993,27.2307463 C6.75657267,27.2188568 6.73882217,27.2070783 6.7213239,27.1953408 C5.8037309,26.579838 5.45066043,25.9098273 5.43116356,24.540978 L5.43030303,24.4178837 L6.39936036,24.4178837 Z M15.1145249,12.8350709 C15.0846442,12.8452775 15.0560168,12.856554 15.0289055,12.8689002 L14.9894084,12.8882218 L8.80911266,16.1366414 L8.83281143,16.1497267 L14.9894084,19.385061 C15.0277028,19.405185 15.0697039,19.4229019 15.1145249,19.4382119 L15.1145249,12.8350709 Z M16.083876,12.8350709 L16.083876,19.4382119 C16.1137567,19.4280053 16.1423841,19.4167288 16.1694954,19.4043827 L16.2089925,19.385061 L22.3840764,16.1396503 L22.3892882,16.1366414 L22.3655895,16.1235561 L16.2089925,12.8882218 C16.1706981,12.8680978 16.128697,12.8503809 16.083876,12.8350709 Z M22.4535273,9.27476364 L16.9307152,12.1770667 L22.4535273,15.0793697 L22.4535273,9.27476364 Z M8.75752727,9.28155152 L8.75752727,15.0725818 L14.2675394,12.1770667 L8.75752727,9.28155152 Z M16.2089925,4.96914704 C15.9027492,4.80821404 15.3594523,4.80121696 15.0325956,4.94815578 L14.9894084,4.96914704 L8.80911266,8.21756666 L8.83281143,8.23065193 L14.9894084,11.4659863 C15.2956517,11.6269193 15.8389486,11.6339164 16.1658053,11.4869775 L16.2089925,11.4659863 L22.3750563,8.22558516 L22.3750563,8.22558516 L22.3892882,8.21756666 L22.3655895,8.20448138 L16.2089925,4.96914704 Z M23.7512798,4.93605543 L24.1426739,5.17124736 L24.2741423,5.25202886 L24.2741423,5.25202886 L24.3940659,5.32785557 C24.4319165,5.35221923 24.467922,5.37585801 24.5029185,5.39933299 C25.4205115,6.0148358 25.773582,6.6848465 25.7930789,8.05369581 L25.7939394,8.17679017 L24.8248821,8.17679017 C24.8248821,7.55370599 24.7520994,7.14417916 24.6075896,6.85566851 C24.4952987,6.63148207 24.3303263,6.45685108 24.0397554,6.25267381 L23.9612112,6.19879124 L23.8706468,6.13929802 L23.8706468,6.13929802 L23.769249,6.07507451 C23.751235,6.0638366 23.732611,6.05229675 23.7132975,6.04040254 L23.5994193,5.97100788 L23.2497276,5.76104295 L23.7512798,4.93605543 Z" id="Shape" stroke="#FFFFFF" stroke-width="0.6" fill="#FFFFFF" fill-rule="nonzero"></path>
    </g>
</svg>