<?xml version="1.0" encoding="UTF-8" standalone="no"?>
<svg
   width="128"
   height="128"
   viewBox="0 0 128 128"
   fill="none"
   version="1.1"
   id="svg27"
   sodipodi:docname="gala.svg"
   inkscape:version="1.1.2 (b8e25be833, 2022-02-05)"
   xmlns:inkscape="http://www.inkscape.org/namespaces/inkscape"
   xmlns:sodipodi="http://sodipodi.sourceforge.net/DTD/sodipodi-0.dtd"
   xmlns="http://www.w3.org/2000/svg"
   xmlns:svg="http://www.w3.org/2000/svg">
  <sodipodi:namedview
     id="namedview29"
     pagecolor="#ffffff"
     bordercolor="#999999"
     borderopacity="1"
     inkscape:pageshadow="0"
     inkscape:pageopacity="0"
     inkscape:pagecheckerboard="0"
     showgrid="false"
     inkscape:zoom="2.8284271"
     inkscape:cx="64.16994"
     inkscape:cy="59.220193"
     inkscape:window-width="1268"
     inkscape:window-height="680"
     inkscape:window-x="0"
     inkscape:window-y="0"
     inkscape:window-maximized="0"
     inkscape:current-layer="svg27"
     fit-margin-top="0"
     fit-margin-left="0"
     fit-margin-right="0"
     fit-margin-bottom="0" />
  <path
     d="M 64,128 C 99.34625,128 128,99.34625 128,64 128,28.65375 99.34625,0 64,0 28.65375,0 0,28.65375 0,64 c 0,35.34625 28.65375,64 64,64 z"
     fill="white"
     id="path2"
     style="fill:#ffffff;stroke-width:0.25" />
  <defs
     id="defs25">
    <linearGradient
       id="paint0_linear_10487_2339"
       x1="404"
       y1="139.991"
       x2="115.507"
       y2="380.48599"
       gradientUnits="userSpaceOnUse">
      <stop
         stop-color="#00A3FF"
         id="stop10" />
      <stop
         offset="1"
         stop-color="#3ADCFF"
         id="stop12" />
    </linearGradient>
    <linearGradient
       id="paint1_linear_10487_2339"
       x1="404"
       y1="139.991"
       x2="115.507"
       y2="380.48599"
       gradientUnits="userSpaceOnUse">
      <stop
         stop-color="#00A3FF"
         id="stop15" />
      <stop
         offset="1"
         stop-color="#3ADCFF"
         id="stop17" />
    </linearGradient>
    <linearGradient
       id="paint2_linear_10487_2339"
       x1="404"
       y1="139.991"
       x2="115.507"
       y2="380.48599"
       gradientUnits="userSpaceOnUse">
      <stop
         stop-color="#00A3FF"
         id="stop20" />
      <stop
         offset="1"
         stop-color="#3ADCFF"
         id="stop22" />
    </linearGradient>
  </defs>
  <path
     style="fill:#030303;stroke-width:0.27312"
     d="M 41.672103,99.266033 21.665895,86.951812 V 64.177329 c 0,-12.525955 0.06429,-22.774463 0.142911,-22.774463 0.07865,0 1.489955,0.76815 3.136357,1.707012 l 2.993426,1.707014 0.07281,19.246017 0.07281,19.246032 4.916213,3.043134 c 9.797706,6.064737 21.328113,13.146718 21.923542,13.465328 l 0.609056,0.325977 V 84.180906 68.218425 l -4.301659,-2.48073 c -2.36593,-1.364403 -4.397511,-2.513642 -4.514652,-2.553869 -0.117141,-0.04022 -0.178587,-1.755635 -0.136562,-3.811989 l 0.07648,-3.738816 7.647421,4.432199 7.647423,4.432202 0.06982,23.548911 c 0.03833,12.951957 -0.02304,23.545517 -0.136563,23.541497 -0.113495,-0.006 -9.209158,-5.54907 -20.212568,-12.321797 z m 24.239609,8.677637 c 0,-3.55141 0.02631,-3.72651 0.614525,-4.09459 0.337988,-0.21146 5.776539,-3.55083 12.085658,-7.420551 18.935078,-11.613963 21.212796,-13.039431 21.331635,-13.350021 0.0626,-0.163684 0.08165,-7.135765 0.04305,-15.493493 l -0.07041,-15.195883 -5.052719,2.9144 c -2.779137,1.602933 -8.952558,5.165426 -13.718848,7.916673 l -8.665948,5.002255 -0.07395,5.349532 -0.07395,5.349528 -2.952718,1.724837 c -1.62396,0.94867 -3.069792,1.724859 -3.212893,1.724859 -0.160996,0 -0.232735,-3.406629 -0.188169,-8.936428 l 0.07205,-8.936418 6.418368,-3.716226 C 90.14999,50.543737 106.05501,41.402866 106.18658,41.402866 c 0.0806,0 0.14752,10.25102 0.14752,22.780047 v 22.780043 l -7.988754,4.906438 c -4.393906,2.6985 -13.316768,8.187926 -19.828629,12.198586 -6.511858,4.01065 -12.011854,7.35813 -12.222227,7.4391 -0.316316,0.12128 -0.382472,-0.49497 -0.382472,-3.56341 z M 57.718039,57.464761 C 54.338153,55.503655 45.488994,50.391571 38.05323,46.1046 30.617472,41.817598 24.439471,38.229626 24.324326,38.131288 24.209181,38.032938 26.36002,36.741112 29.103958,35.260534 31.847909,33.779938 39.808051,29.476523 46.79315,25.69735 53.778254,21.9182 60.507293,18.283003 61.746592,17.619155 l 2.253257,-1.206985 2.253271,1.207125 c 1.239281,0.663917 8.152701,4.397306 15.363122,8.296414 7.210434,3.899092 14.95343,8.079578 17.206661,9.289944 2.253347,1.210373 4.313187,2.344183 4.577487,2.519568 0.41693,0.276545 0.0539,0.565324 -2.73118,2.174492 l -3.211889,1.855606 -3.004358,-1.591994 C 92.800612,39.287711 85.979377,35.611752 79.294704,31.994508 72.610038,28.377245 66.429085,25.050655 65.559266,24.602066 l -1.581515,-0.815595 -1.832518,0.976933 C 49.861089,31.312184 37.525028,38.024865 37.51704,38.16488 c -0.0064,0.09684 1.372632,0.967934 3.062572,1.935809 1.689945,0.967858 7.496973,4.318733 12.904488,7.446378 5.407529,3.127639 10.04448,5.742217 10.304332,5.81018 0.269382,0.07043 2.256728,-0.906951 4.623315,-2.273789 2.282975,-1.318531 4.282908,-2.39708 4.444285,-2.396763 0.393355,7.41e-4 6.168018,3.379918 6.156468,3.602577 -0.0083,0.152019 -14.486757,8.559306 -14.968302,8.691496 -0.0995,0.0273 -2.946271,-1.554893 -6.326159,-3.516007 z"
     id="path30" />
</svg>
