<?xml version="1.0" encoding="UTF-8" standalone="no"?>
<svg
   fill="none"
   height="128"
   viewBox="0 0 32 32"
   width="128"
   version="1.1"
   id="svg12"
   sodipodi:docname="gno (1).svg"
   inkscape:version="1.1.2 (b8e25be833, 2022-02-05)"
   xmlns:inkscape="http://www.inkscape.org/namespaces/inkscape"
   xmlns:sodipodi="http://sodipodi.sourceforge.net/DTD/sodipodi-0.dtd"
   xmlns="http://www.w3.org/2000/svg"
   xmlns:svg="http://www.w3.org/2000/svg">
  <defs
     id="defs16" />
  <sodipodi:namedview
     id="namedview14"
     pagecolor="#ffffff"
     bordercolor="#999999"
     borderopacity="1"
     inkscape:pageshadow="0"
     inkscape:pageopacity="0"
     inkscape:pagecheckerboard="0"
     showgrid="false"
     inkscape:zoom="3.6796875"
     inkscape:cx="65.902335"
     inkscape:cy="64.271762"
     inkscape:window-width="1280"
     inkscape:window-height="658"
     inkscape:window-x="-6"
     inkscape:window-y="-6"
     inkscape:window-maximized="1"
     inkscape:current-layer="svg12" />
  <path
     d="m16 32c8.8366 0 16-7.1634 16-16 0-8.83656-7.1634-16-16-16-8.83656 0-16 7.16344-16 16 0 8.8366 7.16344 16 16 16z"
     fill="#001428"
     id="path2"
     style="fill:#ffffff" />
  <g
     fill="#ffffff"
     id="g10"
     transform="matrix(1.215145,0,0,1.215145,-3.5060143,-3.5066431)"
     style="fill:#000000">
    <path
       d="m 12.292,17.2474 c 0.5181,6e-4 1.0215,-0.1714 1.431,-0.4887 L 10.4407,13.48 c -0.2675,0.3461 -0.4326,0.7603 -0.47667,1.1955 -0.04403,0.4352 0.03482,0.874 0.22757,1.2667 0.1928,0.3927 0.4918,0.7235 0.863,0.9548 0.3713,0.2313 0.8,0.354 1.2374,0.354 z m 9.7569,-2.3409 c 0,-0.5167 -0.1722,-1.0187 -0.4896,-1.4265 l -3.2823,3.2787 c 0.3462,0.2678 0.7605,0.4332 1.1959,0.4773 0.4355,0.0442 0.8746,-0.0347 1.2674,-0.2276 0.3929,-0.1929 0.7238,-0.4922 0.9551,-0.8637 0.2313,-0.3716 0.3538,-0.8005 0.3535,-1.2382 z"
       id="path4"
       style="fill:#000000" />
    <path
       d="m 23.6986,11.3371 -1.4517,1.4517 c 0.5301,0.6335 0.8038,1.4426 0.7672,2.2678 -0.0366,0.8253 -0.3809,1.6069 -0.965,2.191 -0.5841,0.5841 -1.3657,0.9283 -2.191,0.965 -0.8252,0.0366 -1.6343,-0.2371 -2.2678,-0.7672 L 16,19.0357 14.4097,17.4454 c -0.6335,0.5301 -1.4426,0.8038 -2.2678,0.7672 C 11.3166,18.1759 10.535,17.8317 9.95091,17.2476 9.3668,16.6635 9.02255,15.8819 8.98594,15.0566 8.94933,14.2314 9.22301,13.4223 9.7531,12.7888 L 9.007,12.04 8.3014,11.3344 c -0.82655,1.365 -1.27531,2.9252 -1.3003,4.5208 -0.02498,1.5956 0.37472,3.1691 1.15813,4.5593 0.78341,1.3902 1.92237,2.5472 3.30017,3.3522 1.3778,0.8051 2.9448,1.2294 4.5406,1.2294 1.5958,0 3.1628,-0.4243 4.5406,-1.2294 1.3778,-0.805 2.5168,-1.962 3.3002,-3.3522 0.7834,-1.3902 1.1831,-2.9637 1.1581,-4.5593 -0.025,-1.5956 -0.4737,-3.1558 -1.3003,-4.5208 z"
       id="path6"
       style="fill:#000000" />
    <path
       d="M 22.5115,9.79 C 21.6711,8.90919 20.6607,8.20803 19.5415,7.72898 18.4222,7.24992 17.2175,7.00292 16,7.00292 c -1.2174,0 -2.4222,0.247 -3.5414,0.72606 -1.1193,0.47905 -2.1297,1.18021 -2.97008,2.06102 -0.22288,0.2344 -0.43317,0.4804 -0.63,0.7371 L 16,17.6677 23.1433,10.5253 C 22.9459,10.2692 22.735,10.0238 22.5115,9.79 Z M 16,8.1772 c 1.0284,-0.00515 2.0475,0.19494 2.9976,0.58855 0.9501,0.39361 1.8122,0.97284 2.5356,1.70375 L 16,16 10.4668,10.4695 C 11.1903,9.73859 12.0523,9.15938 13.0024,8.76576 13.9525,8.37215 14.9716,8.17206 16,8.1772 Z"
       id="path8"
       style="fill:#000000" />
  </g>
</svg>
