<?xml version="1.0" encoding="UTF-8" standalone="no"?>
<svg
   width="128"
   height="128"
   viewBox="0 0 128 128"
   xml:space="preserve"
   fill="#000000"
   version="1.1"
   id="svg19"
   sodipodi:docname="hdrn.svg"
   inkscape:version="1.1.2 (b8e25be833, 2022-02-05)"
   xmlns:inkscape="http://www.inkscape.org/namespaces/inkscape"
   xmlns:sodipodi="http://sodipodi.sourceforge.net/DTD/sodipodi-0.dtd"
   xmlns="http://www.w3.org/2000/svg"
   xmlns:svg="http://www.w3.org/2000/svg"
   xmlns:rdf="http://www.w3.org/1999/02/22-rdf-syntax-ns#"
   xmlns:cc="http://creativecommons.org/ns#"
   xmlns:dc="http://purl.org/dc/elements/1.1/"><sodipodi:namedview
     id="namedview21"
     pagecolor="#ffffff"
     bordercolor="#999999"
     borderopacity="1"
     inkscape:pageshadow="0"
     inkscape:pageopacity="0"
     inkscape:pagecheckerboard="0"
     showgrid="false"
     fit-margin-top="0"
     fit-margin-left="0"
     fit-margin-right="0"
     fit-margin-bottom="0"
     inkscape:zoom="1.300966"
     inkscape:cx="19.60082"
     inkscape:cy="71.869673"
     inkscape:window-width="1280"
     inkscape:window-height="658"
     inkscape:window-x="-6"
     inkscape:window-y="-6"
     inkscape:window-maximized="1"
     inkscape:current-layer="svg19" /><title
     id="title2">logo</title><defs
     id="defs13"><linearGradient
       id="b"
       x1="-64.606003"
       x2="979.54999"
       y1="191.06"
       y2="191.06"
       gradientTransform="matrix(0.0612984,-0.10616012,0.1061591,0.06129899,15.675756,100.85392)"
       gradientUnits="userSpaceOnUse"><stop
         stop-color="#56bef0"
         offset="0"
         id="stop4" /><stop
         stop-color="#5a9cfa"
         offset="0.33"
         id="stop6" /><stop
         stop-color="#6d5afa"
         offset="0.67"
         id="stop8" /><stop
         stop-color="#9256f0"
         offset="1"
         id="stop10" /></linearGradient></defs><path
     d="M 47.43871,2.1801065 A 63.999528,64.000145 0 0 1 125.82,47.43795 63.999528,64.000145 0 0 1 80.561362,125.81998 63.999528,64.000145 0 0 1 2.1800829,80.560923 63.999528,64.000145 0 0 1 47.437494,2.1788867 Z"
     fill="url(#b)"
     style="mix-blend-mode:normal;fill:url(#b);stroke-width:0.122586"
     id="path15" /><path
     d="M 66.298329,113.52317 V 91.514096 H 103.91098 Z M 24.084439,91.514096 h 37.65704 v 22.034614 z m 18.01745,-47.424117 -18.53217,-7.30434 34.47276,-20.17054 z m 43.26852,0.11832 -16.31373,-28.11813 35.354621,20.68854 z m -0.80171,7.72944 20.280291,34.95797 H 67.671869 Z m -24.22403,34.95797 h -37.79142 l 20.48545,-35.3106 z m -13.34302,-42.13828 16.70127,-28.78691 16.70006,28.78691 z m 17.00482,39.22725 -16.96043,-34.60899 h 33.68689 z m 43.460491,-43.22901 v 41.53759 l -19.754772,-34.04964 19.747572,-7.70646 c 0.004,0.0726 0.007,0.14531 0.007,0.21863 z m -86.935381,0 c 0,-0.0703 0.003,-0.14033 0.007,-0.21012 l 19.22565,7.57757 -19.23285,33.14982 z m -4.06482,49.32954 c 0.6563,1.845107 1.93769,3.436817 3.65844,4.443765 l 39.72431,23.243286 c 1.28019,0.74904 2.71515,1.12356 4.15048,1.12356 1.43496,0 2.87041,-0.37452 4.15048,-1.12356 L 107.87477,94.528974 c 2.56002,-1.497838 4.15036,-4.289585 4.15036,-7.285615 v -46.4866 c 0,-1.55547 -0.42953,-3.05549 -1.20028,-4.34843 a 2.1906017,2.2201211 0 0 0 -0.12514,-0.20331 c -0.70429,-1.10934 -1.66449,-2.05488 -2.82494,-2.734 L 68.150469,10.227729 c -1.36418,-0.7984095 -2.90449,-1.1711095 -4.43328,-1.1186995 -0.004,0 -0.009,-3.6e-4 -0.0134,-3.6e-4 -0.0732,0 -0.14566,0.005 -0.21765,0.0117 a 8.2912437,8.4029723 0 0 0 -3.6366,1.1071395 l -39.72431,23.2433 c -1.16021,0.679 -2.12053,1.62417 -2.82445,2.73314 a 2.3276192,2.3589851 0 0 0 -0.12886,0.20915 c -0.7686,1.29185 -1.19705,2.78992 -1.19705,4.34345 v 46.4866 c 0,0.88887 0.14098,1.75926 0.40458,2.58369 a 2.3156212,2.3468253 0 0 0 0.0873,0.2584"
     fill="#ffffff"
     id="path17"
     style="stroke-width:0.120786" /><metadata
     id="metadata838"><rdf:RDF><cc:Work
         rdf:about=""><dc:title>logo</dc:title></cc:Work></rdf:RDF></metadata></svg>
