<svg width="24" height="24" viewBox="0 0 24 24" fill="none" xmlns="http://www.w3.org/2000/svg">
<path d="M12 24C18.6274 24 24 18.6274 24 12C24 5.37258 18.6274 0 12 0C5.37258 0 0 5.37258 0 12C0 18.6274 5.37258 24 12 24Z" fill="url(#paint0_linear)"/>
<path d="M23.5 12C23.5 18.3513 18.3513 23.5 12 23.5C5.64873 23.5 0.5 18.3513 0.5 12C0.5 5.64873 5.64873 0.5 12 0.5C18.3513 0.5 23.5 5.64873 23.5 12Z" stroke="white" stroke-opacity="0.3"/>
<path d="M7.76166 18.6781L6.67879 16.8105C6.6622 16.7763 6.65357 16.7389 6.65357 16.7009C6.65357 16.663 6.6622 16.6255 6.67879 16.5913L7.88191 14.5165C7.90299 14.4844 7.93135 14.4576 7.96471 14.4384C7.99807 14.4192 8.0355 14.408 8.07398 14.4058H10.4791C10.5176 14.4081 10.5551 14.4192 10.5885 14.4385C10.622 14.4577 10.6505 14.4844 10.6717 14.5165L11.8743 16.5913C11.8914 16.6257 11.9004 16.6636 11.9004 16.7021C11.9004 16.7405 11.8914 16.7784 11.8743 16.8128L10.6683 18.8864C10.647 18.9177 10.619 18.9439 10.5862 18.9629C10.5535 18.982 10.5169 18.9935 10.4791 18.9966H8.31848C8.20739 18.9895 8.09943 18.957 8.0029 18.9018C7.90637 18.8466 7.82384 18.77 7.76166 18.6781ZM15.5697 14.4075L13.176 10.2738C13.1468 10.2302 13.1079 10.1939 13.0623 10.1677C13.0168 10.1415 12.9657 10.1262 12.9132 10.1228H8.12014C8.06764 10.1262 8.01661 10.1415 7.97104 10.1677C7.92547 10.1939 7.88658 10.2302 7.8574 10.2738L5.46086 14.4098C5.43755 14.4568 5.42542 14.5084 5.42542 14.5608C5.42542 14.6132 5.43755 14.6649 5.46086 14.7119L6.16586 15.9247L7.39462 13.8056C7.42782 13.7552 7.47234 13.7131 7.52467 13.6828C7.577 13.6524 7.63569 13.6346 7.69611 13.6308H10.8535C10.9144 13.6341 10.9736 13.6517 11.0263 13.6821C11.0791 13.7125 11.124 13.7548 11.1573 13.8056L12.7366 16.5311C12.7641 16.5854 12.7784 16.6453 12.7784 16.706C12.7784 16.7668 12.7641 16.8267 12.7366 16.8809L11.5078 19H12.9115C12.9641 18.9969 13.0153 18.9816 13.0609 18.9552C13.1066 18.9289 13.1454 18.8923 13.1743 18.8484L15.5697 14.713C15.5935 14.6656 15.606 14.6133 15.606 14.5603C15.606 14.5072 15.5935 14.4549 15.5697 14.4075ZM19.9182 11.6724L16.245 5.32649C16.1824 5.2313 16.0982 5.15214 15.9992 5.09542C15.9002 5.0387 15.7892 5.00601 15.6751 5H8.32303C8.20898 5.00601 8.09794 5.0387 7.99893 5.09542C7.89991 5.15214 7.8157 5.2313 7.75311 5.32649L4.07822 11.6724C4.0268 11.7734 4 11.885 4 11.9983C4 12.1116 4.0268 12.2232 4.07822 12.3242L4.92114 13.7784L7.36271 9.56124C7.40399 9.4985 7.45948 9.44629 7.52471 9.40881C7.58995 9.37133 7.6631 9.34964 7.73829 9.34547H13.29C13.3651 9.34964 13.4381 9.37134 13.5033 9.40882C13.5684 9.4463 13.6238 9.49851 13.665 9.56124L16.4399 14.3496C16.4739 14.4165 16.4917 14.4904 16.4917 14.5654C16.4917 14.6404 16.4739 14.7143 16.4399 14.7811L13.9961 18.9966H15.6774C15.7914 18.9906 15.9025 18.9579 16.0015 18.9012C16.1005 18.8444 16.1847 18.7653 16.2473 18.6701L19.9222 12.3248C19.9734 12.2237 20 12.1121 20 11.9989C20 11.8857 19.9734 11.774 19.9222 11.6729L19.9182 11.6724Z" fill="white"/>
<defs>
<linearGradient id="paint0_linear" x1="5.99983" y1="23.8297" x2="20.4848" y2="1.79761" gradientUnits="userSpaceOnUse">
<stop stop-color="#FFDC00"/>
<stop offset="0.33" stop-color="#E58E2F"/>
<stop offset="0.67" stop-color="#DB2D72"/>
<stop offset="1" stop-color="#FF00FF"/>
</linearGradient>
</defs>
</svg>
