<svg width="24" height="24" viewBox="0 0 24 24" fill="none" xmlns="http://www.w3.org/2000/svg">
<path fill-rule="evenodd" clip-rule="evenodd" d="M0 12C0 5.37259 5.37259 0 12 0C18.6274 0 24 5.37259 24 12C24 18.6274 18.6274 24 12 24C5.37259 24 0 18.6274 0 12Z" fill="url(#paint0_linear)"/>
<path d="M23.5 12C23.5 18.3513 18.3513 23.5 12 23.5C5.64873 23.5 0.5 18.3513 0.5 12C0.5 5.64873 5.64873 0.5 12 0.5C18.3513 0.5 23.5 5.64873 23.5 12Z" stroke="white" stroke-opacity="0.3"/>
<path d="M19.4481 12.2683C19.4496 11.7883 19.3994 11.3095 19.2985 10.8403L19.2645 10.6839H14.9873L15.1301 9.88825L15.2661 9.14024L14.7765 9.72504C14.7697 9.73184 13.8857 10.7655 12.0224 10.6907C10.404 10.6295 9.486 9.69784 9.20039 9.35104C9.3397 9.24194 9.4875 9.14416 9.6424 9.05863C9.9881 9.41817 10.4054 9.70122 10.8672 9.88951C11.3291 10.0778 11.8253 10.1671 12.3239 10.1518C12.8224 10.1364 13.3122 10.0166 13.7616 9.80023C14.211 9.58383 14.61 9.2756 14.9329 8.89543C14.9397 8.89543 14.9397 8.89543 14.9465 8.90223C15.2797 9.03143 15.6197 9.15384 15.9733 9.25584C16.1501 9.30344 16.3269 9.35104 16.5173 9.38504C16.6162 9.40145 16.7162 9.41054 16.8165 9.41224C16.876 9.4114 16.9352 9.40457 16.9933 9.39184C17.0324 9.38351 17.0694 9.36731 17.1021 9.34424C17.1089 9.33744 17.1225 9.33064 17.1293 9.32384C17.1361 9.31704 17.1497 9.30344 17.1497 9.29664C17.1647 9.28377 17.1764 9.26743 17.1837 9.24904C17.2283 9.18332 17.2454 9.10278 17.2313 9.02463C17.2203 8.96286 17.1996 8.9032 17.1701 8.84783C17.1177 8.76023 17.0537 8.68016 16.9797 8.60983C16.8802 8.51805 16.7758 8.43178 16.6669 8.35142C18.5301 7.82102 18.6321 6.08699 18.6321 5.71298C18.635 5.65565 18.6259 5.59836 18.6055 5.54472C18.5851 5.49107 18.5537 5.44226 18.5135 5.40135C18.4732 5.36044 18.4249 5.32834 18.3716 5.30707C18.3182 5.2858 18.2611 5.27582 18.2037 5.27778H15.5517C15.3325 4.71294 14.9732 4.2132 14.5075 3.82564C14.0418 3.43808 13.4851 3.17547 12.8898 3.06254C12.2946 2.94961 11.6804 2.99009 11.1051 3.18016C10.5298 3.37023 10.0124 3.70364 9.6016 4.14896C9.3228 3.96536 9.03039 3.78855 8.73799 3.62535C8.58158 3.53695 8.41838 3.45535 8.25518 3.38055C8.09198 3.30575 7.92197 3.23095 7.75197 3.16974C7.66357 3.14254 7.57517 3.10854 7.47997 3.08814C7.38011 3.06229 7.27706 3.05084 7.17396 3.05414C7.11113 3.05337 7.04875 3.06492 6.99036 3.08814C6.91674 3.11373 6.85269 3.16118 6.80676 3.22415C6.78207 3.26171 6.76369 3.30305 6.75236 3.34655C6.74363 3.38903 6.74134 3.43258 6.74556 3.47575C6.75663 3.53967 6.77726 3.60157 6.80676 3.65935C6.85461 3.74885 6.91158 3.83316 6.97676 3.91096C7.03662 3.9844 7.10017 4.05476 7.16716 4.12176C7.29413 4.25349 7.42806 4.37834 7.56837 4.49576C7.96958 4.84257 8.39118 5.16217 8.81279 5.46818C8.77879 5.58378 8.74479 5.69938 8.71759 5.81498C6.10635 6.9914 4.41992 9.51424 4.41992 12.2615C4.41992 15.5187 6.75236 18.3476 10.03 19.1636L7.70437 20H15.9121L13.7497 19.184C17.0749 18.402 19.4481 15.5527 19.4481 12.2683ZM9.7648 15.6819C8.45918 14.9815 7.65677 13.7303 7.65677 12.3363C7.66099 11.8441 7.76363 11.3577 7.95866 10.9057C8.15369 10.4538 8.43716 10.0454 8.79239 9.70464L9.7648 15.6819ZM16.4221 8.41262C16.5528 8.52405 16.6755 8.64448 16.7893 8.77303C16.8415 8.82982 16.885 8.89397 16.9185 8.96343C16.9292 8.98714 16.9361 9.01238 16.9389 9.03823C16.9394 9.04193 16.939 9.04567 16.9378 9.0492C16.9366 9.05272 16.9347 9.05595 16.9321 9.05863C16.9321 9.06044 16.9314 9.06217 16.9301 9.06344C16.9288 9.06472 16.9271 9.06543 16.9253 9.06543L16.9185 9.07223H16.9049C16.8755 9.07568 16.8459 9.07568 16.8165 9.07223C16.7385 9.06467 16.6612 9.05103 16.5853 9.03143C16.4193 8.9886 16.2558 8.93638 16.0957 8.87503C15.8033 8.76623 15.5109 8.63703 15.2185 8.50783C15.2251 8.49275 15.2343 8.47895 15.2457 8.46703H16.0549C16.1841 8.45343 16.2997 8.43302 16.4221 8.41262V8.41262ZM15.5789 7.77341C15.7217 7.86862 15.8577 7.97062 15.9937 8.07262H15.4565C15.5031 7.97535 15.5439 7.87545 15.5789 7.77341V7.77341ZM18.1833 5.67218H18.2241C18.2288 5.6829 18.2311 5.6945 18.2309 5.70618C18.2309 6.18219 18.0813 7.71901 16.1909 8.03862C16.1531 8.01842 16.1168 7.99571 16.0821 7.97062C15.9257 7.88222 15.7693 7.80062 15.6061 7.72581L15.5925 7.74621C15.7267 7.36614 15.7957 6.96609 15.7965 6.563C15.7966 6.26007 15.7578 5.95839 15.6809 5.66538H18.1833V5.67218ZM12.2128 3.39415C12.7882 3.39429 13.3528 3.55073 13.8462 3.84677C14.3396 4.1428 14.7433 4.5673 15.0143 5.07493C15.2852 5.58256 15.4131 6.15425 15.3844 6.72894C15.3557 7.30362 15.1714 7.85972 14.8513 8.33782C14.6201 8.22902 14.3957 8.12022 14.1713 8.01142C13.8517 7.85502 13.5389 7.69861 13.2193 7.53541L12.75 7.29061C12.5936 7.20901 12.4372 7.1274 12.2808 7.039C12.206 6.9982 12.1244 6.9574 12.0496 6.9098L11.8252 6.7806C11.6756 6.6922 11.5192 6.597 11.3696 6.5086C10.7644 6.14139 10.166 5.76058 9.5676 5.37298C9.4928 5.31858 9.4112 5.27098 9.3364 5.21658C9.59533 4.67257 10.0028 4.21284 10.5117 3.89039C11.0206 3.56794 11.6104 3.39591 12.2128 3.39415V3.39415ZM9.13919 3.98576C9.282 4.04696 9.418 4.11496 9.554 4.17616C9.33309 4.42249 9.14561 4.69685 8.99639 4.99217C8.89439 4.92417 8.78559 4.84937 8.68359 4.78137C8.39118 4.58417 8.10558 4.37336 7.83357 4.16256C7.69757 4.05376 7.56157 3.94496 7.43237 3.82935C7.37008 3.77387 7.31105 3.71484 7.25556 3.65255C7.20351 3.59736 7.15577 3.53825 7.11276 3.47575C7.09866 3.45457 7.08724 3.43173 7.07876 3.40775C7.07876 3.40095 7.07876 3.40095 7.07196 3.40775C7.07196 3.40095 7.07876 3.39415 7.09236 3.38735C7.11913 3.37893 7.14638 3.37212 7.17396 3.36695C7.24882 3.36251 7.32392 3.36479 7.39837 3.37375C7.47997 3.38735 7.56157 3.40095 7.64317 3.42135C7.98246 3.51148 8.31437 3.62742 8.63599 3.76815C8.81959 3.84296 8.98279 3.91776 9.13919 3.98576V3.98576ZM7.52077 4.18296C7.40535 4.0834 7.29633 3.97666 7.19436 3.86336C7.14089 3.80757 7.09092 3.74853 7.04476 3.68655C6.994 3.62476 6.95692 3.55292 6.93596 3.47575C6.92234 3.43376 6.92234 3.38854 6.93596 3.34655C6.95308 3.30558 6.98135 3.27024 7.01756 3.24455C7.05325 3.22394 7.09244 3.21011 7.13316 3.20375C7.17144 3.19829 7.21011 3.19601 7.24876 3.19695C7.40148 3.21162 7.55205 3.24355 7.69757 3.29215C7.98403 3.38906 8.26546 3.50027 8.54078 3.62535C8.40478 3.56415 8.26198 3.50295 8.11918 3.44855C8.05118 3.42135 7.97638 3.39415 7.90837 3.37375C7.84037 3.35335 7.76557 3.32615 7.69077 3.30575C7.54682 3.26381 7.3985 3.23871 7.24876 3.23095C7.17833 3.22594 7.10785 3.24004 7.04476 3.27175C7.01744 3.2885 6.99788 3.3154 6.99036 3.34655C6.98261 3.37821 6.98499 3.41151 6.99716 3.44175C7.02164 3.50988 7.05601 3.57403 7.09916 3.63215C7.14676 3.69335 7.19436 3.74775 7.24196 3.80215C7.34408 3.91106 7.45311 4.01328 7.56837 4.10816C7.79277 4.30536 8.03758 4.48896 8.27558 4.67257C8.60198 4.91057 8.93519 5.14177 9.2684 5.36618C9.93481 5.81498 10.6148 6.24339 11.2948 6.665C11.5532 6.8214 11.8116 6.9778 12.07 7.1274C12.3284 7.27701 12.6004 7.41301 12.8656 7.55581C13.4029 7.82782 13.9469 8.09982 14.4909 8.35142C14.7629 8.48063 15.0417 8.60303 15.3205 8.71863C15.5993 8.83423 15.8781 8.94303 16.1637 9.03823C16.3065 9.08583 16.4493 9.12664 16.5989 9.16064C16.6737 9.17424 16.7485 9.18784 16.8165 9.19464C16.8857 9.20723 16.9571 9.19771 17.0205 9.16744C17.0338 9.16049 17.0455 9.15086 17.0549 9.13915C17.0642 9.12745 17.0711 9.11392 17.0749 9.09943C17.0817 9.06807 17.0817 9.0356 17.0749 9.00423C17.0519 8.93546 17.0174 8.87108 16.9729 8.81383C16.8829 8.69217 16.7778 8.58248 16.6601 8.48743C16.7145 8.53503 16.7757 8.58263 16.8301 8.63703C16.8845 8.69143 16.9389 8.73903 16.9933 8.80023C17.0443 8.85909 17.0856 8.92565 17.1157 8.99743C17.1315 9.03636 17.1339 9.07941 17.1225 9.11984C17.1163 9.1414 17.1072 9.162 17.0953 9.18104C17.0885 9.18784 17.0817 9.20144 17.0749 9.20824C17.0681 9.21504 17.0545 9.22184 17.0477 9.22864C17.0105 9.25127 16.9687 9.26521 16.9253 9.26944C16.8871 9.27626 16.8479 9.27626 16.8097 9.26944C16.7349 9.26264 16.6533 9.25584 16.5785 9.24224C16.4286 9.21413 16.2809 9.1755 16.1365 9.12664C15.8441 9.03823 15.5585 8.92943 15.2797 8.82063C15.2049 8.78663 15.1233 8.75943 15.0485 8.72543C14.9193 8.67103 14.7969 8.62343 14.6745 8.56903C14.5997 8.53503 14.5181 8.50103 14.4433 8.46703C14.1645 8.34462 13.8925 8.21542 13.6205 8.08622C13.3485 7.95702 13.0765 7.82102 12.8044 7.68501C12.5324 7.54901 12.2672 7.40621 12.002 7.26341C11.866 7.18861 11.7368 7.1138 11.6076 7.0322L11.22 6.7942C10.9616 6.6378 10.7032 6.47459 10.4516 6.31139C10.2 6.14819 9.9416 5.97819 9.6968 5.80818C9.5336 5.69938 9.3772 5.59058 9.22079 5.48178C9.11199 5.40698 8.99639 5.32538 8.88759 5.25058C8.66319 5.08737 8.43878 4.92417 8.21438 4.75417C7.98318 4.57057 7.74517 4.38696 7.52077 4.18296V4.18296ZM9.282 5.80818C9.8736 6.21619 10.472 6.6106 11.0772 6.9846C11.2268 7.0798 11.3832 7.17501 11.5396 7.26341C11.6166 7.31274 11.696 7.35813 11.7776 7.39941C11.8592 7.44701 11.934 7.48781 12.0156 7.52861C12.172 7.61701 12.3352 7.69861 12.4916 7.78021C12.648 7.86182 12.8112 7.94342 12.9745 8.01822C13.4913 8.26982 14.0081 8.50783 14.5385 8.72543C14.1054 9.19429 13.5409 9.52157 12.9188 9.66446C12.2967 9.80736 11.646 9.75922 11.0517 9.52635C10.4574 9.29348 9.94717 8.88672 9.58776 8.35923C9.22835 7.83174 9.03647 7.20809 9.03719 6.5698C9.03701 6.28029 9.07589 5.99209 9.15279 5.71298C9.20039 5.74698 9.24119 5.77418 9.282 5.80818V5.80818ZM4.82113 12.2683C4.82113 9.76585 6.31715 7.44701 8.64959 6.29779C8.64279 6.39299 8.63599 6.48139 8.63599 6.5766C8.63694 7.36373 8.89747 8.12858 9.3772 8.75263C9.23827 8.8354 9.10431 8.92622 8.97599 9.02463L8.58838 8.42622L8.71759 9.22864C7.79957 10.031 7.25556 11.1531 7.25556 12.3363C7.25556 13.9479 8.26878 15.4507 9.8396 16.1715L10.268 18.81C7.09236 18.0892 4.82113 15.3895 4.82113 12.2683V12.2683ZM10.0096 19.5988L10.7576 19.3336L9.24119 9.98345C9.7376 10.4459 10.642 11.0443 12.002 11.0919C13.2873 11.1395 14.1509 10.7179 14.6269 10.3779L12.9813 19.3268L13.7021 19.5988H10.0096ZM14.3957 13.8663H15.8645C15.4747 14.6586 14.8406 15.3047 14.0557 15.7091L14.3957 13.8663ZM13.4845 18.8372L13.9673 16.1987L13.9741 16.1919C15.0825 15.6955 15.9461 14.8047 16.3473 13.7371L16.4493 13.4651H14.4637L14.9057 11.0783H18.9381C19.0117 11.4683 19.0482 11.8645 19.0469 12.2615C19.0469 15.4235 16.7213 18.1572 13.4845 18.8372V18.8372ZM13.7837 12.6831C13.8789 12.2071 13.9809 11.7379 14.0829 11.2619C14.0166 11.3091 13.946 11.3501 13.8721 11.3843C13.7363 11.4556 13.5925 11.5104 13.4437 11.5475C13.1517 11.6297 12.8493 11.6687 12.546 11.6631C12.695 11.6458 12.8427 11.6185 12.9881 11.5815C13.1307 11.5456 13.2714 11.5025 13.4097 11.4523C13.5462 11.3998 13.6781 11.3362 13.8041 11.2619C13.9268 11.1857 14.0428 11.0993 14.1509 11.0035L14.3277 10.8471L14.2869 11.0783C14.1985 11.6291 14.1033 12.1731 14.0013 12.7171L13.8517 13.5331L13.6885 14.3491L13.5185 15.1651L13.3417 15.9811C13.2193 16.5251 13.0969 17.0624 12.9541 17.5996C13.0221 17.0488 13.1037 16.4979 13.1921 15.9471L13.3281 15.1243L13.4709 14.3015L13.6205 13.4855L13.7837 12.6831ZM9.8192 10.9287C9.8063 10.9218 9.79478 10.9125 9.7852 10.9015C9.8056 11.0171 9.8328 11.1327 9.8532 11.2551L9.95521 11.8263L10.0504 12.4043L10.1388 12.9823C10.1932 13.3631 10.2408 13.7507 10.2884 14.1383C10.336 14.5259 10.37 14.9135 10.3904 15.3011C10.2884 14.9203 10.2136 14.5463 10.132 14.1655C10.0504 13.7847 9.98241 13.4039 9.9212 13.0231L9.826 12.4519L9.7376 11.8739L9.6628 11.2959C9.6424 11.1055 9.6152 10.9083 9.5948 10.7179L9.5676 10.4459L9.7308 10.6567C9.78363 10.7234 9.8404 10.787 9.9008 10.8471C9.96329 10.9095 10.0291 10.9685 10.098 11.0239C10.1677 11.0798 10.2404 11.132 10.3156 11.1803C10.3903 11.2296 10.4674 11.275 10.5468 11.3163C10.4604 11.2917 10.3763 11.2598 10.2952 11.2211C10.2136 11.1871 10.132 11.1395 10.0504 11.0987C9.96881 11.0307 9.894 10.9831 9.8192 10.9287V10.9287Z" fill="white"/>
<defs>
<linearGradient id="paint0_linear" x1="12" y1="-0.492851" x2="12" y2="25.4592" gradientUnits="userSpaceOnUse">
<stop stop-color="#FF00FF"/>
<stop offset="1" stop-color="#00FDFC"/>
</linearGradient>
</defs>
</svg>
