<svg width="24" height="24" viewBox="0 0 24 24" fill="none" xmlns="http://www.w3.org/2000/svg">
<path d="M12 24C18.6274 24 24 18.6274 24 12C24 5.37258 18.6274 0 12 0C5.37258 0 0 5.37258 0 12C0 18.6274 5.37258 24 12 24Z" fill="#164499"/>
<path d="M23.5 12C23.5 18.3513 18.3513 23.5 12 23.5C5.64873 23.5 0.5 18.3513 0.5 12C0.5 5.64873 5.64873 0.5 12 0.5C18.3513 0.5 23.5 5.64873 23.5 12Z" stroke="black" stroke-opacity="0.097"/>
<path d="M11.999 10.9064C12.3686 10.2245 12.7174 9.58942 13.0557 8.94913C13.1546 8.75652 13.2691 8.66282 13.4982 8.67843C13.7897 8.69926 14.0864 8.68364 14.3831 8.68364C14.7632 8.68364 14.7996 8.74611 14.6122 9.08968C14.2322 9.78202 13.8574 10.4744 13.467 11.1563C13.3524 11.3541 13.4149 11.3853 13.6023 11.3749C13.8366 11.3645 14.0708 11.3749 14.3051 11.3749C14.456 11.3749 14.5289 11.4374 14.5237 11.5936C14.5185 11.8278 14.5185 12.0621 14.5237 12.2963C14.5289 12.4785 14.4456 12.541 14.2738 12.541C13.8574 12.5358 13.4409 12.5514 13.0245 12.5358C12.8006 12.5254 12.785 12.6347 12.8006 12.8013C12.8163 12.9418 12.7174 13.1396 13.0141 13.124C13.4201 13.1032 13.8314 13.124 14.2374 13.1136C14.4508 13.1084 14.5289 13.1865 14.5289 13.3999C14.5341 14.2068 14.5393 14.2068 13.7481 14.2068C13.4982 14.2068 13.2431 14.212 12.9933 14.2016C12.8475 14.1964 12.7954 14.2432 12.8006 14.3942C12.8111 14.6909 12.7954 14.9824 12.8058 15.2791C12.8111 15.4665 12.733 15.5498 12.5456 15.5446C12.1656 15.5394 11.7803 15.5394 11.4003 15.5446C11.1973 15.5498 11.1244 15.4561 11.1296 15.2583C11.1401 14.9876 11.114 14.7221 11.1348 14.4515C11.1505 14.2328 11.0672 14.1912 10.8694 14.2016C10.4894 14.2172 10.1041 14.1964 9.72413 14.2068C9.50549 14.212 9.42741 14.1235 9.44303 13.9153C9.45344 13.7331 9.45344 13.5509 9.44303 13.3687C9.43782 13.1761 9.52111 13.1084 9.70851 13.1084C10.1146 13.1136 10.5258 13.1032 10.9318 13.1136C11.0932 13.1188 11.1401 13.0668 11.1348 12.9106C11.1192 12.4421 11.1817 12.541 10.7705 12.5358C10.4217 12.5306 10.0781 12.5254 9.72934 12.5358C9.5107 12.5462 9.43262 12.4525 9.44303 12.2443C9.45344 12.0517 9.45344 11.8643 9.44303 11.6717C9.42741 11.453 9.50549 11.3489 9.73975 11.3645C9.95318 11.3801 10.1718 11.3593 10.3904 11.3697C10.5831 11.3801 10.6143 11.3333 10.5206 11.1563C10.1406 10.464 9.77098 9.77161 9.40138 9.07406C9.21919 8.7357 9.26083 8.67323 9.64084 8.67323C9.92715 8.67323 10.2135 8.68364 10.4998 8.66802C10.7028 8.65761 10.8121 8.72528 10.9058 8.90748C11.2233 9.52174 11.5617 10.1256 11.8949 10.7346C11.9209 10.7867 11.9521 10.8283 11.999 10.9064Z" fill="#FEFEFE"/>
<path d="M9.85948 5.34279C9.95318 5.34279 10.0052 5.348 10.0573 5.34279C10.2291 5.33238 10.3905 5.348 10.4737 5.53019C10.557 5.71759 10.4581 5.84253 10.3384 5.96746C9.35974 6.99817 8.51644 8.12779 7.89697 9.40837C7.40244 10.4391 7.0901 11.5062 7.23065 12.6671C7.35038 13.6353 7.70957 14.5203 8.18328 15.3688C8.7663 16.4203 9.49509 17.3677 10.3176 18.2371C10.4373 18.3672 10.5674 18.4869 10.4789 18.69C10.3905 18.8878 10.2187 18.893 10.0417 18.8878C8.31862 18.8201 6.88708 18.1226 5.76788 16.8316C3.5607 14.2704 3.40453 10.6109 5.38787 7.86751C6.49145 6.33706 7.99587 5.47293 9.85948 5.34279Z" fill="#FEFEFE"/>
<path d="M20 12.5256C19.9271 14.6026 18.9745 16.6328 16.835 18.0227C15.9657 18.5849 14.9974 18.8556 13.9615 18.8817C13.7897 18.8869 13.6232 18.8712 13.5451 18.6943C13.4618 18.5069 13.5659 18.3715 13.6908 18.2362C14.7424 17.1222 15.6325 15.8936 16.2676 14.4881C17.0536 12.7547 16.9495 11.0628 16.1114 9.38663C15.4816 8.12688 14.6643 7.00767 13.7012 5.98737C13.5711 5.84682 13.4566 5.70627 13.5503 5.50846C13.644 5.31585 13.8262 5.33147 14.0032 5.34188C16.2312 5.45119 17.8657 6.55478 18.9953 8.4236C19.7241 9.62609 19.9948 10.7661 20 12.5256Z" fill="#FEFEFE"/>
<path d="M9.32851 6.09668C9.18275 6.27888 9.0474 6.44546 8.91206 6.61203C8.22492 7.48658 7.63148 8.41838 7.16818 9.43347C6.29364 11.3439 6.38213 13.2232 7.30873 15.0868C7.82929 16.1331 8.47479 17.0909 9.22439 17.9811C9.26083 18.0279 9.30248 18.0696 9.34933 18.132C7.10051 17.8874 4.61223 15.4407 4.66949 11.9998C4.72154 8.55373 7.2775 6.28929 9.32851 6.09668Z" fill="#164499"/>
<path d="M14.659 6.07617C16.9443 6.37289 19.2399 8.66336 19.3492 11.8752C19.4638 15.2537 17.1473 17.7888 14.6694 18.148C14.8932 17.8617 15.1119 17.5962 15.3201 17.3255C15.9448 16.503 16.481 15.6285 16.9026 14.681C17.7251 12.8174 17.6262 10.9799 16.736 9.1683C16.1842 8.05951 15.4867 7.04962 14.659 6.07617Z" fill="#164499"/>
</svg>
