<?xml version="1.0" encoding="UTF-8" standalone="no"?>
<svg
   xmlns:dc="http://purl.org/dc/elements/1.1/"
   xmlns:cc="http://creativecommons.org/ns#"
   xmlns:rdf="http://www.w3.org/1999/02/22-rdf-syntax-ns#"
   xmlns:svg="http://www.w3.org/2000/svg"
   xmlns="http://www.w3.org/2000/svg"
   xmlns:sodipodi="http://sodipodi.sourceforge.net/DTD/sodipodi-0.dtd"
   xmlns:inkscape="http://www.inkscape.org/namespaces/inkscape"
   
   width="128"   height="128"   viewBox="0 0 80 80"
   version="1.1"
   id="svg6"
   sodipodi:docname="knc.svg"
   style="fill:none"
   inkscape:version="0.92.5 (2060ec1f9f, 2020-04-08)">
  <metadata
     id="metadata12">
    <rdf:RDF>
      <cc:Work
         rdf:about="">
        <dc:format>image/svg+xml</dc:format>
        <dc:type
           rdf:resource="http://purl.org/dc/dcmitype/StillImage" />
        <dc:title></dc:title>
      </cc:Work>
    </rdf:RDF>
  </metadata>
  <defs
     id="defs10" />
  <sodipodi:namedview
     pagecolor="#ffffff"
     bordercolor="#666666"
     borderopacity="1"
     objecttolerance="10"
     gridtolerance="10"
     guidetolerance="10"
     inkscape:pageopacity="0"
     inkscape:pageshadow="2"
     inkscape:window-width="1848"
     inkscape:window-height="1016"
     id="namedview8"
     showgrid="false"
     scale-x="0.8"
     fit-margin-top="0"
     fit-margin-left="0"
     fit-margin-right="0"
     fit-margin-bottom="0"
     inkscape:zoom="2.9355646"
     inkscape:cx="63.156336"
     inkscape:cy="70.365897"
     inkscape:window-x="72"
     inkscape:window-y="1107"
     inkscape:window-maximized="1"
     inkscape:current-layer="svg6" />
  <circle
     style="fill:#ffffff;stroke-width:0.4519774;fill-opacity:1"
     cx="40"
     cy="40"
     r="40"
     id="circle2" />
  <path
     inkscape:connector-curvature="0"
     id="path1006"
     d="m 43.291549,70.445632 c -0.19436,-0.194357 -0.290086,-0.468724 -0.579214,-1.660108 -0.390013,-1.607086 -0.346575,-1.40711 -2.236217,-10.29518 -0.761738,-3.582888 -1.706048,-7.989526 -2.098468,-9.792523 -0.80093,-3.679938 -0.872167,-4.076725 -0.731931,-4.076725 0.21167,0 1.757928,0.855556 7.865358,4.351923 11.33788,6.490696 12.469417,7.148981 13.630946,7.93 0.736713,0.495369 0.954339,0.758353 0.954339,1.153243 0,0.511888 -0.15916,0.645455 -6.640428,5.572832 -7.873714,5.985981 -9.351262,7.049379 -9.79482,7.049379 -0.0752,0 -0.241502,-0.10478 -0.369565,-0.232841 z m -6.649134,-1.16926 c -0.114307,-0.07769 -0.491518,-0.374367 -0.83825,-0.659277 -0.346731,-0.28491 -2.899933,-2.252106 -5.673783,-4.371546 -7.177206,-5.483964 -8.023037,-6.152443 -9.315109,-7.36197 -0.445016,-0.416587 -0.589883,-0.611889 -0.647474,-0.872884 -0.224783,-1.018693 -0.292233,-4.734164 -0.291456,-16.054708 8.39e-4,-11.404785 0.07073,-15.174727 0.297269,-16.024138 0.05637,-0.211365 0.258034,-0.47217 0.653717,-0.845438 1.313589,-1.239168 2.275115,-1.997072 10.479837,-8.26054 2.172849,-1.658744 4.200395,-3.21453 4.505655,-3.457297 0.789178,-0.627608 1.083346,-0.789504 1.435209,-0.789854 0.370097,-3.89e-4 0.615724,0.259798 0.696388,0.737647 0.08042,0.476386 -0.943109,5.55196 -3.359947,16.661637 -0.618517,2.843197 -1.392309,6.43659 -1.719534,7.985324 -0.327224,1.548735 -0.653357,3.084402 -0.72474,3.412599 l -0.129787,0.596733 0.600184,2.84957 c 0.3301,1.56726 1.053367,4.929955 1.607257,7.472651 2.618581,12.02089 3.597637,16.930938 3.631084,18.210238 0.01163,0.444977 -0.01794,0.594453 -0.145523,0.735498 -0.199765,0.220834 -0.760874,0.239748 -1.060997,0.03575 z M 61.26743,52.830167 c -0.776283,-0.319354 -2.088354,-1.048646 -6.028732,-3.350954 -2.066945,-1.207683 -4.968487,-2.874912 -6.447874,-3.70495 -4.62224,-2.593394 -9.192086,-5.246931 -9.750502,-5.661755 l -0.16811,-0.124883 0.16811,-0.127535 c 0.504689,-0.382868 4.651163,-2.793317 9.456305,-5.497199 1.502503,-0.845462 3.912889,-2.232018 5.356418,-3.081231 4.402694,-2.590062 7.780842,-4.396383 8.222039,-4.396383 0.364341,0 0.570991,0.271379 0.647874,0.850805 0.113571,0.855921 0.176524,19.94191 0.07452,22.591824 -0.08464,2.19878 -0.09702,2.311465 -0.27477,2.500668 -0.240438,0.255932 -0.635819,0.256436 -1.255273,0.0015 z M 37.519172,35.311896 c 0.854352,-4.180231 4.497,-21.084892 4.931142,-22.884261 0.427729,-1.772794 0.732035,-2.7770476 0.897835,-2.9629725 0.405349,-0.4545674 0.828287,-0.1704497 9.099113,6.1125785 6.127965,4.655178 6.49782,4.943404 7.123749,5.551436 0.446279,0.433518 0.525351,0.554414 0.525351,0.803219 0,0.161094 -0.06228,0.381806 -0.138396,0.490481 -0.256366,0.366011 -2.028691,1.43255 -9.219035,5.547758 -3.937771,2.253685 -8.508223,4.879548 -10.156564,5.835254 -1.64834,0.955714 -3.022509,1.737656 -3.053709,1.737656 -0.03121,0 -0.03547,-0.104017 -0.0095,-0.231149 z"
     style="fill:#31ca9c;stroke-width:0.08405604" />
</svg>
