<?xml version="1.0" encoding="UTF-8" standalone="no"?>
<svg
   xmlns:dc="http://purl.org/dc/elements/1.1/"
   xmlns:cc="http://creativecommons.org/ns#"
   xmlns:rdf="http://www.w3.org/1999/02/22-rdf-syntax-ns#"
   xmlns:svg="http://www.w3.org/2000/svg"
   xmlns="http://www.w3.org/2000/svg"
   xmlns:sodipodi="http://sodipodi.sourceforge.net/DTD/sodipodi-0.dtd"
   xmlns:inkscape="http://www.inkscape.org/namespaces/inkscape"
   viewBox="0 0 100 100"
   version="1.1"
   id="svg4"
   sodipodi:docname="lend.svg"
   width="128"   height="128"   inkscape:version="0.92.5 (2060ec1f9f, 2020-04-08)">
  <metadata
     id="metadata10">
    <rdf:RDF>
      <cc:Work
         rdf:about="">
        <dc:format>image/svg+xml</dc:format>
        <dc:type
           rdf:resource="http://purl.org/dc/dcmitype/StillImage" />
        <dc:title></dc:title>
      </cc:Work>
    </rdf:RDF>
  </metadata>
  <defs
     id="defs8" />
  <sodipodi:namedview
     pagecolor="#ffffff"
     bordercolor="#666666"
     borderopacity="1"
     objecttolerance="10"
     gridtolerance="10"
     guidetolerance="10"
     inkscape:pageopacity="0"
     inkscape:pageshadow="2"
     inkscape:window-width="1920"
     inkscape:window-height="1043"
     id="namedview6"
     showgrid="false"
     fit-margin-top="0"
     fit-margin-left="0"
     fit-margin-right="0"
     fit-margin-bottom="0"
     inkscape:zoom="2.95"
     inkscape:cx="40.013077"
     inkscape:cy="40.000005"
     inkscape:window-x="0"
     inkscape:window-y="0"
     inkscape:window-maximized="1"
     inkscape:current-layer="svg4" />
  <g
     id="g818"
     transform="matrix(1.2495509,0,0,1.2499469,0.01633997,0.00424023)">
    <path
       id="path2"
       data-name="Subtraction 16"
       d="m 40,80 a 40.3,40.3 0 0 1 -8.06,-0.81 39.78,39.78 0 0 1 -14.3,-6.02 40.12,40.12 0 0 1 -14.5,-17.6 39.95,39.95 0 0 1 3.7,-37.93 40.12,40.12 0 0 1 17.59,-14.5 39.8,39.8 0 0 1 7.5,-2.33 40.39,40.39 0 0 1 16.13,0 39.78,39.78 0 0 1 14.3,6.02 40.12,40.12 0 0 1 14.5,17.6 39.95,39.95 0 0 1 -3.7,37.94 40.12,40.12 0 0 1 -17.6,14.49 39.8,39.8 0 0 1 -7.5,2.33 A 40.3,40.3 0 0 1 40,80 Z M 27.3,36.33 22.4,41.23 33.86,52.7 22.4,64.15 l 4.9,4.9 16.35,-16.36 z m 6.96,-6.95 -4.87,4.88 16.34,16.34 4.87,-4.88 z M 52.7,10.96 36.35,27.31 52.7,43.67 57.6,38.77 46.14,27.3 57.6,15.85 Z"
       inkscape:connector-curvature="0"
       style="fill:#1e8fca" />
  </g>
</svg>
