<?xml version="1.0" encoding="UTF-8" standalone="no"?>
<!-- Retrieved from https://www.convexfinance.com/static/icons/svg/crypto-icons-stack.svg#lusd -->

<svg
   viewBox="0 0 128 128"
   id="lusd"
   version="1.1"
   sodipodi:docname="lusd.svg"
   width="128"
   height="128"
   inkscape:version="1.1.2 (b8e25be833, 2022-02-05)"
   xmlns:inkscape="http://www.inkscape.org/namespaces/inkscape"
   xmlns:sodipodi="http://sodipodi.sourceforge.net/DTD/sodipodi-0.dtd"
   xmlns="http://www.w3.org/2000/svg"
   xmlns:svg="http://www.w3.org/2000/svg">
  <defs
     id="defs9">
    <linearGradient
       id="paint0_linear_10487_2339"
       x1="404"
       y1="139.991"
       x2="115.507"
       y2="380.48599"
       gradientUnits="userSpaceOnUse">
      <stop
         stop-color="#00A3FF"
         id="stop10" />
      <stop
         offset="1"
         stop-color="#3ADCFF"
         id="stop12" />
    </linearGradient>
  </defs>
  <sodipodi:namedview
     id="namedview7"
     pagecolor="#ffffff"
     bordercolor="#999999"
     borderopacity="1"
     inkscape:pageshadow="0"
     inkscape:pageopacity="0"
     inkscape:pagecheckerboard="0"
     showgrid="false"
     fit-margin-top="0"
     fit-margin-left="0"
     fit-margin-right="0"
     fit-margin-bottom="0"
     inkscape:zoom="1.884"
     inkscape:cx="63.95966"
     inkscape:cy="63.95966"
     inkscape:window-width="1280"
     inkscape:window-height="658"
     inkscape:window-x="-6"
     inkscape:window-y="-6"
     inkscape:window-maximized="1"
     inkscape:current-layer="lusd" />
  <path
     d="M 64.000001,128 C 99.346251,128 128,99.346252 128,64.000002 128,28.653752 99.346251,2.2e-6 64.000001,2.2e-6 28.653751,2.2e-6 1.15e-6,28.653752 1.15e-6,64.000002 1.15e-6,99.346252 28.653751,128 64.000001,128 Z"
     fill="white"
     id="path2"
     style="fill:#ffffff;stroke-width:0.25" />
  <circle
     cx="64"
     cy="64"
     r="64"
     fill="#ffffff"
     id="circle2"
     style="stroke-width:0.512" />
  <g
     id="g115"
     transform="translate(0.16597226)">
    <path
       style="fill:#9ddbf3;stroke-width:0.512"
       d="M 48.896,126.24244 C 37.828716,123.37185 28.589198,118.44513 20.926846,111.32866 7.2452224,98.621737 0.00875742,82.152366 0.00205892,63.706225 -0.00882829,33.725365 21.353285,7.4507479 50.770748,1.2625934 56.852511,-0.01674473 56.32,-0.77248758 56.32,9.1381376 v 8.6261374 l -3.871396,1.913347 c -5.352553,2.645376 -9.391158,6.68823 -11.872477,11.88497 C 38.674173,35.545939 38.656,35.644573 38.656,41.984 c 0,6.106923 0.07293,6.5524 1.592503,9.728 1.844425,3.854464 4.94528,7.533071 8.289407,9.833892 2.418152,1.663734 12.777244,7.062108 13.551675,7.062108 1.318103,0 9.629132,4.65172 11.434608,6.4 4.404757,4.265221 4.057278,10.74815 -0.820649,15.310879 -2.711813,2.536586 -5.011492,3.37005 -9.310213,3.374264 -3.656642,0.0036 -4.944701,-0.488402 -7.629936,-2.914355 C 53.259776,88.51692 51.852826,85.563781 51.025208,80.83349 L 50.432,77.442975 44.288,79.147464 c -11.469183,3.181813 -10.768968,2.861737 -10.630048,4.85912 0.242286,3.483582 2.854427,10.355415 5.360749,14.102677 3.666918,5.482499 10.092609,10.187849 15.893299,11.638209 l 1.408,0.35204 v 8.69424 8.69425 l -1.408,-0.0252 c -0.7744,-0.0138 -3.4816,-0.56302 -6.016,-1.22038 z m 26.484081,-8.3173 0.139919,-9.10173 2.863713,-1.37239 c 3.483541,-1.66944 8.677991,-6.37642 10.910413,-9.886548 5.521813,-8.682158 6.425088,-19.146009 2.383729,-27.613916 C 88.783299,63.885558 83.628677,59.481999 74.496,55.272212 56.994381,47.204686 55.091988,45.705212 56.028022,40.715706 c 1.026022,-5.469161 8.728673,-8.648105 14.196086,-5.858837 2.481387,1.265909 3.979914,2.858879 6.102512,6.487131 0.864891,1.4784 1.801201,2.688 2.080686,2.688 1.11317,0 13.752694,-8.472378 13.752694,-9.218545 0,-1.637124 -3.965312,-7.400156 -7.176207,-10.429633 -1.856758,-1.751844 -4.748642,-3.826217 -6.521273,-4.677764 L 75.27746,18.176 75.270728,9.7978655 75.264,1.4197311 77.562184,1.7643654 c 1.264005,0.1895487 4.236498,0.9998254 6.605547,1.8006148 20.569199,6.9528308 36.218729,23.8806198 41.497429,44.8869448 7.40326,29.460938 -6.18764,59.163755 -33.326492,72.834835 -4.199266,2.11537 -11.58016,4.7381 -15.166587,5.38932 l -1.931915,0.35079 z"
       id="path129" />
    <path
       style="fill:#a697e9;stroke-width:0.512"
       d="M 50.688,126.48393 C 25.911966,121.17792 6.9236157,102.02942 1.4196098,76.8 -0.02524191,70.17705 -0.12062581,57.959301 1.2239097,51.732731 4.0704736,38.550246 9.6824586,28.133338 18.907898,18.907898 26.20016,11.615636 34.478161,6.4570772 43.776,3.4109714 47.396091,2.2249776 54.525476,0.512 55.841475,0.512 56.118784,0.512 56.32,4.053438 56.32,8.9340805 v 8.4220815 l -4.172088,2.170559 C 45.0756,23.206141 40.924254,28.274633 38.721986,35.9188 c -2.627878,9.121479 1.043486,19.445567 8.997256,25.300799 2.843944,2.093589 10.443251,6.130704 14.754522,7.838306 4.794383,1.898951 8.660444,4.117534 10.814628,6.206095 2.022922,1.961298 2.428467,2.693468 2.726471,4.922409 0.701584,5.247421 -2.003998,9.903083 -7.150863,12.304932 -8.086272,3.773558 -16.185165,-1.684183 -17.384607,-11.715272 -0.193085,-1.614761 -0.554722,-3.061796 -0.803641,-3.215636 -0.24892,-0.153846 -2.709595,0.318494 -5.468167,1.049635 -2.758572,0.731147 -6.397985,1.690624 -8.087585,2.132178 -4.503366,1.176889 -4.497436,1.163761 -3.042821,6.737828 1.57905,6.050903 3.775607,10.192881 7.544775,14.226946 3.483856,3.72871 6.908114,6.0435 11.28168,7.62641 l 3.160366,1.14382 0.14038,8.50538 c 0.109543,6.63705 -0.0031,8.49745 -0.512,8.46935 -0.358809,-0.0198 -2.61078,-0.45544 -5.00438,-0.96805 z m 24.576,-8.46056 v -8.95263 l 2.951654,-1.48999 C 84.380948,104.46852 89.223547,99.151212 92.250035,92.170614 93.857894,88.462075 93.920092,88.064968 93.935749,81.408 93.95198,74.49858 93.951314,74.494541 92.086682,70.589998 88.603146,63.295442 83.474913,59.050916 71.995607,53.961068 61.600102,49.351766 57.877555,47.060931 56.521329,44.438282 c -1.540583,-2.979167 0.03743,-6.884607 3.695247,-9.145248 1.431491,-0.884708 2.588052,-1.126415 5.308401,-1.109385 5.086325,0.03184 7.325199,1.512927 10.630415,7.032351 1.011789,1.6896 1.891174,3.142836 1.954191,3.229412 0.11626,0.159728 2.703079,-1.43838 10.359506,-6.399985 l 4.24509,-2.750952 -1.57778,-2.960216 C 88.356193,27.118055 84.82367,23.266194 80.497772,20.733915 78.334976,19.467862 76.272594,18.432 75.914706,18.432 75.414584,18.432 75.264,16.466585 75.264,9.9389962 V 1.4459926 l 2.176,0.3581515 c 6.878689,1.1321746 17.780511,6.1105429 24.46232,11.1708339 11.06051,8.376386 19.0823,19.885727 22.9514,32.929756 5.54894,18.707316 2.58267,37.977025 -8.38047,54.441826 -6.49831,9.75937 -18.775202,19.36944 -30.071842,23.53954 -2.668677,0.98513 -9.986647,3.0899 -10.743117,3.0899 -0.216863,0 -0.394291,-4.02868 -0.394291,-8.95263 z"
       id="path127" />
    <path
       style="fill:#68c9ed;stroke-width:0.512"
       d="M 50.688,126.48393 C 25.911966,121.17792 6.9236157,102.02942 1.4196098,76.8 -0.02524191,70.17705 -0.12062581,57.959301 1.2239097,51.732731 4.0704736,38.550246 9.6824586,28.133338 18.907898,18.907898 26.20016,11.615636 34.478161,6.4570772 43.776,3.4109714 47.396091,2.2249776 54.525476,0.512 55.841475,0.512 56.118784,0.512 56.32,4.053438 56.32,8.9340805 v 8.4220815 l -4.172088,2.170559 C 45.0756,23.206141 40.924254,28.274633 38.721986,35.9188 c -2.627878,9.121479 1.043486,19.445567 8.997256,25.300799 2.843944,2.093589 10.443251,6.130704 14.754522,7.838306 4.794383,1.898951 8.660444,4.117534 10.814628,6.206095 2.022922,1.961298 2.428467,2.693468 2.726471,4.922409 0.701584,5.247421 -2.003998,9.903083 -7.150863,12.304932 -8.086272,3.773558 -16.185165,-1.684183 -17.384607,-11.715272 -0.193085,-1.614761 -0.554722,-3.061796 -0.803641,-3.215636 -0.24892,-0.153846 -2.709595,0.318494 -5.468167,1.049635 -2.758572,0.731147 -6.397985,1.690624 -8.087585,2.132178 -4.503366,1.176889 -4.497436,1.163761 -3.042821,6.737828 1.57905,6.050903 3.775607,10.192881 7.544775,14.226946 3.483856,3.72871 6.908114,6.0435 11.28168,7.62641 l 3.160366,1.14382 0.14038,8.50538 c 0.109543,6.63705 -0.0031,8.49745 -0.512,8.46935 -0.358809,-0.0198 -2.61078,-0.45544 -5.00438,-0.96805 z m 24.58133,-8.38534 0.0053,-8.78659 3.19467,-1.4771 c 4.34712,-2.00995 10.424965,-8.144583 12.820208,-12.939996 1.978,-3.960064 3.434271,-9.779753 3.422603,-13.677711 C 94.694369,75.291592 91.742433,67.652879 87.889618,63.562732 85.665239,61.201336 79.711073,57.229768 75.465923,55.275837 64.682701,50.312603 59.494134,47.590849 58.220774,46.229589 c -2.813255,-3.007463 -2.188636,-7.410352 1.444393,-10.1814 1.573725,-1.200336 2.537943,-1.497836 5.373998,-1.658087 5.366283,-0.303222 7.324314,1.129475 11.952799,8.745898 0.4706,0.7744 1.114476,1.408 1.43084,1.408 0.31636,0 1.751051,-0.77413 3.188194,-1.720288 1.437148,-0.946158 4.637762,-3.020237 7.112478,-4.609064 l 4.499482,-2.888775 -1.683482,-3.16341 C 89.155103,27.682008 82.551542,21.127172 78.465178,19.18463 L 75.26635,17.664 75.265178,9.6651817 75.264,1.6663632 79.296978,2.605442 c 10.672087,2.4849936 20.370401,7.902512 28.641342,15.999174 11.58361,11.339514 18.12925,25.850563 19.32221,42.835384 0.85594,12.186481 -3.08696,26.639196 -10.26653,37.632 -8.85829,13.56313 -22.95367,23.43297 -38.716947,27.11029 l -3.013053,0.70289 0.0053,-8.78659 z"
       id="path125" />
    <path
       style="fill:#45bdea;stroke-width:0.512"
       d="M 50.737606,126.40483 C 29.951886,122.04222 12.473223,107.21231 4.6435893,87.296 -0.58776545,73.988956 -1.1303947,58.695946 3.1312407,44.673229 5.5505864,36.712483 11.576281,26.53891 17.860182,19.805399 20.416073,17.066634 26.863644,11.923962 30.976,9.3440389 36.680408,5.7653279 44.649094,2.7429101 52.096,1.3335007 L 55.808,0.63096356 V 9.2348006 17.838638 l -1.443405,0.317025 c -1.994803,0.438132 -7.228907,3.939009 -9.796811,6.552683 C 43.394291,25.902756 41.468875,28.8384 40.28908,31.232 L 38.144,35.584 v 6.4 c 0,5.576764 0.148183,6.712112 1.152,8.82642 0.6336,1.334532 1.152,2.626011 1.152,2.869954 0,0.924016 6.403974,7.38242 8.906769,8.982466 2.782734,1.779016 12.508143,6.576174 14.645231,7.223911 0.704,0.213381 2.3168,0.967808 3.584,1.676508 6.901996,3.86004 8.384,5.736008 8.384,10.612741 0,3.420708 -0.926285,5.478569 -3.612134,8.024817 -1.706082,1.617403 -6.392505,3.494558 -8.725269,3.494927 -2.104868,3.28e-4 -6.719135,-2.056033 -8.177014,-3.644104 -1.709066,-1.861698 -3.601136,-6.511099 -3.983037,-9.787571 -0.188216,-1.614761 -0.539433,-3.057817 -0.780479,-3.206789 -0.241046,-0.148977 -1.434521,0.06239 -2.652166,0.469699 -1.217646,0.407311 -4.057101,1.231667 -6.309901,1.831905 -9.442011,2.515722 -8.714827,2.142582 -8.617453,4.421908 0.0476,1.114245 0.682737,3.858591 1.411413,6.09855 3.135498,9.638579 8.756707,15.781228 17.83004,19.484018 l 3.456,1.41038 v 8.35713 c 0,4.59642 -0.0576,8.34077 -0.128,8.32078 -0.0704,-0.02 -2.294477,-0.49107 -4.942394,-1.04682 z m 24.531724,-8.30624 0.0053,-8.78659 3.19467,-1.4771 c 4.34712,-2.00995 10.424965,-8.144583 12.820208,-12.939996 1.978,-3.960064 3.434271,-9.779753 3.422603,-13.677711 C 94.694369,75.291592 91.742433,67.652879 87.889618,63.562732 85.665239,61.201336 79.711073,57.229768 75.465923,55.275837 64.682701,50.312603 59.494134,47.590849 58.220774,46.229589 c -2.813255,-3.007463 -2.188636,-7.410352 1.444393,-10.1814 1.573725,-1.200336 2.537943,-1.497836 5.373998,-1.658087 5.366283,-0.303222 7.324314,1.129475 11.952799,8.745898 0.4706,0.7744 1.114476,1.408 1.43084,1.408 0.31636,0 1.751051,-0.77413 3.188194,-1.720288 1.437148,-0.946158 4.637762,-3.020237 7.112478,-4.609064 l 4.499482,-2.888775 -1.683482,-3.16341 C 89.155103,27.682008 82.551542,21.127172 78.465178,19.18463 L 75.26635,17.664 75.265178,9.6651817 75.264,1.6663632 79.296978,2.605442 c 10.672087,2.4849936 20.370401,7.902512 28.641342,15.999174 11.58361,11.339514 18.12925,25.850563 19.32221,42.835384 0.85594,12.186481 -3.08696,26.639196 -10.26653,37.632 -8.85829,13.56313 -22.95367,23.43297 -38.716947,27.11029 l -3.013053,0.70289 0.0053,-8.78659 z"
       id="path123" />
    <path
       style="fill:#8774e2;stroke-width:0.512"
       d="M 50.176,126.24634 C 45.178947,125.13775 40.314333,123.32313 34.816,120.5167 22.767976,114.3672 13.63229,105.23146 7.4834816,93.184 1.9294364,82.301875 -0.37455946,70.867523 0.56388736,58.843197 2.7305973,31.081134 22.610795,8.1692104 50.079771,1.7761538 51.857244,1.3624692 53.878953,1.024 54.572452,1.024 h 1.260912 L 55.692682,9.2930196 55.552,17.562039 l -1.792,0.6243 c -0.9856,0.343365 -3.205143,1.565504 -4.932317,2.715865 -8.25376,5.497302 -12.12292,14.482352 -10.842114,25.177796 0.714524,5.966679 4.182187,11.61662 9.546561,15.554432 2.283518,1.676257 13.149634,7.485568 14.001494,7.485568 0.880113,0 7.983693,3.59957 10.00447,5.069522 4.268938,3.105316 5.441705,7.955978 3.057459,12.645919 -3.423411,6.734039 -12.847411,8.435358 -18.641966,3.365452 -1.906027,-1.667671 -3.736601,-5.744281 -4.270807,-9.510912 -0.278671,-1.964902 -0.604064,-3.669934 -0.723092,-3.788958 -0.26837,-0.26837 -5.458349,0.924457 -6.159688,1.4157 -0.2816,0.197243 -2.424089,0.783335 -4.761085,1.302431 -2.336997,0.519096 -4.366595,1.133942 -4.510217,1.366328 -0.143622,0.232387 -0.855256,0.422518 -1.581407,0.422518 -1.304411,0 -1.316163,0.03502 -0.977993,2.912297 0.781585,6.650076 4.245238,13.700721 9.014702,18.350413 4.53955,4.42556 7.144262,6.08778 11.648,7.43329 l 2.176,0.65009 v 8.11095 8.11096 L 54.4,126.9235 c -0.7744,-0.0289 -2.6752,-0.3336 -4.224,-0.6772 z m 25.09333,-8.14775 0.0053,-8.78659 3.19467,-1.4771 c 4.34712,-2.00995 10.424965,-8.144583 12.820208,-12.939996 1.978,-3.960064 3.434271,-9.779753 3.422603,-13.677711 C 94.694369,75.291592 91.742433,67.652879 87.889618,63.562732 85.665239,61.201336 79.711073,57.229768 75.465923,55.275837 64.682701,50.312603 59.494134,47.590849 58.220774,46.229589 c -2.813255,-3.007463 -2.188636,-7.410352 1.444393,-10.1814 1.573725,-1.200336 2.537943,-1.497836 5.373998,-1.658087 5.366283,-0.303222 7.324314,1.129475 11.952799,8.745898 0.4706,0.7744 1.114476,1.408 1.43084,1.408 0.31636,0 1.751051,-0.77413 3.188194,-1.720288 1.437148,-0.946158 4.637762,-3.020237 7.112478,-4.609064 l 4.499482,-2.888775 -1.683482,-3.16341 C 89.155103,27.682008 82.551542,21.127172 78.465178,19.18463 L 75.26635,17.664 75.265178,9.6651817 75.264,1.6663632 79.296978,2.605442 c 10.672087,2.4849936 20.370401,7.902512 28.641342,15.999174 11.58361,11.339514 18.12925,25.850563 19.32221,42.835384 0.85594,12.186481 -3.08696,26.639196 -10.26653,37.632 -8.85829,13.56313 -22.95367,23.43297 -38.716947,27.11029 l -3.013053,0.70289 0.0053,-8.78659 z"
       id="path121" />
    <path
       style="fill:#2db4e8;stroke-width:0.512"
       d="M 50.176,126.24634 C 45.178947,125.13775 40.314333,123.32313 34.816,120.5167 22.767976,114.3672 13.63229,105.23146 7.4834816,93.184 1.9294364,82.301875 -0.37455946,70.867523 0.56388736,58.843197 2.7305973,31.081134 22.610795,8.1692104 50.079771,1.7761538 51.857244,1.3624692 53.878953,1.024 54.572452,1.024 h 1.260912 L 55.692682,9.2930196 55.552,17.562039 l -1.792,0.6243 c -0.9856,0.343365 -3.205143,1.565504 -4.932317,2.715865 -8.25376,5.497302 -12.12292,14.482352 -10.842114,25.177796 0.714524,5.966679 4.182187,11.61662 9.546561,15.554432 2.283518,1.676257 13.149634,7.485568 14.001494,7.485568 0.880113,0 7.983693,3.59957 10.00447,5.069522 4.268938,3.105316 5.441705,7.955978 3.057459,12.645919 -3.423411,6.734039 -12.847411,8.435358 -18.641966,3.365452 -1.906027,-1.667671 -3.736601,-5.744281 -4.270807,-9.510912 -0.278671,-1.964902 -0.604064,-3.669934 -0.723092,-3.788958 -0.26837,-0.26837 -5.458349,0.924457 -6.159688,1.4157 -0.2816,0.197243 -2.424089,0.783335 -4.761085,1.302431 -2.336997,0.519096 -4.366595,1.133942 -4.510217,1.366328 -0.143622,0.232387 -0.855256,0.422518 -1.581407,0.422518 -1.304411,0 -1.316163,0.03502 -0.977993,2.912297 0.781585,6.650076 4.245238,13.700721 9.014702,18.350413 4.53955,4.42556 7.144262,6.08778 11.648,7.43329 l 2.176,0.65009 v 8.11095 8.11096 L 54.4,126.9235 c -0.7744,-0.0289 -2.6752,-0.3336 -4.224,-0.6772 z m 25.088,-8.09794 v -8.40561 L 78.72,108.01 c 6.810906,-3.41487 13.207311,-11.487279 15.217464,-19.204778 1.227592,-4.713057 1.020073,-12.038983 -0.459806,-16.232105 -1.497134,-4.241991 -2.447739,-5.775534 -5.653847,-9.120931 -3.55646,-3.710971 -7.701883,-6.363044 -15.356329,-9.824354 -9.210737,-4.165064 -11.74207,-5.500305 -13.969081,-7.368483 -1.757435,-1.474264 -1.91936,-1.828934 -1.88693,-4.133018 0.04434,-3.152443 1.213005,-4.884493 4.42751,-6.562034 5.951575,-3.105929 11.778698,-0.245038 15.953838,7.832712 0.862613,1.668924 0.862741,1.668967 2.461968,0.841974 1.444725,-0.747097 4.05035,-2.364313 11.297213,-7.01178 1.3376,-0.857813 2.432,-1.786716 2.432,-2.064228 0,-0.277513 -0.845174,-2.02431 -1.878159,-3.881772 C 88.754949,26.694332 83.103672,21.171495 78.72,18.981413 L 75.264,17.254796 V 9.6513976 c 0,-4.1818685 0.1728,-7.5953038 0.384,-7.5854114 0.2112,0.00989 1.7664,0.3403791 3.456,0.7344151 14.531794,3.3889962 27.79823,12.6027117 36.94065,25.6557717 4.06121,5.798382 8.63876,17.01852 10.01004,24.535827 0.8385,4.596608 0.84491,18.439306 0.0106,22.877292 -3.59294,19.112084 -15.69363,35.471318 -33.04746,44.677708 -3.802265,2.01714 -12.282946,5.08851 -15.577835,5.64168 l -2.176,0.36533 v -8.40561 z"
       id="path119" />
    <path
       style="fill:#735cdd;stroke-width:0.512"
       d="m 75.264,118.1484 v -8.40561 L 78.72,108.01 c 6.810906,-3.41487 13.207311,-11.487279 15.217464,-19.204778 1.227592,-4.713057 1.020073,-12.038983 -0.459806,-16.232105 -1.497134,-4.241991 -2.447739,-5.775534 -5.653847,-9.120931 -3.55646,-3.710971 -7.701883,-6.363044 -15.356329,-9.824354 -9.210737,-4.165064 -11.74207,-5.500305 -13.969081,-7.368483 -1.757435,-1.474264 -1.91936,-1.828934 -1.88693,-4.133018 0.04434,-3.152443 1.213005,-4.884493 4.42751,-6.562034 5.951575,-3.105929 11.778698,-0.245038 15.953838,7.832712 0.862613,1.668924 0.862741,1.668967 2.461968,0.841974 1.444725,-0.747097 4.05035,-2.364313 11.297213,-7.01178 1.3376,-0.857813 2.432,-1.786716 2.432,-2.064228 0,-0.277513 -0.845174,-2.02431 -1.878159,-3.881772 C 88.754949,26.694332 83.103672,21.171495 78.72,18.981413 L 75.264,17.254796 V 9.6513976 c 0,-4.1818685 0.1728,-7.5953038 0.384,-7.5854114 0.2112,0.00989 1.7664,0.3403791 3.456,0.7344151 14.531794,3.3889962 27.79823,12.6027117 36.94065,25.6557717 4.06121,5.798382 8.63876,17.01852 10.01004,24.535827 0.8385,4.596608 0.84491,18.439306 0.0106,22.877292 -3.59294,19.112084 -15.69363,35.471318 -33.04746,44.677708 -3.802265,2.01714 -12.282946,5.08851 -15.577835,5.64168 l -2.176,0.36533 v -8.40561 z"
       id="path117" />
  </g>
  <g
     style="fill:none"
     id="g246"
     transform="translate(-7.5140277,-0.512)" />
</svg>
