<?xml version="1.0" encoding="UTF-8" standalone="no"?>
<svg
   width="128"
   height="128"
   viewBox="0 0 128 128"
   fill="none"
   version="1.1"
   id="svg8"
   sodipodi:docname="matic.svg"
   inkscape:version="1.1.2 (b8e25be833, 2022-02-05)"
   xmlns:inkscape="http://www.inkscape.org/namespaces/inkscape"
   xmlns:sodipodi="http://sodipodi.sourceforge.net/DTD/sodipodi-0.dtd"
   xmlns="http://www.w3.org/2000/svg"
   xmlns:svg="http://www.w3.org/2000/svg">
  <defs
     id="defs12" />
  <sodipodi:namedview
     id="namedview10"
     pagecolor="#ffffff"
     bordercolor="#999999"
     borderopacity="1"
     inkscape:pageshadow="0"
     inkscape:pageopacity="0"
     inkscape:pagecheckerboard="0"
     showgrid="false"
     fit-margin-top="0"
     fit-margin-left="0"
     fit-margin-right="0"
     fit-margin-bottom="0"
     inkscape:zoom="19.625"
     inkscape:cx="64.433121"
     inkscape:cy="-0.53503185"
     inkscape:window-width="1280"
     inkscape:window-height="658"
     inkscape:window-x="-6"
     inkscape:window-y="-6"
     inkscape:window-maximized="1"
     inkscape:current-layer="svg8" />
  <path
     d="M 64,128 C 99.346133,128 128,99.346133 128,64 128,28.65376 99.346133,0 64,0 28.65376,0 0,28.65376 0,64 c 0,35.346133 28.65376,64 64,64 z"
     fill="#854ce6"
     id="path2"
     style="stroke-width:5.33333" />
  <path
     d="m 84.973333,100.7968 0.544,-0.2208 9.1184,-5.301867 9.407467,-5.4592 c 0.50187,-0.2736 0.95573,-0.625066 1.34347,-1.0416 0.688,-0.724266 1.1344,-1.637866 1.28,-2.6192 0,-0.442133 0,-22.0912 0,-22.564266 -0.17387,-1.088534 -0.6752,-2.099734 -1.44,-2.903467 -0.71574,-0.666667 -1.52374,-1.229867 -2.39947,-1.672533 L 85.709333,49.136107 C 84.990933,48.8144 84.210667,48.648 83.421333,48.648 c -0.7888,0 -1.568533,0.1664 -2.287466,0.488107 -0.288,0 -2.24,1.23072 -6.559467,3.72384 L 64.08,58.950933 53.713067,64.946667 c -3.199414,1.9568 -6.17504,3.597866 -6.39904,3.6608 -0.7232,0.362666 -1.524534,0.546133 -2.335574,0.536533 -0.803306,0.0016 -1.598346,-0.158933 -2.335786,-0.473067 -0.351947,0 -9.918774,-5.649066 -10.43072,-6.027733 -0.50096,-0.376 -0.94304,-0.8224 -1.31184,-1.325333 -0.40944,-0.616534 -0.70208,-1.3008 -0.863894,-2.020267 -0.114293,-2.1024 -0.114293,-4.209067 0,-6.311413 -0.257333,-2.44992 -0.182026,-4.922774 0.224,-7.353014 0.210294,-0.593386 0.500854,-1.156 0.863894,-1.672586 0.363146,-0.489707 0.806453,-0.916427 1.31184,-1.2624 0.383946,-0.25248 9.598773,-5.648854 9.88672,-5.86976 0.742613,-0.337067 1.550293,-0.511574 2.36768,-0.511574 0.81744,0 1.625226,0.174507 2.367786,0.511574 0.319947,0.157813 9.598934,5.554186 10.3024,5.96448 0.677867,0.4536 1.237334,1.0592 1.632,1.7672 0.257067,0.433973 0.4512,0.901386 0.576,1.388586 v 0.47344 3.944747 c 0,2.177547 0,3.976053 0,3.976053 L 63.824,51.913227 68.015467,49.483253 v -3.944746 c 0,-4.386614 0,-4.228854 -0.288,-5.112534 -0.3888,-1.062133 -1.0768,-1.99264 -1.983467,-2.682346 C 65.424,37.52272 48.01792,27.424053 47.186027,26.98224 l -0.67184,-0.315573 H 46.22624 43.026613 L 42.546667,26.856 c -0.351947,0.15776 -2.815627,1.5464 -9.598774,5.459627 -5.02336,2.90336 -9.24688,5.364853 -9.406826,5.491093 -0.577387,0.396747 -1.069707,0.901973 -1.448587,1.48688 -0.378827,0.584907 -0.6368,1.237813 -0.759147,1.921387 0,0.44176 0,0.78896 0,11.581866 0,10.793014 0,11.17168 0,11.581814 0.12304,0.7008 0.39568,1.367466 0.799894,1.9568 0.416693,0.589333 0.924106,1.110933 1.503786,1.546133 0.416,0.252267 18.17376,10.572267 18.621707,10.793067 0.76592,0.354666 1.601547,0.538133 2.44768,0.538133 0.84608,0 1.681813,-0.183467 2.447733,-0.538133 l 6.398934,-3.755734 C 58.768533,71.7632 60.4,70.911467 63.888,68.986133 67.375467,67.061333 68.335467,66.5248 74.2544,62.9584 l 6.399467,-3.8816 c 1.341333,-0.606933 2.871466,-0.663467 4.255466,-0.157333 0.224,0.05547 0.438934,0.140266 0.64,0.252266 0.384,0.189334 10.0144,5.995734 10.3024,6.311467 1.093334,0.854933 1.824,2.0816 2.048,3.44 0,0.567467 0,12.3392 0,12.9072 -0.2272,1.397333 -0.995733,2.653333 -2.144,3.502933 -0.32,0.2208 -9.5984,5.712 -10.3344,6.027734 -0.730133,0.321066 -1.520533,0.486933 -2.32,0.486933 -0.798933,0 -1.589866,-0.165867 -2.319466,-0.486933 -0.256,0 -2.112,-1.198934 -5.279467,-3.155734 L 70.351467,85.0496 c -0.918934,-0.692267 -1.608534,-1.636267 -1.984,-2.714133 -0.256,-0.789334 -0.256,-0.568 -0.288,-4.986134 V 73.309867 L 63.888,75.739733 59.696533,78.1696 v 4.070933 c 0,4.418134 0,4.386667 0.224,5.144 0.181867,0.554134 0.451734,1.076267 0.799467,1.546667 0.360533,0.481067 0.792,0.906667 1.28,1.2624 0.288,0.2208 17.981867,10.57173 18.397867,10.79253 0.416,0.22134 0.64,0.3472 2.4,0.3472 h 1.568 z"
     fill="#ffffff"
     id="path4"
     style="stroke-width:5.33333" />
  <path
     d="M 125.33333,64 C 125.33333,97.8736 97.8736,125.33333 64,125.33333 30.12656,125.33333 2.666667,97.8736 2.666667,64 2.666667,30.12656 30.12656,2.666667 64,2.666667 97.8736,2.666667 125.33333,30.12656 125.33333,64 Z"
     stroke="#000000"
     stroke-opacity="0.097"
     id="path6"
     style="stroke-width:5.33333" />
</svg>
