<?xml version="1.0" encoding="UTF-8" standalone="no"?>
<!-- Created with Inkscape (http://www.inkscape.org/) -->

<svg
   version="1.1"
   id="svg2"
   width="128"
   height="128"
   viewBox="0 0 128 128"
   sodipodi:docname="mim.svg"
   inkscape:version="1.1.2 (b8e25be833, 2022-02-05)"
   xmlns:inkscape="http://www.inkscape.org/namespaces/inkscape"
   xmlns:sodipodi="http://sodipodi.sourceforge.net/DTD/sodipodi-0.dtd"
   xmlns="http://www.w3.org/2000/svg"
   xmlns:svg="http://www.w3.org/2000/svg">
  <defs
     id="defs6" />
  <sodipodi:namedview
     id="namedview4"
     pagecolor="#ffffff"
     bordercolor="#999999"
     borderopacity="1"
     inkscape:pageshadow="0"
     inkscape:pageopacity="0"
     inkscape:pagecheckerboard="0"
     showgrid="false"
     fit-margin-top="0"
     fit-margin-left="0"
     fit-margin-right="0"
     fit-margin-bottom="0"
     inkscape:zoom="3.6796875"
     inkscape:cx="63.728238"
     inkscape:cy="66.989384"
     inkscape:window-width="1280"
     inkscape:window-height="658"
     inkscape:window-x="-6"
     inkscape:window-y="-6"
     inkscape:window-maximized="1"
     inkscape:current-layer="g8" />
  <g
     inkscape:groupmode="layer"
     inkscape:label="Image"
     id="g8"
     transform="translate(-0.2717777,3.0044117)">
    <path
       style="fill:#ffffff;stroke-width:1.00101"
       d="M 50.259244,123.53394 C 39.525472,121.2411 27.920622,114.71335 19.215134,106.07157 -6.0451259,80.996177 -6.0423741,41.405427 19.221434,15.943423 c 25.069499,-25.2662047 64.650933,-25.2634523 90.106946,0.0063 25.26027,25.0754 25.25751,64.66615 -0.006,90.128147 -15.472129,15.59322 -37.418611,22.07953 -59.0631,17.45606 z M 72.054723,84.286859 72.331016,69.019657 h 2.845501 c 4.945793,0 20.333517,-3.009418 23.799534,-4.654538 C 102.8546,62.524194 103.3104,59.825833 100.12034,57.5909 97.738261,55.922039 87.142067,53.470731 78.034009,52.481484 l -5.755132,-0.625078 v -4.433038 -4.433039 h 10.509371 10.50937 v -7.523582 -7.523581 l -29.276103,0.265403 -29.276103,0.265404 -0.294073,7.258178 -0.294071,7.258178 h 11.053665 11.053666 v 4.374101 4.374101 l -8.826958,1.132278 c -13.94346,1.788598 -22.200707,4.834107 -22.200707,8.188255 0,2.816047 11.347207,6.45295 23.597715,7.563324 l 7.42995,0.673443 v 15.421509 15.42151 l 7.756916,-0.292398 7.756916,-0.29239 z M 49.23588,65.976611 c -14.154001,-1.263743 -21.774679,-4.11808 -19.218812,-7.198435 1.506157,-1.815235 7.089865,-3.491074 14.236822,-4.272898 3.027699,-0.331208 6.968713,-0.825443 8.757808,-1.098297 l 3.252901,-0.4961 v 5.551568 5.551568 h 8.007139 8.007139 v -5.459036 -5.459036 l 5.254686,0.52976 c 13.046079,1.315265 22.328768,4.204759 21.499758,6.692394 -0.74701,2.241559 -9.825995,4.695842 -21.046152,5.689317 -12.374534,1.095688 -16.180164,1.09161 -28.751289,-0.03081 z"
       id="path100" />
    <g
       id="g48"
       transform="matrix(0.3572841,0,0,0.3572841,20.29404,10.614075)">
      <path
         style="fill:#fbd655"
         d="M 82.786212,240.25 82.5,230.5 l -10,-0.5 -10,-0.5 -0.5,-10 -0.5,-10 -10,-0.5 -10,-0.5 -0.5,-10 -0.5,-10 -10,-0.5 -10,-0.5 -0.5,-10 -0.5,-10 L 9.75,167.21379 0,166.92758 V 125 83.072424 L 9.75,82.786212 19.5,82.5 l 0.5,-10 0.5,-10 10,-0.5 10,-0.5 0.5,-10 0.5,-10 10,-0.5 10,-0.5 0.5,-10 0.5,-10 10,-0.5 10,-0.5 L 82.786212,9.75 83.072424,0 H 125 166.92758 l 0.28621,9.75 0.28621,9.75 10,0.5 10,0.5 0.5,10 0.5,10 10,0.5 10,0.5 0.5,10 0.5,10 10,0.5 10,0.5 0.5,10 0.5,10 9.75,0.286212 9.75,0.286212 V 125 166.92758 l -9.75,0.28621 -9.75,0.28621 -0.5,10 -0.5,10 -10,0.5 -10,0.5 -0.5,10 -0.5,10 -10,0.5 -10,0.5 -0.5,10 -0.5,10 -10,0.5 -10,0.5 -0.28621,9.75 -0.28621,9.75 H 125 83.072424 Z"
         id="path54" />
      <path
         style="fill:#9694f5"
         d="M 82.786212,240.25 82.5,230.5 l -10,-0.5 -10,-0.5 -0.5,-10 -0.5,-10 -10,-0.5 -10,-0.5 -0.5,-10 -0.5,-10 -10,-0.5 -10,-0.5 -0.5,-10 -0.5,-10 L 9.75,167.21379 0,166.92758 V 125 83.072424 L 9.75,82.786212 19.5,82.5 l 0.5,-10 0.5,-10 10,-0.5 10,-0.5 0.5,-10 0.5,-10 10,-0.5 10,-0.5 0.5,-10 0.5,-10 10,-0.5 10,-0.5 L 82.786212,9.75 83.072424,0 H 125 166.92758 l 0.28621,9.75 0.28621,9.75 10,0.5 10,0.5 0.5,10 0.5,10 10,0.5 10,0.5 0.5,10 0.5,10 10,0.5 10,0.5 0.5,10 0.5,10 9.75,0.286212 9.75,0.286212 V 125 166.92758 l -9.75,0.28621 -9.75,0.28621 -0.5,10 -0.5,10 -10,0.5 -10,0.5 -0.5,10 -0.5,10 -10,0.5 -10,0.5 -0.5,10 -0.5,10 -10,0.5 -10,0.5 -0.28621,9.75 -0.28621,9.75 H 125 83.072424 Z m 83.441808,-33.5 c 0.2431,-0.6875 0.23426,-23.87811 -0.0196,-51.53468 l -0.46163,-50.28469 -9.62338,0.28469 L 146.5,105.5 146,115 l -0.5,9.5 H 125 104.5 l -0.5,-9.5 -0.5,-9.5 -9.623382,-0.28468 -9.623382,-0.28469 -0.461625,50.28469 C 83.537717,182.87189 83.528884,206.0625 83.771982,206.75 84.115799,207.72234 93.27358,208 125,208 c 31.72642,0 40.8842,-0.27766 41.22802,-1.25 z M 60.418213,166.39301 C 61.824819,165.85325 62,161.26903 62,125 62,78.529362 63.064438,83 52,83 40.935405,83 42,78.526182 42,125.02366 c 0,31.71207 0.27866,40.92211 1.25,41.31406 1.806348,0.72888 15.299632,0.77233 17.168213,0.0553 z m 145.999997,0 C 207.82482,165.85325 208,161.26903 208,125 c 0,-46.470638 1.06444,-42 -10,-42 -11.0646,0 -10,-4.473818 -10,42.02366 0,31.71207 0.27866,40.92211 1.25,41.31406 1.80635,0.72888 15.29963,0.77233 17.16821,0.0553 z M 144.7863,94.342315 c 0.18294,-5.851257 0.74332,-9.536972 1.55208,-10.20818 0.69617,-0.577773 5.29233,-1.181815 10.21369,-1.342315 L 165.5,82.5 166.34204,64.684787 c 0.46312,-9.798367 0.56705,-18.910867 0.23095,-20.25 L 165.9619,42 H 125 84.038104 l -0.611093,2.434787 c -0.336101,1.339133 -0.232174,10.451633 0.230948,20.25 L 84.5,82.5 l 8.947926,0.29182 c 4.92136,0.1605 9.533864,0.778101 10.250004,1.372444 C 104.585,84.900473 105,88.021219 105,93.955778 c 0,4.790989 0.30942,9.020312 0.6876,9.398492 0.37818,0.37818 9.26568,0.56568 19.75,0.41667 L 144.5,103.5 Z"
         id="path52" />
      <path
         style="fill:#5754fa"
         d="M 85,239.5 V 229 h 40 40 V 239.5 250 H 125 85 Z M 64,218 v -10 h 8.345012 c 10.911096,0 11.458298,0.59125 10.874694,11.75 L 82.78823,228 H 73.394115 64 Z m 102.78029,1.75 C 166.19669,208.59125 166.74389,208 177.65499,208 H 186 v 10 10 h -9.39411 -9.39412 z M 43.213346,197.28665 43.5,187.5 l 9.137915,-0.28604 9.137915,-0.28605 0.742815,-10.71395 c 0.962957,-13.88917 0.962957,-88.538749 0,-102.427917 L 61.77583,63.072085 52.637915,62.786043 43.5,62.5 43.213346,52.713346 42.926692,42.926692 52.713346,43.213346 62.5,43.5 l 0.287036,9.212964 0.287035,9.212965 9.212965,0.287035 L 81.5,62.5 81.75078,71 c 0.405459,13.742721 -0.312181,12.881367 11.009214,13.213909 L 102.5,84.5 l 0.28753,9.25 0.28752,9.25 h -9.415079 c -6.645115,0 -9.741971,0.39388 -10.526173,1.33878 -0.765094,0.92189 -1.192478,14.07867 -1.372445,42.25 L 81.5,187.5 l -9.212964,0.28704 -9.212965,0.28703 -0.287035,9.21297 L 62.5,206.5 l -9.786654,0.28665 -9.786654,0.28666 z m 144.453324,9.04668 C 187.3,205.96667 187,201.70855 187,196.87086 v -8.79581 l -9.25,-0.28752 -9.25,-0.28753 -0.26135,-40.91122 c -0.17997,-28.17133 -0.60735,-41.32811 -1.37245,-42.25 C 166.082,103.39388 162.98514,103 156.34003,103 h -9.41508 l 0.28752,-9.25 0.28753,-9.25 9.74001,-0.286091 C 168.5614,83.881367 167.84376,84.742721 168.24922,71 l 0.25078,-8.5 9.21296,-0.287036 9.21297,-0.287035 0.28703,-9.212965 L 187.5,43.5 l 9.78665,-0.286654 9.78666,-0.286654 -0.28666,9.786654 L 206.5,62.5 l -9.13791,0.286043 -9.13792,0.286042 -0.74282,10.713958 c -0.96295,13.889168 -0.96295,88.538747 0,102.427917 l 0.74282,10.71395 9.13792,0.28605 9.13791,0.28604 0.28621,9.75 0.28621,9.75 h -9.36954 c -5.15325,0 -9.66955,-0.3 -10.03621,-0.66667 z M 22,176.60589 v -9.39412 l 8.25,-0.43148 C 41.408754,166.19669 42,166.74389 42,177.65499 V 186 H 32 22 Z m 186,1.0491 c 0,-10.9111 0.59125,-11.4583 11.75,-10.8747 l 8.25,0.43148 V 176.60589 186 H 218 208 Z M 0,125 V 85 H 10.5 21 v 40 40 H 10.5 0 Z m 229,0 V 85 h 10.5 10.5 v 40 40 H 239.5 229 Z m -123.56804,-2.31672 c -0.28705,-0.74803 -0.38917,-4.92029 -0.22693,-9.27167 L 105.5,105.5 h 19.5 19.5 v 9 9 l -19.27307,0.27167 c -15.51603,0.21872 -19.3748,0.007 -19.79497,-1.08839 z M 29.25,83.257493 22,82.912381 V 73.45619 64 h 10 10 v 8.345012 c 0,6.814521 -0.335395,8.648541 -1.828741,10 -1.005807,0.910244 -2.243307,1.565574 -2.75,1.456291 C 36.914567,83.69202 33.2375,83.447305 29.25,83.257493 Z M 209.71068,82.232797 C 208.39023,80.773719 208,78.478534 208,72.171259 V 64 h 10 10 v 9.5 9.5 l -6.25,0.01365 c -3.4375,0.0075 -7.16769,0.260202 -8.28932,0.561537 -1.27436,0.34237 -2.68101,-0.161168 -3.75,-1.342395 z M 64,32 V 22 h 9.394115 9.394115 l 0.431476,8.25 C 83.80331,41.408754 83.256108,42 72.345012,42 H 64 Z m 103.8294,8.25 c -1.13323,-1.339443 -1.37936,-3.685485 -1.04911,-10 L 167.21177,22 H 176.60589 186 v 10 10 h -8.34501 c -6.71694,0 -8.63387,-0.341418 -9.82559,-1.75 z M 85,10.5 V 0 h 40 40 V 10.5 21 H 125 85 Z"
         id="path50" />
    </g>
  </g>
</svg>
