<?xml version="1.0" encoding="utf-8"?>
<!-- Generator: Adobe Illustrator 21.0.0, SVG Export Plug-In . SVG Version: 6.00 Build 0)  -->
<svg version="1.1" id="Layer_1" xmlns="http://www.w3.org/2000/svg" xmlns:xlink="http://www.w3.org/1999/xlink" x="0px" y="0px"
	 viewBox="0 0 24 24" style="enable-background:new 0 0 24 24;" xml:space="preserve">
<style type="text/css">
	.st0{fill:#EA3352;}
	.st1{fill:#FFFFFF;}
</style>
<path class="st0" d="M12,24c6.6,0,12-5.4,12-12c0-6.6-5.4-12-12-12C5.4,0,0,5.4,0,12C0,18.6,5.4,24,12,24z"/>
<path class="st1" d="M7.1,13.9L8.9,12v0l1.8,1.8c0.5,0.5,1.2,0.8,1.8,0.8c1.3,0,2.6-1,2.6-2.6l1.8,1.8c0.5,0.5,1.2,0.8,1.8,0.8
	c1.3,0,2.6-1,2.6-2.6h-1.6L18,10.2c-0.5-0.5-1.2-0.8-1.8-0.8c-1.3,0-2.6,1-2.6,2.6l-1.8-1.8c-0.5-0.5-1.2-0.8-1.8-0.8
	c-1.3,0-2.6,1-2.6,2.6l-4.7,0c0,1.6,1.3,2.6,2.6,2.6C5.9,14.6,6.6,14.4,7.1,13.9z"/>
</svg>
