<svg width="24" height="24" viewBox="0 0 24 24" fill="none" xmlns="http://www.w3.org/2000/svg">
<path d="M12 24C18.6274 24 24 18.6274 24 12C24 5.37258 18.6274 0 12 0C5.37258 0 0 5.37258 0 12C0 18.6274 5.37258 24 12 24Z" fill="url(#paint0_linear)"/>
<path d="M23.5 12C23.5 18.3513 18.3513 23.5 12 23.5C5.64873 23.5 0.5 18.3513 0.5 12C0.5 5.64873 5.64873 0.5 12 0.5C18.3513 0.5 23.5 5.64873 23.5 12Z" stroke="black" stroke-opacity="0.097"/>
<path d="M20.7142 12.8125L14.9532 7.05144C14.8846 6.98285 14.754 6.98285 14.6854 7.05144L11.8571 9.86991L9.08437 7.09716C9.00925 7.02205 8.89168 7.02205 8.81657 7.09716L7.9511 7.94629L4.77012 11.0652L4.07448 11.7478L3.05225 12.7439C3.01306 12.7831 3 12.8288 3 12.8811C3 12.9333 3.02286 12.979 3.05225 13.0182L5.92624 15.8922C6.00136 15.9673 6.12546 15.9673 6.19405 15.8922L8.95373 13.1358L11.7493 15.9314C11.8245 16.0065 11.9486 16.0065 12.0171 15.9314L14.7834 13.1652L17.5659 15.9477C17.6051 15.9869 17.6508 16 17.7031 16C17.7553 16 17.8011 15.9837 17.8402 15.9477L20.7142 13.0738C20.7534 13.0346 20.7665 12.9888 20.7665 12.9366C20.7665 12.8811 20.7502 12.8419 20.7142 12.8125ZM20.1982 13.0509L18.5457 12.4434L17.788 10.8105L18.2256 10.8725L20.3027 12.9497L20.1982 13.0509ZM19.2642 13.9849L18.7743 12.9366L19.901 13.3514L19.2642 13.9849ZM7.88905 10.2063L5.56046 10.8333L7.88905 8.54395V10.2063ZM4.99873 11.3788L6.63168 10.9411L6.5239 12.7798L4.53824 11.836L4.99873 11.3788ZM7.02359 10.8366L7.31425 10.7615L8.08827 11.9503L6.87662 13.2926L7.02359 10.8366ZM8.34628 11.6466L7.69636 10.6505L8.06541 10.5525L8.99292 10.9346L8.34628 11.6466ZM8.27116 10.2226V9.52699L10.4789 9.70988L11.0308 11.3657L8.27116 10.2226ZM10.1393 12.3749L10.9296 12.8582L11.0602 14.7034L9.9433 13.593L10.1393 12.3749ZM11.2137 12.5839L10.2111 11.9633L10.2862 11.48L11.2301 11.8719C11.2529 11.8882 11.2758 11.9013 11.3052 11.9013L12.2556 12.2997L12.654 13.4787L11.2137 12.5839ZM12.6442 12.2442L13.6795 11.7086L12.9218 13.0574L12.6442 12.2442ZM14.0779 11.0816L13.121 11.578L13.3496 9.95482L14.6821 10.768L14.0779 11.0816ZM15.0806 10.559L13.2941 9.47147L12.9806 9.27878L13.4509 8.81176L15.4823 9.47147L15.675 10.252L15.0806 10.559ZM16.0538 10.1834L15.5802 8.2141L17.788 10.4218L16.0538 10.1834ZM16.0701 10.5688L16.4751 10.6211L16.9127 14.7426L15.7468 13.5767L16.0701 10.5688ZM16.8605 10.6831L17.3438 10.7517L18.0329 12.2377L17.1903 13.8021L16.8605 10.6831ZM14.8128 7.45641L15.0512 7.69482L15.3745 9.0371L13.7579 8.51456L14.8128 7.45641ZM11.9878 10.2847L12.7095 9.56291L12.9936 9.73927L12.703 11.7935L12.4058 11.947L11.4881 11.5714L10.7369 9.31144L11.7167 10.2912C11.7951 10.3533 11.9094 10.3533 11.9878 10.2847ZM8.94393 7.51193L10.1327 8.69745L10.3385 9.31797L8.27116 9.14161V8.16838L8.94393 7.51193ZM4.24104 12.1234L6.49451 13.1881L6.43246 14.2005L4.4174 13.8478L3.46049 12.8909L4.24104 12.1234ZM6.05688 15.4938L4.88442 14.3213L6.3998 14.5891L6.36061 15.1803L6.05688 15.4938ZM8.8133 12.7341L6.77538 14.772L6.82763 13.9L6.83416 13.8935L9.36197 11.0979L9.92044 11.3265L9.80613 12.0319L9.60691 13.2566L9.08437 12.7341C9.01252 12.659 8.89168 12.659 8.8133 12.7341ZM11.8865 15.533L11.4717 15.1182L11.3346 13.1031L12.8499 14.0372L12.9871 14.4356L11.8865 15.533ZM14.7899 12.7112C14.7442 12.7112 14.6919 12.7276 14.6527 12.7635L13.281 14.1352L13.0818 13.544L14.3 11.382L15.6717 10.6766L15.3974 13.2273L14.9303 12.7602C14.8911 12.7276 14.8356 12.7112 14.7899 12.7112ZM17.7031 15.546L17.334 15.177L17.2589 14.4716L18.2321 12.6623L18.9768 14.2723L17.7031 15.546Z" fill="white"/>
<defs>
<linearGradient id="paint0_linear" x1="-0.000445434" y1="11.9988" x2="23.9999" y2="11.9988" gradientUnits="userSpaceOnUse">
<stop stop-color="#C51F5D"/>
<stop offset="1" stop-color="#2F2361"/>
</linearGradient>
</defs>
</svg>
