<?xml version="1.0" encoding="UTF-8" standalone="no"?>
<!-- Created with Inkscape (http://www.inkscape.org/) -->

<svg
   version="1.1"
   id="svg2"
   width="128"
   height="128"
   viewBox="0 0 128 128"
   sodipodi:docname="omg.svg"
   inkscape:version="1.1.2 (b8e25be833, 2022-02-05)"
   xmlns:inkscape="http://www.inkscape.org/namespaces/inkscape"
   xmlns:sodipodi="http://sodipodi.sourceforge.net/DTD/sodipodi-0.dtd"
   xmlns="http://www.w3.org/2000/svg"
   xmlns:svg="http://www.w3.org/2000/svg">
  <defs
     id="defs6" />
  <sodipodi:namedview
     id="namedview4"
     pagecolor="#ffffff"
     bordercolor="#999999"
     borderopacity="1"
     inkscape:pageshadow="0"
     inkscape:pageopacity="0"
     inkscape:pagecheckerboard="0"
     showgrid="false"
     fit-margin-top="0"
     fit-margin-left="0"
     fit-margin-right="0"
     fit-margin-bottom="0"
     inkscape:zoom="2.355"
     inkscape:cx="63.906582"
     inkscape:cy="63.906582"
     inkscape:window-width="1280"
     inkscape:window-height="658"
     inkscape:window-x="-6"
     inkscape:window-y="-6"
     inkscape:window-maximized="1"
     inkscape:current-layer="g8" />
  <g
     inkscape:groupmode="layer"
     inkscape:label="Image"
     id="g8"
     transform="translate(-136.05092,-135.8694)">
    <g
       id="g657"
       transform="matrix(0.5,0,0,0.5,135.74519,135.56367)">
      <ellipse
         cx="129.27388"
         cy="121.63058"
         fill="#ffffff"
         id="circle2"
         rx="119.0828"
         ry="95.303612"
         style="stroke-width:0.83228" />
    </g>
    <path
       style="fill:#0e0e0e;stroke-width:0.347938"
       d="m 193.94665,263.75682 c -7.64758,-1.04745 -11.79139,-2.05968 -17.21626,-4.20548 -19.15425,-7.57646 -33.53208,-23.75657 -38.60413,-43.44323 -10.4795,-40.67509 20.04521,-80.23871 61.90695,-80.23871 29.37271,0 54.90619,19.93313 62.12916,48.50216 4.34957,17.20384 1.08387,36.20603 -8.74293,50.87272 -10.01125,14.942 -24.66213,24.51813 -42.67004,27.89006 -2.75136,0.51518 -14.42786,0.94776 -16.80275,0.62248 z m -19.91667,-48.95318 c 2.51335,-1.16263 5.12858,-3.75885 6.45133,-6.40442 3.00248,-6.00514 2.60179,-13.84115 -0.98242,-19.21271 -5.36873,-8.04598 -17.78083,-8.00982 -22.99708,0.067 -5.07798,7.86272 -3.38502,19.61161 3.51555,24.39742 2.55287,1.77051 4.63899,2.30382 8.53966,2.18314 2.88506,-0.0893 3.81814,-0.26494 5.47296,-1.03043 z m -9.6466,-5.10788 c -3.11263,-1.44532 -4.99779,-4.67752 -5.29977,-9.0867 -0.4677,-6.82893 3.31472,-11.82574 8.9517,-11.82574 5.63698,0 9.41941,4.99681 8.95171,11.82574 -0.42113,6.14882 -3.71742,9.7327 -8.95171,9.7327 -1.47061,0 -2.74694,-0.22577 -3.65193,-0.646 z m 73.56038,5.38686 c 0.66953,-0.34464 1.72598,-1.10972 2.34768,-1.70016 l 1.13036,-1.07353 v 1.46057 1.46057 h 2.60852 2.60852 v -8.35375 -8.35376 h -6.78216 -6.78216 v 2.61055 2.61055 h 4.17364 c 2.2955,0 4.17276,0.11748 4.1717,0.26106 -0.008,1.11236 -0.94732,3.15057 -1.97711,4.29131 -2.42028,2.68104 -6.86242,3.07416 -10.11845,0.89546 -6.05064,-4.04864 -5.26491,-17.23637 1.18771,-19.93454 1.64626,-0.68838 5.22541,-0.59854 6.92444,0.17382 1.66888,0.75866 3.14115,2.40128 3.46181,3.86236 l 0.231,1.05256 h 2.7548 c 1.51513,0 2.75478,-0.14014 2.75478,-0.31141 0,-0.17128 -0.31621,-1.33601 -0.70271,-2.58829 -1.53737,-4.98129 -5.30262,-7.79967 -10.88579,-8.14826 -6.87202,-0.42907 -11.80335,2.93154 -14.19622,9.67445 -0.67012,1.88835 -0.79828,2.96032 -0.80923,6.76864 -0.0111,3.85765 0.10662,4.87151 0.79808,6.87492 1.49048,4.31847 4.35755,7.35504 8.35152,8.84525 1.80991,0.67531 7.15109,0.44433 8.74927,-0.37837 z m -46.58234,-10.55579 0.0233,-10.70325 2.20341,6.43935 c 1.21188,3.54164 2.86548,8.36455 3.67468,10.71757 l 1.47125,4.27821 2.44769,-0.10133 2.44769,-0.10134 3.5654,-10.61623 3.56539,-10.61623 0.0274,10.70325 0.0274,10.70324 h 2.60853 2.60852 v -15.66329 -15.66329 h -3.45095 -3.45095 l -3.92976,11.81561 c -2.16136,6.49858 -4.01255,11.7349 -4.11376,11.63626 -0.10121,-0.0986 -1.91834,-5.3765 -4.03807,-11.72858 l -3.85406,-11.54925 -3.36286,-0.0996 -3.36286,-0.0996 v 15.6759 15.67589 h 2.43462 2.43462 l 0.0233,-10.70324 z"
       id="path30" />
  </g>
</svg>
