<?xml version="1.0" encoding="UTF-8" standalone="no"?>
<svg
   fill="none"
   height="128"
   viewBox="0 0 32 32"
   width="128"
   version="1.1"
   id="svg17"
   sodipodi:docname="pickle.svg"
   inkscape:version="1.1.2 (b8e25be833, 2022-02-05)"
   xmlns:inkscape="http://www.inkscape.org/namespaces/inkscape"
   xmlns:sodipodi="http://sodipodi.sourceforge.net/DTD/sodipodi-0.dtd"
   xmlns="http://www.w3.org/2000/svg"
   xmlns:svg="http://www.w3.org/2000/svg">
  <defs
     id="defs21">
    <style
       id="style115">.cls-1{fill:#48c148;}</style>
  </defs>
  <sodipodi:namedview
     id="namedview19"
     pagecolor="#ffffff"
     bordercolor="#999999"
     borderopacity="1"
     inkscape:pageshadow="0"
     inkscape:pageopacity="0"
     inkscape:pagecheckerboard="0"
     showgrid="false"
     inkscape:zoom="3.6796875"
     inkscape:cx="64"
     inkscape:cy="42.259023"
     inkscape:window-width="1280"
     inkscape:window-height="658"
     inkscape:window-x="-6"
     inkscape:window-y="-6"
     inkscape:window-maximized="1"
     inkscape:current-layer="svg17" />
  <linearGradient
     id="a"
     gradientUnits="userSpaceOnUse"
     x1="19.5022"
     x2="8.57016"
     y1="4.00667"
     y2="24.946">
    <stop
       offset="0"
       stop-color="#00ffa3"
       id="stop2" />
    <stop
       offset="1"
       stop-color="#dc1fff"
       id="stop4" />
  </linearGradient>
  <circle
     cx="16"
     cy="16"
     fill="#000000"
     id="circle7"
     style="fill:#48c148;fill-opacity:1"
     r="16" />
  <g
     id="g141"
     transform="matrix(0.13111304,0,0,0.13111304,1.6214951,-0.34565454)"
     style="fill:#ffffff">
    <path
       class="cls-1"
       d="m 188.5,99.69 c 0,-33.65 -25,-61.91 -58.09,-65.74 A 65.44,65.44 0 0 0 122.85,33.5 H 94.94 A 38.29,38.29 0 0 0 59.39,57.56 v 0 l -0.06,0.13 -0.34,0.86 v 0 a 38.79,38.79 0 0 0 -2.5,13.68 v 100.46 a 38.5,38.5 0 1 0 77,0 V 165 C 165,159.8 188.5,132.09 188.5,99.69 Z m -59.57,73 a 33.94,33.94 0 1 1 -67.88,0 V 72.26 a 34,34 0 0 1 0.86,-7.61 37.8,37.8 0 0 0 2.89,4.25 c 0.15,0.2 0.31,0.38 0.47,0.57 0.39,0.49 0.79,1 1.21,1.43 0.2,0.24 0.42,0.45 0.63,0.68 0.39,0.41 0.77,0.81 1.17,1.2 l 0.73,0.68 c 0.39,0.36 0.78,0.72 1.18,1.06 L 71,75.18 c 0.4,0.32 0.8,0.64 1.22,0.95 l 0.85,0.61 1.28,0.86 0.89,0.55 c 0.45,0.27 0.89,0.52 1.35,0.77 l 0.91,0.49 c 0.47,0.24 1,0.47 1.42,0.69 0.31,0.14 0.61,0.29 0.92,0.42 0.51,0.22 1,0.42 1.54,0.61 0.29,0.11 0.58,0.23 0.87,0.33 0.59,0.21 1.2,0.4 1.8,0.58 0.23,0.06 0.45,0.14 0.68,0.21 0.84,0.23 1.69,0.44 2.55,0.61 h 0.26 c 0.77,0.15 1.55,0.28 2.33,0.39 l 0.89,0.09 c 0.58,0.06 1.16,0.12 1.75,0.16 h 0.24 l 2.1,0.07 H 95 a 34.28,34.28 0 0 1 33.87,32.55 v 0 c 0.05,0.71 0.06,56.57 0.06,56.57 z"
       id="path119"
       style="fill:#ffffff" />
    <path
       class="cls-1"
       d="m 71.82,107.37 a 2.79,2.79 0 0 1 -2,-0.84 12.75,12.75 0 0 1 0,-17.93 2.8,2.8 0 0 1 4,0 2.87,2.87 0 0 1 0,4 7,7 0 0 0 0,9.87 2.87,2.87 0 0 1 0,4 2.8,2.8 0 0 1 -2,0.9 z"
       id="path121"
       style="fill:#ffffff" />
    <path
       class="cls-1"
       d="m 71.82,138.93 a 2.82,2.82 0 0 1 -2,-0.83 12.77,12.77 0 0 1 0,-17.94 2.8,2.8 0 0 1 4,0 2.87,2.87 0 0 1 0,4 7,7 0 0 0 0,9.87 2.89,2.89 0 0 1 0,4 2.83,2.83 0 0 1 -2,0.9 z"
       id="path123"
       style="fill:#ffffff" />
    <path
       class="cls-1"
       d="m 71.82,170.49 a 2.82,2.82 0 0 1 -2,-0.83 12.77,12.77 0 0 1 0,-17.94 2.82,2.82 0 0 1 4,0 2.87,2.87 0 0 1 0,4 7,7 0 0 0 0,9.87 2.89,2.89 0 0 1 0,4 2.83,2.83 0 0 1 -2,0.9 z"
       id="path125"
       style="fill:#ffffff" />
    <path
       class="cls-1"
       d="m 86.19,123.15 a 2.79,2.79 0 0 1 -2,-0.84 12.75,12.75 0 0 1 0,-17.93 2.8,2.8 0 0 1 4,0 2.87,2.87 0 0 1 0,4 7,7 0 0 0 0,9.87 2.87,2.87 0 0 1 0,4 2.8,2.8 0 0 1 -2,0.9 z"
       id="path127"
       style="fill:#ffffff" />
    <path
       class="cls-1"
       d="m 86.19,154.71 a 2.82,2.82 0 0 1 -2,-0.83 12.77,12.77 0 0 1 0,-17.94 2.8,2.8 0 0 1 4,0 2.87,2.87 0 0 1 0,4 7,7 0 0 0 0,9.87 2.89,2.89 0 0 1 0,4 2.83,2.83 0 0 1 -2,0.9 z"
       id="path129"
       style="fill:#ffffff" />
  </g>
</svg>
