<svg width="24" height="24" viewBox="0 0 24 24" fill="none" xmlns="http://www.w3.org/2000/svg">
<path d="M12 24C18.6274 24 24 18.6274 24 12C24 5.37258 18.6274 0 12 0C5.37258 0 0 5.37258 0 12C0 18.6274 5.37258 24 12 24Z" fill="#23004D"/>
<path d="M23.5 12C23.5 18.3513 18.3513 23.5 12 23.5C5.64873 23.5 0.5 18.3513 0.5 12C0.5 5.64873 5.64873 0.5 12 0.5C18.3513 0.5 23.5 5.64873 23.5 12Z" stroke="white" stroke-opacity="0.3"/>
<path d="M11.782 11.5887C11.7869 11.9097 11.7415 12.2296 11.6472 12.5377C11.5654 12.7995 11.4425 13.0479 11.2829 13.2745C11.1359 13.4811 10.9571 13.6653 10.7524 13.8207C10.3756 14.1074 9.93384 14.3057 9.46244 14.3996C9.25586 14.441 9.0454 14.4623 8.83433 14.463H5.23182V12.9133H8.83433C9.02486 12.9007 9.21212 12.8594 9.38923 12.7911C9.54784 12.7297 9.69248 12.6395 9.81514 12.5255C9.93488 12.411 10.0281 12.2738 10.0888 12.1227C10.1569 11.9523 10.1902 11.771 10.187 11.5887V10.8842C10.1694 10.7004 10.126 10.5196 10.058 10.3469C9.99828 10.1925 9.90792 10.0506 9.7919 9.92904C9.67744 9.81268 9.53893 9.72034 9.38516 9.65789C9.21044 9.58899 9.02271 9.55532 8.83375 9.55899H5.24286C5.03058 9.55899 4.86924 9.6127 4.75884 9.72012C4.64844 9.82755 4.59324 9.98238 4.59324 10.1846V16.5666H3V10.1846C3 9.78754 3.07457 9.44972 3.2237 9.17117C3.35768 8.91114 3.5478 8.68124 3.78151 8.49663C3.99761 8.32918 4.24509 8.20265 4.51073 8.12381C4.74326 8.05072 4.98593 8.01139 5.23065 8.00713H8.83317C9.16125 8.00274 9.48798 8.04812 9.8012 8.14159C10.0707 8.22344 10.3254 8.34431 10.5566 8.49997C10.7703 8.64382 10.9595 8.81852 11.1173 9.01781C11.2674 9.20737 11.3948 9.41237 11.4973 9.629C11.5954 9.83485 11.6687 10.0507 11.7158 10.2724C11.7592 10.4735 11.7817 10.6783 11.7832 10.8836L11.782 11.5887Z" fill="white"/>
<path d="M12.8895 14.8527L16.2631 12.5913C16.3645 12.526 16.4764 12.4768 16.5943 12.4457C16.7265 12.4093 16.8634 12.3906 17.001 12.3902C17.1432 12.3892 17.2847 12.4079 17.4211 12.4457C17.5412 12.4774 17.6544 12.5289 17.7558 12.598L21.0225 14.831V16.5568L17.001 13.807L12.8878 16.5568L12.8895 14.8527Z" fill="white"/>
<path d="M12.8895 8L17.0028 10.7504L21.0242 8V9.73078L17.7576 11.9594C17.5681 12.0978 17.316 12.1672 17.0022 12.1672C16.8646 12.167 16.7276 12.1483 16.5955 12.1116C16.4776 12.0808 16.3657 12.0318 16.2643 11.9666L12.8895 9.71244V8Z" fill="white"/>
</svg>
