<?xml version="1.0" encoding="UTF-8" standalone="no"?>
<svg
   id="Layer_1"
   data-name="Layer 1"
   viewBox="0 0 127.99956 103.324"
   version="1.1"
   sodipodi:docname="rdoc.svg"
   width="127.99957"
   height="103.32401"
   inkscape:version="1.1.2 (b8e25be833, 2022-02-05)"
   xmlns:inkscape="http://www.inkscape.org/namespaces/inkscape"
   xmlns:sodipodi="http://sodipodi.sourceforge.net/DTD/sodipodi-0.dtd"
   xmlns="http://www.w3.org/2000/svg"
   xmlns:svg="http://www.w3.org/2000/svg">
  <sodipodi:namedview
     id="namedview59"
     pagecolor="#ffffff"
     bordercolor="#999999"
     borderopacity="1"
     inkscape:pageshadow="0"
     inkscape:pageopacity="0"
     inkscape:pagecheckerboard="0"
     showgrid="false"
     fit-margin-top="0"
     fit-margin-left="0"
     fit-margin-right="0"
     fit-margin-bottom="0"
     inkscape:zoom="0.46606437"
     inkscape:cx="63.295978"
     inkscape:cy="52.567846"
     inkscape:window-width="1280"
     inkscape:window-height="658"
     inkscape:window-x="-6"
     inkscape:window-y="-6"
     inkscape:window-maximized="1"
     inkscape:current-layer="Layer_1" />
  <defs
     id="defs4">
    <style
       id="style2">.cls-1{fill:#fff;}.cls-2{fill:#0083ff;}.cls-3{fill:#006e36;}.cls-4{fill:#00b22b;}</style>
  </defs>
  <path
     class="cls-1"
     d="M 51.66124,103.324 C 23.1746,103.324 0,80.148124 0,51.662754 0,23.177394 23.1682,2.3419879e-4 51.66124,2.3419879e-4 A 51.103158,51.103158 0 0 1 75.15328,5.6399642 52.134847,52.134847 0 0 1 90.24717,17.320064 c 0.30209,-0.17536 0.60929,-0.34561 0.91777,-0.51201 4.2138,-2.2413 8.94216,-3.37795 14.05324,-3.37795 0.41217,0 0.83201,0.008 1.24801,0.023 9.45928,0.33665 15.87214,2.91075 17.53615,3.87332 l 1.76514,1.04065 a 4.5350789,4.5350789 0 0 1 2.19522,4.48388 l -0.11264,0.86912 -0.009,0.1344 c -0.88705,13.20588 -6.71494,23.30772 -16.41102,28.44441 -0.58753,0.30976 -1.13281,0.576 -1.67554,0.8192 a 28.133361,28.133361 0 0 1 -6.54725,2.01474 C 101.41523,82.006654 78.98048,103.32396 51.6612,103.32396 Z"
     id="path6"
     style="stroke-width:0.128001" />
  <path
     class="cls-2"
     d="m 98.78997,51.662754 c 0,26.02775 -21.0997,47.12873 -47.12873,47.12873 -26.02902,0 -47.12872,-21.10098 -47.12872,-47.12873 0,-26.02774 21.0997,-47.1299998 47.12872,-47.1299998 26.02903,0 47.12873,21.1073798 47.12873,47.1299998"
     id="path8"
     style="stroke-width:0.128001" />
  <rect
     class="cls-1"
     x="-64.564209"
     y="-260.5921"
     width="39.900002"
     height="39.900002"
     rx="14.37"
     id="rect10" />
  <rect
     class="cls-1"
     x="-64.564209"
     y="-204.72208"
     width="39.900002"
     height="39.900002"
     rx="14.37"
     id="rect12" />
  <rect
     class="cls-1"
     x="26.090454"
     y="38.254631"
     width="5.107244"
     height="5.107244"
     rx="1.8393757"
     id="rect14"
     style="stroke-width:0.128001" />
  <rect
     class="cls-1"
     x="34.263336"
     y="38.254631"
     width="5.107244"
     height="5.107244"
     rx="1.8393757"
     id="rect16"
     style="stroke-width:0.128001" />
  <path
     class="cls-1"
     d="m -114.03422,-148.85209 h 67 a 14.37,14.37 0 0 1 14.37,14.37 v 11.15 a 14.38,14.38 0 0 1 -14.38,14.38 h -67 a 14.37,14.37 0 0 1 -14.37,-14.37 v -11.16 a 14.38,14.38 0 0 1 14.38,-14.37 z"
     id="path18" />
  <path
     class="cls-1"
     d="m 42.23268,38.254644 h 1.42721 a 1.8393758,1.8393758 0 0 1 1.83938,1.83937 v 8.57608 a 1.8406558,1.8406558 0 0 1 -1.84066,1.84065 H 42.2314 a 1.8393758,1.8393758 0 0 1 -1.83937,-1.83937 v -8.57608 a 1.8406558,1.8406558 0 0 1 1.84065,-1.84065 z"
     id="path20"
     style="stroke-width:0.128001" />
  <rect
     class="cls-1"
     x="58.78067"
     y="38.254631"
     width="16.34446"
     height="5.107244"
     rx="1.8393757"
     id="rect22"
     style="stroke-width:0.128001" />
  <path
     class="cls-1"
     d="m 33.03836,32.124664 h 12.66443 a 1.8393758,1.8393758 0 0 1 1.84066,1.83554 v 1.42721 a 1.8406558,1.8406558 0 0 1 -1.84066,1.84066 H 33.03836 a 1.8393758,1.8393758 0 0 1 -1.84449,-1.83554 v -1.43233 a 1.8406558,1.8406558 0 0 1 1.84449,-1.83554 z"
     id="path24"
     style="stroke-width:0.128001" />
  <rect
     class="cls-1"
     x="68.995148"
     y="32.124657"
     width="5.107244"
     height="5.107244"
     rx="1.8393757"
     id="rect26"
     style="stroke-width:0.128001" />
  <rect
     class="cls-1"
     x="55.715027"
     y="46.426231"
     width="12.258665"
     height="5.107244"
     rx="1.8406558"
     id="rect28"
     style="stroke-width:0.128001" />
  <rect
     class="cls-1"
     x="55.715027"
     y="52.556206"
     width="5.107244"
     height="5.107244"
     rx="1.8393757"
     id="rect30"
     style="stroke-width:0.128001" />
  <path
     class="cls-1"
     d="m 57.55569,59.706344 h 1.42722 a 1.8406558,1.8406558 0 0 1 1.84065,1.84066 v 1.42721 a 1.8406558,1.8406558 0 0 1 -1.84065,1.83425 h -1.42722 a 1.8393758,1.8393758 0 0 1 -1.83937,-1.83937 v -1.42209 a 1.8406558,1.8406558 0 0 1 1.83937,-1.84066 z"
     id="path32"
     style="stroke-width:0.128001" />
  <path
     class="cls-1"
     d="m 5.70578,-236.63209 h 11.15 a 14.37,14.37 0 0 1 14.37,14.37 v 98.93 a 14.38,14.38 0 0 1 -14.38,14.38 h -11.14 a 14.37,14.37 0 0 1 -14.37,-14.37 v -98.95 a 14.38,14.38 0 0 1 14.37,-14.36 z"
     id="path34" />
  <rect
     class="cls-1"
     x="48.564911"
     y="43.36187"
     width="5.107244"
     height="16.34446"
     rx="1.8393757"
     id="rect36"
     style="stroke-width:0.128001" />
  <rect
     class="cls-1"
     x="47.165771"
     y="-172.80209"
     width="39.900002"
     height="95.769997"
     rx="14.38"
     id="rect38" />
  <path
     class="cls-3"
     d="m 84.73161,44.105574 32.735,-18.93904 c 0,0 0.71424,-6.7751 -11.93482,-6.64454 -12.64907,0.13056 -19.80945,8.40711 -20.76818,15.84653 -0.95873,7.43943 -0.032,9.73705 -0.032,9.73705"
     id="path40"
     style="stroke-width:0.128001" />
  <path
     class="cls-4"
     d="m 117.99013,24.340924 -32.74012,18.94416 c 0,0 -0.71296,6.7751 11.93482,6.64326 12.64779,-0.13184 19.81841,-8.41607 20.7733,-15.85166 0.95489,-7.43558 0.032,-9.73576 0.032,-9.73576"
     id="path42"
     style="stroke-width:0.128001" />
  <path
     class="cls-1"
     d="m 121.74184,21.249694 c -0.80256,-0.46208 -6.46149,-2.94402 -15.43821,-3.27171 -4.77572,-0.17024 -9.1636,0.78209 -13.01131,2.82883 a 23.141318,23.141318 0 0 0 -3.52771,2.30402 c -8.10375,6.38853 -8.32007,14.25932 -8.85384,18.8072 l -6.41413,3.13603 a 2.6713829,2.6713829 0 0 0 1.03425,5.13412 2.7238634,2.7238634 0 0 0 1.17505,-0.26624 v 0 l 0.0883,-0.0474 0.0166,-0.009 1.45921,-0.76801 2.95171,-1.55393 1.42849,-0.68481 c 3.49315,1.79202 8.00647,3.96804 14.21708,4.19716 3.95011,0.13952 7.65447,-0.56065 11.0337,-2.07362 0.47616,-0.21376 0.94592,-0.44544 1.40801,-0.68865 13.31211,-7.05414 13.88044,-23.09267 14.0302,-25.02549 l 0.128,-0.99969 z m -3.84003,4.63492 -0.008,0.0691 c -0.91905,5.05989 -3.62499,14.16972 -11.41898,18.30416 -0.0666,0.0346 -0.13696,0.0704 -0.20864,0.10496 -2.67394,1.37089 -6.34501,2.32706 -9.65256,2.20546 a 26.287585,26.287585 0 0 1 -6.88774,-1.22625 l -1.9405,-0.82817 2.13762,-1.11361 8.02439,-4.23939 a 3.1360269,3.1360269 0 0 0 1.69601,-2.72771 c 0.0179,-0.448 0.26369,-0.57728 0.0934,-0.99841 -0.041,-0.0986 -0.0858,-0.1984 -0.13697,-0.2944 l -0.0435,-0.0781 a 0.18944162,0.18944162 0 0 0 -0.0205,-0.032 c -0.55552,-0.96129 -1.55137,-1.23905 -2.67266,-1.28001 a 3.1885073,3.1885073 0 0 0 -1.62049,0.384 l -7.97063,4.19076 -1.50785,0.79232 c 0,0 1.32481,-10.17864 8.50183,-13.78443 0.55936,-0.28161 1.06369,-0.69121 1.63841,-0.99841 2.82883,-1.49761 6.11206,-2.19138 9.75113,-2.05954 4.43011,0.15744 8.50311,1.48609 11.29353,2.66882 0.1792,0.0768 0.35329,0.14848 0.52097,0.22401 l 0.448,0.18432 z"
     id="path44"
     style="stroke-width:0.128001" />
  <path
     class="cls-1"
     d="m 21.56307,71.572044 h 3.96803 c 3.65443,0 6.06213,2.14018 6.06213,5.30437 0,3.16419 -2.44738,5.25956 -6.06341,5.25956 h -3.96803 z m 3.96803,1.92002 h -1.56161 v 6.6855 h 1.56033 c 2.1389,0 3.61091,-1.29281 3.61091,-3.34339 0,-2.05058 -1.47201,-3.29731 -3.61091,-3.34211 z"
     id="path46"
     style="stroke-width:0.128001" />
  <path
     class="cls-1"
     d="m 38.41057,71.216204 c 3.47651,0 5.83813,2.3181 5.83813,5.66021 0,3.34211 -2.36162,5.61541 -5.83813,5.61541 -3.47651,0 -5.83813,-2.2733 -5.83813,-5.61541 0,-3.34211 2.36162,-5.66021 5.83813,-5.66021 z m 0,9.13672 c 1.96098,0 3.34211,-1.47073 3.34211,-3.52131 0,-2.05058 -1.38113,-3.52131 -3.34211,-3.52131 -1.96098,0 -3.34211,1.47073 -3.34211,3.52131 0,2.09538 1.38113,3.52131 3.34211,3.52131 z"
     id="path48"
     style="stroke-width:0.128001" />
  <path
     class="cls-1"
     d="m 45.71943,82.135974 v -10.56393 h 2.49858 v 8.42376 h 4.4122 v 2.14017 z"
     id="path50"
     style="stroke-width:0.128001" />
  <path
     class="cls-1"
     d="m 53.92046,82.135974 v -10.56393 h 2.49602 v 8.42376 h 4.4122 v 2.14017 z"
     id="path52"
     style="stroke-width:0.128001" />
  <path
     class="cls-1"
     d="m 71.88158,82.135974 h -2.62915 l -0.62336,-1.92001 h -4.23428 l -0.57984,1.92001 h -2.62914 l 3.56483,-10.56393 h 3.61091 z m -6.95174,-3.69923 h 3.20898 l -1.60513,-4.72452 z"
     id="path54"
     style="stroke-width:0.128001" />
  <path
     class="cls-1"
     d="m 72.90687,71.572044 h 5.12004 c 2.45122,0 4.14468,1.42722 4.14468,3.52131 a 3.1027466,3.1027466 0 0 1 -2.3181,2.98627 l 2.54722,4.00899 h -2.76355 l -2.09409,-3.69923 h -2.14018 v 3.69923 h -2.49602 z m 2.44738,1.87266 v 3.20899 h 2.2285 c 1.15969,0 2.04801,-0.62465 2.04801,-1.60514 0,-1.02401 -0.896,-1.64865 -2.04801,-1.64865 z"
     id="path56"
     style="stroke-width:0.128001" />
</svg>
