<?xml version="1.0" encoding="UTF-8" standalone="no"?>
<svg
   width="128"
   height="128"
   viewBox="0 0 256 256"
   version="1.1"
   id="svg6"
   sodipodi:docname="rrfox.svg"
   inkscape:version="1.1.2 (b8e25be833, 2022-02-05)"
   xmlns:inkscape="http://www.inkscape.org/namespaces/inkscape"
   xmlns:sodipodi="http://sodipodi.sourceforge.net/DTD/sodipodi-0.dtd"
   xmlns="http://www.w3.org/2000/svg"
   xmlns:svg="http://www.w3.org/2000/svg">
  <defs
     id="defs10">
    <radialGradient
       id="paint0_radial"
       cx="0"
       cy="0"
       r="1"
       gradientUnits="userSpaceOnUse"
       gradientTransform="matrix(0,-87.407858,114.23722,0,127.94124,219.98427)">
      <stop
         offset="0.203695"
         stop-color="#56F2FF"
         id="stop12" />
      <stop
         offset="1"
         stop-color="#4A8CEA"
         id="stop14" />
    </radialGradient>
    <radialGradient
       id="paint1_radial"
       cx="0"
       cy="0"
       r="1"
       gradientUnits="userSpaceOnUse"
       gradientTransform="matrix(-0.07421765,26.461399,-50.097368,-0.14051066,128.01797,135.23596)">
      <stop
         stop-color="#EEFF83"
         id="stop17" />
      <stop
         offset="0.689596"
         stop-color="#5699EC"
         id="stop19" />
    </radialGradient>
    <radialGradient
       id="paint2_diamond"
       cx="0"
       cy="0"
       r="1"
       gradientUnits="userSpaceOnUse"
       gradientTransform="matrix(-0.08609386,30.830016,-58.131497,-0.16233419,128.00001,146.5429)">
      <stop
         stop-color="#56F2FF"
         id="stop22" />
      <stop
         offset="1"
         stop-color="#5699EC"
         id="stop24" />
    </radialGradient>
    <linearGradient
       id="paint3_linear"
       x1="191.38499"
       y1="0.097656198"
       x2="191.38499"
       y2="272.17599"
       gradientUnits="userSpaceOnUse"
       gradientTransform="matrix(0.49973041,0.17188283,0.15284493,-0.44437979,1.4365855,130.95833)">
      <stop
         offset="0.377179"
         stop-color="#FFE336"
         id="stop27" />
      <stop
         offset="1"
         stop-color="#13C0B6"
         stop-opacity="0.7"
         id="stop29" />
    </linearGradient>
    <linearGradient
       id="paint4_linear"
       x1="320.672"
       y1="0"
       x2="320.672"
       y2="272.189"
       gradientUnits="userSpaceOnUse"
       gradientTransform="matrix(0.50133695,0,0,0.46973972,-44.633556,74.126017)">
      <stop
         offset="0.408817"
         stop-color="#FF7F72"
         id="stop32" />
      <stop
         offset="1"
         stop-color="#2978EF"
         stop-opacity="0.7"
         id="stop34" />
    </linearGradient>
  </defs>
  <sodipodi:namedview
     id="namedview8"
     pagecolor="#ffffff"
     bordercolor="#999999"
     borderopacity="1"
     inkscape:pageshadow="0"
     inkscape:pageopacity="0"
     inkscape:pagecheckerboard="0"
     showgrid="false"
     fit-margin-top="0"
     fit-margin-left="0"
     fit-margin-right="0"
     fit-margin-bottom="0"
     inkscape:zoom="2.8284271"
     inkscape:cx="55.68466"
     inkscape:cy="65.937708"
     inkscape:window-width="1280"
     inkscape:window-height="658"
     inkscape:window-x="-6"
     inkscape:window-y="-6"
     inkscape:window-maximized="1"
     inkscape:current-layer="svg6" />
  <circle
     cx="128"
     cy="128"
     fill="#ffffff"
     id="circle2"
     style="fill:#ffffff;fill-opacity:1"
     r="128" />
  <path
     style="fill:#d72328;stroke-width:2"
     d="m 116.22375,220.79186 c -4.27693,-6.20206 -20.44968,-29.961 -35.93943,-52.79763 L 52.12113,126.47307 70.957612,107.55794 C 81.31768,97.154623 90.00141,88.850126 90.25479,89.103508 c 0.81873,0.818732 34.75405,142.071652 34.24112,142.525792 -0.27275,0.24148 -3.99522,-4.63536 -8.27216,-10.83744 z m 17.76526,1.5466 c 1.52791,-5.9527 9.24422,-37.82308 17.14737,-70.82308 7.90315,-33 14.73376,-60.40318 15.17912,-60.895958 1.06673,-1.1803 36.6845,34.300128 36.6845,36.543048 0,1.89644 -64.78489,98.61235 -69.11215,103.17599 -2.2007,2.3209 -2.18271,0.89786 0.10116,-8 z M 114.19339,151.84917 C 106.60026,118.66558 99.97917,90.390384 99.47987,89.015384 c -0.70002,-1.927726 5.81591,-2.5 28.46506,-2.5 h 29.37289 l -1.36811,6.5 c -3.12054,14.825896 -27.09698,118.313936 -27.50615,118.723096 -0.24446,0.24446 -6.65703,-26.70573 -14.25017,-59.88931 z M 47.09866,78.939692 47,38.364 65.5,57.667608 C 75.675,68.284594 84.21906,77.543654 84.4868,78.2433 84.75454,78.942946 76.473938,88.515384 66.085462,99.515383 L 47.197322,119.51538 Z M 188.98668,97.502013 170.05237,78.488648 189.52618,59.014836 209,39.541026 v 38.487178 c 0,21.167949 -0.24278,38.487176 -0.5395,38.487176 -0.29672,0 -9.05994,-8.55602 -19.47382,-19.013367 z"
     id="path845" />
</svg>
