<?xml version="1.0" encoding="UTF-8" standalone="no"?>
<svg
   data-name="86977684-12db-4850-8f30-233a7c267d11"
   viewBox="0 0 128 128"
   version="1.1"
   id="svg8"
   sodipodi:docname="usdcoin.svg"
   width="128"
   height="128"
   inkscape:version="1.1.2 (b8e25be833, 2022-02-05)"
   xmlns:inkscape="http://www.inkscape.org/namespaces/inkscape"
   xmlns:sodipodi="http://sodipodi.sourceforge.net/DTD/sodipodi-0.dtd"
   xmlns="http://www.w3.org/2000/svg"
   xmlns:svg="http://www.w3.org/2000/svg">
  <defs
     id="defs12" />
  <sodipodi:namedview
     id="namedview10"
     pagecolor="#ffffff"
     bordercolor="#999999"
     borderopacity="1"
     inkscape:pageshadow="0"
     inkscape:pageopacity="0"
     inkscape:pagecheckerboard="0"
     showgrid="false"
     fit-margin-top="0"
     fit-margin-left="0"
     fit-margin-right="0"
     fit-margin-bottom="0"
     inkscape:zoom="0.2355"
     inkscape:cx="138.00425"
     inkscape:cy="142.25053"
     inkscape:window-width="1280"
     inkscape:window-height="658"
     inkscape:window-x="-6"
     inkscape:window-y="-6"
     inkscape:window-maximized="1"
     inkscape:current-layer="svg8" />
  <path
     d="M 64,128 C 99.4669,128 128,99.4669 128,64 128,28.53312 99.4669,0 64,0 28.53312,0 0,28.53312 0,64 c 0,35.4669 28.53312,64 64,64 z"
     fill="#2775ca"
     id="path2"
     style="stroke-width:0.064" />
  <path
     d="M 81.6,74.1331 C 81.6,64.8 76,61.6 64.8,60.26688 c -8,-1.06688 -9.6,-3.2 -9.6,-6.93376 0,-3.73376 2.66688,-6.13312 8,-6.13312 4.8,0 7.4669,1.6 8.8,5.6 0.2669,0.8 1.0669,1.33312 1.8669,1.33312 h 4.2662 c 1.0669,0 1.8669,-0.8 1.8669,-1.86624 V 52 C 78.9331,46.13312 74.1331,41.6 68,41.06688 v -6.4 C 68,33.6 67.2,32.8 65.8669,32.53312 h -4.00002 c -1.06688,0 -1.86688,0.8 -2.13376,2.13376 V 40.8 c -8,1.06688 -13.06624,6.4 -13.06624,13.06688 0,8.8 5.33312,12.26622 16.53312,13.60002 7.4669,1.3331 9.8669,2.9331 9.8669,7.2 0,4.2669 -3.7338,7.2 -8.8,7.2 -6.93378,0 -9.33378,-2.9338 -10.13378,-6.9338 -0.26624,-1.0662 -1.06624,-1.6 -1.86624,-1.6 h -4.53376 c -1.06624,0 -1.86624,0.8 -1.86624,1.8669 v 0.2669 C 46.93312,82.1331 51.2,86.9331 60,88.2669 v 6.4 c 0,1.0662 0.8,1.8662 2.13312,2.1331 H 66.1331 C 67.2,96.8 68,96 68.2669,94.6669 v -6.4 C 76.2669,86.9331 81.6,81.3331 81.6,74.1331 Z"
     fill="#ffffff"
     id="path4"
     style="stroke-width:0.064" />
  <path
     d="M 50.4,102.1331 C 29.6,94.6669 18.93312,71.4669 26.66688,50.93312 30.66688,39.73312 39.46688,31.2 50.4,27.2 51.46688,26.66688 52,25.86688 52,24.53312 V 20.8 c 0,-1.06688 -0.53312,-1.86688 -1.6,-2.13312 -0.26688,0 -0.8,0 -1.06688,0.26624 -25.33312,8 -39.2,34.93376 -31.2,60.26688 4.8,14.9331 16.26688,26.4 31.2,31.2 1.06688,0.5331 2.13376,0 2.4,-1.0669 C 52,109.0669 52,108.8 52,108.2669 v -3.7338 c 0,-0.8 -0.8,-1.8662 -1.6,-2.4 z M 78.6669,18.93312 C 77.6,18.4 76.5331,18.93312 76.2669,20 76,20.26688 76,20.53312 76,21.06688 V 24.8 c 0,1.06688 0.8,2.13312 1.6,2.66688 20.8,7.46624 31.4669,30.66624 23.7331,51.20002 -4,11.2 -12.8,19.7331 -23.7331,23.7331 -1.0669,0.5331 -1.6,1.3331 -1.6,2.6669 V 108.8 c 0,1.0669 0.5331,1.8669 1.6,2.1331 0.2669,0 0.8,0 1.0669,-0.2662 25.3331,-8 39.2,-34.9338 31.2,-60.2669 -4.8,-15.2 -16.5338,-26.66688 -31.2,-31.46688 z"
     fill="#ffffff"
     id="path6"
     style="stroke-width:0.064" />
</svg>
