<?xml version="1.0" encoding="UTF-8" standalone="no"?>
<!-- Retrieved from saddle.finance -->

<svg
   height="128"
   fill="none"
   viewBox="0 0 128 40"
   version="1.1"
   id="svg8"
   sodipodi:docname="saddle.svg"
   width="128"
   inkscape:version="1.1.2 (b8e25be833, 2022-02-05)"
   xmlns:inkscape="http://www.inkscape.org/namespaces/inkscape"
   xmlns:sodipodi="http://sodipodi.sourceforge.net/DTD/sodipodi-0.dtd"
   xmlns="http://www.w3.org/2000/svg"
   xmlns:svg="http://www.w3.org/2000/svg">
  <defs
     id="defs12" />
  <sodipodi:namedview
     id="namedview10"
     pagecolor="#ffffff"
     bordercolor="#999999"
     borderopacity="1"
     inkscape:pageshadow="0"
     inkscape:pageopacity="0"
     inkscape:pagecheckerboard="0"
     showgrid="false"
     fit-margin-top="0"
     fit-margin-left="0"
     fit-margin-right="0"
     fit-margin-bottom="0"
     inkscape:zoom="3.6796875"
     inkscape:cx="64"
     inkscape:cy="64"
     inkscape:window-width="1280"
     inkscape:window-height="658"
     inkscape:window-x="-6"
     inkscape:window-y="-6"
     inkscape:window-maximized="1"
     inkscape:current-layer="svg8" />
  <circle
     cx="64"
     cy="20"
     r="64"
     fill="#ffffff"
     id="circle2"
     style="stroke-width:3.2" />
  <path
     d="m 93.41216,-7.08288 c 0,0 3.82784,-9.504096 3.3328,-11.682144 -0.46176,-2.112032 -0.49472,-2.772032 -3.96,-5.34608 -1.38592,0.627008 -3.86112,1.518048 -5.87392,1.122016 -2.97024,-0.560992 -4.488,-1.584 -5.9072,-2.838016 -1.41888,-1.254048 -2.17792,-3.102048 -2.31008,-4.191072 -0.03296,-0.264 0.264,-0.462016 0.49504,-0.296992 1.22112,0.891008 2.2112,2.508032 5.67616,3.66304 1.98016,0.66 3.59712,0.462016 4.5872,0.132 -4.38912,-3.036032 -10.7584,-7.194112 -14.55328,-8.448128 -4.8512,-1.584032 -7.02912,1.518016 -7.02912,1.518016 l -4.55424,7.194112 c 0,0 7.65632,1.122016 15.47744,5.511072 7.78816,4.356064 14.6192,13.662176 14.6192,13.662176 z"
     fill="#4b11f2"
     id="path4"
     style="stroke-width:3.2" />
  <path
     d="M 105.62144,3.71232 C 104.66432,3.84448 103.21248,3.84448 101.26528,3.34944 93.64224,1.20448 88.95616,-11.36864 75.75616,-19.288864 54.6688,-30.179008 43.34944,-20.344896 43.34944,-20.344896 c -1.45184,0.990016 0.03296,1.617024 0.03296,1.617024 l 6.93024,3.498048 3.2672,1.716032 c 0,0 -2.07904,2.673152 -6.30336,0.627008 -1.38592,-0.593984 -4.15808,-0.759008 -6.30304,1.154944 -2.34304,1.28704 -1.32,5.016 -3.03584,7.39232 -1.6832,2.376 -5.04928,1.97984 -5.41216,5.41184 -0.29696,3.49824 2.47488,4.15808 2.54112,6.76512 0.06592,2.60704 -0.8912,4.09216 -1.1552,4.78528 -0.09888,0.29696 -0.1648,0.65984 -0.1648,1.02304 0.03296,0.49472 0.264,0.98976 0.59392,1.38592 0.264,0.29696 0.49504,0.49504 0.75904,0.65984 1.12192,0.75904 2.07904,1.74912 2.70592,2.93728 0.09888,0.19776 0.19808,0.39584 0.32992,0.59392 0.0992,0.16512 0.19808,0.36288 0.33024,0.59392 0.72576,1.28704 1.02304,2.80512 0.75904,4.29024 -0.06624,0.39584 -0.03328,0.85792 0.09888,1.28704 0.264,0.792 0.95712,1.38592 1.78208,1.61696 1.2208,0.29696 2.2768,1.02304 3.00288,2.04608 0.06592,0.06592 0.0992,0.1648 0.16512,0.23072 0.99008,1.38624 0.792,3.56416 1.18784,5.14816 0.39616,1.584 1.71616,2.07904 3.63008,3.168 1.91424,1.08928 2.31008,2.80512 1.51808,3.63008 -0.792,0.82496 -5.47808,-1.18784 -7.35904,1.056 -1.38592,1.28704 -0.792,2.112 -1.48512,4.55424 -0.6928,2.47488 -2.80512,0.65984 -3.92704,2.376 -1.12192,1.71584 -1.28704,3.56416 -0.72608,7.2272 0.56128,3.66304 4.12512,8.712 4.12512,8.712 0,0 -1.91392,-6.66624 2.24416,-12.37504 3.53088,-4.15808 6.23712,-4.71936 10.23008,-4.78528 4.02592,-0.09888 9.96608,3.5312 11.1872,10.6592 0.62688,4.71904 -1.9472,7.45824 -2.14496,7.72224 -0.46208,0.528 -4.25728,4.71904 -9.30624,1.91392 -1.38592,-0.95712 -2.60704,-1.94688 -3.432,-3.86112 -0.59392,-1.74912 -0.75904,-4.09216 0.23104,-5.67616 0.82496,-1.32 2.14496,-1.71584 2.54112,-1.7488 0.59392,-0.06624 1.88096,-0.03296 2.70592,0.59392 0.82496,0.62688 1.71584,1.55104 1.55104,3.13504 -0.16512,1.584 -1.81504,2.04608 -2.44224,1.91392 -0.528,-0.09888 -0.1648,-0.03296 -0.03296,0 -1.02304,-0.06592 -1.4848,-0.85792 -1.68288,-1.41888 -0.03296,-0.13216 -0.23104,-0.09888 -0.264,0.03296 -0.29696,2.17792 1.35296,3.56416 2.34304,3.7952 1.08896,0.23072 2.70592,0.19776 4.02592,-1.1552 1.1552,-1.15488 1.78208,-2.14496 1.78208,-4.68608 0,-2.07904 -0.85792,-3.53088 -2.27712,-4.78496 -1.848,-1.71616 -4.28992,-2.376 -5.97312,-2.24416 -1.584,0.13216 -4.35584,0.792 -6.17088,3.66304 -1.6832,2.64 -2.40896,6.27008 -0.99008,10.32928 l 0.06592,0.13184 c 3.23424,7.55712 10.79136,9.47136 16.00544,9.47136 1.056,0 2.0128,-0.06624 2.8048,-0.19808 0.16512,-0.03296 3.89408,-0.59392 7.52416,-2.83808 4.488,-2.96992 7.16128,-7.26016 7.16128,-13.89312 0,-8.8112 -3.86112,-14.68512 -11.78112,-23.85952 -1.51808,-1.88096 -7.68928,-9.504 -8.8112,-10.98912 C 52.8208,16.87968 46.6496,8.4976 49.71872,2.12832 49.8176,1.93056 49.91648,1.76544 50.01568,1.56736 c 4.58688,-8.41504 17.5232,-6.336 14.68512,-5.808 -4.91712,0.82496 -7.85408,3.00288 -8.74496,3.96 -0.8912,0.95712 -1.38624,1.78208 -1.98016,3.33312 -1.02304,2.54112 -0.19808,6.46816 1.98016,9.90016 9.47104,13.43104 23.46336,30.16224 25.1792,34.18848 2.2112,5.08192 2.54112,9.10816 2.50816,11.58304 -0.03296,2.4752 -0.6272,6.4352 -0.6272,6.4352 0,0 3.2672,-2.60704 4.81824,-5.77504 1.55104,-3.168 1.81504,-4.68608 1.35296,-5.87424 -0.49504,-1.18784 -1.71616,-1.2208 -2.21088,-3.168 -0.49504,-1.94688 0.89088,-3.66304 -0.56128,-6.76512 -0.62688,-1.35296 -3.96,-3.33312 -5.67584,-5.51104 -1.71616,-2.17792 -4.8512,-6.072 -7.19424,-9.20704 -4.224,-5.61024 -5.60992,-7.52416 -8.05216,-10.69216 2.64,0.792 5.94016,1.88096 13.53024,-1.64992 7.02912,3.5968 11.84704,3.39904 13.53024,3.29984 1.68288,-0.09888 3.26688,-0.85792 4.488,-1.81504 0.792,-0.62688 1.38592,-1.88096 1.74912,-2.70592 0.13184,-0.29696 -0.16512,-0.56096 -0.46208,-0.46208 -5.9072,2.44192 -11.352,0.46208 -18.0512,-3.26688 l -1.18816,-0.66016 -1.18784,0.62688 C 70.872,15.29568 63.47968,12.35872 62.81984,12.09472 62.55584,11.96256 60.54272,10.90656 59.65184,9.12448 58.76064,7.3424 58.56288,5.46144 59.22272,3.87744 59.75072,2.5904 61.0048,1.73248 63.05088,1.30336 64.73376,1.10528 66.912,1.73248 68.6608,2.4256 69.05696,2.5904 69.41984,2.19456 69.25504,1.83136 69.05696,1.30336 68.9248,0.7424 68.9248,0.14848 c 0,-0.99008 0.33024,-1.88096 0.85824,-2.60704 l 2.34304,1.08896 c -0.39616,0.39584 -0.6272,0.99008 -0.56128,1.64992 0.0992,0.85824 0.82528,1.584 1.6832,1.6832 1.15488,0.1648 2.112,-0.69312 2.21088,-1.78208 l 2.2112,1.02304 C 77.27392,2.82144 76.02016,4.07552 74.40288,4.47136 74.07296,4.5376 74.04,4.9664 74.36992,5.0656 c 3.0032,1.41888 11.78112,5.51104 11.78112,5.51104 0,0 5.08224,2.83808 9.53728,2.2768 4.28992,-0.23072 6.20416,-3.62976 3.66304,-3.29984 -2.54112,0.32992 -8.5472,-2.27712 -8.5472,-2.27712 L 86.77824,5.39552 88.46112,2.78848 c 0,0 5.74208,3.26688 10.82432,4.38912 3.36608,0.72608 5.64288,-1.18816 6.79808,-2.57408 0.36288,-0.3632 0.033,-0.95712 -0.46208,-0.8912 z M 58.6288,-7.73856 c -2.14496,0.264 -5.41216,1.25376 -7.26016,2.14496 -0.69312,0.32992 -1.28704,0.65984 -1.78208,0.9568 -1.61696,1.056 -3.06912,2.64032 -4.224,4.81824 -4.52096,8.77824 3.76192,19.53632 10.42816,28.1824 1.12192,1.45184 2.14496,2.80512 3.06912,4.05888 1.41888,1.9472 2.96992,3.86112 4.488,5.67616 3.89408,4.78528 8.184,9.8672 10.032,15.5104 0.49504,1.97984 0.56128,3.82784 0.33024,5.31296 -0.792,4.62016 -4.81824,6.20416 -4.81824,6.20416 0.59424,-1.91424 0.92416,-4.38912 0.56096,-7.2272 V 57.83328 C 68.232,51.2 62.8528,45.32608 62.8528,45.32608 61.56576,43.60992 60.17984,41.82816 59.05792,40.376 47.73856,25.82272 46.61664,24.1728 43.94368,19.3216 L 43.9104,19.25568 C 43.84448,19.12384 43.7456,18.95872 43.6464,18.7936 42.09568,16.18656 37.9376,9.22368 39.75264,1.93056 c 0.4288,-1.6832 1.18784,-3.20128 2.2768,-4.52128 6.63328,-8.61312 19.33824,-5.67584 16.59936,-5.14784 z"
     fill="#4b11f2"
     id="path6"
     style="stroke-width:3.2" />
</svg>
