<!-- Retrieved from saddle.finance --><svg height="40" fill="none" xmlns="http://www.w3.org/2000/svg" viewBox="0 0 40 40"><circle cx="20" cy="20" r="20" fill="white"></circle><path d="M29.1913 11.5366C29.1913 11.5366 30.3875 8.56657 30.2328 7.88593C30.0885 7.22592 30.0782 7.01967 28.9953 6.21528C28.5622 6.41122 27.7887 6.68967 27.1597 6.56591C26.2315 6.3906 25.7572 6.07091 25.3137 5.67903C24.8703 5.28714 24.6331 4.70964 24.5918 4.36932C24.5815 4.28682 24.6743 4.22494 24.7465 4.27651C25.1281 4.55495 25.4375 5.06027 26.5203 5.42121C27.1391 5.62746 27.6444 5.56559 27.9538 5.46246C26.5822 4.5137 24.5918 3.2143 23.4059 2.82242C21.8899 2.32741 21.2093 3.2968 21.2093 3.2968L19.7861 5.54496C19.7861 5.54496 22.1787 5.89559 24.6228 7.26717C27.0566 8.62844 29.1913 11.5366 29.1913 11.5366Z" fill="#4B11F2"></path><path d="M33.0067 14.9101C32.7076 14.9514 32.2539 14.9514 31.6454 14.7967C29.2632 14.1264 27.7988 10.1973 23.6738 7.72223C17.084 4.31906 13.5467 7.39222 13.5467 7.39222C13.093 7.7016 13.557 7.89754 13.557 7.89754L15.7227 8.99068L16.7437 9.52694C16.7437 9.52694 16.094 10.3623 14.7739 9.72288C14.3408 9.53726 13.4745 9.48569 12.8042 10.0838C12.072 10.486 12.3917 11.6513 11.8555 12.3939C11.3295 13.1364 10.2776 13.0126 10.1642 14.0851C10.0714 15.1783 10.9376 15.3845 10.9583 16.1992C10.9789 17.0139 10.6798 17.478 10.5973 17.6946C10.5664 17.7874 10.5458 17.9008 10.5458 18.0143C10.5561 18.1689 10.6283 18.3236 10.7314 18.4474C10.8139 18.5402 10.8861 18.6021 10.9686 18.6536C11.3192 18.8908 11.6183 19.2002 11.8142 19.5715C11.8451 19.6333 11.8761 19.6952 11.9173 19.7571C11.9483 19.8087 11.9792 19.8705 12.0205 19.9427C12.2473 20.3449 12.3402 20.8193 12.2577 21.2834C12.237 21.4071 12.2473 21.5515 12.2886 21.6856C12.3711 21.9331 12.5877 22.1187 12.8455 22.1909C13.227 22.2837 13.557 22.5106 13.7839 22.8303C13.8045 22.8509 13.8149 22.8818 13.8355 22.9024C14.1449 23.3356 14.083 24.0162 14.2067 24.5112C14.3305 25.0062 14.743 25.1609 15.3411 25.5012C15.9393 25.8416 16.063 26.3778 15.8155 26.6356C15.568 26.8934 14.1036 26.2644 13.5158 26.9656C13.0827 27.3678 13.2683 27.6256 13.0517 28.3888C12.8352 29.1622 12.1751 28.595 11.8245 29.1313C11.4739 29.6675 11.4223 30.2451 11.5976 31.3898C11.773 32.5345 12.8867 34.1123 12.8867 34.1123C12.8867 34.1123 12.2886 32.0291 13.588 30.2451C14.6914 28.9457 15.5371 28.7703 16.7849 28.7497C18.043 28.7188 19.8993 29.8532 20.2809 32.0807C20.4768 33.5554 19.6724 34.4114 19.6106 34.4939C19.4662 34.6589 18.2802 35.9686 16.7024 35.092C16.2693 34.7929 15.8877 34.4836 15.6299 33.8854C15.4443 33.3388 15.3927 32.6066 15.7021 32.1116C15.9599 31.6991 16.3724 31.5754 16.4962 31.5651C16.6818 31.5444 17.084 31.5548 17.3418 31.7507C17.5996 31.9466 17.878 32.2354 17.8265 32.7304C17.7749 33.2254 17.2593 33.3698 17.0633 33.3285C16.8983 33.2976 17.0118 33.3182 17.053 33.3285C16.7333 33.3079 16.589 33.0604 16.5271 32.8851C16.5168 32.8438 16.4549 32.8542 16.4446 32.8954C16.3518 33.576 16.8674 34.0092 17.1768 34.0814C17.5171 34.1535 18.0224 34.1432 18.4349 33.7204C18.7959 33.3595 18.9918 33.0501 18.9918 32.256C18.9918 31.6063 18.7237 31.1526 18.2802 30.7607C17.7027 30.2244 16.9396 30.0182 16.4136 30.0594C15.9186 30.1007 15.0524 30.3069 14.4852 31.2041C13.9592 32.0291 13.7324 33.1635 14.1758 34.432L14.1964 34.4732C15.2071 36.8348 17.5687 37.433 19.1981 37.433C19.5281 37.433 19.8271 37.4123 20.0746 37.3711C20.1262 37.3608 21.2915 37.1855 22.4259 36.4842C23.8284 35.5561 24.6638 34.2154 24.6638 32.1426C24.6638 29.3891 23.4572 27.5535 20.9822 24.6865C20.5078 24.0987 18.5793 21.7165 18.2287 21.2524C16.5065 19.0249 14.578 16.4055 15.5371 14.4151C15.568 14.3533 15.5989 14.3017 15.6299 14.2398C17.0633 11.6101 21.1059 12.2598 20.219 12.4248C18.6824 12.6826 17.7646 13.3632 17.4862 13.6623C17.2077 13.9614 17.053 14.2192 16.8674 14.7039C16.5477 15.498 16.8055 16.7252 17.4862 17.7977C20.4459 21.9949 24.8185 27.2234 25.3547 28.4816C26.0457 30.0697 26.1488 31.3279 26.1385 32.1013C26.1282 32.8748 25.9425 34.1123 25.9425 34.1123C25.9425 34.1123 26.9635 33.2976 27.4482 32.3076C27.9329 31.3176 28.0154 30.8432 27.871 30.4719C27.7163 30.1007 27.3347 30.0904 27.1801 29.4819C27.0254 28.8735 27.4585 28.3372 27.0047 27.3678C26.8088 26.945 25.7672 26.3262 25.231 25.6456C24.6947 24.965 23.715 23.7481 22.9828 22.7684C21.6628 21.0152 21.2297 20.4171 20.4665 19.4271C21.2915 19.6746 22.3228 20.0149 24.6947 18.9115C26.8913 20.0355 28.3969 19.9737 28.9229 19.9427C29.4488 19.9118 29.9438 19.6746 30.3254 19.3755C30.5729 19.1796 30.7585 18.7877 30.872 18.5299C30.9132 18.4371 30.8204 18.3546 30.7276 18.3855C28.8816 19.1486 27.1801 18.5299 25.0866 17.3646L24.7153 17.1583L24.3441 17.3542C22.1475 18.5299 19.8374 17.6121 19.6312 17.5296C19.5487 17.4883 18.9196 17.1583 18.6412 16.6014C18.3627 16.0445 18.3009 15.4567 18.5071 14.9617C18.6721 14.5595 19.064 14.2914 19.7034 14.1573C20.2293 14.0954 20.91 14.2914 21.4565 14.508C21.5803 14.5595 21.6937 14.4358 21.6422 14.3223C21.5803 14.1573 21.539 13.982 21.539 13.7964C21.539 13.487 21.6422 13.2086 21.8072 12.9817L22.5394 13.322C22.4156 13.4457 22.3434 13.6314 22.364 13.8376C22.395 14.1058 22.6219 14.3326 22.89 14.3636C23.2509 14.4151 23.55 14.147 23.5809 13.8067L24.2719 14.1264C24.1481 14.6317 23.7563 15.0236 23.2509 15.1473C23.1478 15.168 23.1375 15.302 23.2406 15.333C24.1791 15.7764 26.9222 17.0552 26.9222 17.0552C26.9222 17.0552 28.5104 17.9421 29.9026 17.7667C31.2432 17.6946 31.8414 16.6324 31.0473 16.7355C30.2532 16.8386 28.3763 16.0239 28.3763 16.0239L27.1182 15.4361L27.6441 14.6214C27.6441 14.6214 29.4385 15.6423 31.0267 15.993C32.0786 16.2199 32.7901 15.6217 33.1511 15.1886C33.2645 15.0751 33.1614 14.8895 33.0067 14.9101ZM18.3215 11.3317C17.6512 11.4142 16.6302 11.7235 16.0527 12.002C15.8361 12.1051 15.6505 12.2082 15.4958 12.301C14.9905 12.631 14.5367 13.1261 14.1758 13.8067C12.763 16.5499 15.3514 19.9118 17.4346 22.6137C17.7852 23.0674 18.1049 23.4903 18.3937 23.8821C18.8371 24.4906 19.3218 25.0887 19.7962 25.6559C21.0131 27.1513 22.3537 28.7394 22.9312 30.5029C23.0859 31.1216 23.1066 31.6991 23.0344 32.1632C22.7869 33.607 21.5287 34.102 21.5287 34.102C21.7144 33.5038 21.8175 32.7304 21.704 31.8435V31.8229C21.3225 29.75 19.6415 27.9144 19.6415 27.9144C19.2393 27.3781 18.8062 26.8213 18.4556 26.3675C14.9183 21.8196 14.5677 21.304 13.7324 19.788L13.722 19.7674C13.7014 19.7262 13.6705 19.6746 13.6395 19.623C13.1549 18.8083 11.8555 16.6324 12.4227 14.3533C12.5567 13.8273 12.7939 13.3529 13.1342 12.9404C15.2071 10.2488 19.1774 11.1667 18.3215 11.3317Z" fill="#4B11F2"></path></svg>
