<?xml version="1.0" encoding="UTF-8" standalone="no"?>
<svg
   fill="none"
   height="127.99985"
   viewBox="0 0 32 31.999962"
   width="128"
   version="1.1"
   id="svg30"
   sodipodi:docname="shib.svg"
   inkscape:version="1.1.2 (b8e25be833, 2022-02-05)"
   xmlns:inkscape="http://www.inkscape.org/namespaces/inkscape"
   xmlns:sodipodi="http://sodipodi.sourceforge.net/DTD/sodipodi-0.dtd"
   xmlns="http://www.w3.org/2000/svg"
   xmlns:svg="http://www.w3.org/2000/svg">
  <defs
     id="defs34" />
  <sodipodi:namedview
     id="namedview32"
     pagecolor="#ffffff"
     bordercolor="#999999"
     borderopacity="1"
     inkscape:pageshadow="0"
     inkscape:pageopacity="0"
     inkscape:pagecheckerboard="0"
     showgrid="false"
     inkscape:zoom="3.6796875"
     inkscape:cx="63.728238"
     inkscape:cy="127.32059"
     inkscape:window-width="1280"
     inkscape:window-height="658"
     inkscape:window-x="-6"
     inkscape:window-y="-6"
     inkscape:window-maximized="1"
     inkscape:current-layer="svg30"
     fit-margin-top="0"
     fit-margin-left="0"
     fit-margin-right="0"
     fit-margin-bottom="0" />
  <path
     d="m 16,31.999962 c 8.836727,0 16,-7.163272 16,-15.999897 C 32,7.163462 24.836727,0 16,0 7.1634578,0 0,7.163462 0,16.000065 0,24.83669 7.1634578,31.999962 16,31.999962 Z"
     fill="#fe0000"
     id="path2"
     style="stroke-width:1.0295" />
  <path
     d="m 25.9109,20.051763 c -0.8231,-0.1307 -1.6723,-0.1568 -2.4824,0.0261 -4.1941,1.0714 -2.6131,2.8613 -3.5408,0.3397 0,-0.0131 -0.3396,-0.2221 -0.3527,-0.2352 -0.0261,-0.0522 -0.0522,-0.0914 -0.0914,-0.1306 -0.5227,-0.7709 -1.3067,-1.3327 -2.2082,-1.5679 -0.013,-0.0131 -0.0261,-0.0131 -0.0392,-0.0131 -1.2412,-0.3397 -2.6523,-0.1045 -3.6583,0.7186 -0.3528,0.2613 -0.7055,0.4442 -0.9669,0.797 l -0.1175,0.0915 c -0.0523,0.0523 -0.0784,0.1045 -0.1176,0.1568 l -0.1568,0.1437 c -0.2875,0.418 -0.2091,0.7839 -0.4051,1.2542 -0.0522,0.0392 -0.0522,0.2221 -0.1175,0.1568 -0.2222,-0.2351 -0.4443,-0.4572 -0.6925,-0.6401 -1.34577,-1.1629 -3.22721,-1.4896 -4.93879,-1.1367 -0.06533,1.0452 0.49649,2.025 1.11057,2.8221 0.66635,0.8231 1.45027,1.5286 2.29953,2.1427 0.53569,0.405 1.09749,0.7447 1.68549,1.0714 0.0392,0.0392 0.0784,0.0653 0.1306,0.0653 0.0262,0.0131 0.0523,0.0262 0.0784,0.0392 0.0262,0.0131 0.0392,0.0392 0.0784,0.0392 0.3266,0.196 0.6794,0.3658 1.0322,0.5095 0,0 0,0 0,-0.013 v 0.013 c 0.0392,0.0261 0.0914,0.0523 0.1437,0.0523 0.0131,0.0261 0.0653,0.0522 0.0915,0.0392 0,0 0,0 -0.0131,0.013 0.0131,0.0131 0.0261,0.0262 0.0523,0.0262 0.0261,0.013 0.0522,0.0261 0.0784,0.0261 0.013,0.013 0.0392,0.0261 0.0653,0.0261 0.0261,0.0131 0.0392,0.0261 0.0653,0.0261 0.0653,0.0394 0.1437,0.0524 0.2091,0.0786 0.0392,0.013 0.0653,0.0261 0.1045,0.0391 0.0914,0.0392 0.209,0.0784 0.3136,0.1046 4.0633,1.411 8.7016,-0.98 11.2624,-4.1419 0.0262,-0.0261 0.0392,-0.0522 0.0392,-0.0783 0.0915,-0.0523 0.1568,-0.1829 0.196,-0.2744 0.0653,-0.1045 0.1437,-0.209 0.209,-0.3397 0.0131,-0.013 0.0261,-0.0261 0.0261,-0.0391 0.0263,-0.0523 0.0655,-0.0916 0.0786,-0.1439 0.3266,-0.5748 0.7054,-1.4372 0.5486,-2.0642 z m -16.59318,4.8081 c 0.01306,0 0.01306,0 0,0 z m 2.35178,-2.9921 c 0.0131,0 0.0131,0 0,0 0.0131,0.0131 0,0 0,0 z m 0.7186,4.795 c -0.013,0 0,0 0,0 z m 7.9438,-0.2482 c -0.013,0 0,0 0,0 z"
     fill="#fdfdfd"
     id="path4" />
  <path
     d="m 21.5474,7.5872435 c 6.3238,-5.93175 4.1157,3.1096195 2.9268,6.6634195 0.5095,1.2412 1.1889,2.5086 1.3457,3.8935 0.0653,0.6272 0.209,1.3588 0.1437,1.9468 -1.7376,-0.3659 -3.6583,0.0392 -5.0171,1.2021 -1.0975,1.1105 -0.4182,0.1698 -1.5025,-1.2413 -2.1951,-3.0573 -6.5459,-1.7246 -7.6304,1.6071 -0.0391,0.0783 -0.0653,0.2743 -0.1698,0.1437 -1.3849,-1.5809 -3.56689,-2.1559 -5.59204,-1.7638 -0.03921,-1.9991 0.7186,-3.9589 1.47639,-5.7489 -0.87538,-2.5086 -1.8945,-6.0493495 -0.78392,-8.5840495 1.04523,-0.73167 2.9528,1.28042 3.73677,1.93369 2.9005,3.2141595 1.0583,1.05831 5.8011,1.2151 4.6252,0.09145 2.3648,1.8683595 5.2653,-1.26736 z"
     fill="#fda000"
     id="path6" />
  <path
     d="m 10.1276,10.579363 c -0.24829,0.2221 -0.49653,0.4442 -0.71864,0.6794 -0.15679,0.1699 -0.31358,0.3267 -0.4573,0.4965 -0.16984,0.2091 -0.3397,0.4312 -0.50955,0.6402 -0.14372,0.196 -0.27437,0.405 -0.4181,0.588 -0.01306,0.013 -0.01306,0.0392 -0.03919,0.0392 -0.02613,0 -0.01307,-0.0262 -0.02613,-0.0392 -0.0784,-0.2352 -0.15679,-0.4573 -0.23518,-0.6925 -0.0784,-0.2221 -0.14372,-0.4573 -0.20905,-0.6925 -0.06533,-0.2482 -0.13065,-0.4965 -0.19599,-0.7447 -0.02613,-0.1176 -0.06532,-0.2221 -0.07838,-0.3397 -0.03921,-0.196 -0.0784,-0.392 -0.11759,-0.6009995 -0.02613,-0.1568 -0.05227,-0.3006 -0.06533,-0.45734 -0.01307,-0.10453 -0.02613,-0.19599 -0.0392,-0.3005 -0.01306,-0.27439 -0.03919,-0.56182 -0.02612,-0.83621 0,-0.14372 0.02612,-0.27437 0.03919,-0.41809 0.02613,-0.13066 0,-0.11759 0.15678,-0.10453 0.22211,0.02613 0.44423,0.09146 0.65328,0.18292 0.3005,0.1176 0.56182,0.28744 0.81006,0.48343 0.22212,0.18291 0.41809,0.39196 0.60101,0.61408 0.09145,0.11759 0.19598,0.24825 0.28744,0.36584 0.09146,0.1176 0.18292,0.2482 0.26131,0.3789 0.06533,0.1176 0.14373,0.2481995 0.22208,0.3657995 0.0523,0.0915 0.1046,0.196 0.1568,0.3005 0.0131,0.0654 -0.0131,0.0784 -0.0522,0.0915 z"
     fill="#fe7900"
     id="path8" />
  <path
     d="m 24.7876,7.8093935 c 0.0262,0.10453 0.0392,0.19598 0.0392,0.30051 0.0131,0.11759 0.0131,0.23517 0.0262,0.35276 0,0.16986 -0.0131,0.33971 -0.0131,0.50956 0,0.11759 -0.0131,0.22211 -0.0261,0.3397 -0.0262,0.22212 -0.0523,0.45734 -0.0915,0.67944 -0.0392,0.2089995 -0.0784,0.4310995 -0.1176,0.6401995 -0.0522,0.2221 -0.1045,0.4311 -0.1698,0.6533 -0.0784,0.3135 -0.1829,0.6271 -0.2743,0.9407 -0.0392,0.1306 -0.0786,0.2613 -0.1177,0.3789 -0.0392,0.1437 -0.1046,0.2744 -0.1437,0.405 -0.0131,0.0392 -0.0392,0.0392 -0.0523,0.0131 -0.1045,-0.1568 -0.209,-0.3136 -0.3266,-0.4704 -0.0653,-0.0914 -0.1307,-0.1829 -0.196,-0.2613 -0.0914,-0.1176 -0.1829,-0.2352 -0.2743,-0.3397 -0.1307,-0.1698 -0.2745,-0.3266 -0.4182,-0.4834 -0.1568,-0.1699 -0.3135,-0.3267 -0.4703,-0.4835 -0.1307,-0.1306 -0.2744,-0.2482 -0.4181,-0.3788 -0.0654,-0.0523 -0.0654,-0.0523 -0.0262,-0.1307 0.1177,-0.2613 0.2875,-0.5095995 0.4443,-0.7577995 0.1437,-0.23518 0.3135,-0.44423 0.4964,-0.66635 0.1045,-0.13065 0.2352,-0.24824 0.3529,-0.37889 0.1437,-0.15679 0.3266,-0.28744 0.4964,-0.40503 0.1437,-0.09146 0.2874,-0.19599 0.4442,-0.24826 0.1961,-0.07838 0.379,-0.15678 0.588,-0.16984 0.0784,-0.01307 0.1437,-0.0392 0.2221,-0.0392 -0.013,0 0.0131,-0.01306 0.0261,0 z"
     fill="#fe7900"
     id="path10" />
  <path
     d="m 13.3417,18.340163 c -0.3789,-0.0131 -0.7578,-0.0784 -1.1367,-0.1568 -0.4965,-0.1176 -0.993,-0.2744 -1.4503,-0.4965 -0.2482,-0.1176 -0.4965,-0.2613 -0.7055,-0.4573 -0.09148,-0.0915 -0.16988,-0.1829 -0.16988,-0.3266 -0.01306,-0.2744 -0.02613,-0.5488 0.0392,-0.8232 0,-0.0261 0.01307,-0.0392 0.01307,-0.0653 0.09141,-0.2482 0.07841,-0.2352 0.35281,-0.209 0.405,0.0392 0.7578,0.2221 1.1105,0.3919 0.5749,0.2875 1.1367,0.6272 1.6724,0.9799 0.2482,0.1699 0.4704,0.3659 0.6402,0.6141 0.0653,0.1045 0.1045,0.196 0.1307,0.3136 0.013,0.0914 -0.0131,0.1176 -0.0915,0.1568 -0.1306,0.0784 -0.2613,0.0784 -0.405,0.0784 z"
     fill="#000000"
     id="path12" />
  <path
     d="m 22.2917,16.563263 c 0,0.1568 -0.0131,0.3005 -0.0261,0.4443 0,0.0392 -0.0262,0.0653 -0.0523,0.0914 -0.1698,0.196 -0.3788,0.3397 -0.6011,0.4704 -0.5356,0.3005 -1.1236,0.4834 -1.7246,0.6271 -0.2743,0.0654 -0.5488,0.1046 -0.8231,0.1307 -0.1699,0.0131 -0.3528,0.0131 -0.5226,-0.0261 -0.0261,-0.0131 -0.0653,-0.0262 -0.0914,-0.0392 -0.0523,-0.0262 -0.0784,-0.0654 -0.0784,-0.1438 0.0392,-0.1959 0.1306,-0.3527 0.2482,-0.4964 0.196,-0.2483 0.4572,-0.4312 0.7185,-0.6011 0.4705,-0.3005 0.9408,-0.601 1.4373,-0.8492 0.3136,-0.1568 0.6271,-0.3005 0.9669,-0.3789 0.1045,-0.0262 0.209,-0.0262 0.3266,-0.0262 0.0392,0 0.0653,0.0131 0.0784,0.0523 0.1045,0.1829 0.1176,0.3789 0.1306,0.5879 0.0131,0.0654 0.0131,0.1046 0.0131,0.1568 z"
     fill="#000000"
     id="path14" />
  <path
     d="m 24.788,7.8092635 c -0.1176,0.02614 -0.2482,0.0392 -0.3658,0.06533 -0.1307,0.02613 -0.2744,0.06534 -0.3921,0.13066 -0.0522,0.02612 -0.1175,0.05227 -0.1698,0.06533 -0.0784,0.02613 -0.1306,0.06532 -0.196,0.10451 -0.1306,0.0784 -0.2482,0.1568 -0.3658,0.24826 -0.1437,0.10451 -0.2612,0.2221 -0.3919,0.35277 -0.1177,0.10451 -0.2091,0.23518 -0.3136,0.35277 -0.0784,0.09145 -0.1438,0.19597 -0.2221,0.28743 -0.0523,0.06534 -0.1046,0.14374 -0.1568,0.22214 -0.1045,0.1306 -0.1698,0.2874 -0.2613,0.4180995 -0.0784,0.1306 -0.1568,0.2744 -0.2221,0.405 -0.0262,0.0523 -0.0393,0.0915 0.0131,0.1307 -0.0393,0 -0.0524,-0.0262 -0.0655,-0.0523 -0.0784,-0.0784 -0.1698,-0.1437 -0.2482,-0.209 -0.1437,-0.1046 -0.2613,-0.2091 -0.418,-0.3006 -0.0654,-0.039099 -0.1176,-0.078399 -0.1699,-0.1174995 -0.0392,-0.0262 -0.0784,-0.0523 -0.1306,-0.0784 -0.0261,-0.0131 -0.0261,-0.0392 -0.0131,-0.0523 0.0523,-0.0653 0.1045,-0.1176 0.1568,-0.1698 0.0523,-0.0523 0.1045,-0.11764 0.1568,-0.15684 0.0653,-0.05226 0.1045,-0.11759 0.1829,-0.16985 0.0653,-0.03919 0.1045,-0.10453 0.1567,-0.15678 0.0784,-0.0784 0.1699,-0.1568 0.2482,-0.23518 0.1178,-0.10453 0.2223,-0.22212 0.3529,-0.31358 0.0915,-0.0784 0.1698,-0.15678 0.2744,-0.22211 0.0653,-0.0392 0.1175,-0.10453 0.1829,-0.14372 0.1567,-0.11759 0.3135,-0.24825 0.4833,-0.36584 0.1569,-0.10452 0.3137,-0.22211 0.4835,-0.31357 0.1307,-0.0784 0.2744,-0.15679 0.405,-0.22212 0.1176,-0.06532 0.2482,-0.11759 0.3659,-0.16985 0.1046,-0.05227 0.2221,-0.07839 0.3266,-0.11759 0.0392,-0.01306 0.0523,0.02613 0.0654,0.0392 0.0522,0.11759 0.1045,0.22211 0.1437,0.3397 0.0392,0.11759 0.0522,0.23518 0.0914,0.35277 0.0131,0 0.0131,0.02613 0.0131,0.05226 z"
     fill="#fe8e00"
     id="path16" />
  <path
     d="m 10.1272,10.579263 c 0.0392,-0.0391 0.0392,-0.0784 -0.0131,-0.1567 -0.0392,-0.0654 -0.0784,-0.1176 -0.0914,-0.196 0,-0.0262 -0.0262,-0.0262 -0.0392,-0.0392 -0.07843,-0.1307 -0.15681,-0.2612995 -0.23521,-0.3919995 -0.05226,-0.0914 -0.11759,-0.1698 -0.16985,-0.24824 -0.07839,-0.11759 -0.15679,-0.2221 -0.23518,-0.32663 -0.11759,-0.14373 -0.23517,-0.28745 -0.36583,-0.4181 -0.09146,-0.0784 -0.15679,-0.16985 -0.26132,-0.24824 -0.10453,-0.0784 -0.19597,-0.16985 -0.3005,-0.23518 -0.09146,-0.06532 -0.19599,-0.11759 -0.28745,-0.19599 -0.03919,-0.02613 -0.10453,-0.05226 -0.14372,-0.06532 -0.18291,-0.0784 -0.36583,-0.15678 -0.56182,-0.19599 -0.09145,-0.02613 -0.19597,-0.03919 -0.28744,-0.05225 -0.05225,0 -0.06533,0.01306 -0.06533,0.06532 0,0.01306 0,0.02614 -0.01306,0.0392 -0.01307,-0.06533 0.01306,-0.11759 0.02614,-0.18292 0.03919,-0.18291 0.07838,-0.35277 0.15678,-0.52262 0.02613,-0.06533 0.06532,-0.11759 0.09146,-0.19599 0.01307,-0.03919 0.03919,-0.05225 0.07839,-0.03919 0.16986,0.06532 0.32664,0.13066 0.48342,0.19598 0.10453,0.05227 0.22212,0.10452 0.32664,0.16986 0.09146,0.05225 0.19599,0.10452 0.28745,0.15678 0.14372,0.09146 0.28744,0.18292 0.41809,0.27437 0.10453,0.06533 0.20905,0.14373 0.30052,0.22212 0.14371,0.11759 0.28743,0.23518 0.44421,0.35277 0.11759,0.09146 0.22212,0.19598 0.33971,0.28744 0.0653,0.05226 0.1437,0.11759 0.196,0.18291 0.0784,0.0784 0.1698,0.14372 0.2482,0.22212 0.0784,0.0784 0.1568,0.15678 0.2352,0.23518 0.1568,0.14372 0.3005,0.30051 0.4573,0.44421 0.0392,0.0262 0.0392,0.0523 0,0.0784 -0.0915,0.0653 -0.1829,0.1176 -0.2744,0.1829 -0.0784,0.0523 -0.1568,0.1045995 -0.2221,0.1698995 -0.0914,0.0784 -0.196,0.1568 -0.3005,0.2352 -0.0523,0.0392 -0.1045,0.1045 -0.1698,0.1437 -0.0131,0.0392 -0.0262,0.0522 -0.0523,0.0522 z"
     fill="#fe8e00"
     id="path18" />
  <path
     d="m 12.6886,14.159163 c -0.0392,-0.0784 -0.1176,-0.1698 -0.1568,-0.2221 -0.0653,-0.0784 -0.1698,-0.196 -0.2743,-0.2744 -0.1046,-0.0784 -0.196,-0.1568 -0.3136,-0.209 -0.3005,-0.1307 -0.601,-0.1176 -0.8885,0.013 -0.2352,0.1046 -0.4442,0.2614 -0.5879,0.4835 -0.0131,0.013 -0.0131,0.0261 -0.0262,0.0392 -0.209,0.3135 -0.209,0.7055 0.0131,1.006 0.0653,0.0915 0.1437,0.1699 0.2744,0.1829 0.1306,0.0131 0.2744,0.0261 0.405,0.0392 0.2613,0.0131 0.5357,0 0.797,-0.0261 0.1829,-0.0261 0.3658,-0.0523 0.5488,-0.1176 0.1045,-0.0392 0.1829,-0.0784 0.2352,-0.1829 0.1175,-0.2483 0.0914,-0.4834 -0.0262,-0.7317 z"
     fill="#f8fbf4"
     id="path20" />
  <path
     d="m 19.1949,14.903863 c 0.0522,0.1046 0.1438,0.1438 0.2352,0.183 0.1699,0.0653 0.3658,0.0914 0.5487,0.1176 0.2613,0.0261 0.5357,0.0392 0.7971,0.0261 0.1306,0 0.2743,-0.0261 0.405,-0.0392 0.1306,-0.0131 0.209,-0.0915 0.2743,-0.1829 0.2221,-0.3005 0.2221,-0.6925 0.0131,-1.0061 -0.0131,-0.013 -0.0131,-0.0261 -0.0261,-0.0392 -0.1437,-0.2221 -0.3397,-0.3789 -0.5879,-0.4834 -0.2874,-0.1307 -0.588,-0.1568 -0.8885,-0.0131 -0.1176,0.0523 -0.2221,0.1307 -0.3136,0.2091 -0.1045,0.0784 -0.209,0.196 -0.2743,0.2744 -0.0392,0.0522 -0.1177,0.1568 -0.1569,0.2221 -0.1176,0.2352 -0.1437,0.4703 -0.0261,0.7316 z"
     fill="#f8fbf4"
     id="path22" />
  <g
     fill="#000000"
     id="g28"
     transform="translate(-0.0415,-0.44573653)">
    <path
       d="m 18.1782,25.3971 c -0.0522,-0.0784 -0.0914,-0.1437 -0.1306,-0.2221 -0.0131,-0.0261 -0.0131,-0.0523 -0.0131,-0.0784 0,-0.3006 0,-0.6011 0,-0.9015 0,-0.0523 0,-0.0654 -0.0653,-0.0523 -0.7055,0.1176 -1.411,0.1698 -2.1297,0.1306 -0.3527,-0.013 -0.7055,-0.0522 -1.0583,-0.1175 -0.0522,-0.0131 -0.0653,0 -0.0653,0.0522 0.0131,0.3005 0.0131,0.614 0.0261,0.9146 0,0.1176 -0.0653,0.1829 -0.1176,0.2613 -0.013,0.0262 -0.0261,-0.013 -0.0392,-0.0261 -0.0914,-0.1306 -0.1567,-0.2743 -0.209,-0.4312 -0.0392,-0.1176 -0.0784,-0.2483 -0.1045,-0.3658 -0.0131,-0.0392 -0.0131,-0.0392 -0.0523,-0.0392 -0.0131,0 -0.0392,0 -0.0523,0 -0.1306,0.013 -0.1306,0.013 -0.1567,-0.1176 -0.0262,-0.1045 -0.0392,-0.209 -0.0392,-0.3136 0,-0.0391 -0.0131,-0.0653 -0.0392,-0.0914 -0.0523,-0.0523 -0.1046,-0.1045 -0.1699,-0.1568 -0.0392,-0.0261 -0.0261,-0.0653 -0.0261,-0.0915 0.013,-0.0262 0.0392,-0.0131 0.0653,-0.0131 h 0.7709 c 0.0392,0 0.0653,0.0131 0.0653,0.0654 0,0.0392 0.0131,0.0392 0.0523,0.0392 0.3658,0.0131 0.7447,0.0131 1.1106,0.0262 0.0391,0 0.0653,-0.0131 0.0783,-0.0392 0.0523,-0.0785 0.1046,-0.1569 0.1438,-0.2353 0.0392,-0.0653 0.0653,-0.0915 0.1437,-0.0784 0.0392,0.0131 0.0523,-0.0131 0.0523,-0.0523 0,-0.222 0,-0.4311 0,-0.6532 0,-0.0522 -0.0131,-0.0653 -0.0523,-0.0783 -0.3267,-0.1307 -0.6272,-0.2876 -0.8885,-0.5227 -0.196,-0.1699 -0.3528,-0.3658 -0.4181,-0.6141 -0.013,-0.0653 -0.0261,-0.1175 -0.0261,-0.1829 0,-0.183 0,-0.3659 0,-0.5357 0,-0.3135 0.2352,-0.5487 0.5357,-0.5487 h 1.8161 c 0.2352,0 0.5749,0.2613 0.5749,0.5879 0,0.1698 0,0.3396 -0.0131,0.5096 -0.013,0.3919 -0.1829,0.7055 -0.4703,0.9537 -0.1829,0.1568 -0.392,0.2745 -0.6272,0.3529 -0.0392,0.013 -0.0522,0.0261 -0.0522,0.0653 v 0.6662 c 0,0.0392 0.013,0.0523 0.0522,0.0523 0.0784,-0.0131 0.1176,0.0131 0.1568,0.0784 0.0392,0.0784 0.0915,0.1437 0.1437,0.2222 0.0131,0.0261 0.0392,0.0392 0.0654,0.0392 0.3135,0 0.6271,0 0.9406,0.0131 0.0523,0 0.0654,-0.0392 0.0915,-0.0654 0.0261,-0.0392 0.0523,-0.0523 0.0914,-0.0523 h 0.7056 c 0.0654,0 0.0654,0.0131 0.0523,0.0654 -0.0653,0.2221 -0.1176,0.4442 -0.1698,0.6793 -0.0131,0.0392 -0.0262,0.0654 -0.0784,0.0654 -0.1699,0 -0.1699,0 -0.2352,0.1567 -0.0522,0.2091 -0.1437,0.4443 -0.2353,0.6795 z"
       id="path24" />
    <path
       d="m 16.257,24.4955 h 0.8885 c 0.0523,0 0.0653,0.0131 0.0653,0.0653 0,0.1568 0,0.1568 -0.1306,0.2352 -0.1176,0.0784 -0.1176,0.0784 -0.2352,-0.0131 -0.1176,-0.0914 -0.1176,-0.0914 -0.2221,0.0131 -0.0654,0.0653 -0.1176,0.1437 -0.1829,0.209 -0.0784,0.0785 -0.2091,0.0785 -0.2744,-0.0261 -0.0523,-0.0784 -0.1046,-0.1699 -0.1568,-0.2482 -0.0262,-0.0392 -0.0523,-0.0523 -0.0915,-0.0523 -0.1437,0 -0.1437,0 -0.196,0.1176 -0.0261,0.0522 -0.0392,0.0653 -0.0914,0.0392 -0.0915,-0.0262 -0.1829,-0.0654 -0.2744,-0.1176 -0.0392,-0.0131 -0.0523,-0.0392 -0.0523,-0.0784 0,-0.1568 0,-0.1568 0.1568,-0.1568 0.2613,0.0131 0.5357,0.0131 0.797,0.0131 z"
       id="path26" />
  </g>
</svg>
