<?xml version="1.0" encoding="UTF-8" standalone="no"?>
<svg
   fill="none"
   height="128"
   viewBox="0 0 32 32"
   width="128"
   version="1.1"
   id="svg17"
   sodipodi:docname="sol(white).svg"
   inkscape:version="1.1.2 (b8e25be833, 2022-02-05)"
   xmlns:inkscape="http://www.inkscape.org/namespaces/inkscape"
   xmlns:sodipodi="http://sodipodi.sourceforge.net/DTD/sodipodi-0.dtd"
   xmlns="http://www.w3.org/2000/svg"
   xmlns:svg="http://www.w3.org/2000/svg">
  <defs
     id="defs21" />
  <sodipodi:namedview
     id="namedview19"
     pagecolor="#ffffff"
     bordercolor="#999999"
     borderopacity="1"
     inkscape:pageshadow="0"
     inkscape:pageopacity="0"
     inkscape:pagecheckerboard="0"
     showgrid="false"
     inkscape:zoom="3.6796875"
     inkscape:cx="63.864119"
     inkscape:cy="64"
     inkscape:window-width="1280"
     inkscape:window-height="658"
     inkscape:window-x="-6"
     inkscape:window-y="-6"
     inkscape:window-maximized="1"
     inkscape:current-layer="svg17" />
  <linearGradient
     id="a"
     gradientUnits="userSpaceOnUse"
     x1="19.5022"
     x2="8.57016"
     y1="4.00667"
     y2="24.946">
    <stop
       offset="0"
       stop-color="#00ffa3"
       id="stop2" />
    <stop
       offset="1"
       stop-color="#dc1fff"
       id="stop4" />
  </linearGradient>
  <circle
     cx="16"
     cy="16"
     fill="#000000"
     id="circle7"
     r="16"
     style="fill:#ffffff" />
  <g
     fill="url(#a)"
     id="g15">
    <path
       d="m9.33789 20.1017c.1211-.121.28529-.189.45649-.189h15.79582c.2878 0 .4318.3479.2283.5513l-3.1213 3.1188c-.1211.121-.2852.1889-.4564.1889h-15.7959c-.28775 0-.4318-.3479-.22824-.5513z"
       id="path9" />
    <path
       d="m9.33789 8.45026c.1211-.12101.28529-.18898.45649-.18898h15.79582c.2878 0 .4318.34795.2283.55134l-3.1213 3.11878c-.1211.121-.2852.1889-.4564.1889h-15.7959c-.28775 0-.4318-.3479-.22824-.5513z"
       id="path11" />
    <path
       d="m22.6972 14.2389c-.1211-.1211-.2852-.189-.4564-.189h-15.7959c-.28775 0-.4318.3479-.22824.5513l3.12123 3.1188c.1211.121.28529.1889.45649.1889h15.79582c.2878 0 .4318-.3479.2283-.5513z"
       id="path13" />
  </g>
</svg>
