<?xml version="1.0" encoding="UTF-8" standalone="no"?>
<svg
   width="128"
   height="128"
   viewBox="0 0 100 100"
   version="1.1"
   id="svg10"
   sodipodi:docname="sov.svg"
   inkscape:version="1.1.2 (b8e25be833, 2022-02-05)"
   xmlns:inkscape="http://www.inkscape.org/namespaces/inkscape"
   xmlns:sodipodi="http://sodipodi.sourceforge.net/DTD/sodipodi-0.dtd"
   xmlns="http://www.w3.org/2000/svg"
   xmlns:svg="http://www.w3.org/2000/svg"
   xmlns:rdf="http://www.w3.org/1999/02/22-rdf-syntax-ns#"
   xmlns:cc="http://creativecommons.org/ns#"
   xmlns:dc="http://purl.org/dc/elements/1.1/">
  <metadata
     id="metadata16">
    <rdf:RDF>
      <cc:Work
         rdf:about="">
        <dc:format>image/svg+xml</dc:format>
        <dc:type
           rdf:resource="http://purl.org/dc/dcmitype/StillImage" />
        <dc:title>uniswap</dc:title>
      </cc:Work>
    </rdf:RDF>
  </metadata>
  <defs
     id="defs14" />
  <sodipodi:namedview
     pagecolor="#ffffff"
     bordercolor="#666666"
     borderopacity="1"
     objecttolerance="10"
     gridtolerance="10"
     guidetolerance="10"
     inkscape:pageopacity="0"
     inkscape:pageshadow="2"
     inkscape:window-width="1280"
     inkscape:window-height="658"
     id="namedview12"
     showgrid="false"
     inkscape:zoom="3.337544"
     inkscape:cx="48.688497"
     inkscape:cy="67.265031"
     inkscape:window-x="-6"
     inkscape:window-y="-6"
     inkscape:window-maximized="1"
     inkscape:current-layer="svg10"
     inkscape:pagecheckerboard="0"
     fit-margin-top="0"
     fit-margin-left="0"
     fit-margin-right="0"
     fit-margin-bottom="0" />
  <!-- Generator: Sketch 54.1 (76490) - https://sketchapp.com -->
  <title
     id="title2">uniswap</title>
  <desc
     id="desc4">Created with Sketch.</desc>
  <path
     style="fill:#060606;stroke-width:0.784086"
     d="M 39.179685,98.868596 C 10.880327,92.710331 -6.8785609,61.351773 2.5442987,34.177967 5.3053287,26.215629 8.8827177,20.496687 14.839017,14.523153 20.760248,8.5847879 26.408073,5.0190828 34.509002,2.1046748 39.466401,0.32119182 41.53641,0.03351872 49.647113,9.0372456e-4 60.578433,-0.04305628 66.718596,1.5082558 75.038392,6.4159938 81.186209,10.042508 89.4566,18.207931 92.960758,24.110887 101.5579,38.593254 102.32385,56.204948 95.018214,71.418107 84.960784,92.361561 61.738641,103.77768 39.179685,98.868596 Z M 52.456389,87.378151 54.839146,82.644279 52.690182,79.38685 C 49.145163,74.013273 18.647786,31.465211 17.430043,30.194079 c -1.337018,-1.395633 8.440611,19.04202 19.476479,40.710635 10.048862,19.730657 11.48963,22.247037 12.410743,21.676117 0.416001,-0.25784 1.828607,-2.59905 3.139124,-5.20268 z M 68.116777,56.750725 C 79.821339,33.283966 81.64325,29.40886 80.97175,29.40886 c -0.315726,0 -21.629084,29.770949 -27.717922,38.716981 l -2.569137,3.774705 2.582717,4.273793 c 1.420495,2.350584 2.683303,4.273791 2.806239,4.273791 0.122939,0 5.542346,-10.66383 12.04313,-23.697405 z m -15.821768,5.971262 c 3.526294,-4.93866 4.513087,-8.126595 3.248836,-10.495703 -1.011383,-1.895257 -2.373438,-2.135841 -2.373438,-0.41923 0,1.741218 -3.300771,2.728834 -9.120191,2.728834 -3.217589,0 -5.002176,0.304788 -4.82934,0.824796 0.450178,1.35444 8.735815,11.738718 9.366349,11.738718 0.320226,0 1.988729,-1.969836 3.707784,-4.377415 z M 63.676182,47.84536 c 6.600697,-8.795195 6.919289,-8.228645 -4.627261,-8.228645 -7.663969,0 -10.579665,-0.30056 -12.698727,-1.30903 -2.600817,-1.237739 -2.898658,-1.229076 -5.468877,0.159083 -1.66835,0.901066 -3.434864,2.847277 -4.57358,5.038825 -1.036681,1.995172 -1.871407,2.950584 -1.891778,2.165293 -0.06105,-2.35388 2.919978,-7.392426 5.437281,-9.190089 3.129295,-2.234703 9.623898,-3.110668 23.206906,-3.13005 l 11.064169,-0.01579 2.050314,-2.695877 c 1.127673,-1.482733 2.050314,-3.028634 2.050314,-3.435336 0,-1.381378 -4.862398,-1.720983 -24.640647,-1.720983 -21.729703,0 -34.080923,0.631623 -34.080923,1.742847 0,0.864874 3.254046,5.755542 9.681266,14.55046 l 4.734091,6.478062 8.647145,0.04431 c 9.652829,0.04948 13.753829,1.063797 14.900702,3.685474 0.425083,0.971709 0.99897,1.766744 1.275307,1.766744 0.276336,0 2.496771,-2.657389 4.934298,-5.905309 z"
     id="path863" />
  <rect
     style="opacity:1;fill:#000000;fill-opacity:1;stroke-width:0.78125"
     id="rect1708"
     width="51.029289"
     height="52.667843"
     x="16.619631"
     y="21.067139" />
  <rect
     style="opacity:1;fill:#000000;fill-opacity:1;stroke-width:0.78125"
     id="rect2920"
     width="33.70742"
     height="23.642012"
     x="32.302944"
     y="66.712608" />
  <rect
     style="opacity:1;fill:#000000;fill-opacity:1;stroke-width:0.78125"
     id="rect2922"
     width="9.3631725"
     height="8.6609344"
     x="45.177307"
     y="87.545662" />
  <rect
     style="opacity:1;fill:#000000;fill-opacity:1;stroke-width:0.78125"
     id="rect2924"
     width="19.896742"
     height="44.475071"
     x="61.562859"
     y="15.215156" />
  <g
     id="g1414"
     style="fill:#ffffff;fill-opacity:1"
     transform="matrix(0.91677547,0,0,0.91677547,5.0758397,1.0373585)">
    <path
       style="opacity:1;fill:#ffffff;fill-opacity:1;stroke-width:0.299622"
       d="M 73.711316,65.521278 C 72.599975,63.552091 71.837444,62.82055 70.090845,62.047946 67.263832,60.797424 63.969682,60.454808 53.293818,60.30093 L 43.217686,60.155696 37.427222,52.174935 C 27.840647,38.962151 24.489306,33.817041 25.082897,33.22345 26.010478,32.295869 33.166971,31.834132 53.05297,31.418821 65.904956,31.150412 73.074599,31.147676 82.7155,31.4075 c 12.791136,0.344723 16.212118,0.666245 16.774736,1.576579 0.331753,0.53679 -0.595903,2.194427 -3.053857,5.456963 l -1.90579,2.529629 -13.932401,0.168441 c -14.400706,0.174103 -18.113052,0.403543 -23.220667,1.435142 -4.862426,0.982078 -7.23807,2.311423 -9.587794,5.365065 -2.525202,3.281689 -4.206602,7.000902 -3.996687,8.840566 l 0.101512,0.88964 0.70072,-0.745245 c 0.385396,-0.409885 1.012033,-1.353964 1.392528,-2.097954 1.943295,-3.799771 5.308123,-7.003141 8.367537,-7.966029 l 1.524076,-0.479672 2.546783,1.050842 c 3.575863,1.475455 5.959391,1.744287 17.407096,1.963305 12.359705,0.236465 12.25307,0.193389 9.818726,3.966311 -2.336451,3.621201 -10.300289,13.754137 -10.809871,13.754137 -0.127195,0 -0.636069,-0.717273 -1.130831,-1.593942 z"
       id="path1094"
       transform="scale(0.78125)" />
    <path
       style="opacity:1;fill:#ffffff;fill-opacity:1;stroke-width:0.299622"
       d="M 60.708461,114.82995 C 55.551888,106.81454 22.471614,40.581007 22.471614,38.271893 c 0,-0.382153 1.878792,2.162058 13.223668,17.907142 21.516386,29.8617 33.81691,47.350905 33.81691,48.081755 0,0.50102 -4.12859,8.60653 -5.447509,10.69489 -0.658834,1.04319 -1.390759,1.89671 -1.626498,1.89671 -0.235742,0 -1.014117,-0.9101 -1.729724,-2.02244 z"
       id="path1133"
       transform="scale(0.78125)" />
    <path
       style="opacity:1;fill:#ffffff;fill-opacity:1;stroke-width:0.299622"
       d="M 60.295826,82.567357 C 56.361309,78.262369 49.894769,69.68477 50.205174,69.182524 c 0.235806,-0.381542 1.642213,-0.54236 7.471968,-0.854398 7.4758,-0.400142 9.780912,-1.189358 10.213823,-3.496972 0.251253,-1.339293 0.850632,-1.576825 1.778743,-0.704911 1.764454,1.657618 2.028876,4.422728 0.749846,7.841245 -0.790636,2.113163 -4.792059,8.186043 -6.94819,10.545129 l -1.612806,1.764619 z"
       id="path1172"
       transform="scale(0.78125)" />
    <path
       style="opacity:1;fill:#ffffff;fill-opacity:1;stroke-width:0.299622"
       d="m 70.40213,99.72377 c -0.54428,-0.878748 -2.039802,-3.30639 -3.323381,-5.394761 l -2.333781,-3.797037 4.52071,-6.539905 c 5.566944,-8.053443 17.96436,-25.522295 25.37344,-35.753003 3.043225,-4.202191 6.148452,-8.491815 6.900502,-9.532496 3.52926,-4.883772 1.20006,0.202574 -14.381258,31.404867 -6.871317,13.760118 -13.229803,26.41152 -14.129968,28.114227 l -1.636663,3.095838 z"
       id="path1211"
       transform="scale(0.78125)" />
  </g>
</svg>
