<?xml version="1.0" encoding="UTF-8" standalone="no"?>
<!-- Created with Inkscape (http://www.inkscape.org/) -->

<svg
   version="1.1"
   id="svg2"
   width="128"
   height="128"
   viewBox="0 0 128 128"
   sodipodi:docname="spell.svg"
   inkscape:version="1.1.2 (b8e25be833, 2022-02-05)"
   xmlns:inkscape="http://www.inkscape.org/namespaces/inkscape"
   xmlns:sodipodi="http://sodipodi.sourceforge.net/DTD/sodipodi-0.dtd"
   xmlns="http://www.w3.org/2000/svg"
   xmlns:svg="http://www.w3.org/2000/svg">
  <defs
     id="defs6" />
  <sodipodi:namedview
     id="namedview4"
     pagecolor="#ffffff"
     bordercolor="#999999"
     borderopacity="1"
     inkscape:pageshadow="0"
     inkscape:pageopacity="0"
     inkscape:pagecheckerboard="0"
     showgrid="false"
     fit-margin-top="0"
     fit-margin-left="0"
     fit-margin-right="0"
     fit-margin-bottom="0"
     inkscape:zoom="1"
     inkscape:cx="60.5"
     inkscape:cy="73.5"
     inkscape:window-width="1280"
     inkscape:window-height="658"
     inkscape:window-x="-6"
     inkscape:window-y="-6"
     inkscape:window-maximized="1"
     inkscape:current-layer="g8" />
  <g
     inkscape:groupmode="layer"
     inkscape:label="Image"
     id="g8"
     transform="translate(-62.338643,-50.979748)">
    <g
       id="g48"
       transform="matrix(0.52216565,0,0,0.51236961,62.37335,50.928692)">
      <path
         style="fill:#fbe893"
         d="M 101.21543,248.45272 C 76.16482,243.87593 55.703795,232.96108 36.871356,214.12864 17.97069,195.22798 7.3976674,175.48681 2.0063832,149.03132 c -2.76380122,-13.5622 -2.76380122,-34.50044 0,-48.06264 C 7.5416026,73.806892 18.024094,54.53842 37.894857,35 51.42181,21.699288 62.671861,14.22757 78.399898,8.0985883 92.721721,2.517587 101.1644,0.89547221 119.01586,0.2949323 c 13.33271,-0.44852478 17.06138,-0.21481016 26.5,1.66103 C 169.89671,6.8014343 188.67121,16.874379 207.10514,35 c 19.87077,19.53842 30.35326,38.806892 35.88848,65.96868 2.7638,13.5622 2.7638,34.50044 0,48.06264 -5.53522,27.16179 -16.01771,46.43026 -35.88848,65.96868 -18.2588,17.95342 -37.16649,28.16583 -60.9632,32.92741 -12.14025,2.4292 -33.16051,2.67498 -44.92651,0.52531 z m 25.47756,-110.18369 c -0.25354,-0.97297 -0.47766,-0.41903 -0.49804,1.23097 -0.0204,1.65 0.18706,2.44606 0.46099,1.76903 0.27392,-0.67703 0.29059,-2.02703 0.037,-3 z M 107.58333,137 C 109.4625,137 111,136.55 111,136 c 0,-0.55 0.9,-1 2,-1 1.1,0 2,-0.39375 2,-0.875 0,-0.48125 1.4625,-1.21615 3.25,-1.63311 l 3.25,-0.75811 -3,-0.64415 c -2.27737,-0.48899 -2.98087,-1.17956 -2.9206,-2.86689 C 115.6434,126.43077 115.11046,126 112.8294,126 110.47804,126 110,125.57761 110,123.5 c 0,-2 -0.5,-2.5 -2.5,-2.5 -2.11111,0 -2.5,-0.46667 -2.5,-3 0,-2.66667 -0.33333,-3 -3,-3 -2.666667,0 -3,-0.33333 -3,-3 v -3 h -8.65301 -8.653009 l 2.403009,2.13463 c 1.606359,1.42696 1.988607,2.28339 1.15301,2.58334 C 83.772543,114.24831 83.543649,120 85,120 c 0.55,0 1,0.9 1,2 0,1.1 0.45,2 1,2 0.55,0 1,0.9 1,2 0,1.1 0.45,2 1,2 0.55,0 1,0.465 1,1.03333 0,2.08735 6.942756,7.96667 9.40765,7.96667 1.36087,0 2.80826,0.54034 3.21642,1.20075 0.57744,0.93432 0.83091,0.93432 1.14235,0 C 103.98655,137.54034 105.70417,137 107.58333,137 Z M 128,118.57143 c 0,-0.23572 -0.78348,-1.21205 -1.74107,-2.16964 -1.25189,-1.25189 -1.39237,-1.85731 -0.5,-2.15477 C 126.45924,114.01359 127,112.16307 127,110 c 0,-2.16205 0.54498,-4.02785 1.25,-4.27949 0.86828,-0.30991 0.5629,-1.19483 -1,-2.89778 C 126.0125,101.47433 125,99.612601 125,98.685549 125,97.724649 124.2206,97 123.18709,97 c -0.9971,0 -3.10629,-1.35 -4.68709,-3 -1.5808,-1.65 -3.88843,-3 -5.12807,-3 -1.23964,0 -2.54552,-0.471851 -2.90194,-1.048558 C 108.97288,87.529062 107,91.321888 107,96.622445 107,101.69184 107.14326,102 109.5,102 c 2.11111,0 2.5,0.46667 2.5,3 0,2.66667 0.33333,3 3,3 2.53333,0 3,0.38889 3,2.5 0,2 0.5,2.5 2.5,2.5 2.11111,0 2.5,0.46667 2.5,3 0,2.53333 0.38889,3 2.5,3 1.375,0 2.5,-0.19286 2.5,-0.42857 z M 84,113 c 0,-0.55 -0.701558,-1 -1.559017,-1 -0.857459,0 -1.280902,0.45 -0.940983,1 0.339919,0.55 1.041476,1 1.559017,1 C 83.576558,114 84,113.55 84,113 Z m -2,-8 c 0,-1.71264 -0.610632,-1.97585 -4.25,-1.8319 l -4.25,0.16811 3.75,0.39226 c 2.415133,0.25263 3.75,0.90472 3.75,1.8319 0,0.79179 0.225,1.43963 0.5,1.43963 0.275,0 0.5,-0.9 0.5,-2 z m 23.26903,-20.655937 c -0.67703,-0.273923 -2.02703,-0.290597 -3,-0.03705 -0.97297,0.253544 -0.41903,0.477663 1.23097,0.498042 1.65,0.02038 2.44606,-0.187065 1.76903,-0.460988 z"
         id="path62" />
      <path
         style="fill:#9c9af0"
         d="M 101.21543,248.45272 C 76.16482,243.87593 55.703795,232.96108 36.871356,214.12864 17.97069,195.22798 7.3976674,175.48681 2.0063832,149.03132 c -2.76380122,-13.5622 -2.76380122,-34.50044 0,-48.06264 C 7.5416026,73.806892 18.024094,54.53842 37.894857,35 51.42181,21.699288 62.671861,14.22757 78.399898,8.0985883 92.721721,2.517587 101.1644,0.89547221 119.01586,0.2949323 c 13.33271,-0.44852478 17.06138,-0.21481016 26.5,1.66103 C 169.89671,6.8014343 188.67121,16.874379 207.10514,35 c 19.87077,19.53842 30.35326,38.806892 35.88848,65.96868 2.7638,13.5622 2.7638,34.50044 0,48.06264 -5.53522,27.16179 -16.01771,46.43026 -35.88848,65.96868 -18.2588,17.95342 -37.16649,28.16583 -60.9632,32.92741 -12.14025,2.4292 -33.16051,2.67498 -44.92651,0.52531 z M 115.41667,151.75 c 0.46666,-1 0.7,-1 1.16666,0 0.32084,0.6875 1.09227,1.25 1.71429,1.25 0.66523,0 0.49813,-0.63283 -0.40579,-1.53674 -1.53017,-1.53017 -4.89183,-1.0878 -4.89183,0.64373 0,1.33503 1.74752,1.07689 2.41667,-0.35699 z M 105,146.5 c 0.68469,-0.825 2.27729,-1.5 3.53911,-1.5 1.26182,0 2.52246,-0.5625 2.80143,-1.25 0.38381,-0.9459 0.75577,-0.89213 1.52896,0.22104 0.56196,0.80907 1.34337,1.14943 1.73645,0.75634 C 114.99903,144.3343 114.27636,143.10698 113,142 c -1.27636,-1.10698 -1.99903,-2.3343 -1.60595,-2.72738 0.39308,-0.39309 1.14023,-0.0527 1.66032,0.75634 0.83003,1.29121 1.06788,1.28767 1.94563,-0.029 0.85374,-1.28061 1.13299,-1.29345 1.90925,-0.0878 0.7691,1.19452 1.16545,1.15598 2.57143,-0.25 2.48053,-2.48054 6.28583,-2.15225 6.81359,0.58782 0.37157,1.92915 0.45279,1.85784 0.56955,-0.5 0.1198,-2.41915 -0.22475,-2.75 -2.86382,-2.75 -2.66667,0 -3,-0.33333 -3,-3 0,-2.53333 -0.38889,-3 -2.5,-3 -2,0 -2.5,-0.5 -2.5,-2.5 0,-2.11111 -0.46667,-2.5 -3,-2.5 -2.53333,0 -3,-0.38889 -3,-2.5 0,-2 -0.5,-2.5 -2.5,-2.5 -2.11111,0 -2.5,-0.46667 -2.5,-3 0,-2.66667 -0.33333,-3 -3,-3 -2.666667,0 -3,-0.33333 -3,-3 v -3 H 90.5 82 v -3.0575 c 0,-2.95367 -0.136424,-3.04705 -4.017648,-2.75 -4.81118,0.36823 -5.762474,2.18285 -1.36863,2.61069 3.753104,0.36546 6.58483,4.79965 3.757877,5.88446 -1.360338,0.52201 -1.50995,1.65773 -0.944907,7.17288 C 80.153354,125.95317 81.204992,128 84.122445,128 85.1551,128 86,128.48214 86,129.07143 86,130.48847 88.557194,133 90,133 c 1.653902,0 4,2.59747 4,4.42857 0,0.86429 0.45,1.57143 1,1.57143 0.55,0 1,-0.45 1,-1 0,-0.55 0.675,-1 1.5,-1 0.833333,0 1.5,0.88889 1.5,2 0,1.46667 -0.666667,2 -2.5,2 -2.969294,0 -3.046878,0.31896 -0.75,3.08331 3.089698,3.71852 7.26438,4.80922 9.25,2.41669 z m 39.26903,-12.15594 c -0.67703,-0.27392 -2.02703,-0.29059 -3,-0.0371 -0.97297,0.25354 -0.41903,0.47766 1.23097,0.49804 1.65,0.0204 2.44606,-0.18706 1.76903,-0.46099 z M 135,124.5 c 0,-1.09512 -1.01221,-1.4568 -3.75,-1.33996 -3.6921,0.15756 -3.69982,0.16626 -0.5,0.56336 1.7875,0.22182 3.25,0.82481 3.25,1.33996 0,0.51515 0.225,0.93664 0.5,0.93664 0.275,0 0.5,-0.675 0.5,-1.5 z m -57,-4.94098 c 0,-0.24254 -0.45,-0.7191 -1,-1.05902 -0.55,-0.33992 -1,-0.14148 -1,0.44098 0,0.58246 0.45,1.05902 1,1.05902 0.55,0 1,-0.19844 1,-0.44098 z m 52.41939,-6.16646 c 0.7593,-0.29137 1.09271,-1.49403 0.81578,-2.94266 -0.29359,-1.53586 -0.005,-2.4499 0.77325,-2.4499 0.81987,0 1.05652,-0.93406 0.69673,-2.75 -0.65375,-3.29968 2.69702,-8.247829 4.4191,-6.525753 1.29899,1.298993 4.87575,0.462072 4.87575,-1.140878 0,-0.650853 -0.55874,-1.742107 -1.24164,-2.42501 -0.98886,-0.988854 -0.93796,-1.433636 0.25,-2.184687 0.99579,-0.62956 1.07612,-0.948137 0.24164,-0.958359 C 140.5625,92.006891 140,91.325 140,90.5 c 0,-0.825 0.5625,-1.559239 1.25,-1.631641 0.6875,-0.0724 -0.325,-0.409903 -2.25,-0.75 C 136.36594,87.652989 135.42094,86.943326 135.18045,85.25 135.0047,84.0125 134.372,83 133.77446,83 133.17691,83 130.92357,81.2 128.76703,79 124.88842,75.04323 123,74.060876 123,76 c 0,0.55 0.47045,1 1.04545,1 1.82319,0 5.86597,4.688584 4.88695,5.6676 -0.55074,0.55074 -0.52392,2.269907 0.0676,4.3324 0.64363,2.244198 0.6411,3.758903 -0.007,4.407364 -0.6507,0.650691 -0.0748,1.941215 1.68677,3.779896 2.91357,3.041115 2.48089,5.17278 -0.50202,2.473276 C 129.16821,96.747241 127.59045,96 126.67126,96 124.84759,96 124.33027,92.531952 126,91.5 c 1.80852,-1.117727 1.04315,-2.64847 -1,-2 -1.14731,0.364142 -2,0.1797 -2,-0.432612 C 123,88.453189 120.87711,88 118,88 c -3.77778,0 -5,-0.366667 -5,-1.5 0,-0.993311 -0.99344,-1.5 -2.94098,-1.5 -1.61754,0 -3.2191,-0.45 -3.55902,-1 -0.33992,-0.55 -1.71648,-1 -3.05902,-1 C 102.09844,83 101,83.45 101,84 c 0,0.55 1.35,1 3,1 h 3 v 8.5 c 0,8.4 0.0294,8.5 2.5,8.5 2.11111,0 2.5,0.46667 2.5,3 0,2.66667 0.33333,3 3,3 2.53333,0 3,0.38889 3,2.5 0,2 0.5,2.5 2.5,2.5 2.09853,0 2.5,0.47109 2.5,2.93358 0,2.45689 0.44686,2.98499 2.75,3.25 2.36363,0.27196 2.79463,-0.078 3.06763,-2.49092 0.1747,-1.54404 0.89549,-3.02908 1.60176,-3.3001 z m 8.33061,5.91811 C 137.7875,119.05915 137,118.43635 137,117.92668 137,117.417 136.4949,117 135.87756,117 c -0.77551,0 -0.73766,0.46364 0.12244,1.5 0.68469,0.825 1.97729,1.4478 2.87244,1.384 1.37316,-0.0979 1.35402,-0.18749 -0.12244,-0.57333 z M 140,115 c 0,-0.55 -0.49037,-1 -1.08971,-1 -0.59934,0 -1.93437,-1.0125 -2.96673,-2.25 -2.37305,-2.8446 -2.55596,-0.9232 -0.19356,2.03336 1.81253,2.2684 4.25,2.96617 4.25,1.21664 z m -81,-5.91667 c 0,-0.50416 -0.5625,-1.1449 -1.25,-1.42387 -0.945901,-0.38381 -0.892127,-0.75577 0.22104,-1.52896 0.809071,-0.56196 1.168,-1.32479 0.797619,-1.69517 -0.370382,-0.37039 -1.394547,0.0477 -2.275923,0.92908 -1.327433,1.32743 -1.378519,1.85628 -0.297619,3.08101 C 57.684474,110.13294 59,110.43214 59,109.08333 Z m 62,-24.654759 c 0,-0.314285 -0.64286,-1.214285 -1.42857,-2 C 117.63355,80.490696 117,80.631486 117,83 c 0,1.333333 0.66667,2 2,2 1.1,0 2,-0.257143 2,-0.571429 z M 125,84 c 0,-0.55 -0.45,-1 -1,-1 -0.55,0 -1,0.45 -1,1 0,0.55 0.45,1 1,1 0.55,0 1,-0.45 1,-1 z m 0,-4 c 0,-0.55 -0.45,-1 -1,-1 -0.55,0 -1,0.45 -1,1 0,0.55 0.45,1 1,1 0.55,0 1,-0.45 1,-1 z m -23.33772,-8.25 c -0.27741,-0.6875 -0.50439,-0.125 -0.50439,1.25 0,1.375 0.22698,1.9375 0.50439,1.25 0.27741,-0.6875 0.27741,-1.8125 0,-2.5 z m -5.972954,-11.5 c -0.251528,-0.9625 -0.457323,-0.175 -0.457323,1.75 0,1.925 0.205795,2.7125 0.457323,1.75 0.251527,-0.9625 0.251527,-2.5375 0,-3.5 z"
         id="path60" />
      <path
         style="fill:#efbd4f"
         d="M 103.43716,248.44103 C 64.676147,241.92512 30.824707,216.7124 13.017589,181.09609 5.3684076,165.79683 0,142.663 0,125 0,107.337 5.3684076,84.203168 13.017589,68.903914 25.225761,44.486146 47.626904,22.392069 71.11653,11.601368 110.34258,-6.4183568 154.07348,-3.0628515 189.88347,20.714445 206.15896,31.521124 222.83698,50.611992 231.98241,68.903914 239.63159,84.203168 245,107.337 245,125 c 0,17.663 -5.36841,40.79683 -13.01759,56.09609 -12.20817,24.41776 -34.60931,46.51184 -58.09894,57.30254 -22.19856,10.19761 -47.80695,13.84819 -70.44631,10.0424 z M 197,193 v -7 h -3 c -2.66667,0 -3,-0.33333 -3,-3 0,-2.5115 -0.39627,-3 -2.43358,-3 -1.91143,0 -2.50147,-0.59003 -2.75,-2.75 -0.24853,-2.15997 -0.90645,-2.81789 -3.06642,-3.06642 -2.15997,-0.24853 -2.75,-0.83857 -2.75,-2.75 C 180,169.39627 179.5115,169 177,169 c -2.66667,0 -3,-0.33333 -3,-3 0,-2.5115 -0.39627,-3 -2.43358,-3 -1.91143,0 -2.50147,-0.59003 -2.75,-2.75 -0.24853,-2.15997 -0.90645,-2.81789 -3.06642,-3.06642 -2.15997,-0.24853 -2.75,-0.83857 -2.75,-2.75 C 163,152.39627 162.5115,152 160,152 c -2.66667,0 -3,-0.33333 -3,-3 0,-2.5115 -0.39627,-3 -2.43358,-3 -1.91143,0 -2.50147,-0.59003 -2.75,-2.75 -0.24654,-2.14264 -0.9104,-2.81859 -3.00584,-3.06058 -2.07849,-0.24002 -2.75998,-0.92151 -3,-3 -0.24199,-2.09544 -0.91794,-2.7593 -3.06058,-3.00584 -2.15997,-0.24853 -2.75,-0.83857 -2.75,-2.75 C 140,129.50443 139.4818,129 137.5,129 c -2.11111,0 -2.5,-0.46667 -2.5,-3 0,-2.66667 -0.33333,-3 -3,-3 -2.89197,0 -3,-0.16318 -3,-4.53138 0,-2.88454 0.49127,-4.71991 1.35175,-5.05011 0.82576,-0.31687 1.16952,-1.47202 0.88342,-2.96861 -0.29359,-1.53586 -0.005,-2.4499 0.77325,-2.4499 0.81987,0 1.05652,-0.93406 0.69673,-2.75 -0.65375,-3.29968 2.69702,-8.247829 4.4191,-6.525753 1.29899,1.298993 4.87575,0.462072 4.87575,-1.140878 0,-0.650853 -0.55874,-1.742107 -1.24164,-2.42501 -0.98886,-0.988854 -0.93796,-1.433636 0.25,-2.184687 0.99579,-0.62956 1.07612,-0.948137 0.24164,-0.958359 C 140.5625,92.006891 140,91.325 140,90.5 c 0,-0.825 0.5625,-1.559239 1.25,-1.631641 0.6875,-0.0724 -0.325,-0.409903 -2.25,-0.75 C 136.36594,87.652989 135.42094,86.943326 135.18045,85.25 135.0047,84.0125 134.372,83 133.77446,83 133.17691,83 130.92357,81.2 128.76703,79 124.88842,75.04323 123,74.060876 123,76 c 0,0.55 0.47045,1 1.04545,1 1.82319,0 5.86597,4.688584 4.88695,5.6676 -0.55074,0.55074 -0.52392,2.269907 0.0676,4.3324 0.64363,2.244198 0.6411,3.758903 -0.007,4.407364 -0.6507,0.650691 -0.0748,1.941215 1.68677,3.779896 2.91357,3.041115 2.48089,5.17278 -0.50202,2.473276 C 129.16821,96.747241 127.59045,96 126.67126,96 124.84759,96 124.33027,92.531952 126,91.5 c 1.80852,-1.117727 1.04315,-2.64847 -1,-2 -1.14731,0.364142 -2,0.1797 -2,-0.432612 C 123,88.453189 120.87711,88 118,88 c -3.77778,0 -5,-0.366667 -5,-1.5 0,-0.993311 -0.99344,-1.5 -2.94098,-1.5 -1.61754,0 -3.2191,-0.45 -3.55902,-1 -0.33992,-0.55 -1.75395,-1 -3.1423,-1 -2.44208,0 -2.50746,-0.169622 -2.00803,-5.210259 0.28392,-2.865642 0.26515,-6.465642 -0.0417,-8 C 100.84704,67.485177 100.23139,67 97.768011,67 c -2.307308,0 -2.844769,-0.357589 -2.375498,-1.580488 0.333569,-0.869268 0.317094,-4.694268 -0.03661,-8.5 L 94.712801,50 H 70.856401 47 v 23.961067 23.961067 l 8.75,0.288933 c 8.720843,0.28797 8.751054,0.298097 9.066422,3.038933 0.284479,2.47238 0.707565,2.75 4.190983,2.75 2.131009,0 4.152676,0.45 4.492595,1 0.339919,0.55 1.869245,1 3.398502,1 3.441392,0 6.261175,4.61776 3.473097,5.68765 -1.360338,0.52201 -1.50995,1.65773 -0.944907,7.17288 C 80.153354,125.95317 81.204992,128 84.122445,128 85.1551,128 86,128.48214 86,129.07143 86,130.48847 88.557194,133 90,133 c 1.653902,0 4,2.59747 4,4.42857 0,0.86429 0.45,1.57143 1,1.57143 0.55,0 1,-0.45 1,-1 0,-0.55 0.675,-1 1.5,-1 0.833333,0 1.5,0.88889 1.5,2 0,1.46667 -0.666667,2 -2.5,2 -3.073057,0 -3.104978,0.44421 -0.25,3.47897 2.979782,3.16742 6.99879,4.13111 8.69665,2.08532 0.71403,-0.86036 2.33064,-1.56429 3.59246,-1.56429 1.26182,0 2.52246,-0.5625 2.80143,-1.25 0.38381,-0.9459 0.75577,-0.89213 1.52896,0.22104 0.56196,0.80907 1.34337,1.14943 1.73645,0.75634 C 114.99903,144.3343 114.27636,143.10698 113,142 c -1.27636,-1.10698 -1.99903,-2.3343 -1.60595,-2.72738 0.39308,-0.39309 1.14023,-0.0527 1.66032,0.75634 0.83003,1.29121 1.06788,1.28767 1.94563,-0.029 0.85374,-1.28061 1.13299,-1.29345 1.90925,-0.0878 0.7691,1.19452 1.16545,1.15598 2.57143,-0.25 0.9142,-0.9142 2.75503,-1.66218 4.09075,-1.66218 1.92381,0 2.42857,0.51961 2.42857,2.5 0,2.09853 0.47109,2.5 2.93358,2.5 2.45689,0 2.98499,0.44686 3.25,2.75 0.22656,1.96901 0.95541,2.84075 2.56642,3.06955 1.62851,0.23129 2.25,0.99088 2.25,2.75 0,2.0216 0.49348,2.43045 2.93358,2.43045 2.45689,0 2.98499,0.44686 3.25,2.75 0.24853,2.15997 0.90645,2.81789 3.06642,3.06642 2.30314,0.26501 2.75,0.79311 2.75,3.25 0,2.44113 0.40851,2.93358 2.43358,2.93358 1.91143,0 2.50147,0.59003 2.75,2.75 0.24853,2.15997 0.90645,2.81789 3.06642,3.06642 2.15997,0.24853 2.75,0.83857 2.75,2.75 0,2.03731 0.4885,2.43358 3,2.43358 2.66667,0 3,0.33333 3,3 0,2.66667 0.33333,3 3,3 2.66667,0 3,0.33333 3,3 0,2.51044 0.39662,3 2.43045,3 1.75912,0 2.51871,0.62149 2.75,2.25 0.2288,1.61101 1.10054,2.33986 3.06955,2.56642 2.30314,0.26501 2.75,0.79311 2.75,3.25 v 2.93358 h 7 7 v -7 z m -12,3.09384 C 185,193.33847 184.67906,193 182.06642,193 c -2.45689,0 -2.98499,-0.44686 -3.25,-2.75 -0.24853,-2.15997 -0.90645,-2.81789 -3.06642,-3.06642 -2.1364,-0.24582 -2.75,-0.8446 -2.75,-2.68358 0,-1.83567 -0.61432,-2.4382 -2.73612,-2.68358 -2.16282,-0.25012 -2.73902,-0.84024 -2.75,-2.81642 -0.0109,-1.96565 -0.58872,-2.56638 -2.7033,-2.81058 -2.07849,-0.24002 -2.75998,-0.92151 -3,-3 -0.24003,-2.07848 -0.92152,-2.75997 -3,-3 -2.07849,-0.24002 -2.75998,-0.92151 -3,-3 -0.24199,-2.09544 -0.91794,-2.7593 -3.06058,-3.00584 -2.15997,-0.24853 -2.75,-0.83857 -2.75,-2.75 C 150,159.52214 149.47786,159 147.56642,159 c -1.91143,0 -2.50147,-0.59003 -2.75,-2.75 -0.24654,-2.14264 -0.9104,-2.81859 -3.00584,-3.06058 -2.07849,-0.24002 -2.75998,-0.92151 -3,-3 -0.24199,-2.09544 -0.91794,-2.7593 -3.06058,-3.00584 -2.30314,-0.26501 -2.75,-0.79311 -2.75,-3.25 C 133,141.34071 132.65157,141 130,141 c -2.53333,0 -3,-0.38889 -3,-2.5 0,-2 -0.5,-2.5 -2.5,-2.5 -2.11111,0 -2.5,-0.46667 -2.5,-3 0,-2.53333 -0.38889,-3 -2.5,-3 -2,0 -2.5,-0.5 -2.5,-2.5 0,-2.11111 -0.46667,-2.5 -3,-2.5 -2.53333,0 -3,-0.38889 -3,-2.5 0,-2 -0.5,-2.5 -2.5,-2.5 -2.11111,0 -2.5,-0.46667 -2.5,-3 0,-2.66667 -0.33333,-3 -3,-3 -2.53333,0 -3,-0.38889 -3,-2.5 0,-2.47059 -0.1,-2.5 -8.5,-2.5 H 83 v -3 -3 H 74.5 66 v -3 -3 H 57.5 49 V 74.5 52 h 21.959558 21.959557 l 0.290443,8.25 c 0.287794,8.17477 0.315519,8.252885 3.040442,8.566422 L 99,69.132845 V 77.566422 86 h 2.95956 2.95956 l 0.29044,8.242796 c 0.27804,7.890784 0.3972,8.264454 2.79044,8.750004 1.86475,0.37832 2.5,1.14245 2.5,3.0072 0,1.96972 0.57024,2.56586 2.68837,2.81048 1.88188,0.21733 2.78186,0.96732 3,2.5 0.22021,1.54718 1.1184,2.28235 3.06163,2.50594 2.30314,0.26501 2.75,0.79311 2.75,3.25 0,2.44113 0.40851,2.93358 2.43358,2.93358 1.91143,0 2.50147,0.59003 2.75,2.75 0.26102,2.26849 0.79793,2.7431 3.06642,2.71058 2.35218,-0.0337 2.75,0.3641 2.75,2.75 0,2.28841 0.43709,2.78942 2.43358,2.78942 1.91143,0 2.50147,0.59003 2.75,2.75 0.24853,2.15997 0.90645,2.81789 3.06642,3.06642 2.15997,0.24853 2.75,0.83857 2.75,2.75 0,2.03731 0.4885,2.43358 3,2.43358 2.66667,0 3,0.33333 3,3 0,2.5115 0.39627,3 2.43358,3 1.91143,0 2.50147,0.59003 2.75,2.75 0.24853,2.15997 0.90645,2.81789 3.06642,3.06642 2.15997,0.24853 2.75,0.83857 2.75,2.75 0,2.03731 0.4885,2.43358 3,2.43358 2.66667,0 3,0.33333 3,3 0,2.5115 0.39627,3 2.43358,3 1.91143,0 2.50147,0.59003 2.75,2.75 0.24853,2.15997 0.90645,2.81789 3.06642,3.06642 2.15997,0.24853 2.75,0.83857 2.75,2.75 0,2.03731 0.4885,2.43358 3,2.43358 2.66667,0 3,0.33333 3,3 0,2.5115 0.39627,3 2.43358,3 1.91143,0 2.50147,0.59003 2.75,2.75 0.24501,2.1294 0.9133,2.81912 2.96132,3.05628 2.30487,0.26691 2.73233,0.88934 3.32501,4.84165 0.37407,2.49445 0.53387,4.66825 0.35511,4.83065 -0.17876,0.1624 -2.68752,0.61339 -5.57502,1.00219 L 185,199.18768 Z M 83,89 c 0,-2.666667 0.333333,-3 3,-3 2.761905,0 3,-0.277778 3,-3.5 C 89,79.277778 88.761905,79 86,79 83.030303,79 83,78.94444 83,73.5 V 68 H 74.5 C 66.1,68 66,67.970588 66,65.5 V 63 H 77.5 89 V 60 57 H 71.5 54 v 12.360429 c 0,6.798236 0.286166,14.448236 0.635924,17 C 55.188536,90.392174 55.581564,91 57.635924,91 59.978081,91 60,90.898013 60,80 V 69 h 2.5 c 2.470588,0 2.5,0.1 2.5,8.5 V 86 h 5.5 c 5.444444,0 5.5,0.0303 5.5,3 0,2.761905 0.277778,3 3.5,3 3.222222,0 3.5,-0.238095 3.5,-3 z m 32.41667,62.75 c 0.46666,-1 0.7,-1 1.16666,0 0.32084,0.6875 1.09227,1.25 1.71429,1.25 0.66523,0 0.49813,-0.63283 -0.40579,-1.53674 -1.53017,-1.53017 -4.89183,-1.0878 -4.89183,0.64373 0,1.33503 1.74752,1.07689 2.41667,-0.35699 z M 78,119.55902 c 0,-0.24254 -0.45,-0.7191 -1,-1.05902 -0.55,-0.33992 -1,-0.14148 -1,0.44098 0,0.58246 0.45,1.05902 1,1.05902 0.55,0 1,-0.19844 1,-0.44098 z m 60.75,-0.24835 C 137.7875,119.05915 137,118.43635 137,117.92668 137,117.417 136.4949,117 135.87756,117 c -0.77551,0 -0.73766,0.46364 0.12244,1.5 0.68469,0.825 1.97729,1.4478 2.87244,1.384 1.37316,-0.0979 1.35402,-0.18749 -0.12244,-0.57333 z M 140,115 c 0,-0.55 -0.49037,-1 -1.08971,-1 -0.59934,0 -1.93437,-1.0125 -2.96673,-2.25 -2.37305,-2.8446 -2.55596,-0.9232 -0.19356,2.03336 1.81253,2.2684 4.25,2.96617 4.25,1.21664 z m -81,-5.91667 c 0,-0.50416 -0.5625,-1.1449 -1.25,-1.42387 -0.945901,-0.38381 -0.892127,-0.75577 0.22104,-1.52896 0.809071,-0.56196 1.168,-1.32479 0.797619,-1.69517 -0.370382,-0.37039 -1.394547,0.0477 -2.275923,0.92908 -1.327433,1.32743 -1.378519,1.85628 -0.297619,3.08101 C 57.684474,110.13294 59,110.43214 59,109.08333 Z m 62,-24.654759 c 0,-0.314285 -0.64286,-1.214285 -1.42857,-2 C 117.63355,80.490696 117,80.631486 117,83 c 0,1.333333 0.66667,2 2,2 1.1,0 2,-0.257143 2,-0.571429 z M 125,84 c 0,-0.55 -0.45,-1 -1,-1 -0.55,0 -1,0.45 -1,1 0,0.55 0.45,1 1,1 0.55,0 1,-0.45 1,-1 z m 0,-4 c 0,-0.55 -0.45,-1 -1,-1 -0.55,0 -1,0.45 -1,1 0,0.55 0.45,1 1,1 0.55,0 1,-0.45 1,-1 z"
         id="path58" />
      <path
         style="fill:#625fe1"
         d="M 103.43716,248.44103 C 64.676147,241.92512 30.824707,216.7124 13.017589,181.09609 5.3684076,165.79683 0,142.663 0,125 0,107.337 5.3684076,84.203168 13.017589,68.903914 25.225761,44.486146 47.626904,22.392069 71.11653,11.601368 110.34258,-6.4183568 154.07348,-3.0628515 189.88347,20.714445 206.15896,31.521124 222.83698,50.611992 231.98241,68.903914 239.63159,84.203168 245,107.337 245,125 c 0,17.663 -5.36841,40.79683 -13.01759,56.09609 -12.20817,24.41776 -34.60931,46.51184 -58.09894,57.30254 -22.19856,10.19761 -47.80695,13.84819 -70.44631,10.0424 z M 197,193 v -7 h -3 c -2.66667,0 -3,-0.33333 -3,-3 0,-2.5115 -0.39627,-3 -2.43358,-3 -1.91143,0 -2.50147,-0.59003 -2.75,-2.75 -0.24853,-2.15997 -0.90645,-2.81789 -3.06642,-3.06642 -2.15997,-0.24853 -2.75,-0.83857 -2.75,-2.75 C 180,169.39627 179.5115,169 177,169 c -2.66667,0 -3,-0.33333 -3,-3 0,-2.5115 -0.39627,-3 -2.43358,-3 -1.91143,0 -2.50147,-0.59003 -2.75,-2.75 -0.24853,-2.15997 -0.90645,-2.81789 -3.06642,-3.06642 -2.15997,-0.24853 -2.75,-0.83857 -2.75,-2.75 C 163,152.39627 162.5115,152 160,152 c -2.66667,0 -3,-0.33333 -3,-3 0,-2.5115 -0.39627,-3 -2.43358,-3 -1.91143,0 -2.50147,-0.59003 -2.75,-2.75 -0.24853,-2.15997 -0.90645,-2.81789 -3.06642,-3.06642 -2.53891,-0.29214 -2.75,-0.65675 -2.75,-4.75 C 146,132.99511 145.55,131 145,131 c -0.55,0 -1,0.45 -1,1 0,0.55 -0.9,1 -2,1 -1.33333,0 -2,-0.66667 -2,-2 0,-1.46667 -0.66667,-2 -2.5,-2 -2,0 -2.5,-0.5 -2.5,-2.5 0,-1.375 0.45,-2.5 1,-2.5 0.55,0 1,0.45 1,1 0,0.55 0.92045,1 2.04545,1 2.40114,0 6.95455,-4.22604 6.95455,-6.45455 0,-0.85 0.5625,-1.58098 1.25,-1.6244 1,-0.0632 1,-0.17982 0,-0.58333 -0.70932,-0.28622 -1.25,-2.24479 -1.25,-4.52804 0,-3.16574 0.31983,-3.90093 1.5,-3.44805 0.825,0.31658 2.175,0.31658 3,0 1.67607,-0.64317 2.06852,-3.36163 0.4853,-3.36163 -0.55808,0 -1.93333,-1.4625 -3.05609,-3.25 -1.9388,-3.086652 -2.03302,-3.124348 -1.87461,-0.75 0.32846,4.92337 -0.0402,6 -2.0546,6 -1.1,0 -2,0.45 -2,1 0,1.84345 -2.618,1.02453 -4.81966,-1.50761 C 134.24867,104.12069 134.3721,102 137.5,102 c 1.375,0 2.5,0.45 2.5,1 0,0.55 0.45,1 1,1 0.58333,0 1,-3.33333 1,-8 0,-7.866667 -0.0417,-8 -2.5,-8 -1.375,0 -2.5,-0.494456 -2.5,-1.09879 0,-0.604335 -1.35,-2.359879 -3,-3.90121 -1.65,-1.541331 -3,-3.329018 -3,-3.972638 C 131,77.030212 128.26343,75 125.57143,75 124.15714,75 123,74.55 123,74 c 0,-0.588235 -3.5,-1 -8.5,-1 -5,0 -8.5,-0.411765 -8.5,-1 0,-0.55 -1.125,-1 -2.5,-1 -1.83333,0 -2.5,-0.533333 -2.5,-2 0,-1.550857 -0.66667,-2 -2.968615,-2 -2.227927,0 -2.824998,-0.37426 -2.393011,-1.5 0.316582,-0.825 1.372359,-1.5 2.34617,-1.5 0.973812,0 2.264646,-0.595332 2.868526,-1.322961 0.85579,-1.031164 0.33139,-1.62374 -2.377555,-2.686646 C 95.256103,58.727194 95,58.308867 95,54.313354 V 50 H 71 47 v 24 24 h 5 c 2.75,0 5,0.45 5,1 0,0.55 -0.45,1 -1,1 -0.562386,0 -1,2.79767 -1,6.39301 0,6.96053 1.674314,9.07553 4.749834,6.00001 1.355203,-1.3552 1.399678,-1.92397 0.289458,-3.70171 -0.943882,-1.5114 -0.993111,-2.2067 -0.175532,-2.47923 C 60.488692,106.00377 61,104.03784 61,101.84334 c 0,-3.259751 0.32028,-3.929249 1.75,-3.658114 1.055477,0.200164 1.875579,1.419875 2.066422,3.073324 0.276421,2.39488 0.75049,2.74145 3.75,2.74145 C 71.75187,104 72,104.22785 72,107.15301 v 3.15301 l 1.867295,-2.15301 c 1.027013,-1.18416 2.377013,-2.15301 3,-2.15301 1.874675,0 1.275245,3.45574 -0.867295,5 -2.12629,1.53254 -2.660999,4.47345 -1,5.5 0.55,0.33992 1.061282,4.75398 1.136182,9.80902 0.0749,5.05504 0.331198,8.17848 0.569551,6.94098 C 77.125356,131.07137 80,129.98059 80,132 c 0,0.55 0.873442,1 1.940983,1 1.067541,0 2.248791,0.49804 2.625,1.10676 0.48515,0.78499 0.90914,0.74251 1.458345,-0.14612 0.567515,-0.91826 1.507963,-0.51926 3.521127,1.49391 2.013163,2.01316 2.412167,2.95361 1.493909,3.52112 -0.888632,0.54921 -0.931116,0.9732 -0.146127,1.45835 C 91.501957,140.81023 92,141.99148 92,143.05902 92,144.33333 92.686937,145 94,145 c 1.1,0 2,0.45 2,1 0,0.55 0.873442,1 1.940983,1 1.067541,0 2.219097,0.45 2.559017,1 0.85999,1.39149 5.24807,1.2558 5.72568,-0.17705 0.21946,-0.65837 0.93858,-0.83947 1.6319,-0.41097 0.95142,0.58801 0.96735,1.09404 0.0685,2.17705 -0.94549,1.13925 -0.76227,1.41097 0.95145,1.41097 1.45577,0 2.12244,0.62821 2.12244,2 0,1.70833 0.66667,2 4.57143,2 4.71905,0 7.4286,-1.61531 7.4286,-4.42857 0,-0.86429 0.51999,-1.57143 1.15554,-1.57143 0.63555,0 -0.0964,-1.07578 -1.62661,-2.39063 -1.53018,-1.31485 -2.5438,-2.77735 -2.25247,-3.25 0.29132,-0.47265 3.02228,-0.70673 6.06879,-0.52017 5.15307,0.31556 5.56057,0.52464 5.84693,3 0.21742,1.87938 0.96859,2.75464 2.55782,2.98035 1.62851,0.23129 2.25,0.99088 2.25,2.75 0,2.0216 0.49348,2.43045 2.93358,2.43045 2.45689,0 2.98499,0.44686 3.25,2.75 0.24853,2.15997 0.90645,2.81789 3.06642,3.06642 2.30314,0.26501 2.75,0.79311 2.75,3.25 0,2.44113 0.40851,2.93358 2.43358,2.93358 1.91143,0 2.50147,0.59003 2.75,2.75 0.24853,2.15997 0.90645,2.81789 3.06642,3.06642 2.15997,0.24853 2.75,0.83857 2.75,2.75 0,2.03731 0.4885,2.43358 3,2.43358 2.66667,0 3,0.33333 3,3 0,2.66667 0.33333,3 3,3 2.66667,0 3,0.33333 3,3 0,2.51044 0.39662,3 2.43045,3 1.75912,0 2.51871,0.62149 2.75,2.25 0.2288,1.61101 1.10054,2.33986 3.06955,2.56642 2.30314,0.26501 2.75,0.79311 2.75,3.25 V 200 h 7 7 z m -12,3.09384 C 185,193.33847 184.67906,193 182.06642,193 c -2.45689,0 -2.98499,-0.44686 -3.25,-2.75 -0.24853,-2.15997 -0.90645,-2.81789 -3.06642,-3.06642 -2.1364,-0.24582 -2.75,-0.8446 -2.75,-2.68358 0,-1.83567 -0.61432,-2.4382 -2.73612,-2.68358 -2.16282,-0.25012 -2.73902,-0.84024 -2.75,-2.81642 -0.0109,-1.96565 -0.58872,-2.56638 -2.7033,-2.81058 -2.07849,-0.24002 -2.75998,-0.92151 -3,-3 -0.24003,-2.07848 -0.92152,-2.75997 -3,-3 -2.07849,-0.24002 -2.75998,-0.92151 -3,-3 -0.24199,-2.09544 -0.91794,-2.7593 -3.06058,-3.00584 -2.15997,-0.24853 -2.75,-0.83857 -2.75,-2.75 C 150,159.52214 149.47786,159 147.56642,159 c -1.91143,0 -2.50147,-0.59003 -2.75,-2.75 -0.24654,-2.14264 -0.9104,-2.81859 -3.00584,-3.06058 -2.07849,-0.24002 -2.75998,-0.92151 -3,-3 -0.24199,-2.09544 -0.91794,-2.7593 -3.06058,-3.00584 -2.30314,-0.26501 -2.75,-0.79311 -2.75,-3.25 C 133,141.34071 132.65157,141 130,141 c -2.53333,0 -3,-0.38889 -3,-2.5 0,-2 -0.5,-2.5 -2.5,-2.5 -2.11111,0 -2.5,-0.46667 -2.5,-3 0,-2.53333 -0.38889,-3 -2.5,-3 -2,0 -2.5,-0.5 -2.5,-2.5 0,-2.11111 -0.46667,-2.5 -3,-2.5 -2.53333,0 -3,-0.38889 -3,-2.5 0,-2 -0.5,-2.5 -2.5,-2.5 -2.11111,0 -2.5,-0.46667 -2.5,-3 0,-2.66667 -0.33333,-3 -3,-3 -2.53333,0 -3,-0.38889 -3,-2.5 0,-2.47059 -0.1,-2.5 -8.5,-2.5 H 83 v -3 -3 H 74.5 66 v -3 -3 H 57.5 49 V 74.5 52 h 21.959558 21.959557 l 0.290443,8.25 c 0.287794,8.17477 0.315519,8.252885 3.040442,8.566422 L 99,69.132845 V 77.566422 86 h 2.95956 2.95956 l 0.29044,8.242796 c 0.27804,7.890784 0.3972,8.264454 2.79044,8.750004 1.86475,0.37832 2.5,1.14245 2.5,3.0072 0,1.96972 0.57024,2.56586 2.68837,2.81048 1.88188,0.21733 2.78186,0.96732 3,2.5 0.22021,1.54718 1.1184,2.28235 3.06163,2.50594 2.30314,0.26501 2.75,0.79311 2.75,3.25 0,2.44113 0.40851,2.93358 2.43358,2.93358 1.91143,0 2.50147,0.59003 2.75,2.75 0.26102,2.26849 0.79793,2.7431 3.06642,2.71058 2.35218,-0.0337 2.75,0.3641 2.75,2.75 0,2.28841 0.43709,2.78942 2.43358,2.78942 1.91143,0 2.50147,0.59003 2.75,2.75 0.24853,2.15997 0.90645,2.81789 3.06642,3.06642 2.15997,0.24853 2.75,0.83857 2.75,2.75 0,2.03731 0.4885,2.43358 3,2.43358 2.66667,0 3,0.33333 3,3 0,2.5115 0.39627,3 2.43358,3 1.91143,0 2.50147,0.59003 2.75,2.75 0.24853,2.15997 0.90645,2.81789 3.06642,3.06642 2.15997,0.24853 2.75,0.83857 2.75,2.75 0,2.03731 0.4885,2.43358 3,2.43358 2.66667,0 3,0.33333 3,3 0,2.5115 0.39627,3 2.43358,3 1.91143,0 2.50147,0.59003 2.75,2.75 0.24853,2.15997 0.90645,2.81789 3.06642,3.06642 2.15997,0.24853 2.75,0.83857 2.75,2.75 0,2.03731 0.4885,2.43358 3,2.43358 2.66667,0 3,0.33333 3,3 0,2.5115 0.39627,3 2.43358,3 1.91143,0 2.50147,0.59003 2.75,2.75 0.24501,2.1294 0.9133,2.81912 2.96132,3.05628 2.30487,0.26691 2.73233,0.88934 3.32501,4.84165 0.37407,2.49445 0.53387,4.66825 0.35511,4.83065 -0.17876,0.1624 -2.68752,0.61339 -5.57502,1.00219 L 185,199.18768 Z M 83,89 c 0,-2.666667 0.333333,-3 3,-3 2.761905,0 3,-0.277778 3,-3.5 C 89,79.277778 88.761905,79 86,79 83.030303,79 83,78.94444 83,73.5 V 68 H 74.5 C 66.1,68 66,67.970588 66,65.5 V 63 H 77.5 89 V 60 57 H 71.5 54 v 12.360429 c 0,6.798236 0.286166,14.448236 0.635924,17 C 55.188536,90.392174 55.581564,91 57.635924,91 59.978081,91 60,90.898013 60,80 V 69 h 2.5 c 2.470588,0 2.5,0.1 2.5,8.5 V 86 h 5.5 c 5.444444,0 5.5,0.0303 5.5,3 0,2.761905 0.277778,3 3.5,3 3.222222,0 3.5,-0.238095 3.5,-3 z m 46,29.5 c 0,-3.33333 0.38889,-4.5 1.5,-4.5 0.825,0 1.5,0.81 1.5,1.8 0,0.99 0.50975,2.30975 1.13278,2.93278 C 134.74414,120.34414 133.43625,123 131.03138,123 129.29048,123 129,122.35651 129,118.5 Z m 2,-7.5 c 0,-0.55 0.70156,-1 1.55902,-1 0.85746,0 1.2809,0.45 0.94098,1 -0.33992,0.55 -1.04148,1 -1.55902,1 C 131.42344,112 131,111.55 131,111 Z m -5.53104,-16.050219 c -0.95021,-1.537485 0.35135,-2.529468 1.63484,-1.245982 0.71818,0.71818 0.73543,1.277526 0.0524,1.699645 -0.55992,0.346049 -1.31919,0.1419 -1.68727,-0.453663 z m 2.08383,-3.864371 c -0.32198,-0.520967 -0.15917,-1.210648 0.3618,-1.532624 0.52097,-0.321975 1.21065,-0.159164 1.53262,0.361804 0.32198,0.520967 0.15917,1.210648 -0.3618,1.532624 -0.52097,0.321975 -1.21065,0.159164 -1.53262,-0.361804 z M 123,86.583333 C 123,85.7125 123.7125,85 124.58333,85 c 0.87084,0 1.40521,0.534375 1.1875,1.1875 C 125.15276,88.041723 123,88.34926 123,86.583333 Z m -22,-5.001546 c 0,-3.859261 3.21006,-6.363665 4.27057,-3.331787 0.32048,0.916219 0.96456,0.782707 2.41207,-0.5 C 108.7688,76.7875 109.89069,76 110.17573,76 110.96853,76 115,79.649594 115,80.367295 115,80.715283 112.3,81 109,81 c -3.33333,0 -6,0.444444 -6,1 0,0.55 -0.45,1 -1,1 -0.55,0 -1,-0.638196 -1,-1.418213 z M 73,147.5 c 0,-0.825 -0.675,-1.5 -1.5,-1.5 -1.561574,0 -1.983967,1.1827 -0.833333,2.33333 C 71.8173,149.48397 73,149.06157 73,147.5 Z m 6,-9.36133 c 0,-1.50481 -0.526727,-1.74997 -2.75,-1.27994 -2.510643,0.53078 -2.554163,0.6118 -0.5,0.93088 1.2375,0.19222 2.25,0.76819 2.25,1.27994 0,0.51175 0.225,0.93045 0.5,0.93045 0.275,0 0.5,-0.8376 0.5,-1.86133 z m -12,0.2899 c 0,-0.31428 -0.696429,-1.26786 -1.547619,-2.11905 -1.926101,-1.9261 -3.200889,-0.91634 -1.472437,1.16631 C 65.228496,138.98025 67,139.5391 67,138.42857 Z M 73.289749,134 c -0.287656,-1.1 -0.695528,-2 -0.90638,-2 C 72.172516,132 72,132.9 72,134 c 0,1.1 0.407871,2 0.90638,2 0.49851,0 0.671025,-0.9 0.383369,-2 z m 89.658571,-6 c 0.44093,0 0.80168,-1.125 0.80168,-2.5 0,-1.375 -0.20089,-2.5 -0.44643,-2.5 -1.18173,0 -2.78795,2.71742 -2.65987,4.5 0.24275,3.37855 0.56788,4.07816 1.04563,2.25 0.25152,-0.9625 0.81807,-1.75 1.25899,-1.75 z M 147.69048,74.261905 C 146.15184,72.723265 146,72.717919 146,74.202381 c 0,0.897024 0.5625,1.831845 1.25,2.077381 2.0432,0.729715 2.24833,-0.210002 0.44048,-2.017857 z m -26.90105,-9.65124 C 120.08024,63.84653 119.275,63.554055 119,63.960721 c -0.275,0.406665 -1.175,0.996339 -2,1.310388 -0.825,0.314048 -0.0198,0.606523 1.78943,0.649944 2.76123,0.06627 3.08238,-0.144141 2,-1.310388 z m -4.5204,-1.266602 c -0.67703,-0.273923 -2.02703,-0.290597 -3,-0.03705 -0.97297,0.253544 -0.41903,0.477663 1.23097,0.498042 1.65,0.02038 2.44606,-0.187065 1.76903,-0.460988 z"
         id="path56" />
      <path
         style="fill:#90704c"
         d="M 103.43716,248.44103 C 64.676147,241.92512 30.824707,216.7124 13.017589,181.09609 5.3684076,165.79683 0,142.663 0,125 0,107.337 5.3684076,84.203168 13.017589,68.903914 25.225761,44.486146 47.626904,22.392069 71.11653,11.601368 110.34258,-6.4183568 154.07348,-3.0628515 189.88347,20.714445 206.15896,31.521124 222.83698,50.611992 231.98241,68.903914 239.63159,84.203168 245,107.337 245,125 c 0,17.663 -5.36841,40.79683 -13.01759,56.09609 -12.20817,24.41776 -34.60931,46.51184 -58.09894,57.30254 -22.19856,10.19761 -47.80695,13.84819 -70.44631,10.0424 z M 197,193 v -7 h -3 c -2.66667,0 -3,-0.33333 -3,-3 0,-2.53333 -0.38889,-3 -2.5,-3 -2.11111,0 -2.5,-0.46667 -2.5,-3 0,-2.66667 -0.33333,-3 -3,-3 -2.53333,0 -3,-0.38889 -3,-2.5 0,-2.11111 -0.46667,-2.5 -3,-2.5 -2.66667,0 -3,-0.33333 -3,-3 0,-2.53333 -0.38889,-3 -2.5,-3 -2.11111,0 -2.5,-0.46667 -2.5,-3 0,-2.66667 -0.33333,-3 -3,-3 -2.53333,0 -3,-0.38889 -3,-2.5 0,-2.11111 -0.46667,-2.5 -3,-2.5 -2.66667,0 -3,-0.33333 -3,-3 0,-2.53333 -0.38889,-3 -2.5,-3 -2.11111,0 -2.5,-0.46667 -2.5,-3 0,-2.66667 -0.33333,-3 -3,-3 -2.88889,0 -3,-0.16667 -3,-4.5 0,-2.475 -0.45,-4.5 -1,-4.5 -0.55,0 -1,0.45 -1,1 0,0.55 -0.9,1 -2,1 -1.33333,0 -2,-0.66667 -2,-2 0,-1.46667 -0.66667,-2 -2.5,-2 -2,0 -2.5,-0.5 -2.5,-2.5 0,-1.375 0.45,-2.5 1,-2.5 0.55,0 1,0.45 1,1 0,0.55 0.92045,1 2.04545,1 2.40114,0 6.95455,-4.22604 6.95455,-6.45455 0,-0.85 0.5625,-1.58098 1.25,-1.6244 1,-0.0632 1,-0.17982 0,-0.58333 -0.70932,-0.28622 -1.25,-2.24479 -1.25,-4.52804 0,-3.16574 0.31983,-3.90093 1.5,-3.44805 0.825,0.31658 2.175,0.31658 3,0 1.67607,-0.64317 2.06852,-3.36163 0.4853,-3.36163 -0.55808,0 -1.93333,-1.4625 -3.05609,-3.25 -1.9388,-3.086652 -2.03302,-3.124348 -1.87461,-0.75 0.32846,4.92337 -0.0402,6 -2.0546,6 -1.1,0 -2,0.45 -2,1 0,1.84345 -2.618,1.02453 -4.81966,-1.50761 C 134.24867,104.12069 134.3721,102 137.5,102 c 1.375,0 2.5,0.45 2.5,1 0,0.55 0.45,1 1,1 0.58333,0 1,-3.33333 1,-8 0,-7.866667 -0.0417,-8 -2.5,-8 -1.375,0 -2.5,-0.494456 -2.5,-1.09879 0,-0.604335 -1.35,-2.359879 -3,-3.90121 -1.65,-1.541331 -3,-3.329018 -3,-3.972638 C 131,77.030212 128.26343,75 125.57143,75 124.15714,75 123,74.55 123,74 c 0,-0.588235 -3.5,-1 -8.5,-1 -5,0 -8.5,-0.411765 -8.5,-1 0,-0.55 -1.125,-1 -2.5,-1 -1.83333,0 -2.5,-0.533333 -2.5,-2 0,-1.550857 -0.66667,-2 -2.968615,-2 -2.227927,0 -2.824998,-0.37426 -2.393011,-1.5 0.316582,-0.825 1.372359,-1.5 2.34617,-1.5 0.973812,0 2.264646,-0.595332 2.868526,-1.322961 0.85579,-1.031164 0.33139,-1.62374 -2.377555,-2.686646 C 95.256103,58.727194 95,58.308867 95,54.313354 V 50 H 71 47 v 24 24 h 5 c 2.75,0 5,0.45 5,1 0,0.55 -0.45,1 -1,1 -0.562386,0 -1,2.79767 -1,6.39301 0,6.96053 1.674314,9.07553 4.749834,6.00001 1.355203,-1.3552 1.399678,-1.92397 0.289458,-3.70171 -0.943882,-1.5114 -0.993111,-2.2067 -0.175532,-2.47923 C 60.488692,106.00377 61,104.07083 61,101.91667 61,99.101852 61.421986,98 62.5,98 c 1,0 1.5,1 1.5,3 0,2.83333 0.222222,3 4,3 3.820914,0 4,0.14117 4,3.15301 v 3.15301 l 1.867295,-2.15301 c 1.027013,-1.18416 2.377013,-2.15301 3,-2.15301 1.874675,0 1.275245,3.45574 -0.867295,5 -2.12629,1.53254 -2.660999,4.47345 -1,5.5 0.55,0.33992 1.061282,4.75398 1.136182,9.80902 0.0749,5.05504 0.331198,8.17848 0.569551,6.94098 C 77.125356,131.07137 80,129.98059 80,132 c 0,0.55 0.873442,1 1.940983,1 1.067541,0 2.248791,0.49804 2.625,1.10676 0.48515,0.78499 0.90914,0.74251 1.458345,-0.14612 0.567515,-0.91826 1.507963,-0.51926 3.521127,1.49391 2.013163,2.01316 2.412167,2.95361 1.493909,3.52112 -0.888632,0.54921 -0.931116,0.9732 -0.146127,1.45835 C 91.501957,140.81023 92,141.99148 92,143.05902 92,144.33333 92.686937,145 94,145 c 1.1,0 2,0.45 2,1 0,0.55 0.873442,1 1.940983,1 1.067541,0 2.219097,0.45 2.559017,1 0.85999,1.39149 5.24807,1.2558 5.72568,-0.17705 0.21946,-0.65837 0.93858,-0.83947 1.6319,-0.41097 0.95142,0.58801 0.96735,1.09404 0.0685,2.17705 -0.94549,1.13925 -0.76227,1.41097 0.95145,1.41097 1.45577,0 2.12244,0.62821 2.12244,2 0,1.70833 0.66667,2 4.57143,2 4.71905,0 7.4286,-1.61531 7.4286,-4.42857 0,-0.86429 0.51999,-1.57143 1.15554,-1.57143 0.63555,0 -0.0964,-1.07578 -1.62661,-2.39063 -1.53018,-1.31485 -2.5438,-2.77735 -2.25247,-3.25 0.29132,-0.47265 3.04829,-0.70522 6.12661,-0.51682 5.43401,0.33258 5.59693,0.42718 5.59693,3.25 0,2.41345 0.41348,2.90745 2.43358,2.90745 1.91143,0 2.50147,0.59003 2.75,2.75 0.24853,2.15997 0.90645,2.81789 3.06642,3.06642 2.15997,0.24853 2.75,0.83857 2.75,2.75 0,2.03731 0.4885,2.43358 3,2.43358 2.66667,0 3,0.33333 3,3 0,2.53333 0.38889,3 2.5,3 2.11111,0 2.5,0.46667 2.5,3 0,2.66667 0.33333,3 3,3 2.53333,0 3,0.38889 3,2.5 0,2.11111 0.46667,2.5 3,2.5 2.66667,0 3,0.33333 3,3 0,2.53333 0.38889,3 2.5,3 2.11111,0 2.5,0.46667 2.5,3 0,2.66667 0.33333,3 3,3 2.53333,0 3,0.38889 3,2.5 0,2.11111 0.46667,2.5 3,2.5 2.66667,0 3,0.33333 3,3 v 3 h 7 7 z m -68,-74.5 c 0,-3.33333 0.38889,-4.5 1.5,-4.5 0.825,0 1.5,0.81 1.5,1.8 0,0.99 0.50975,2.30975 1.13278,2.93278 C 134.74414,120.34414 133.43625,123 131.03138,123 129.29048,123 129,122.35651 129,118.5 Z m 2,-7.5 c 0,-0.55 0.70156,-1 1.55902,-1 0.85746,0 1.2809,0.45 0.94098,1 -0.33992,0.55 -1.04148,1 -1.55902,1 C 131.42344,112 131,111.55 131,111 Z m -5.53104,-16.050219 c -0.95021,-1.537485 0.35135,-2.529468 1.63484,-1.245982 0.71818,0.71818 0.73543,1.277526 0.0524,1.699645 -0.55992,0.346049 -1.31919,0.1419 -1.68727,-0.453663 z m 2.08383,-3.864371 c -0.32198,-0.520967 -0.15917,-1.210648 0.3618,-1.532624 0.52097,-0.321975 1.21065,-0.159164 1.53262,0.361804 0.32198,0.520967 0.15917,1.210648 -0.3618,1.532624 -0.52097,0.321975 -1.21065,0.159164 -1.53262,-0.361804 z M 123,86.583333 C 123,85.7125 123.7125,85 124.58333,85 c 0.87084,0 1.40521,0.534375 1.1875,1.1875 C 125.15276,88.041723 123,88.34926 123,86.583333 Z m -22,-5.001546 c 0,-3.859261 3.21006,-6.363665 4.27057,-3.331787 0.32048,0.916219 0.96456,0.782707 2.41207,-0.5 C 108.7688,76.7875 109.89069,76 110.17573,76 110.96853,76 115,79.649594 115,80.367295 115,80.715283 112.3,81 109,81 c -3.33333,0 -6,0.444444 -6,1 0,0.55 -0.45,1 -1,1 -0.55,0 -1,-0.638196 -1,-1.418213 z M 73,147.5 c 0,-0.825 -0.675,-1.5 -1.5,-1.5 -1.561574,0 -1.983967,1.1827 -0.833333,2.33333 C 71.8173,149.48397 73,149.06157 73,147.5 Z m 6,-9.36133 c 0,-1.50481 -0.526727,-1.74997 -2.75,-1.27994 -2.510643,0.53078 -2.554163,0.6118 -0.5,0.93088 1.2375,0.19222 2.25,0.76819 2.25,1.27994 0,0.51175 0.225,0.93045 0.5,0.93045 0.275,0 0.5,-0.8376 0.5,-1.86133 z m -12,0.2899 c 0,-0.31428 -0.696429,-1.26786 -1.547619,-2.11905 -1.926101,-1.9261 -3.200889,-0.91634 -1.472437,1.16631 C 65.228496,138.98025 67,139.5391 67,138.42857 Z M 73.289749,134 c -0.287656,-1.1 -0.695528,-2 -0.90638,-2 C 72.172516,132 72,132.9 72,134 c 0,1.1 0.407871,2 0.90638,2 0.49851,0 0.671025,-0.9 0.383369,-2 z m 89.658571,-6 c 0.44093,0 0.80168,-1.125 0.80168,-2.5 0,-1.375 -0.20089,-2.5 -0.44643,-2.5 -1.18173,0 -2.78795,2.71742 -2.65987,4.5 0.24275,3.37855 0.56788,4.07816 1.04563,2.25 0.25152,-0.9625 0.81807,-1.75 1.25899,-1.75 z M 147.69048,74.261905 C 146.15184,72.723265 146,72.717919 146,74.202381 c 0,0.897024 0.5625,1.831845 1.25,2.077381 2.0432,0.729715 2.24833,-0.210002 0.44048,-2.017857 z m -26.90105,-9.65124 C 120.08024,63.84653 119.275,63.554055 119,63.960721 c -0.275,0.406665 -1.175,0.996339 -2,1.310388 -0.825,0.314048 -0.0198,0.606523 1.78943,0.649944 2.76123,0.06627 3.08238,-0.144141 2,-1.310388 z m -4.5204,-1.266602 c -0.67703,-0.273923 -2.02703,-0.290597 -3,-0.03705 -0.97297,0.253544 -0.41903,0.477663 1.23097,0.498042 1.65,0.02038 2.44606,-0.187065 1.76903,-0.460988 z"
         id="path54" />
      <path
         style="fill:#2b244d"
         d="M 112,249.37416 C 94.866876,247.20128 81.032164,243.09773 67.58539,236.20022 44.151061,224.17962 25.438967,204.96026 13.486844,180.63514 7.0718253,167.5792 3.4253616,155.56443 1.4576419,141 c -1.77986216,-13.17397 -1.77986216,-18.82603 0,-32 C 8.89449,53.954827 49.29165,11.34619 103,1.8988705 c 9.62782,-1.69353707 29.37218,-1.69353707 39,0 C 195.70835,11.34619 236.10551,53.954827 243.54236,109 c 1.77986,13.17397 1.77986,18.82603 0,32 -1.96772,14.56443 -5.61419,26.5792 -12.0292,39.63514 -17.28944,35.1877 -49.07742,59.68356 -86.76098,66.8581 -8.52378,1.62284 -26.60124,2.66101 -32.75218,1.88092 z M 197,193 v -7 h -3 c -2.66667,0 -3,-0.33333 -3,-3 0,-2.53333 -0.38889,-3 -2.5,-3 -2.11111,0 -2.5,-0.46667 -2.5,-3 0,-2.66667 -0.33333,-3 -3,-3 -2.53333,0 -3,-0.38889 -3,-2.5 0,-2.11111 -0.46667,-2.5 -3,-2.5 -2.66667,0 -3,-0.33333 -3,-3 0,-2.53333 -0.38889,-3 -2.5,-3 -2.11111,0 -2.5,-0.46667 -2.5,-3 0,-2.66667 -0.33333,-3 -3,-3 -2.53333,0 -3,-0.38889 -3,-2.5 0,-2.11111 -0.46667,-2.5 -3,-2.5 -2.66667,0 -3,-0.33333 -3,-3 0,-2.53333 -0.38889,-3 -2.5,-3 -2.11111,0 -2.5,-0.46667 -2.5,-3 0,-2.66667 -0.33333,-3 -3,-3 -2.88889,0 -3,-0.16667 -3,-4.5 0,-4.22595 -1.09977,-5.76563 -2.5,-3.5 -1.08749,1.7596 -3.5,1.07031 -3.5,-1 0,-1.46667 -0.66667,-2 -2.5,-2 -1.51005,0 -2.5,-0.5706 -2.5,-1.44098 0,-1.84616 1.66966,-2.90253 2.48992,-1.57533 0.34546,0.55897 1.29701,1.01631 2.11455,1.01631 1.95352,0 6.39553,-4.483 6.39553,-6.45455 0,-0.85 0.45,-1.54545 1,-1.54545 0.55,0 1,-0.675 1,-1.5 0,-0.825 -0.45,-1.5 -1,-1.5 -0.55,0 -1,-1.32149 -1,-2.93664 0,-2.58051 0.39315,-2.97465 3.24181,-3.25 2.13505,-0.20638 3.35499,-0.91081 3.57332,-2.06336 C 152.99747,106.7875 152.63151,106 152.0019,106 150.1729,106 148,103.32395 148,101.07143 148,99.932143 147.55,99 147,99 c -0.55,0 -1,1.76704 -1,3.92676 0,3.2882 -0.44894,4.15072 -2.76077,5.30401 -2.52092,1.2576 -2.9553,1.18019 -5,-0.89103 C 135.45208,104.51644 135.33934,102 138,102 c 1.1,0 2,0.45 2,1 0,0.55 0.45,1 1,1 0.58824,0 1,-3.5 1,-8.5 V 87 h -2.66667 c -1.46666,0 -2.38246,-0.284208 -2.03509,-0.631573 0.34736,-0.347365 -0.70264,-1.877909 -2.33333,-3.40121 C 133.33421,81.443917 132,79.670982 132,79.027362 132,76.906284 129.19381,75 126.07143,75 124.38214,75 123,74.55 123,74 c 0,-0.582204 -3.29767,-1 -7.89301,-1 -6.09352,0 -8.02424,-0.341978 -8.46862,-1.5 C 106.32179,70.675 104.92365,70 103.53138,70 101.94793,70 101,69.438293 101,68.5 101,67.566667 100.05556,67 98.5,67 97.125,67 96,66.55 96,66 c 0,-0.55 0.830256,-1 1.845012,-1 1.014757,0 2.640728,-0.879255 3.613268,-1.953901 1.71695,-1.897206 1.64891,-2.005606 -2.345012,-3.7359 C 95.339699,57.675368 95,57.217337 95,53.7641 V 50 H 71 47 v 24 24 l 5.25,0.116001 c 2.8875,0.0638 4.4625,0.321797 3.5,0.573325 -1.455178,0.380277 -1.75,1.629544 -1.75,7.415384 0,5.26245 0.365535,7.09833 1.5,7.53366 0.825,0.31659 1.5,1.20246 1.5,1.96862 0,0.76615 0.45,1.39301 1,1.39301 0.55,0 1,-1.125 1,-2.5 0,-1.375 0.45,-2.5 1,-2.5 1.44346,0 1.232624,-3.72478 -0.25,-4.41667 -1,-0.46666 -1,-0.7 0,-1.16666 0.687943,-0.32104 1.25,-2.34445 1.25,-4.5 C 61,99.101852 61.421986,98 62.5,98 c 1,0 1.5,1 1.5,3 0,2.7619 0.277778,3 3.5,3 3.222222,0 3.5,0.2381 3.5,3 0,3.53237 1.531465,3.84624 4.132705,0.84699 C 76.902009,105.80696 77,105.79538 77,107.62623 c 0,1.06274 -0.9,2.58093 -2,3.37377 -2.12629,1.53254 -2.660999,4.47345 -1,5.5 0.55,0.33992 1,3.74148 1,7.55902 C 75,129.56211 74.689262,131 73.5,131 c -0.825,0 -1.5,-0.675 -1.5,-1.5 0,-0.825 -0.423442,-1.5 -0.940983,-1.5 -1.447121,0 -2.217572,1.78397 -1.075329,2.48992 C 70.54266,130.83538 71,132.14673 71,133.40403 c 0,1.2573 0.7875,2.91824 1.75,3.69098 2.927969,2.35072 6.000286,3.82137 6.642189,3.17947 C 80.394992,139.27167 80.077368,135 79,135 c -0.55,0 -0.964474,-1.0125 -0.921053,-2.25 0.04342,-1.2375 0.305921,-1.6875 0.583334,-1 0.277412,0.6875 1.554386,1.25 2.837719,1.25 1.283333,0 2.561574,0.5625 2.840536,1.25 0.390528,0.96246 0.731591,0.92884 1.482661,-0.14613 0.79791,-1.14201 1.434759,-0.93682 3.498858,1.12728 1.953834,1.95383 2.258699,2.80502 1.350672,3.77112 -0.898812,0.9563 -0.880763,1.35478 0.07727,1.70606 0.6875,0.25209 1.25,1.54584 1.25,2.875 0,1.75 0.551724,2.41667 2,2.41667 1.1,0 2,0.45 2,1 0,0.55 0.873442,1 1.940983,1 1.067541,0 2.2191,0.45 2.55902,1 0.33992,0.55 1.68992,1 3,1 1.31008,0 2.66008,0.45 3,1 0.33992,0.55 1.43899,1 2.44239,1 1.00339,0 2.0597,0.9 2.34736,2 1.028,3.93106 11.71025,1.87561 11.71025,-2.25325 0,-0.84303 0.675,-1.79179 1.5,-2.10838 C 126.21683,148.97956 126.53838,147 124.92857,147 123.80415,147 121,144.55274 121,143.57143 121,143.25714 123.475,143 126.5,143 c 5.44444,0 5.5,0.0303 5.5,3 0,2.53333 0.38889,3 2.5,3 2.11111,0 2.5,0.46667 2.5,3 0,2.66667 0.33333,3 3,3 2.53333,0 3,0.38889 3,2.5 0,2.11111 0.46667,2.5 3,2.5 2.66667,0 3,0.33333 3,3 0,2.53333 0.38889,3 2.5,3 2.11111,0 2.5,0.46667 2.5,3 0,2.66667 0.33333,3 3,3 2.53333,0 3,0.38889 3,2.5 0,2.11111 0.46667,2.5 3,2.5 2.66667,0 3,0.33333 3,3 0,2.53333 0.38889,3 2.5,3 2.11111,0 2.5,0.46667 2.5,3 0,2.66667 0.33333,3 3,3 2.53333,0 3,0.38889 3,2.5 0,2.11111 0.46667,2.5 3,2.5 2.66667,0 3,0.33333 3,3 v 3 h 7 7 z M 129.70441,118.25 C 130.37285,113.91824 131,112.71986 131,115.77432 c 0,1.1592 0.45,2.38576 1,2.72568 1.73415,1.07176 1.08398,3.5 -0.93713,3.5 -1.67467,0 -1.85873,-0.50809 -1.35846,-3.75 z M 123,86 c 0,-0.55 0.45,-1 1,-1 0.55,0 1,0.45 1,1 0,0.55 -0.45,1 -1,1 -0.55,0 -1,-0.45 -1,-1 z m -22.00225,-5.321429 c 0.001,-0.451785 0.67725,-1.496428 1.50225,-2.321428 0.825,-0.825 1.5,-1.017857 1.5,-0.428572 0,1.353293 3.67174,1.411575 4.5,0.07143 0.8914,-1.442312 3.4137,-1.22916 5.07143,0.428571 0.78571,0.785715 1.42857,1.648788 1.42857,1.917941 0,0.269153 -3.15101,0.638796 -7.00225,0.821429 -3.85124,0.182632 -7.00124,-0.03758 -7,-0.48937 z M 73.823907,147.66411 c 0.393221,-2.02757 -2.531705,-3.35631 -4.048743,-1.83927 -0.787201,0.7872 -0.726777,1.52854 0.217303,2.66608 1.561588,1.8816 3.382379,1.48868 3.83144,-0.82681 z M 67,139.2 c 0,-1.85479 -1.786825,-4.2 -3.2,-4.2 -1.236813,0 -0.945125,2.91958 0.45,4.50417 1.718734,1.95215 2.75,1.83808 2.75,-0.30417 z m 95.57143,-9.62857 C 163.93011,128.21274 164.63344,122 163.42857,122 161.85295,122 160,125.20405 160,127.92857 c 0,3.42593 0.48103,3.73325 2.57143,1.64286 z M 150,76.428571 C 150,75.686315 147.31368,73 146.57143,73 146.25714,73 146,73.9 146,75 c 0,1.333333 0.66667,2 2,2 1.1,0 2,-0.257143 2,-0.571429 z M 123,65.954545 c 0,-1.768853 -5.30577,-6.53724 -5.75947,-5.176136 C 117.01657,61.450284 115.52083,62 113.91667,62 111.99074,62 111,62.509524 111,63.5 c 0,0.833333 0.88889,1.5 2,1.5 1.1,0 2,0.45 2,1 0,0.55 1.8,1 4,1 2.2,0 4,-0.470455 4,-1.045455 z"
         id="path52" />
      <path
         style="fill:#211a46"
         d="M 115.75,249.26101 C 110.13093,248.90841 110,248.83302 110,245.9501 110,243.01109 110.0225,243 116,243 h 6 v 3.5 c 0,1.925 -0.1125,3.41491 -0.25,3.31092 -0.1375,-0.104 -2.8375,-0.35146 -6,-0.54991 z M 122.99818,246.25 123,243 h 6 c 5.95932,0 6,0.0197 6,2.91118 0,2.8539 -0.11808,2.91784 -6.00182,3.25 l -6.00182,0.33882 0.002,-3.25 z M 100.25,247.2766 C 97.840947,246.97764 97,246.37217 97,244.93664 97,243.2363 97.732098,243 103,243 c 5.73333,0 6,0.11111 6,2.5 0,2.65227 -0.64255,2.78273 -8.75,1.7766 z M 136,245.5 c 0,-2.38889 0.26667,-2.5 6,-2.5 5.1875,0 6,0.25243 6,1.86408 0,1.45954 -1.00687,2.00208 -4.63957,2.5 C 136.37325,248.32178 136,248.22725 136,245.5 Z m -46.5,-0.972 -4,-1.31829 5.25,-0.10486 c 4.046602,-0.0808 5.25,0.23898 5.25,1.39515 0,1.7819 -1.163079,1.78691 -6.5,0.028 z m 59.5,0.0515 c 0,-1.24676 1.10587,-1.56611 5.25,-1.51607 5.44482,0.0657 4.73089,0.91758 -2,2.38633 -2.59422,0.56609 -3.25,0.39049 -3.25,-0.87026 z M 72.377483,238.04041 C 68.044868,235.99322 62.925,233.34831 61,232.16284 l -3.5,-2.15539 19.25,0.0437 19.25,0.0437 v 5.97696 5.97696 l -7.872517,-0.14307 c -6.842935,-0.12436 -8.902747,-0.62986 -15.75,-3.86525 z M 97,236 v -6 h 6 6 v 6 6 h -6 -6 z m 13,0 v -6 h 6 6 v 6 6 h -6 -6 z m 13,0 v -6 h 6 6 v 6 6 h -6 -6 z m 13,0 v -6 h 6 6 v 6 6 h -6 -6 z m 13,0 v -6 h 6 6 v 6 6 h -6 -6 z m 13,0.0357 v -5.96428 h 12.70584 12.70584 l -3.45584,2.12526 C 179.39889,234.99911 164.50688,242 163.10265,242 162.42237,242 162,239.71539 162,236.03571 Z M 48.194982,223.25 40.895477,217.5 48.197738,216.93016 55.5,216.36032 50,216.02936 c -3.025,-0.18203 -6.691099,-0.24053 -8.146886,-0.13 -2.091515,0.1588 -3.716219,-1.01603 -7.74329,-5.5992 C 28.147791,203.51483 20.025628,192.82868 20.010511,191.75 20.00473,191.3375 28.1,191 38,191 h 18 v 19 c 0,10.45 -0.11374,19 -0.252757,19 -0.139016,0 -3.537533,-2.5875 -7.552261,-5.75 z M 32,203 c 0,-0.55 -0.45,-1 -1,-1 -0.55,0 -1,0.45 -1,1 0,0.55 0.45,1 1,1 0.55,0 1,-0.45 1,-1 z m 13,0 c 0,-0.55 -0.45,-1 -1,-1 -0.55,0 -1,0.45 -1,1 0,0.55 0.45,1 1,1 0.55,0 1,-0.45 1,-1 z m 13,20.00575 v -5.90123 l 5.25,-0.36728 5.25,-0.36728 -5.25,-0.18498 L 58,216 V 203.5 191 h 18.953488 18.953489 v 18.95349 18.95349 H 76.953488 58 Z m 30.5,-7.03386 c -6.353027,-0.6632 -6.998619,-0.58907 -6.197069,0.71158 0.276762,0.44909 3.134323,0.61364 6.350136,0.36565 L 94.5,216.59825 Z m -8,0.52842 C 78.033544,215.65729 69,215.3796 69,216.14679 c 0,0.46927 2.8125,0.81768 6.25,0.77426 3.4375,-0.0434 5.8,-0.23275 5.25,-0.42074 z m 3.104167,-14.22948 c -1.016516,-1.01651 -1.855248,0.51389 -1.021218,1.86338 0.630035,1.01942 0.865577,1.02021 1.204302,0.004 0.231595,-0.69479 0.149207,-1.53513 -0.183084,-1.86742 z M 71,203 c 0,-0.55 -0.45,-1 -1,-1 -0.55,0 -1,0.45 -1,1 0,0.55 0.45,1 1,1 0.55,0 1,-0.45 1,-1 z m 26,20 v -6 h 6 6 v 6 6 h -6 -6 z m 13,0 v -6 h 6 6 v 6 6 h -6 -6 z m 13,0 v -6 h 6 6 v 6 6 h -6 -6 z m 13,0 v -6 h 6 6 v 6 6 h -6 -6 z m 13,0 v -6 h 6 6 v 6 6 h -6 -6 z m 13.09302,-13.03571 V 191 h 4.45349 c 2.44942,0 4.45349,-0.45 4.45349,-1 0,-0.55 1.35,-1 3,-1 2.66667,0 3,0.33333 3,3 0,2.65157 0.34071,3 2.93358,3 2.45689,0 2.98499,0.44686 3.25,2.75 0.31158,2.70796 0.42343,2.75 7.31642,2.75 h 7 l 0.30399,-4.73044 0.30399,-4.73044 13.44601,0.0274 c 7.39531,0.0151 13.44128,0.34375 13.4355,0.73043 -0.0155,1.03914 -8.25318,11.8498 -14.09931,18.50322 -4.02707,4.58317 -5.65178,5.758 -7.74329,5.5992 -1.45579,-0.11053 -5.12189,-0.052 -8.14689,0.13 l -5.5,0.33096 7.30226,0.56984 7.30226,0.56984 -7.30226,5.7549 -7.30226,5.75491 -0.28495,-11.23986 c -0.15672,-6.18191 -0.71922,-11.67412 -1.25,-12.2049 C 187.34498,204.94498 187,206.61893 187,210.24774 v 5.64774 l -5.25,0.36728 -5.25,0.36728 5.25,0.18498 L 187,217 v 5.96429 5.96428 h -12.45349 -12.45349 z m 13.52023,6.21661 c -0.23066,-0.37449 -3.0505,-0.47084 -6.26632,-0.21409 l -5.84693,0.46681 5.5,0.55381 c 5.67737,0.57168 7.33741,0.36922 6.61325,-0.80653 z M 176,202.94098 C 176,202.42344 175.55,202 175,202 c -0.55,0 -1,0.70156 -1,1.55902 0,0.85746 0.45,1.2809 1,0.94098 0.55,-0.33992 1,-1.04148 1,-1.55902 z m 39,0 C 215,202.42344 214.55,202 214,202 c -0.55,0 -1,0.70156 -1,1.55902 0,0.85746 0.45,1.2809 1,0.94098 0.55,-0.33992 1,-1.04148 1,-1.55902 z M 202,203 c 0,-0.55 -0.45,-1 -1,-1 -0.55,0 -1,0.45 -1,1 0,0.55 0.45,1 1,1 0.55,0 1,-0.45 1,-1 z M 97,203.5 V 191 h 5.96429 5.96428 V 203.5 216 H 102.96429 97 Z m 13,-0.0499 v -12.54991 l 5.75,0.29991 5.75,0.2999 0.23509,12.25 0.23508,12.25 H 115.98509 110 Z m 13.07143,0.0142 v -12.46429 h 5.91202 5.91203 l 0.36728,5.25 0.36728,5.25 0.18498,-5.25 L 136,191 h 5.96429 5.96428 v 12.46429 12.46428 H 135.5 123.07143 v -12.46428 z m 13.1301,-0.7306 c -1.00433,-2.26546 -1.64353,0.79893 -1.23472,5.91938 l 0.46681,5.84693 0.55381,-5.5 c 0.3046,-3.025 0.40094,-5.84484 0.2141,-6.26631 z m 12.8699,0.76631 v -12.5 H 155 h 5.92857 v 12.5 12.5 H 155 149.07143 Z M 13.023542,178.75 C 6.7144501,165.42642 3.3227364,153.53463 5.1800124,151.24956 6.3075708,149.86229 6.2621602,149.71452 4.8685136,150.23591 3.4749145,150.75728 3.0686443,149.43583 2.0822187,141.17314 1.447074,135.85291 0.75304611,130.07454 0.5399344,128.33232 L 0.15245858,125.16464 27.826229,125.33232 55.5,125.5 55.764047,157.25 56.028094,189 H 36.952651 17.877207 Z M 19,177 c 0,-0.55 -0.45,-1 -1,-1 -0.55,0 -1,0.45 -1,1 0,0.55 0.45,1 1,1 0.55,0 1,-0.45 1,-1 z m 13,0 c 0,-0.55 -0.45,-1 -1,-1 -0.55,0 -1,0.45 -1,1 0,0.55 0.45,1 1,1 0.55,0 1,-0.45 1,-1 z m 13,0 c 0,-0.55 -0.45,-1 -1,-1 -0.55,0 -1,0.45 -1,1 0,0.55 0.45,1 1,1 0.55,0 1,-0.45 1,-1 z M 19,164 c 0,-0.55 -0.45,-1 -1,-1 -0.55,0 -1,0.45 -1,1 0,0.55 0.45,1 1,1 0.55,0 1,-0.45 1,-1 z m 13,0 c 0,-0.55 -0.45,-1 -1,-1 -0.55,0 -1,0.45 -1,1 0,0.55 0.45,1 1,1 0.55,0 1,-0.45 1,-1 z m 13,0 c 0,-0.55 -0.45,-1 -1,-1 -0.55,0 -1,0.45 -1,1 0,0.55 0.45,1 1,1 0.55,0 1,-0.45 1,-1 z M 19,151 c 0,-0.55 -0.45,-1 -1,-1 -0.55,0 -1,0.45 -1,1 0,0.55 0.45,1 1,1 0.55,0 1,-0.45 1,-1 z m 13,0 c 0,-0.55 -0.45,-1 -1,-1 -0.55,0 -1,0.45 -1,1 0,0.55 0.45,1 1,1 0.55,0 1,-0.45 1,-1 z m 13,0 c 0,-0.55 -0.45,-1 -1,-1 -0.55,0 -1,0.45 -1,1 0,0.55 0.45,1 1,1 0.55,0 1,-0.45 1,-1 z M 5.5,138 C 5.8399187,137.45 5.6414763,137 5.059017,137 4.4765576,137 4,137.45 4,138 c 0,0.55 0.1984424,1 0.440983,1 0.2425407,0 0.7190983,-0.45 1.059017,-1 z m 13,0 c 0.339919,-0.55 0.141476,-1 -0.440983,-1 C 17.476558,137 17,137.45 17,138 c 0,0.55 0.198442,1 0.440983,1 0.242541,0 0.719098,-0.45 1.059017,-1 z m 26.5,0 c 0,-0.55 -0.45,-1 -1,-1 -0.55,0 -1,0.45 -1,1 0,0.55 0.45,1 1,1 0.55,0 1,-0.45 1,-1 z m 13,19.56739 c 0,-35.94696 -1.056971,-32.6062 10.25,-32.39713 6.385078,0.11806 6.75,0.25199 6.75,2.47727 C 75,129.07195 74.408247,130 73.5,130 c -0.825,0 -1.5,-0.45 -1.5,-1 0,-0.55 -0.675,-1 -1.5,-1 -0.833333,0 -1.5,0.88889 -1.5,2 0,1.1 0.45,2 1,2 0.55,0 1,1.125 1,2.5 0,1.375 -0.476558,2.5 -1.059017,2.5 -0.582459,0 -0.767397,0.47185 -0.410972,1.04856 0.443009,0.7168 1.094462,0.67806 2.059017,-0.12245 C 72.603448,137.08422 73,137.07057 73,137.87756 73,138.4949 73.9,139 75,139 c 1.1,0 2,0.45 2,1 0,0.55 0.675,1 1.5,1 1.047619,0 1.5,-1.05556 1.5,-3.5 0,-1.925 -0.45,-3.5 -1,-3.5 -0.55,0 -1,-0.76101 -1,-1.69113 0,-1.57603 0.0853,-1.57447 1.25328,0.0228 0.689305,0.94268 3.047959,2.0052 5.241454,2.36116 4.88519,0.79276 6.910021,2.46865 5.19098,4.29643 -0.915802,0.97373 -0.901168,1.36504 0.06429,1.71904 0.6875,0.25209 1.25,1.54584 1.25,2.875 0,1.75 0.551724,2.41667 2,2.41667 1.1,0 2,0.45 2,1 0,0.55 1.125,1 2.5,1 1.375,0 2.499996,0.45 2.499996,1 0,0.55 1.35,1 3,1 1.65,0 3,0.45 3,1 0,0.55 0.94878,1 2.10841,1 1.79276,0 2.00666,0.40537 1.4288,2.70776 -0.37378,1.48926 -0.63932,9.81426 -0.5901,18.5 l 0.0895,15.79224 h -6.05586 -6.055867 l 0.118801,-19.75 c 0.06534,-10.8625 -0.192057,-19.63732 -0.571996,-19.49961 -0.379939,0.13772 -0.659452,9.02522 -0.621138,19.75 L 95.920206,189 H 76.960103 58 Z M 71,177 c 0,-0.55 -0.45,-1 -1,-1 -0.55,0 -1,0.45 -1,1 0,0.55 0.45,1 1,1 0.55,0 1,-0.45 1,-1 z m 13,0 c 0,-0.55 -0.45,-1 -1,-1 -0.55,0 -1,0.45 -1,1 0,0.55 0.45,1 1,1 0.55,0 1,-0.45 1,-1 z M 71,164 c 0,-0.55 -0.45,-1 -1,-1 -0.55,0 -1,0.45 -1,1 0,0.55 0.45,1 1,1 0.55,0 1,-0.45 1,-1 z m 13,-0.55902 c 0,-0.85746 -0.45,-1.2809 -1,-0.94098 -0.55,0.33992 -1,1.04148 -1,1.55902 0,0.51754 0.45,0.94098 1,0.94098 0.55,0 1,-0.70156 1,-1.55902 z m 7,-5.88196 c 0,-0.24254 -0.45,-0.7191 -1,-1.05902 -0.55,-0.33992 -1,-0.14148 -1,0.44098 0,0.58246 0.45,1.05902 1,1.05902 0.55,0 1,-0.19844 1,-0.44098 z M 71,151 c 0,-0.55 0.675,-1 1.5,-1 0.933333,0 1.5,-0.94444 1.5,-2.5 0,-2 -0.5,-2.5 -2.5,-2.5 -2.190476,0 -2.5,0.43333 -2.5,3.5 0,1.925 0.45,3.5 1,3.5 0.55,0 1,-0.45 1,-1 z m 13,-0.55902 c 0,-0.85746 -0.45,-1.2809 -1,-0.94098 -0.55,0.33992 -1,1.04148 -1,1.55902 0,0.51754 0.45,0.94098 1,0.94098 0.55,0 1,-0.70156 1,-1.55902 z M 68,139.15499 c 0,-2.27545 -3.48655,-5.59035 -4.936987,-4.69393 -2.514176,1.55384 -0.124226,6.42893 3.186987,6.5009 1.048075,0.0228 1.75,-0.70199 1.75,-1.80697 z m 16,-1.71401 c 0,-0.85746 -0.45734,-1.27636 -1.016312,-0.9309 -0.558971,0.34546 -0.757414,1.04702 -0.440983,1.55902 C 83.399945,139.45614 84,139.19751 84,137.44098 Z m 25.99938,34.85892 -6.2e-4,-16.7999 5.1267,0.35502 c 3.47812,0.24085 5.38768,-0.0673 5.93828,-0.95815 0.44637,-0.72225 0.72713,6.543 0.62392,16.14498 L 121.5,188.5 l -5.75,0.2999 -5.75,0.29991 z M 123.08297,169.5 c 0.1157,-15.89612 0.39837,-19.5 1.52948,-19.5 0.76315,0 1.38755,-0.675 1.38755,-1.5 0,-0.825 -0.675,-1.5 -1.5,-1.5 -0.83333,0 -1.5,-0.88889 -1.5,-2 0,-1.71099 0.66667,-2 4.6135,-2 4.55729,0 4.60813,0.0366 4.17319,3 -0.40063,2.72966 -0.18557,3 2.3865,3 2.47423,0 2.82681,0.37418 2.82681,3 0,2.66667 0.33333,3 3,3 2.53333,0 3,0.38889 3,2.5 0,2.13433 0.45794,2.5 3.13084,2.5 2.98599,0 3.10597,0.15329 2.5932,3.31313 -0.51649,3.18273 -0.42324,3.29634 2.36916,2.8865 2.67801,-0.39305 2.9068,-0.18157 2.9068,2.68687 0,2.77711 0.31695,3.1135 2.93358,3.1135 2.45289,0 2.98542,0.44833 3.25,2.73612 0.25012,2.16282 0.84024,2.73902 2.81642,2.75 1.97967,0.011 2.56586,0.58625 2.81642,2.76388 0.24853,2.15997 0.83857,2.75 2.75,2.75 2.03731,0 2.43358,0.4885 2.43358,3 v 3 h -11.01257 -11.01256 l 0.12033,-8.5589 c 0.0662,-4.70739 -0.15316,-8.83239 -0.48743,-9.16666 C 148.2735,170.94016 148,174.79167 148,179.83333 V 189 h -12.52948 -12.52948 z m 12.65602,1.75 c -0.19845,-3.1625 -0.36082,-0.575 -0.36082,5.75 0,6.325 0.16237,8.9125 0.36082,5.75 0.19845,-3.1625 0.19845,-8.3375 0,-11.5 z m 25.954,13.01903 c -0.25354,-0.97297 -0.47766,-0.41903 -0.49804,1.23097 -0.0204,1.65 0.18706,2.44606 0.46099,1.76903 0.27392,-0.67703 0.29059,-2.02703 0.0371,-3 z M 136.05311,159.33677 135.578,154.5 135.00366,159 c -0.59763,4.6824 -0.3531,6.334 0.82955,5.60308 0.38225,-0.23624 0.48121,-2.60608 0.2199,-5.26631 z M 198,187.5 c 0,-1 -1,-1.5 -3,-1.5 -2.66667,0 -3,-0.33333 -3,-3 0,-2.01413 -0.49821,-3 -1.51607,-3 -1.32418,0 -1.4824,-3.44905 -1.25,-27.25 L 189.5,125.5 l 27.66971,-0.14265 27.66971,-0.14265 -0.38342,3.14265 c -0.21087,1.72846 -0.90307,7.49556 -1.53822,12.81579 -0.89636,7.5083 -1.46398,9.55449 -2.53629,9.14301 -0.75982,-0.29157 -1.38149,-0.0695 -1.38149,0.49353 0,0.56301 0.50037,1.19044 1.11193,1.3943 1.80374,0.60124 -2.67334,15.09433 -8.20038,26.54602 L 226.9645,189 H 212.48225 C 200.27581,189 198,188.76428 198,187.5 Z m 4,-10.5 c 0,-0.55 -0.45,-1 -1,-1 -0.55,0 -1,0.45 -1,1 0,0.55 0.45,1 1,1 0.55,0 1,-0.45 1,-1 z m 13,0 c 0,-0.55 -0.45,-1 -1,-1 -0.55,0 -1,0.45 -1,1 0,0.55 0.45,1 1,1 0.55,0 1,-0.45 1,-1 z m 13,0 c 0,-0.55 -0.45,-1 -1,-1 -0.55,0 -1,0.45 -1,1 0,0.55 0.45,1 1,1 0.55,0 1,-0.45 1,-1 z m -26,-13 c 0,-0.55 -0.45,-1 -1,-1 -0.55,0 -1,0.45 -1,1 0,0.55 0.45,1 1,1 0.55,0 1,-0.45 1,-1 z m 13,0.059 c 0,-0.51754 -0.45,-1.2191 -1,-1.55902 -0.55,-0.33992 -1,0.0835 -1,0.94098 0,0.85746 0.45,1.55902 1,1.55902 0.55,0 1,-0.42344 1,-0.94098 z M 228,164 c 0,-0.55 -0.45,-1 -1,-1 -0.55,0 -1,0.45 -1,1 0,0.55 0.45,1 1,1 0.55,0 1,-0.45 1,-1 z m -7,-7 c 0,-0.55 -0.19844,-1 -0.44098,-1 -0.24254,0 -0.7191,0.45 -1.05902,1 -0.33992,0.55 -0.14148,1 0.44098,1 0.58246,0 1.05902,-0.45 1.05902,-1 z m -19,-6 c 0,-0.55 -0.45,-1 -1,-1 -0.55,0 -1,0.45 -1,1 0,0.55 0.45,1 1,1 0.55,0 1,-0.45 1,-1 z m 13,0.059 c 0,-0.51754 -0.45,-1.2191 -1,-1.55902 -0.55,-0.33992 -1,0.0835 -1,0.94098 0,0.85746 0.45,1.55902 1,1.55902 0.55,0 1,-0.42344 1,-0.94098 z M 228,151 c 0,-0.55 -0.45,-1 -1,-1 -0.55,0 -1,0.45 -1,1 0,0.55 0.45,1 1,1 0.55,0 1,-0.45 1,-1 z m -26.54271,-12.9309 c 0.31644,-0.512 0.11799,-1.21356 -0.44098,-1.55902 -0.55897,-0.34546 -1.01631,0.0734 -1.01631,0.9309 0,1.75653 0.60006,2.01516 1.45729,0.62812 z m 13,0 c 0.31644,-0.512 0.11799,-1.21356 -0.44098,-1.55902 -0.55897,-0.34546 -1.01631,0.0734 -1.01631,0.9309 0,1.75653 0.60006,2.01516 1.45729,0.62812 z M 228,138 c 0,-0.55 -0.45,-1 -1,-1 -0.55,0 -1,0.45 -1,1 0,0.55 0.45,1 1,1 0.55,0 1,-0.45 1,-1 z m 13,0 c 0,-0.55 -0.45,-1 -1,-1 -0.55,0 -1,0.45 -1,1 0,0.55 0.45,1 1,1 0.55,0 1,-0.45 1,-1 z m -60.18358,33.25 c -0.25048,-2.17695 -0.90241,-2.81719 -3.1285,-3.07241 -2.38773,-0.27376 -2.76498,-0.72036 -2.5,-2.95952 0.27523,-2.3257 -0.0422,-2.64188 -2.68792,-2.67759 -2.51724,-0.034 -3.05092,-0.48301 -3.31642,-2.79048 -0.24381,-2.11887 -0.84888,-2.75 -2.6365,-2.75 -1.79996,0 -2.485,-0.72859 -3.05572,-3.25 -0.6165,-2.72363 -1.23408,-10.9278 -1.4428,-19.16667 -0.0267,-1.05416 -0.32709,-1.63814 -0.66751,-1.29771 -0.34042,0.34042 -0.55343,4.46542 -0.47335,9.16666 0.11744,6.89432 -0.13685,8.54772 -1.31462,8.54772 -0.84961,0 -1.59255,-1.14997 -1.77666,-2.75 -0.24853,-2.15997 -0.90645,-2.81789 -3.06642,-3.06642 -2.17066,-0.24976 -2.75,-0.83571 -2.75,-2.78139 0,-1.35573 -0.60744,-2.69806 -1.34987,-2.98295 -0.92473,-0.35485 -1.41378,-2.70708 -1.55282,-7.46862 L 148.89436,125 H 154.44718 160 v 3.5 c 0,1.925 0.34999,3.5 0.77776,3.5 1.22952,0 4.22224,-3.87428 4.22224,-5.46598 0,-1.1566 1.89337,-1.44311 9.53667,-1.44311 5.24516,0 10.16662,0.24174 10.93657,0.5372 1.14382,0.43892 1.40953,4.91258 1.45246,24.45454 L 186.9782,174 h -2.9227 c -2.44503,0 -2.97442,-0.44945 -3.23913,-2.75 z m -5.36921,-21.33541 c -0.32197,-0.52097 -1.01165,-0.68378 -1.53262,-0.3618 -0.52097,0.32197 -0.68378,1.01165 -0.3618,1.53262 0.32197,0.52097 1.01165,0.68378 1.53262,0.3618 0.52097,-0.32197 0.68378,-1.01165 0.3618,-1.53262 z m 0,-13 c -0.32197,-0.52097 -1.01165,-0.68378 -1.53262,-0.3618 -0.52097,0.32197 -0.68378,1.01165 -0.3618,1.53262 0.32197,0.52097 1.01165,0.68378 1.53262,0.3618 0.52097,-0.32197 0.68378,-1.01165 0.3618,-1.53262 z M 146,133.5 c 0,-3.36972 -1.21288,-4.5826 -2.5,-2.5 -0.99042,1.60253 -2.22489,1.16002 -2.78975,-1 -0.35134,-1.34354 -1.36401,-2 -3.08525,-2 -2.00034,0 -2.41922,-0.37268 -1.91009,-1.69944 0.4079,-1.06297 0.80187,-1.25023 1.05194,-0.5 C 137.24784,127.24353 142,127.42464 142,126 c 0,-0.55 1.35,-1 3,-1 h 3 v 6 c 0,3.33333 -0.44444,6 -1,6 -0.55,0 -1,-1.575 -1,-3.5 z M 1,117.95418 V 112 l 26.25,-0.23236 26.25,-0.23236 -25.883573,-0.28479 -25.8835728,-0.2848 0.6335729,-4.62241 C 2.7148922,103.80095 3,101.10866 3,100.36043 3,99.248757 7.6627273,99 28.5,99 H 54 v 7.5 c 0,4.33333 0.422222,7.5 1,7.5 0.55,0 1,2.24073 1,4.9794 v 4.97939 L 28.5,123.93359 1,123.90839 v -5.95418 z m 57,2.55839 C 58,118.58065 58.45,117 59,117 c 0.55,0 1,-1.125 1,-2.5 0,-1.375 0.478787,-2.5 1.06397,-2.5 0.585184,0 0.967323,-1.2375 0.8492,-2.75 C 61.494705,103.89182 62.013396,99 63,99 c 0.55,0 1,1.125 1,2.5 0,2.17511 0.440627,2.5 3.390594,2.5 3.130468,0 3.421942,0.26852 3.799199,3.5 l 0.408606,3.5 -4.5492,0.17471 -4.549199,0.1747 4.453513,0.39274 c 3.993767,0.35219 4.742202,0.0621 7.25,-2.81022 C 75.771739,107.13577 77,106.35036 77,107.14373 c 0,0.77811 -0.9,2.06343 -2,2.85627 -2.060603,1.4852 -2.848432,7 -1,7 0.55,0 1,1.52688 1,3.39306 v 3.39306 l -8.5,0.1195 -8.5,0.11951 z m 86.75,2.82515 c 0.6875,-0.27741 1.25,-1.36689 1.25,-2.42105 0,-1.05417 0.45,-1.91667 1,-1.91667 0.55,0 1,1.125 1,2.5 0,1.94932 -0.49561,2.48261 -2.25,2.42105 -1.2375,-0.0434 -1.6875,-0.30592 -1,-0.58333 z M 149,118 v -6 h 6 6 v 6 6 h -6 -6 z m 16,4.9452 C 165,122.42534 164.325,122 163.5,122 c -1.13189,0 -1.5,-1.21825 -1.5,-4.96429 v -4.96428 h 12.5 12.5 v 5.93941 5.9394 l -11,-0.0299 c -6.22044,-0.0169 -11,-0.44062 -11,-0.97513 z m 24,-4.90814 v -5.90743 l 27.5,-0.0645 27.5,-0.0644 v 5.87283 5.87283 l -27.5,0.099 -27.5,0.0991 z M 129.93853,117.75 c 0.38542,-3.33345 0.56718,-3.65694 0.84285,-1.5 0.19331,1.5125 0.77157,2.75 1.28504,2.75 0.51347,0 0.93358,0.675 0.93358,1.5 0,0.825 -0.79939,1.5 -1.77643,1.5 -1.50032,0 -1.70005,-0.66055 -1.28504,-4.25 z M 146,114 c 0,-1.1 0.45,-2 1,-2 0.55,0 1,0.9 1,2 0,1.1 -0.45,2 -1,2 -0.55,0 -1,-0.9 -1,-2 z m 5.25,-3.68933 C 153.36474,109.75803 153.68458,105 151.60699,105 150.17698,105 149,102.93146 149,100.41821 149,99.351508 150.48712,99 155,99 h 6 v 6 6 l -5.75,-0.116 c -3.1625,-0.0638 -4.9625,-0.3218 -4,-0.57333 z M 162,105 V 99.071429 H 174.5 187 V 105 110.92857 H 174.5 162 Z m 27,-6e-5 v -5.870448 l 26.5,-0.0619 c 21.68369,-0.05065 26.5,0.184841 26.5,1.295688 0,0.74667 0.28609,3.44482 0.63575,5.9959 l 0.63576,4.63833 -27.13576,-0.0636 L 189,110.87031 v -5.87045 z m -50.86872,1.23045 c -2.66111,-2.69562 -2.03471,-4.27569 0.95488,-2.40866 2.48531,1.55211 4.10313,0.65101 3.71169,-2.06737 -0.16382,-1.13765 0.26465,-2.260282 0.95215,-2.49474 0.85754,-0.292447 1.24755,0.77725 1.2422,3.40705 -0.006,3.0009 -0.49865,4.06058 -2.26817,4.87984 -1.86952,0.86555 -2.66367,0.63798 -4.59275,-1.31612 z M 144.75,98.25074 c -0.9625,-0.218564 -1.79469,-1.151892 -1.84931,-2.074064 C 142.84607,95.254504 142.73357,92.925 142.65069,91 142.52961,88.187707 142.0579,87.437212 140.25,87.180449 139.0125,87.004696 138,86.39774 138,85.831659 138,85.265577 136.65,83.541331 135,82 133.35,80.458669 132,78.670982 132,78.027362 132,75.941849 129.21454,74 126.223,74 h -2.91985 l -0.2044,-7 -0.20439,-7 h 6.00056 6.00056 l 0.36728,5.25 0.36728,5.25 0.18498,-5.25 L 136,60 h 6 6 v 6 c 0,4.779744 -0.31857,6 -1.56642,6 -2.59814,0 -1.4364,5.428403 1.24339,5.809981 2.1334,0.303777 2.16565,0.128627 1.61088,-8.75 L 148.72175,60 h 6.10341 6.10341 V 72.5 85 h -5.90093 -5.90092 l -0.40332,-3.25 -0.40333,-3.25 -0.16003,3.195209 c -0.15354,3.065413 -0.35299,3.210423 -4.91004,3.569752 l -4.75,0.374543 4.75,0.180248 L 148,86 v 5.940983 c 0,6.221295 -0.38112,6.96122 -3.25,6.309757 z m -8.53375,-26.517052 c -0.97847,-2.115464 -1.68996,0.647623 -1.26936,4.929539 L 135.422,81.5 135.99634,77 c 0.31589,-2.475 0.41485,-4.84484 0.21991,-5.266312 z M 4.5762693,97.123406 c -0.2979705,-0.482126 0.142905,-3.182126 0.9797235,-6 L 7.077481,86 h 19.627926 c 10.79536,0 19.338495,-0.289431 18.984746,-0.64318 -0.353749,-0.353749 -9.191668,-0.592741 -19.639819,-0.531092 L 7.0536947,84.937816 9.1093932,79.718908 C 10.240027,76.848509 12.815446,71.35 14.832546,67.5 L 18.5,60.5 32.75,60.222543 47,59.945087 V 78.972543 98 H 26.059017 C 14.541476,98 4.8742399,97.605533 4.5762693,97.123406 Z M 19,72 c 0,-0.55 -0.45,-1 -1,-1 -0.55,0 -1,0.45 -1,1 0,0.55 0.45,1 1,1 0.55,0 1,-0.45 1,-1 z m 13,0 c 0,-0.55 -0.45,-1 -1,-1 -0.55,0 -1,0.45 -1,1 0,0.55 0.45,1 1,1 0.55,0 1,-0.45 1,-1 z m 13,0 c 0,-0.55 -0.45,-1 -1,-1 -0.55,0 -1,0.45 -1,1 0,0.55 0.45,1 1,1 0.55,0 1,-0.45 1,-1 z m 104,20 v -6 h 6 6 v 6 6 h -6 -6 z m 7,0 c 0,-0.55 -0.45,-1 -1,-1 -0.55,0 -1,0.45 -1,1 0,0.55 0.45,1 1,1 0.55,0 1,-0.45 1,-1 z m 6,0 V 86.071429 H 174.5 187 V 92 97.928571 H 174.5 162 Z m 27,-6.72e-4 v -5.871392 l 24.46396,-0.05486 24.46397,-0.05486 1.53603,5.172393 C 240.30878,94.035425 241,96.729423 241,97.17727 c 0,0.447847 -11.7,0.787084 -26,0.753859 l -26,-0.06041 V 91.999327 Z M 162.07143,72.5 V 60.071429 H 174.5 186.92857 V 72.5 84.928571 H 174.5 162.07143 Z m 13.37578,-0.58541 c -0.32197,-0.520968 -1.01165,-0.683779 -1.53262,-0.361804 -0.52097,0.321976 -0.68378,1.011657 -0.3618,1.532624 0.32197,0.520968 1.01165,0.683779 1.53262,0.361804 0.52097,-0.321976 0.68378,-1.011657 0.3618,-1.532624 z M 189,72.484354 V 60.061991 l 18.68417,0.219005 18.68417,0.219004 3.74731,7 c 2.06102,3.85 4.65769,9.327275 5.77038,12.171723 l 2.02308,5.171723 -24.45456,0.03164 L 189,84.906718 Z m 26,-0.543371 C 215,71.423442 214.55,71 214,71 c -0.55,0 -1,0.701558 -1,1.559017 0,0.857459 0.45,1.280902 1,0.940983 0.55,-0.339919 1,-1.041476 1,-1.559017 z M 202,72 c 0,-0.55 -0.45,-1 -1,-1 -0.55,0 -1,0.45 -1,1 0,0.55 0.45,1 1,1 0.55,0 1,-0.45 1,-1 z m 26,0 c 0,-0.55 -0.45,-1 -1,-1 -0.55,0 -1,0.45 -1,1 0,0.55 0.45,1 1,1 0.55,0 1,-0.45 1,-1 z m -125.5,7 c 0.33992,-0.55 0.81648,-1 1.05902,-1 0.24254,0 0.44098,0.45 0.44098,1 0,0.55 -0.47656,1 -1.05902,1 -0.58246,0 -0.7809,-0.45 -0.44098,-1 z m 6,0 c 0.33992,-0.55 1.23992,-1 2,-1 0.76008,0 1.66008,0.45 2,1 0.35191,0.569401 -0.50929,1 -2,1 -1.49071,0 -2.35191,-0.430599 -2,-1 z M 107,71 c 0,-0.55 -1.07252,-1 -2.38337,-1 -1.54236,0 -2.56792,-0.705727 -2.90638,-2 -0.32184,-1.230719 -1.42446,-2.044619 -2.86663,-2.116001 -1.964581,-0.09724 -2.031593,-0.19555 -0.414341,-0.60785 C 100.70485,64.696015 103,62.584654 103,61.071429 c 0,-1.830696 5.81456,-1.271275 6.17668,0.59426 C 109.74567,64.597026 108.83063,72 107.89931,72 107.40469,72 107,71.55 107,71 Z m 3,-2.5 c 0,-2.833333 0.38095,-3.5 2,-3.5 1.1,0 2,0.45 2,1 0,0.55 1.8,1 4,1 3.6,0 4,0.25 4,2.5 0,2.388889 -0.26667,2.5 -6,2.5 h -6 z m 10.25,-6.058653 C 118.77744,60.842817 118.6542,60 119.89301,60 c 0.85312,0 2.45047,3.008848 1.88053,3.542269 -0.15045,0.140807 -0.83604,-0.354608 -1.52354,-1.100922 z M 110,61 c 0,-0.55 1.35,-1 3,-1 1.65,0 3,0.45 3,1 0,0.55 -1.35,1 -3,1 -1.65,0 -3,-0.45 -3,-1 z M 24.186131,51.76431 C 29.148868,44.590681 44.433565,29.054309 51.315861,24.187864 L 56,20.875729 V 34.937864 49 H 51.5 47 V 53.5 58 H 33.436131 19.872262 Z M 32,46 c 0,-0.55 -0.45,-1 -1,-1 -0.55,0 -1,0.45 -1,1 0,0.55 0.45,1 1,1 0.55,0 1,-0.45 1,-1 z m 13,0 c 0,-0.55 -0.45,-1 -1,-1 -0.55,0 -1,0.45 -1,1 0,0.55 0.45,1 1,1 0.55,0 1,-0.45 1,-1 z m 0,-13 c 0,-0.55 -0.45,-1 -1,-1 -0.55,0 -1,0.45 -1,1 0,0.55 0.45,1 1,1 0.55,0 1,-0.45 1,-1 z m 51.835712,-2.25 c 0.208489,-14.9875 0.443245,-27.3190733 0.521679,-27.4034962 0.07843,-0.084423 2.705499,-0.4706985 5.837919,-0.85839 l 5.6953,-0.7048937 0.0774,28.1083899 L 109.04541,58 h -6.29437 -6.294369 L 96.835742,30.75 Z M 110,29.638725 V 1.1776419 L 115.92962,0.83882095 121.85923,0.5 121.67962,29 121.5,57.5 115.75,57.799904 110,58.099808 Z M 123.02846,29.25 l 0.0672,-28.75 6.01786,0.34213337 c 5.8448,0.33229483 6.00984,0.41856453 5.73906,3.00000003 C 134.69927,5.30396 134.99519,6.5 135.51019,6.5 c 0.51501,0 0.79494,-1.0792794 0.62208,-2.3983986 -0.3031,-2.3129746 -0.1458,-2.3753045 4.41629,-1.75 C 143.15038,2.7082206 145.86591,3 146.58307,3 c 1.03832,0 1.32041,5.6015342 1.38488,27.5 l 0.081,27.5 H 135.5051 122.96126 Z m 12.71053,11 c -0.19845,-3.1625 -0.36082,-0.575 -0.36082,5.75 0,6.325 0.16237,8.9125 0.36082,5.75 0.19845,-3.1625 0.19845,-8.3375 0,-11.5 z m -0.0156,-15.5 c -0.22183,-1.7875 -0.40333,-0.325 -0.40333,3.25 0,3.575 0.1815,5.0375 0.40333,3.25 0.22182,-1.7875 0.22182,-4.7125 0,-6.5 z m 0,-13 c -0.22183,-1.7875 -0.40333,-0.325 -0.40333,3.25 0,3.575 0.1815,5.0375 0.40333,3.25 0.22182,-1.7875 0.22182,-4.7125 0,-6.5 z M 149.06747,31 c 0.016,-14.85 0.40575,-27 0.86601,-27 0.46027,0 3.13853,0.7433583 5.95169,1.6519074 L 161,7.3038148 V 32.318574 c 0,13.758118 0.24389,24.770868 0.54198,24.472779 0.29809,-0.29809 0.53817,-11.39809 0.53351,-24.666667 C 162.06971,15.662875 162.40661,8 163.13616,8 c 1.63704,0 17.503,7.606869 20.87709,10.009436 L 187,20.136188 V 39.068094 58 H 168.01915 149.0383 l 0.0292,-27 z M 176,46 c 0,-0.55 -0.45,-1 -1,-1 -0.55,0 -1,0.45 -1,1 0,0.55 0.45,1 1,1 0.55,0 1,-0.45 1,-1 z m 0,-13 c 0,-0.55 -0.45,-1 -1,-1 -0.55,0 -1,0.45 -1,1 0,0.55 0.45,1 1,1 0.55,0 1,-0.45 1,-1 z m 0,-13 c 0,-0.55 -0.45,-1 -1,-1 -0.55,0 -1,0.45 -1,1 0,0.55 0.45,1 1,1 0.55,0 1,-0.45 1,-1 z m 13,19.437864 V 20.875729 l 4.68414,3.312135 c 6.8823,4.866445 22.16699,20.402817 27.12973,27.576446 L 225.12774,58 H 207.06387 189 Z M 202,46 c 0,-0.55 -0.45,-1 -1,-1 -0.55,0 -1,0.45 -1,1 0,0.55 0.45,1 1,1 0.55,0 1,-0.45 1,-1 z m 13,0 c 0,-0.55 -0.45,-1 -1,-1 -0.55,0 -1,0.45 -1,1 0,0.55 0.45,1 1,1 0.55,0 1,-0.45 1,-1 z M 202,33 c 0,-0.55 -0.45,-1 -1,-1 -0.55,0 -1,0.45 -1,1 0,0.55 0.45,1 1,1 0.55,0 1,-0.45 1,-1 z M 58,34.568094 V 20.136188 l 2.75,-1.941435 C 65.637392,14.744369 75.275747,10.305341 84.806897,7.1151401 89.92569,5.4018131 94.51124,4 94.997008,4 c 0.485768,0 0.876451,10.125 0.868184,22.5 L 95.850161,49 H 76.92508 58 Z M 71,46 c 0,-0.55 -0.45,-1 -1,-1 -0.55,0 -1,0.45 -1,1 0,0.55 0.45,1 1,1 0.55,0 1,-0.45 1,-1 z m 13,0 c 0,-0.55 -0.45,-1 -1,-1 -0.55,0 -1,0.45 -1,1 0,0.55 0.45,1 1,1 0.55,0 1,-0.45 1,-1 z M 71,33 c 0,-0.55 -0.45,-1 -1,-1 -0.55,0 -1,0.45 -1,1 0,0.55 0.45,1 1,1 0.55,0 1,-0.45 1,-1 z m 13,0 c 0,-0.55 -0.45,-1 -1,-1 -0.55,0 -1,0.45 -1,1 0,0.55 0.45,1 1,1 0.55,0 1,-0.45 1,-1 z M 71,20 c 0,-0.55 -0.45,-1 -1,-1 -0.55,0 -1,0.45 -1,1 0,0.55 0.45,1 1,1 0.55,0 1,-0.45 1,-1 z m 13,0 c 0,-0.55 -0.45,-1 -1,-1 -0.55,0 -1,0.45 -1,1 0,0.55 0.45,1 1,1 0.55,0 1,-0.45 1,-1 z"
         id="path50" />
    </g>
  </g>
</svg>
