<?xml version="1.0" encoding="UTF-8" standalone="no"?>
<svg
   width="128"
   height="128"
   viewBox="0 0 128 128"
   fill="none"
   version="1.1"
   id="svg20"
   sodipodi:docname="steth.svg"
   inkscape:version="1.1.2 (b8e25be833, 2022-02-05)"
   xmlns:inkscape="http://www.inkscape.org/namespaces/inkscape"
   xmlns:sodipodi="http://sodipodi.sourceforge.net/DTD/sodipodi-0.dtd"
   xmlns="http://www.w3.org/2000/svg"
   xmlns:svg="http://www.w3.org/2000/svg">
  <defs
     id="defs24" />
  <sodipodi:namedview
     id="namedview22"
     pagecolor="#ffffff"
     bordercolor="#999999"
     borderopacity="1"
     inkscape:pageshadow="0"
     inkscape:pageopacity="0"
     inkscape:pagecheckerboard="0"
     showgrid="false"
     fit-margin-top="0"
     fit-margin-left="0"
     fit-margin-right="0"
     fit-margin-bottom="0"
     inkscape:zoom="0.91992188"
     inkscape:cx="64.679405"
     inkscape:cy="63.592356"
     inkscape:window-width="1280"
     inkscape:window-height="658"
     inkscape:window-x="-6"
     inkscape:window-y="-6"
     inkscape:window-maximized="1"
     inkscape:current-layer="svg20" />
  <path
     d="M 64,128 C 99.34625,128 128,99.34625 128,64 128,28.65375 99.34625,0 64,0 28.65375,0 0,28.65375 0,64 c 0,35.34625 28.65375,64 64,64 z"
     fill="#ffffff"
     id="path2"
     style="stroke-width:0.25" />
  <path
     d="m 37.747,59.453 -0.7165,1.09925 C 28.949,72.9495 30.754,89.1855 41.37,99.587 c 6.24525,6.1195 14.4305,9.1795 22.616,9.18025 0,0 0,0 -26.239,-49.31425 z"
     fill="#00a3ff"
     id="path4"
     style="stroke-width:0.25" />
  <path
     opacity="0.6"
     d="M 63.9785,74.441 37.7395,59.453 c 26.239,49.31425 26.239,49.31425 26.239,49.31425 0,-10.74025 0,-23.04725 0,-34.32625 z"
     fill="#00a3ff"
     id="path6"
     style="stroke-width:0.25" />
  <path
     opacity="0.6"
     d="m 90.253,59.453 0.7165,1.09925 C 99.051,72.9495 97.246,89.1855 86.63,99.587 c -6.24525,6.1195 -14.4305,9.1795 -22.616,9.18025 0,0 0,0 26.239,-49.31425 z"
     fill="#00a3ff"
     id="path8"
     style="stroke-width:0.25" />
  <path
     opacity="0.2"
     d="M 64.011,74.441 90.25,59.453 c -26.23875,49.31425 -26.239,49.31425 -26.239,49.31425 0,-10.74025 0,-23.04725 0,-34.32625 z"
     fill="#00a3ff"
     id="path10"
     style="stroke-width:0.25" />
  <path
     opacity="0.2"
     d="m 64.02075,40.95825 v 25.85 l 22.602,-12.9165 z"
     fill="#00a3ff"
     id="path12"
     style="stroke-width:0.25" />
  <path
     opacity="0.6"
     d="m 64.014,40.95825 -22.61825,12.933 22.61825,12.917 z"
     fill="#00a3ff"
     id="path14"
     style="stroke-width:0.25" />
  <path
     d="M 64.014,19.21875 41.39575,53.89975 64.014,40.9305 Z"
     fill="#00a3ff"
     id="path16"
     style="stroke-width:0.25" />
  <path
     opacity="0.6"
     d="M 64.02075,40.9265 86.64,53.89625 64.02075,19.19792 Z"
     fill="#00a3ff"
     id="path18"
     style="stroke-width:0.25" />
</svg>
