<svg width="24" height="24" viewBox="0 0 24 24" fill="none" xmlns="http://www.w3.org/2000/svg">
<path d="M12 24C18.6274 24 24 18.6274 24 12C24 5.37258 18.6274 0 12 0C5.37258 0 0 5.37258 0 12C0 18.6274 5.37258 24 12 24Z" fill="#5700FF"/>
<path d="M13.1718 9.74113C14.3896 10.1761 15.216 10.611 15.9554 11.1329C16.9557 10.0021 16.9992 8.47983 16.9122 7.47949C16.0859 8.47983 14.8246 9.26271 13.1718 9.74113Z" fill="white"/>
<path d="M7.25679 20.2664C8.08316 19.0921 9.21397 18.8311 11.1712 18.3527C11.954 18.1787 12.7804 17.9613 13.8242 17.6568C16.2598 16.9174 16.8687 15.5691 17.0427 14.8298C17.2602 13.8294 16.8687 12.7856 16.1294 12.1767C14.4766 10.8284 12.8674 10.263 10.4753 9.78457L9.99685 9.65409L10.5188 9.6106C13.4328 9.21916 15.477 8.30581 16.5643 6.78355C17.3907 5.65273 17.4341 4.52192 17.4341 4C16.7818 5.00034 15.477 5.30479 13.4328 5.78321C12.6064 6.00068 11.6496 6.21814 10.5623 6.56609C8.12665 7.26198 7.51775 8.61026 7.38727 9.39313C7.1698 10.35 7.51775 11.3938 8.25713 12.0462C9.90986 13.3945 11.5191 13.9164 13.9112 14.3948L14.4331 14.5253L13.9112 14.5688C12.4325 14.7863 10.9972 15.0907 9.86637 15.4822C8.47459 15.9606 7.60473 16.5695 7.25679 17.2654C6.77837 18.2222 7.08282 19.7445 7.25679 20.2664Z" fill="white"/>
<path d="M23.5 12C23.5 18.3513 18.3513 23.5 12 23.5C5.64873 23.5 0.5 18.3513 0.5 12C0.5 5.64873 5.64873 0.5 12 0.5C18.3513 0.5 23.5 5.64873 23.5 12Z" stroke="white" stroke-opacity="0.3"/>
</svg>
