<?xml version="1.0" encoding="UTF-8" standalone="no"?>
<svg
   width="128"
   hight="128"
   viewBox="0 0 100 128"
   version="1.1"
   id="svg8"
   sodipodi:docname="sushi.svg"
   style="fill:none"
   inkscape:version="1.1.2 (b8e25be833, 2022-02-05)"
   height="128"
   xmlns:inkscape="http://www.inkscape.org/namespaces/inkscape"
   xmlns:sodipodi="http://sodipodi.sourceforge.net/DTD/sodipodi-0.dtd"
   xmlns="http://www.w3.org/2000/svg"
   xmlns:svg="http://www.w3.org/2000/svg"
   xmlns:rdf="http://www.w3.org/1999/02/22-rdf-syntax-ns#"
   xmlns:cc="http://creativecommons.org/ns#"
   xmlns:dc="http://purl.org/dc/elements/1.1/">
  <metadata
     id="metadata14">
    <rdf:RDF>
      <cc:Work
         rdf:about="">
        <dc:format>image/svg+xml</dc:format>
        <dc:type
           rdf:resource="http://purl.org/dc/dcmitype/StillImage" />
      </cc:Work>
    </rdf:RDF>
  </metadata>
  <defs
     id="defs12">
    <linearGradient
       gradientTransform="matrix(27.908,-59.2347,-140.499,-11.7661,17095.7,15766.6)"
       gradientUnits="userSpaceOnUse"
       y2="0"
       x2="1"
       y1="0"
       x1="0"
       id="_Linear2">
      <stop
         id="stop902"
         style="stop-color:rgb(39,176,230);stop-opacity:1"
         offset="0" />
      <stop
         id="stop904"
         style="stop-color:rgb(194,107,179);stop-opacity:1"
         offset="0.52" />
      <stop
         id="stop906"
         style="stop-color:rgb(250,82,160);stop-opacity:1"
         offset="1" />
    </linearGradient>
    <clipPath
       id="_clip1">
      <path
         inkscape:connector-curvature="0"
         d="m 18640.6,15952.1 c 6,-8.4 17.6,-12.1 32.6,-10.9 20.7,1.7 48.1,12.8 74.5,31.6 26.3,18.9 45.6,41.4 53.8,60.4 6,13.8 6.2,26 0.2,34.4 0,0 -41.2,57.6 -41.2,57.6 -6,8.4 -17.7,12.1 -32.6,10.9 -20.7,-1.8 -48.2,-12.8 -74.5,-31.7 -26.4,-18.8 -45.6,-41.3 -53.9,-60.3 -6,-13.8 -6.2,-26 -0.2,-34.4 z m 155.4,111.4 v -0.1 c 4.8,-6.6 3.8,-16.4 -0.9,-27.4 -7.9,-18.1 -26.4,-39.4 -51.6,-57.4 -25.1,-18 -51.2,-28.7 -70.9,-30.3 -12,-1 -21.5,1.2 -26.3,7.9 l -0.2,0.4 c -4.5,6.7 -3.5,16.2 1.2,27 7.9,18.2 26.4,39.5 51.5,57.5 25.1,18 51.2,28.7 70.9,30.3 11.8,0.9 21.1,-1.2 26,-7.5 l 0.3,-0.5 z m -64.2,-68.6 c 12.6,9 21.9,19.7 25.8,28.8 2.3,5.1 2.9,9.6 0.6,12.7 -2.2,3.1 -6.7,4 -12.2,3.5 -9.9,-0.8 -22.9,-6.2 -35.5,-15.2 -12.6,-9 -21.9,-19.6 -25.8,-28.7 -2.2,-5.1 -2.8,-9.6 -0.6,-12.7 2.2,-3.1 6.7,-4 12.3,-3.6 9.8,0.9 22.9,6.2 35.4,15.2 z"
         id="path882" />
    </clipPath>
  </defs>
  <sodipodi:namedview
     pagecolor="#ffffff"
     bordercolor="#666666"
     borderopacity="1"
     objecttolerance="10"
     gridtolerance="10"
     guidetolerance="10"
     inkscape:pageopacity="0"
     inkscape:pageshadow="2"
     inkscape:window-width="1280"
     inkscape:window-height="658"
     id="namedview10"
     showgrid="false"
     fit-margin-top="0"
     fit-margin-left="0"
     fit-margin-right="0"
     fit-margin-bottom="0"
     inkscape:zoom="1"
     inkscape:cx="57.5"
     inkscape:cy="69.5"
     inkscape:window-x="-6"
     inkscape:window-y="-6"
     inkscape:window-maximized="1"
     inkscape:current-layer="svg8"
     inkscape:snap-nodes="true"
     inkscape:snap-grids="true"
     inkscape:snap-bbox="true"
     inkscape:snap-global="true"
     inkscape:bbox-nodes="true"
     showguides="false"
     inkscape:guide-bbox="true"
     inkscape:pagecheckerboard="0">
    <inkscape:grid
       type="xygrid"
       id="grid844"
       originx="-84.165588"
       originy="45.837578" />
  </sodipodi:namedview>
  <circle
     r="64"
     cy="64"
     cx="50"
     id="circle991"
     style="opacity:1;fill:#ffffff;fill-opacity:1;stroke:none;stroke-width:1.99448;stroke-linecap:round;stroke-linejoin:round;stroke-miterlimit:4;stroke-dasharray:none;stroke-dashoffset:0;stroke-opacity:1" />
  <rect
     x="12.186471"
     y="26.186609"
     width="75.626953"
     height="75.626862"
     style="clip-rule:evenodd;fill:none;fill-rule:evenodd;stroke-width:0.0525187;stroke-linecap:round;stroke-linejoin:round"
     id="rect870" />
  <g
     id="g918"
     transform="translate(-3.3906251e-5,14.000003)">
    <g
       transform="matrix(0.31848302,0,0,0.31848268,-5559.7683,-2291.9632)"
       id="g874"
       style="clip-rule:evenodd;fill-rule:evenodd;stroke-linecap:round;stroke-linejoin:round">
      <path
         inkscape:connector-curvature="0"
         d="m 17721.1,7385.28 c 0,0 -42.6,59.38 -42.6,59.38 -6.7,9.43 -19.7,13.97 -36.6,12.58 -21.8,-1.8 -50.7,-13.32 -78.4,-33.19 -27.7,-19.88 -47.9,-43.56 -56.7,-63.61 -6.7,-15.54 -6.6,-29.26 0.2,-38.7 0,0 42.5,-59.38 42.5,-59.38 6.8,-9.43 19.8,-13.97 36.6,-12.58 21.8,1.8 50.8,13.33 78.5,33.2 27.7,19.87 47.9,43.55 56.6,63.6 6.8,15.54 6.6,29.27 -0.1,38.7 z m -160.2,-114.76 c 4.4,-6.1 13.2,-7.68 24.1,-6.78 19.9,1.64 46.1,12.48 71.4,30.62 25.3,18.13 44,39.5 52,57.8 4.3,10.03 5.7,18.87 1.3,24.97 l 5.7,4.07 c 0,0 -5.7,-4.07 -5.7,-4.07 l -42.6,59.38 c -4.3,6.09 -13.1,7.68 -24,6.77 -19.9,-1.63 -46.2,-12.48 -71.5,-30.61 -25.3,-18.14 -44,-39.51 -51.9,-57.8 -4.4,-10.04 -5.7,-18.88 -1.3,-24.97 0,0 42.5,-59.38 42.5,-59.38 z"
         style="fill:#ffffff"
         id="path872" />
    </g>
    <g
       transform="matrix(0.31848302,0,0,0.31848268,-5558.212,-2294.469)"
       id="g878"
       style="clip-rule:evenodd;fill-rule:evenodd;stroke-linecap:round;stroke-linejoin:round">
      <path
         inkscape:connector-curvature="0"
         d="m 17550.4,7275.75 c 13.9,-19.4 61,-9.44 105.2,22.22 44.2,31.67 68.8,73.14 54.9,92.54 0,0 -42.5,59.38 -42.5,59.38 -13.9,19.4 -61.1,9.44 -105.3,-22.23 -44.2,-31.67 -68.8,-73.13 -54.9,-92.53 0,0 42.6,-59.38 42.6,-59.38 z"
         style="fill:#ffffff"
         id="path876" />
    </g>
    <path
       id="path880"
       style="clip-rule:evenodd;fill:#0e0f23;fill-rule:evenodd;stroke-width:0.328221;stroke-linecap:round;stroke-linejoin:round"
       d="m 30.316318,21.587516 c 1.969326,-2.757055 5.776691,-3.971473 10.700006,-3.577608 6.794176,0.557976 15.787432,4.201228 24.452468,10.371782 8.632213,6.203376 14.966879,13.588347 17.658292,19.824546 1.969326,4.529449 2.03497,8.533744 0.06564,11.2908 0,0 -13.522707,18.905527 -13.522707,18.905527 -1.969326,2.757056 -5.809512,3.971473 -10.700006,3.577608 C 52.175839,81.389374 43.149761,77.778943 34.517548,71.575567 25.852512,65.405013 19.550668,58.020042 16.826433,51.783844 14.857107,47.254395 14.791463,43.250099 16.760789,40.493043 Z m 51.00555,36.563814 v -0.03282 c 1.575461,-2.16626 1.24724,-5.382825 -0.295399,-8.993256 C 78.433523,43.184455 72.361433,36.193349 64.090263,30.285372 55.851915,24.377395 47.285346,20.86543 40.819392,20.340277 c -3.938653,-0.328221 -7.056753,0.393865 -8.632214,2.592945 l -0.06564,0.131289 c -1.476995,2.19908 -1.148774,5.317179 0.393865,8.861965 2.592946,5.973622 8.665036,12.964728 16.903384,18.872705 8.238348,5.907977 16.804917,9.419941 23.270871,9.945095 3.873009,0.295399 6.925464,-0.393865 8.533748,-2.461657 l 0.09847,-0.164111 z M 60.250077,35.635373 c 4.135585,2.953989 7.188041,6.465953 8.468103,9.452764 0.754908,1.673926 0.951841,3.150921 0.196933,4.168406 -0.722087,1.017485 -2.199081,1.312883 -4.004297,1.148773 -3.249388,-0.262577 -7.516262,-2.03497 -11.651847,-4.988959 -4.135585,-2.953988 -7.188041,-6.43313 -8.468103,-9.419941 -0.722086,-1.673927 -0.919019,-3.150921 -0.196933,-4.168406 0.722087,-1.017485 2.199081,-1.312884 4.037119,-1.181595 3.216566,0.295399 7.516262,2.03497 11.619025,4.988958 z"
       inkscape:connector-curvature="0" />
    <g
       transform="matrix(0.32822104,0,0,0.32822095,-6087.9208,-5214.2259)"
       id="g889"
       clip-path="url(#_clip1)"
       style="clip-rule:evenodd;fill:#f355a2;fill-opacity:1;fill-rule:evenodd;stroke-linecap:round;stroke-linejoin:round">
      <g
         style="fill:#f355a2;fill-opacity:1"
         id="g887"
         transform="matrix(1,0,0,-2.3719,1581.65,53337.7)">
        <path
           id="path885"
           style="fill:#f355a2;fill-opacity:1"
           d="m 17004.5,15714.1 c 1.1,0 2.9,-1.1 3.9,-1.4 3.5,-1.1 7,-2.2 10.6,-3.1 10.5,-2.7 21.4,-4.2 32.2,-3.2 17,1.6 32.4,14.1 49.5,12.4 9.6,-0.9 16.4,-6.6 24.8,-10.5 8,-3.9 16.8,-5.6 25.7,-4.8 26.5,2.2 36.5,24.2 63.4,23 22.3,-1 13.6,-12.3 35,-16.3 0.2,-0.1 51.7,19 52.1,22.3 1.5,12.7 -27.1,162.3 -25.8,162.3 l -255.1,-39.5 z"
           inkscape:connector-curvature="0" />
      </g>
    </g>
    <g
       transform="matrix(0.32822104,0,0,0.32822095,-6078.4795,-5228.3374)"
       id="g895"
       style="clip-rule:evenodd;fill-rule:evenodd;stroke-linecap:round;stroke-linejoin:round">
      <path
         inkscape:connector-curvature="0"
         d="m 18607.7,16015.7 c 1.1,26.3 27,51.4 46.9,68.4 27.7,23.6 72.3,41.3 97.2,37.3"
         style="fill:none;stroke:#ffffff;stroke-width:3px;stroke-dasharray:6, 6, 75, 75;stroke-dashoffset:3"
         id="path893" />
    </g>
  </g>
</svg>
