<svg width="24" height="24" viewBox="0 0 24 24" fill="none" xmlns="http://www.w3.org/2000/svg">
<path d="M12 24C18.6274 24 24 18.6274 24 12C24 5.37258 18.6274 0 12 0C5.37258 0 0 5.37258 0 12C0 18.6274 5.37258 24 12 24Z" fill="#080B27"/>
<path d="M23.5 12C23.5 18.3513 18.3513 23.5 12 23.5C5.64873 23.5 0.5 18.3513 0.5 12C0.5 5.64873 5.64873 0.5 12 0.5C18.3513 0.5 23.5 5.64873 23.5 12Z" stroke="white" stroke-opacity="0.3"/>
<path d="M18.4338 7.55676C18.6166 7.61602 18.6947 7.77227 18.7836 7.91056C19.5972 9.17448 19.9927 10.5515 19.9999 12.0642C20.008 13.787 19.5451 15.3459 18.5106 16.7149C17.2337 18.4044 15.536 19.4344 13.4415 19.7815C12.0792 20.0069 10.7448 19.8641 9.44991 19.3909C9.24472 19.3159 9.17019 19.3657 9.11541 19.5557C9.07455 19.698 9.00316 19.8322 8.94345 19.9692C8.93941 19.9786 8.91965 19.9818 8.87295 20.0038C8.90663 19.7909 8.92414 19.5961 8.97173 19.4084C9.00675 19.271 8.95961 19.2059 8.85006 19.1372C8.37547 18.8391 7.90448 18.5347 7.43483 18.2289C7.36434 18.1831 7.27094 18.1548 7.24176 18.0547C7.34233 18.0012 7.40609 18.074 7.47479 18.1059C7.92872 18.3169 8.38445 18.5252 8.8321 18.7497C9.00675 18.8373 9.0741 18.8283 9.13023 18.6195C9.40726 17.5882 9.67576 16.5537 10.0233 15.543C10.8158 13.2388 11.9728 11.1339 13.4715 9.21354C13.969 8.57642 14.4957 7.96579 15.0435 7.37267C15.1423 7.26581 15.2428 7.21462 15.3923 7.21687C15.959 7.22495 16.5261 7.22001 17.1133 7.22001C17.0931 7.35022 17.0083 7.41577 16.9468 7.49165C15.8139 8.89161 14.6825 10.2929 13.5411 11.6862C13.4172 11.8375 13.4374 11.9273 13.5483 12.0638C14.5716 13.3218 15.589 14.5844 16.6078 15.8461C16.6401 15.886 16.6666 15.93 16.6953 15.9718C16.6491 16.0441 16.5831 16.0136 16.5301 16.014C15.6703 16.0167 14.81 16.0127 13.9502 16.0198C13.784 16.0212 13.6722 15.9687 13.569 15.8393C13.0657 15.2085 12.5498 14.5875 12.05 13.954C11.9328 13.8059 11.8826 13.7906 11.777 13.9612C11.1031 15.05 10.5041 16.1779 9.9914 17.3511C9.78486 17.8234 9.60347 18.3061 9.39873 18.7794C9.33766 18.9208 9.37268 18.976 9.50648 19.0254C10.0147 19.2126 10.5396 19.3307 11.0771 19.3716C13.0127 19.5193 14.7826 19.0434 16.3644 17.9123C17.543 17.0696 18.4078 15.9664 18.9484 14.6239C19.894 12.2739 19.7368 9.98087 18.5384 7.75431C18.5025 7.68831 18.4684 7.62231 18.4338 7.55676Z" fill="white"/>
<path d="M16.4362 5.75396C16.2131 5.63228 15.9872 5.51509 15.769 5.38578C15.6747 5.33011 15.6182 5.33594 15.5409 5.41676C14.2478 6.76554 13.1016 8.22567 12.1299 9.82409C11.069 11.5693 10.2805 13.4407 9.53655 15.3341C9.50916 15.4037 9.47997 15.4724 9.45124 15.5411C9.2227 16.0938 9.33674 15.9955 8.74362 16.004C8.28116 16.0108 7.8187 16.0054 7.33423 16.0054C7.40876 15.7975 7.52775 15.6363 7.63012 15.4675C8.38488 14.2206 9.13874 12.9733 9.90203 11.7319C9.99138 11.5864 9.98644 11.4952 9.88452 11.3619C8.89987 10.0728 7.92196 8.77838 6.94226 7.48528C6.91981 7.45564 6.89332 7.42781 6.87446 7.39593C6.84528 7.34654 6.77119 7.30792 6.79723 7.24641C6.82597 7.17861 6.90365 7.21408 6.95842 7.21408C7.7509 7.21184 8.54382 7.21813 9.33629 7.2087C9.52397 7.20645 9.62185 7.31241 9.72378 7.43274C10.2258 8.02676 10.7313 8.61719 11.2252 9.21749C11.3554 9.37599 11.425 9.41281 11.5867 9.23545C12.785 7.9199 13.9937 6.61423 15.206 5.3117C15.3344 5.17386 15.2688 5.14692 15.1481 5.09079C14.2213 4.66066 13.2421 4.47298 12.2283 4.49812C9.79427 4.55874 7.71139 5.44011 6.20591 7.37887C4.28916 9.84788 3.9358 12.5805 5.13102 15.4895C5.21049 15.6826 5.31017 15.8675 5.39952 16.0566C5.43005 16.1212 5.48528 16.1818 5.4296 16.2752C4.81089 15.4432 4.37806 14.5331 4.18005 13.522C3.80065 11.5855 4 9.72082 4.97746 7.98321C6.04337 6.08801 7.66918 4.89189 9.74443 4.29652C11.6518 3.7492 13.4899 3.97325 15.2527 4.85552C15.47 4.96418 15.6056 4.94846 15.7735 4.78278C15.9994 4.55963 16.2517 4.36297 16.5328 4.19011C16.372 4.39306 16.2126 4.5969 16.0501 4.79805C15.7937 5.11594 15.7933 5.11504 16.1174 5.35974C16.2728 5.47693 16.4268 5.59501 16.5817 5.71265C16.5655 5.74318 16.5489 5.77416 16.5328 5.80469C16.5162 5.79616 16.4991 5.78763 16.4825 5.77865C16.4672 5.77057 16.4519 5.76204 16.4362 5.75396Z" fill="#1D7C59"/>
<path d="M16.4362 5.75391C16.4519 5.76199 16.4672 5.77052 16.4825 5.7786C16.4672 5.77007 16.4519 5.76199 16.4362 5.75391Z" fill="#9A9A9A"/>
</svg>
