<?xml version="1.0" encoding="UTF-8" standalone="no"?>
<svg
   width="128"
   hight="128"
   viewBox="0 0 80 128"
   version="1.1"
   id="svg6"
   sodipodi:docname="tbtc.svg"
   style="fill:none"
   inkscape:version="1.1.2 (b8e25be833, 2022-02-05)"
   height="128"
   xmlns:inkscape="http://www.inkscape.org/namespaces/inkscape"
   xmlns:sodipodi="http://sodipodi.sourceforge.net/DTD/sodipodi-0.dtd"
   xmlns="http://www.w3.org/2000/svg"
   xmlns:svg="http://www.w3.org/2000/svg"
   xmlns:rdf="http://www.w3.org/1999/02/22-rdf-syntax-ns#"
   xmlns:cc="http://creativecommons.org/ns#"
   xmlns:dc="http://purl.org/dc/elements/1.1/">
  <metadata
     id="metadata12">
    <rdf:RDF>
      <cc:Work
         rdf:about="">
        <dc:format>image/svg+xml</dc:format>
        <dc:type
           rdf:resource="http://purl.org/dc/dcmitype/StillImage" />
      </cc:Work>
    </rdf:RDF>
  </metadata>
  <defs
     id="defs10" />
  <sodipodi:namedview
     pagecolor="#ffffff"
     bordercolor="#666666"
     borderopacity="1"
     objecttolerance="10"
     gridtolerance="10"
     guidetolerance="10"
     inkscape:pageopacity="0"
     inkscape:pageshadow="2"
     inkscape:window-width="1280"
     inkscape:window-height="658"
     id="namedview8"
     showgrid="false"
     scale-x="0.8"
     fit-margin-top="0"
     fit-margin-left="0"
     fit-margin-right="0"
     fit-margin-bottom="0"
     inkscape:zoom="1"
     inkscape:cx="56.5"
     inkscape:cy="84.5"
     inkscape:window-x="-6"
     inkscape:window-y="-6"
     inkscape:window-maximized="1"
     inkscape:current-layer="svg6"
     showguides="false"
     inkscape:pagecheckerboard="0" />
  <path
     style="fill:#ffffff;fill-opacity:1;stroke-width:0.723164"
     d="m 40,10.03 a 53.971265,53.971265 0 0 0 -5.3875,0.275 53.971265,53.971265 0 0 0 -5.335,0.815 53.971265,53.971265 0 0 0 -5.225,1.34 53.971265,53.971265 0 0 0 -5.065,1.8575 53.971265,53.971265 0 0 0 -4.855,2.355 53.971265,53.971265 0 0 0 -4.5925,2.825 53.971265,53.971265 0 0 0 -4.2900006,3.272499 53.971265,53.971265 0 0 0 -3.9424999,3.682501 53.971265,53.971265 0 0 0 -3.554999,4.057501 53.971265,53.971265 0 0 0 -0.0025,0 A 53.971265,53.971265 0 0 0 -5.38,34.9025 a 53.971265,53.971265 0 0 0 -1.2074995,1.975 53.971265,53.971265 0 0 0 -2.485001,4.7875 53.971265,53.971265 0 0 0 -0.0025,0.0025 53.971265,53.971265 0 0 0 -1.9974995,5.01 53.971265,53.971265 0 0 0 -1.4875,5.185 53.971265,53.971265 0 0 0 0,0.0025 53.971265,53.971265 0 0 0 -0.96,5.3075 53.971265,53.971265 0 0 0 -0.4275,5.377501 A 53.971265,53.971265 0 0 0 -13.97,64 a 53.971265,53.971265 0 0 0 0.29,5.385 53.971265,53.971265 0 0 0 0.7125,4.7625 53.971265,53.971265 0 0 0 1.2775,5.24 53.971265,53.971265 0 0 0 0,0.0025 53.971265,53.971265 0 0 0 1.7949997,5.084999 53.971265,53.971265 0 0 0 2.2925005,4.885 53.971265,53.971265 0 0 0 2.7699993,4.630001 53.971265,53.971265 0 0 0 3.2175002,4.329999 53.971265,53.971265 0 0 0 0.0025,0 A 53.971265,53.971265 0 0 0 2.02,102.3075 a 53.971265,53.971265 0 0 0 4.0150003,3.6025 53.971265,53.971265 0 0 0 4.3524997,3.1875 53.971265,53.971265 0 0 0 4.65,2.735 53.971265,53.971265 0 0 0 4.9,2.255 53.971265,53.971265 0 0 0 5.1025,1.7575 53.971265,53.971265 0 0 0 5.249999,1.2375 53.971265,53.971265 0 0 0 0.0025,0.002 53.971265,53.971265 0 0 0 5.3475,0.7075 53.971265,53.971265 0 0 0 4.36,0.1775 53.971265,53.971265 0 0 0 5.385,-0.305 53.971265,53.971265 0 0 0 2.3175,-0.3 53.971265,53.971265 0 0 0 5.2925,-1.0425 53.971265,53.971265 0 0 0 5.1625,-1.5675 53.971265,53.971265 0 0 0 4.98,-2.075 53.971265,53.971265 0 0 0 4.7475,-2.56 53.971265,53.971265 0 0 0 4.4675,-3.0225 53.971265,53.971265 0 0 0 0.0025,-0.002 53.971265,53.971265 0 0 0 4.1425,-3.4525 53.971265,53.971265 0 0 0 3.78,-3.85 53.971265,53.971265 0 0 0 3.375,-4.2075 A 53.971265,53.971265 0 0 0 85.510001,92.84 53.971265,53.971265 0 0 0 88.18,88.1525 53.971265,53.971265 0 0 0 90.3675,83.22 53.971265,53.971265 0 0 0 92.049999,78.0975 53.971265,53.971265 0 0 0 93.215,72.830001 a 53.971265,53.971265 0 0 0 0.6325,-5.36 A 53.971265,53.971265 0 0 0 93.969999,64 53.971265,53.971265 0 0 0 93.7025,58.6125 53.971265,53.971265 0 0 0 92.895,53.2775 53.971265,53.971265 0 0 0 91.5625,48.049999 53.971265,53.971265 0 0 0 89.7125,42.9825 53.971265,53.971265 0 0 0 87.365,38.125 53.971265,53.971265 0 0 0 84.545,33.527499 53.971265,53.971265 0 0 0 81.28,29.2325 a 53.971265,53.971265 0 0 0 -0.0025,0 53.971265,53.971265 0 0 0 -3.675,-3.95 53.971265,53.971265 0 0 0 -4.055,-3.56 A 53.971265,53.971265 0 0 0 69.16,18.585 53.971265,53.971265 0 0 0 64.48,15.9025 53.971265,53.971265 0 0 0 59.5575,13.695 53.971265,53.971265 0 0 0 54.4375,11.995 53.971265,53.971265 0 0 0 49.175,10.8125 53.971265,53.971265 0 0 0 43.8175,10.165 53.971265,53.971265 0 0 0 40,10.03 Z"
     id="path1046" />
  <path
     style="fill:#000000;fill-opacity:1;stroke-width:0.723164"
     d="M 40,0 A 64,64 0 0 0 -15.2425,31.84 64,64 0 0 0 -24,64 64,64 0 0 0 -22.81,76.0325 64,64 0 0 0 40,128 64,64 0 0 0 49.1325,127.2825 64,64 0 0 0 93.9675,98.2 64,64 0 0 0 104,64 64,64 0 0 0 40,0 Z m 0,10.03 a 53.971265,53.971265 0 0 1 3.8175,0.135 53.971265,53.971265 0 0 1 5.3575,0.6475 53.971265,53.971265 0 0 1 5.2625,1.1825 53.971265,53.971265 0 0 1 5.12,1.7 53.971265,53.971265 0 0 1 4.9225,2.2075 53.971265,53.971265 0 0 1 4.68,2.6825 53.971265,53.971265 0 0 1 4.3875,3.1375 53.971265,53.971265 0 0 1 4.055,3.56 53.971265,53.971265 0 0 1 3.675,3.95 53.971265,53.971265 0 0 0 0.0025,0 53.971265,53.971265 0 0 1 3.265,4.295 53.971265,53.971265 0 0 1 2.82,4.5975 53.971265,53.971265 0 0 1 2.3475,4.8575 53.971265,53.971265 0 0 1 1.85,5.067499 53.971265,53.971265 0 0 1 1.3325,5.227501 53.971265,53.971265 0 0 1 0.8075,5.335 A 53.971265,53.971265 0 0 1 93.969999,64 53.971265,53.971265 0 0 1 93.8475,67.470001 53.971265,53.971265 0 0 1 93.215,72.830001 53.971265,53.971265 0 0 1 92.049999,78.0975 53.971265,53.971265 0 0 1 90.3675,83.22 53.971265,53.971265 0 0 1 88.18,88.1525 53.971265,53.971265 0 0 1 85.510001,92.84 53.971265,53.971265 0 0 1 83.6525,95.585 a 53.971265,53.971265 0 0 1 -3.375,4.2075 53.971265,53.971265 0 0 1 -3.78,3.85 53.971265,53.971265 0 0 1 -4.1425,3.4525 53.971265,53.971265 0 0 0 -0.0025,0.002 53.971265,53.971265 0 0 1 -4.4675,3.0225 53.971265,53.971265 0 0 1 -4.7475,2.56 53.971265,53.971265 0 0 1 -4.98,2.075 53.971265,53.971265 0 0 1 -5.1625,1.5675 53.971265,53.971265 0 0 1 -5.2925,1.0425 53.971265,53.971265 0 0 1 -2.3175,0.3 53.971265,53.971265 0 0 1 -5.385,0.305 53.971265,53.971265 0 0 1 -4.36,-0.1775 53.971265,53.971265 0 0 1 -5.3475,-0.7075 53.971265,53.971265 0 0 0 -0.0025,-0.002 53.971265,53.971265 0 0 1 -5.249999,-1.2375 53.971265,53.971265 0 0 1 -5.1025,-1.7575 53.971265,53.971265 0 0 1 -4.9,-2.255 53.971265,53.971265 0 0 1 -4.65,-2.735 A 53.971265,53.971265 0 0 1 6.0350003,105.91 53.971265,53.971265 0 0 1 2.02,102.3075 53.971265,53.971265 0 0 1 -1.6125005,98.32 a 53.971265,53.971265 0 0 0 -0.0025,0 53.971265,53.971265 0 0 1 -3.2175,-4.329999 A 53.971265,53.971265 0 0 1 -7.6024998,89.36 53.971265,53.971265 0 0 1 -9.8950003,84.475 53.971265,53.971265 0 0 1 -11.69,79.390001 a 53.971265,53.971265 0 0 0 0,-0.0025 53.971265,53.971265 0 0 1 -1.2775,-5.24 A 53.971265,53.971265 0 0 1 -13.68,69.385 53.971265,53.971265 0 0 1 -13.97,64 a 53.971265,53.971265 0 0 1 0.0225,-1.449999 53.971265,53.971265 0 0 1 0.4275,-5.377501 53.971265,53.971265 0 0 1 0.96,-5.3075 53.971265,53.971265 0 0 0 0,-0.0025 53.971265,53.971265 0 0 1 1.4875,-5.185 53.971265,53.971265 0 0 1 1.9974997,-5.01 53.971265,53.971265 0 0 0 0.0025,-0.0025 53.971265,53.971265 0 0 1 2.485001,-4.7875 53.971265,53.971265 0 0 1 1.2074995,-1.975 53.971265,53.971265 0 0 1 3.1300006,-4.392499 53.971265,53.971265 0 0 0 0.0025,0 A 53.971265,53.971265 0 0 1 1.3074995,26.4525 53.971265,53.971265 0 0 1 5.2499994,22.769999 53.971265,53.971265 0 0 1 9.54,19.4975 a 53.971265,53.971265 0 0 1 4.5925,-2.825 53.971265,53.971265 0 0 1 4.855,-2.355 53.971265,53.971265 0 0 1 5.065,-1.8575 53.971265,53.971265 0 0 1 5.225,-1.34 53.971265,53.971265 0 0 1 5.335,-0.815 A 53.971265,53.971265 0 0 1 40,10.03 Z"
     id="path931" />
  <g
     id="g1040"
     transform="matrix(2.1903211,0,0,2.1903211,352.70429,50.361485)">
    <circle
       r="3.2849729"
       cy="-5.2610111"
       cx="-142.64935"
       id="path1023"
       style="opacity:1;fill:#000000;fill-opacity:1;stroke:none;stroke-width:22.5557;stroke-linecap:round;stroke-linejoin:round;stroke-miterlimit:4;stroke-dasharray:none;stroke-dashoffset:0;stroke-opacity:1" />
    <rect
       ry="0"
       rx="0"
       y="3.9669251"
       x="-154.92761"
       height="4.8372297"
       width="24.322409"
       id="rect1033"
       style="opacity:1;fill:#000000;fill-opacity:1;stroke:none;stroke-width:15.8808;stroke-linecap:round;stroke-linejoin:round;stroke-miterlimit:4;stroke-dasharray:none;stroke-dashoffset:0;stroke-opacity:1" />
    <rect
       transform="rotate(90)"
       style="opacity:1;fill:#000000;fill-opacity:1;stroke:none;stroke-width:13.5706;stroke-linecap:round;stroke-linejoin:round;stroke-miterlimit:4;stroke-dasharray:none;stroke-dashoffset:0;stroke-opacity:1"
       id="rect1035"
       width="15.192989"
       height="5.6547894"
       x="5.8064346"
       y="139.93901"
       rx="0"
       ry="0" />
  </g>
</svg>
