<?xml version="1.0" encoding="UTF-8" standalone="no"?>
<svg
   width="128"
   height="128"
   viewBox="0 0 128 128"
   fill="none"
   version="1.1"
   id="svg12"
   sodipodi:docname="tribe.svg"
   inkscape:version="1.1.2 (b8e25be833, 2022-02-05)"
   xmlns:inkscape="http://www.inkscape.org/namespaces/inkscape"
   xmlns:sodipodi="http://sodipodi.sourceforge.net/DTD/sodipodi-0.dtd"
   xmlns="http://www.w3.org/2000/svg"
   xmlns:svg="http://www.w3.org/2000/svg">
  <defs
     id="defs16" />
  <sodipodi:namedview
     id="namedview14"
     pagecolor="#ffffff"
     bordercolor="#999999"
     borderopacity="1"
     inkscape:pageshadow="0"
     inkscape:pageopacity="0"
     inkscape:pagecheckerboard="0"
     showgrid="false"
     fit-margin-top="0"
     fit-margin-left="0"
     fit-margin-right="0"
     fit-margin-bottom="0"
     inkscape:zoom="1"
     inkscape:cx="33.5"
     inkscape:cy="51.5"
     inkscape:window-width="1280"
     inkscape:window-height="658"
     inkscape:window-x="-6"
     inkscape:window-y="-6"
     inkscape:window-maximized="1"
     inkscape:current-layer="svg12" />
  <circle
     cx="64"
     cy="64"
     r="64"
     fill="#178dd0"
     id="circle4"
     style="stroke-width:4" />
  <path
     d="m 29.85072,66.4956 c 0.33048,-2.9464 0.49568,-4.42 1.78344,-5.4532 1.28776,-1.0332 2.75784,-0.8756 5.69804,-0.5608 1.32708,0.1424 2.8674,0.3264 4.6306,0.5648 1.5496,0.2096 2.9608,0.534 4.2276,0.9184 2.5832,0.7844 3.8752,1.1764 5.8424,3.8296 C 54,68.4476 54,70.5808 54,74.8476 c 0,2.6268 0,5.96 0,10.1524 0,5.8904 0,10.0844 0,13.006 0,2.8244 0,4.2368 -0.8788,5.1152 C 52.2428,104 50.8288,104 48.0016,104 c -2.1672,0 -4.6572,0 -7.0016,0 -0.1624,0 -0.3232,0 -0.4828,0 -4.648,-0.002 -6.97196,-0.003 -8.69132,-1.5788 -1.71936,-1.576 -1.91024,-3.7544 -2.29192,-8.1116 C 29.23472,90.8944 29,86.7132 29,82 29,75.7044 29.41876,70.3472 29.85072,66.4956 Z"
     fill="#ffffff"
     id="path6"
     style="stroke-width:4" />
  <path
     d="m 97.1492,66.4956 c -0.3304,-2.9464 -0.4956,-4.42 -1.7832,-5.4532 -1.288,-1.0332 -2.758,-0.8756 -5.698,-0.5608 -1.3272,0.1424 -2.8676,0.3264 -4.6308,0.5648 -1.5496,0.2096 -2.9608,0.534 -4.2276,0.9184 -2.5832,0.7844 -3.8752,1.1764 -5.8424,3.8296 C 73,68.4476 73,70.5808 73,74.8476 c 0,2.6268 0,5.96 0,10.1524 0,5.8904 0,10.0844 0,13.006 0,2.8244 0,4.2368 0.8788,5.1152 C 74.7572,104 76.1712,104 78.9984,104 c 2.1672,0 4.6572,0 7.0016,0 0.1624,0 0.3232,0 0.4828,0 4.648,-0.002 6.972,-0.003 8.6912,-1.5788 1.7196,-1.576 1.9104,-3.7544 2.292,-8.1116 C 97.7652,90.8944 98,86.7132 98,82 98,75.7044 97.5812,70.3472 97.1492,66.4956 Z"
     fill="#ffffff"
     id="path8"
     style="stroke-width:4" />
  <path
     d="m 30,34.04172 c 0,-4.60552 0,-6.90828 1.33128,-8.55748 0.16928,-0.20968 0.36848,-0.4242 0.56508,-0.60852 C 33.4426,23.42612 35.67908,23.26028 40.152,22.9286 46.4008,22.46524 54.9328,22 64,22 c 9.0672,0 17.5992,0.46524 23.848,0.9286 4.4728,0.33168 6.7092,0.49752 8.2556,1.94712 0.1968,0.18432 0.396,0.39884 0.5652,0.60852 C 98,27.13344 98,29.4362 98,34.04172 v 0 c 0,4.56716 0,6.85068 -1.3304,8.49948 -0.168,0.2088 -0.3692,0.4252 -0.5644,0.6084 -1.5452,1.4496 -3.7528,1.6148 -8.1684,1.9448 C 81.8456,45.55 73.4404,46 64,46 54.5596,46 46.1544,45.55 40.0632,45.0944 35.6476,44.7644 33.43988,44.5992 31.89484,43.1496 31.6994,42.9664 31.49848,42.75 31.3302,42.5412 30,40.8924 30,38.60888 30,34.04172 Z"
     fill="#ffffff"
     id="path10"
     style="stroke-width:4" />
</svg>
