<svg width="24" height="24" viewBox="0 0 24 24" fill="none" xmlns="http://www.w3.org/2000/svg">
<path d="M12 24C18.6274 24 24 18.6274 24 12C24 5.37258 18.6274 0 12 0C5.37258 0 0 5.37258 0 12C0 18.6274 5.37258 24 12 24Z" fill="black"/>
<path d="M12 24C18.6274 24 24 18.6274 24 12C24 5.37258 18.6274 0 12 0C5.37258 0 0 5.37258 0 12C0 18.6274 5.37258 24 12 24Z" fill="#FF007A"/>
<path style="mix-blend-mode:soft-light" d="M12 24C18.6274 24 24 18.6274 24 12C24 5.37258 18.6274 0 12 0C5.37258 0 0 5.37258 0 12C0 18.6274 5.37258 24 12 24Z" fill="url(#paint0_linear)"/>
<path d="M23.5001 12.0001C23.5001 18.3514 18.3514 23.5002 12 23.5002C5.64871 23.5002 0.499939 18.3514 0.499939 12.0001C0.499939 5.64877 5.64871 0.5 12 0.5C18.3514 0.5 23.5001 5.64877 23.5001 12.0001Z" stroke="black" stroke-opacity="0.097"/>
<g filter="url(#filter0_d)">
<path d="M9.00894 3.81359C8.78094 3.77839 8.77134 3.77359 8.87854 3.75759C9.08414 3.72559 9.57054 3.76959 9.90574 3.84879C10.6873 4.03519 11.3985 4.51119 12.1585 5.35679L12.3601 5.58079L12.6481 5.53519C13.8641 5.33919 15.1017 5.49519 16.1361 5.97279C16.4209 6.10399 16.8697 6.36559 16.9257 6.43359C16.9441 6.45439 16.9769 6.59279 16.9985 6.73999C17.0753 7.24959 17.0369 7.63999 16.8817 7.93199C16.7969 8.09039 16.7921 8.13999 16.8489 8.27599C16.8759 8.33217 16.9181 8.37964 16.9707 8.41302C17.0233 8.4464 17.0842 8.46434 17.1465 8.46479C17.4041 8.46479 17.6809 8.04879 17.8089 7.47039L17.8601 7.24079L17.9609 7.35519C18.5145 7.98239 18.9489 8.83759 19.0233 9.44559L19.0433 9.60479L18.9497 9.46079C18.7897 9.21279 18.6297 9.04319 18.4233 8.90639C18.0521 8.66079 17.6593 8.57759 16.6193 8.52239C15.6801 8.47279 15.1481 8.39279 14.6217 8.22079C13.7249 7.92879 13.2729 7.53919 12.2073 6.14159C11.7345 5.52079 11.4417 5.17759 11.1513 4.90159C10.4897 4.27279 9.84014 3.94319 9.00894 3.81359Z" fill="white"/>
<path d="M17.1381 5.19973C17.1621 4.78372 17.2181 4.50932 17.3317 4.25892C17.3765 4.15972 17.4189 4.07812 17.4253 4.07812C17.4181 4.13428 17.4033 4.1892 17.3813 4.24133C17.2989 4.48452 17.2853 4.81733 17.3421 5.20373C17.4141 5.69493 17.4557 5.76532 17.9741 6.29572C18.2181 6.54452 18.5013 6.85812 18.6037 6.99332L18.7901 7.23812L18.6037 7.06293C18.3757 6.84932 17.8509 6.43093 17.7349 6.37173C17.6573 6.33173 17.6453 6.33253 17.5973 6.37972C17.5533 6.42453 17.5437 6.49013 17.5381 6.80293C17.5285 7.28933 17.4621 7.60293 17.3013 7.91493C17.2149 8.08292 17.2013 8.04773 17.2797 7.85653C17.3381 7.71413 17.3437 7.65172 17.3437 7.18052C17.3437 6.23332 17.2309 6.00612 16.5709 5.61572C16.3723 5.50049 16.1683 5.39477 15.9597 5.29893C15.8566 5.25758 15.7566 5.20892 15.6605 5.15332C15.6789 5.13492 16.3221 5.32212 16.5805 5.42212C16.9661 5.57012 17.0293 5.58933 17.0765 5.57093C17.1077 5.55893 17.1229 5.46773 17.1381 5.19973ZM9.45247 6.81973C8.98927 6.18213 8.70287 5.20372 8.76447 4.47253L8.78367 4.24613L8.88927 4.26532C9.08767 4.30132 9.42927 4.42852 9.58927 4.52612C10.0277 4.79252 10.2181 5.14373 10.4109 6.04453C10.4677 6.30853 10.5421 6.60693 10.5765 6.70853C10.6309 6.87093 10.8389 7.25093 11.0085 7.49813C11.1301 7.67573 11.0485 7.75973 10.7797 7.73573C10.3685 7.69813 9.81167 7.31413 9.45247 6.81973ZM16.5765 11.5677C14.4109 10.6957 13.6485 9.93893 13.6485 8.66213C13.6485 8.47412 13.6549 8.32053 13.6621 8.32053C13.6701 8.32053 13.7541 8.38212 13.8485 8.45813C14.2877 8.81012 14.7797 8.96053 16.1405 9.15893C16.9413 9.27653 17.3925 9.37092 17.8085 9.50852C19.1301 9.94692 19.9477 10.8365 20.1429 12.0477C20.1989 12.3997 20.1661 13.0597 20.0741 13.4077C20.0021 13.6829 19.7805 14.1781 19.7221 14.1973C19.7061 14.2021 19.6901 14.1405 19.6853 14.0549C19.6629 13.6005 19.4333 13.1573 19.0469 12.8253C18.6077 12.4485 18.0181 12.1477 16.5757 11.5677H16.5765ZM15.0565 11.9293C15.0309 11.7748 14.9959 11.622 14.9517 11.4717L14.8957 11.3069L14.9989 11.4221C15.1405 11.5821 15.2533 11.7853 15.3477 12.0573C15.4205 12.2645 15.4285 12.3261 15.4277 12.6629C15.4277 12.9941 15.4189 13.0629 15.3517 13.2501C15.2582 13.5246 15.1018 13.7734 14.8949 13.9765C14.4989 14.3797 13.9909 14.6021 13.2565 14.6949C13.1285 14.7109 12.7573 14.7381 12.4301 14.7549C11.6061 14.7981 11.0645 14.8861 10.5773 15.0573C10.5333 15.077 10.4861 15.0884 10.4381 15.0909C10.4189 15.0709 10.7501 14.8733 11.0245 14.7413C11.4109 14.5549 11.7949 14.4533 12.6565 14.3101C13.0821 14.2389 13.5221 14.1533 13.6333 14.1189C14.6877 13.7957 15.2293 12.9621 15.0557 11.9293H15.0565Z" fill="white"/>
<path d="M16.0477 13.6923C15.7597 13.0739 15.6941 12.4763 15.8517 11.9195C15.8685 11.8603 15.8957 11.8115 15.9117 11.8115C15.9659 11.8311 16.0168 11.8586 16.0629 11.8931C16.1957 11.9827 16.4613 12.1331 17.1693 12.5187C18.0533 13.0011 18.5573 13.3747 18.9005 13.8003C19.2005 14.1739 19.3861 14.5995 19.4757 15.1179C19.5261 15.4115 19.4965 16.1179 19.4213 16.4139C19.1837 17.3467 18.6309 18.0795 17.8437 18.5067C17.7694 18.5497 17.6925 18.5879 17.6133 18.6211C17.6021 18.6211 17.6437 18.5147 17.7069 18.3835C17.9709 17.8299 18.0021 17.2907 17.8013 16.6907C17.6789 16.3235 17.4285 15.8747 16.9237 15.1179C16.3365 14.2379 16.1925 14.0027 16.0477 13.6923ZM7.91413 17.0291C8.71813 16.3507 9.71733 15.8691 10.6285 15.7211C11.0205 15.6571 11.6749 15.6827 12.0381 15.7755C12.6205 15.9243 13.1421 16.2587 13.4133 16.6563C13.6773 17.0451 13.7917 17.3843 13.9093 18.1379C13.9573 18.4355 14.0077 18.7339 14.0229 18.8019C14.1109 19.1923 14.2845 19.5051 14.4989 19.6619C14.8389 19.9107 15.4253 19.9259 16.0013 19.7019C16.0615 19.6743 16.1249 19.6544 16.1901 19.6427C16.2109 19.6635 15.9213 19.8579 15.7165 19.9603C15.4749 20.0897 15.2042 20.1552 14.9301 20.1507C14.4021 20.1507 13.9637 19.8827 13.5981 19.3347C13.5261 19.2267 13.3645 18.9043 13.2381 18.6171C12.8525 17.7371 12.6621 17.4683 12.2141 17.1747C11.8229 16.9187 11.3197 16.8731 10.9413 17.0587C10.4437 17.3027 10.3053 17.9387 10.6613 18.3411C10.8029 18.5011 11.0669 18.6395 11.2829 18.6659C11.3772 18.6784 11.473 18.6705 11.5639 18.6428C11.6548 18.6151 11.7387 18.5681 11.8099 18.5052C11.8811 18.4422 11.938 18.3647 11.9767 18.2779C12.0154 18.1911 12.035 18.097 12.0341 18.0019C12.0341 17.7363 11.9317 17.5859 11.6757 17.4699C11.3261 17.3123 10.9501 17.4963 10.9517 17.8251C10.9525 17.9651 11.0133 18.0531 11.1541 18.1171C11.2445 18.1571 11.2461 18.1611 11.1725 18.1459C10.8517 18.0787 10.7765 17.6923 11.0349 17.4355C11.3445 17.1267 11.9853 17.2627 12.2053 17.6835C12.2981 17.8603 12.3085 18.2131 12.2277 18.4259C12.0477 18.9019 11.5213 19.1515 10.9877 19.0155C10.6245 18.9227 10.4765 18.8227 10.0389 18.3715C9.27813 17.5875 8.98293 17.4355 7.88533 17.2643L7.67493 17.2315L7.91493 17.0291H7.91413Z" fill="white"/>
<path fill-rule="evenodd" clip-rule="evenodd" d="M4.66334 2.49993C7.37934 5.83113 8.76814 7.53993 8.83054 7.62473C8.99054 7.84713 8.93054 8.04633 8.65534 8.20313C8.50254 8.29033 8.18734 8.37833 8.03054 8.37833C7.85214 8.37833 7.65134 8.29273 7.50494 8.15433C7.40174 8.05593 6.98494 7.43353 6.02254 5.93993C5.57187 5.234 5.11532 4.53185 4.65294 3.83353C4.61374 3.79673 4.61454 3.79753 5.94734 6.18233C6.78414 7.67993 7.06734 8.20873 7.06734 8.27993C7.06734 8.42393 7.02734 8.49913 6.84974 8.69753C6.55374 9.02793 6.42174 9.39913 6.32574 10.1671C6.21854 11.0287 5.91774 11.6367 5.08254 12.6775C4.59454 13.2871 4.51454 13.3991 4.39054 13.6447C4.23534 13.9535 4.19294 14.1271 4.17534 14.5175C4.15694 14.9303 4.19294 15.1975 4.31934 15.5919C4.42974 15.9375 4.54494 16.1663 4.83934 16.6223C5.09374 17.0167 5.24014 17.3095 5.24014 17.4239C5.24014 17.5151 5.25774 17.5151 5.65214 17.4263C6.59534 17.2135 7.36094 16.8383 7.79214 16.3791C8.05854 16.0951 8.12094 15.9383 8.12334 15.5487C8.12414 15.2943 8.11534 15.2407 8.04654 15.0943C7.93454 14.8559 7.73054 14.6575 7.28094 14.3503C6.69134 13.9471 6.44014 13.6223 6.37054 13.1767C6.31294 12.8111 6.37934 12.5527 6.70574 11.8695C7.04254 11.1623 7.12654 10.8615 7.18334 10.1487C7.21934 9.68793 7.26974 9.50633 7.40254 9.36073C7.54014 9.20873 7.66494 9.15673 8.00654 9.11033C8.56334 9.03433 8.91774 8.89033 9.20894 8.62233C9.46174 8.38873 9.56734 8.16393 9.58334 7.82633L9.59614 7.57033L9.45454 7.40553C9.32654 7.25593 7.79774 5.56873 4.86894 2.34473L4.66414 2.49993H4.66334ZM5.52734 14.9847C5.58316 14.8859 5.59982 14.7697 5.57404 14.6592C5.54826 14.5487 5.48192 14.4519 5.38814 14.3879C5.20574 14.2663 4.92174 14.3239 4.92174 14.4823C4.92174 14.5303 4.94814 14.5655 5.00814 14.5967C5.10974 14.6487 5.11694 14.7079 5.03774 14.8271C4.95694 14.9487 4.96334 15.0559 5.05614 15.1287C5.20494 15.2455 5.41614 15.1807 5.52814 14.9847H5.52734ZM9.94734 9.24473C9.68574 9.32473 9.43214 9.60233 9.35294 9.89273C9.30494 10.0695 9.33214 10.3807 9.40414 10.4767C9.52014 10.6319 9.63294 10.6727 9.93694 10.6703C10.5321 10.6663 11.0489 10.4111 11.1097 10.0919C11.1593 9.83033 10.9313 9.46793 10.6185 9.30793C10.4569 9.22633 10.1137 9.19353 9.94734 9.24473ZM10.6433 9.78873C10.7353 9.65833 10.6945 9.51673 10.5393 9.42233C10.2417 9.24073 9.79214 9.39033 9.79214 9.67193C9.79214 9.81113 10.0265 9.96393 10.2409 9.96393C10.3849 9.96393 10.5801 9.87833 10.6433 9.78873Z" fill="white"/>
</g>
<defs>
<filter id="filter0_d" x="3.17084" y="1.84473" width="17.9995" height="19.8062" filterUnits="userSpaceOnUse" color-interpolation-filters="sRGB">
<feFlood flood-opacity="0" result="BackgroundImageFix"/>
<feColorMatrix in="SourceAlpha" type="matrix" values="0 0 0 0 0 0 0 0 0 0 0 0 0 0 0 0 0 0 127 0"/>
<feOffset dy="0.5"/>
<feGaussianBlur stdDeviation="0.5"/>
<feColorMatrix type="matrix" values="0 0 0 0 0 0 0 0 0 0 0 0 0 0 0 0 0 0 0.204257 0"/>
<feBlend mode="normal" in2="BackgroundImageFix" result="effect1_dropShadow"/>
<feBlend mode="normal" in="SourceGraphic" in2="effect1_dropShadow" result="shape"/>
</filter>
<linearGradient id="paint0_linear" x1="12" y1="0" x2="12" y2="24" gradientUnits="userSpaceOnUse">
<stop stop-color="white" stop-opacity="0.5"/>
<stop offset="1" stop-opacity="0.5"/>
</linearGradient>
</defs>
</svg>
