<?xml version="1.0" encoding="UTF-8" standalone="no"?>
<svg
   width="128"
   height="128"
   viewBox="0 0 100 100"
   version="1.1"
   id="svg10"
   sodipodi:docname="uni.svg"
   inkscape:version="1.1.2 (b8e25be833, 2022-02-05)"
   xmlns:inkscape="http://www.inkscape.org/namespaces/inkscape"
   xmlns:sodipodi="http://sodipodi.sourceforge.net/DTD/sodipodi-0.dtd"
   xmlns="http://www.w3.org/2000/svg"
   xmlns:svg="http://www.w3.org/2000/svg"
   xmlns:rdf="http://www.w3.org/1999/02/22-rdf-syntax-ns#"
   xmlns:cc="http://creativecommons.org/ns#"
   xmlns:dc="http://purl.org/dc/elements/1.1/">
  <metadata
     id="metadata16">
    <rdf:RDF>
      <cc:Work
         rdf:about="">
        <dc:format>image/svg+xml</dc:format>
        <dc:type
           rdf:resource="http://purl.org/dc/dcmitype/StillImage" />
        <dc:title>uniswap</dc:title>
      </cc:Work>
    </rdf:RDF>
  </metadata>
  <defs
     id="defs14" />
  <sodipodi:namedview
     pagecolor="#ffffff"
     bordercolor="#666666"
     borderopacity="1"
     objecttolerance="10"
     gridtolerance="10"
     guidetolerance="10"
     inkscape:pageopacity="0"
     inkscape:pageshadow="2"
     inkscape:window-width="1280"
     inkscape:window-height="658"
     id="namedview12"
     showgrid="false"
     inkscape:zoom="4.72"
     inkscape:cx="49.682203"
     inkscape:cy="50.317797"
     inkscape:window-x="-6"
     inkscape:window-y="-6"
     inkscape:window-maximized="1"
     inkscape:current-layer="svg10"
     inkscape:pagecheckerboard="0"
     fit-margin-top="0"
     fit-margin-left="0"
     fit-margin-right="0"
     fit-margin-bottom="0" />
  <!-- Generator: Sketch 54.1 (76490) - https://sketchapp.com -->
  <title
     id="title2">uniswap</title>
  <desc
     id="desc4">Created with Sketch.</desc>
  <circle
     id="Oval"
     cx="50"
     cy="50"
     r="50"
     style="fill:#ffffff;fill-opacity:1;fill-rule:evenodd;stroke:none;stroke-width:1" />
  <path
     d="m 44.980135,73.009706 c -0.44289,-0.376136 -0.842955,-0.801154 -1.192519,-1.267105 -0.140159,-0.154703 -0.282745,-0.30729 -0.431397,-0.454333 -0.738444,-0.779036 -1.60987,-1.418758 -2.572644,-1.888762 -0.664081,-0.293205 -1.35882,-0.509778 -2.071372,-0.645553 -0.358348,-0.07496 -0.720858,-0.129111 -1.083349,-0.174924 -0.165709,-0.01666 -0.977687,-0.19783 -1.091612,-0.09162 1.120404,-1.03684 2.341707,-1.957899 3.645635,-2.748806 1.338728,-0.798819 2.77626,-1.416883 4.275312,-1.838783 1.554358,-0.439809 3.179971,-0.565171 4.782799,-0.36859 0.825027,0.09954 1.63307,0.309658 2.402792,0.624729 0.806385,0.323817 1.550836,0.786117 2.199797,1.366072 0.642333,0.608278 1.161418,1.336086 1.528672,2.142819 0.331419,0.755297 0.578741,1.545162 0.737409,2.355226 0.472273,2.421864 0.298278,6.176482 3.452977,6.730407 0.164468,0.03207 0.330384,0.0556 0.49713,0.07081 l 0.515772,0.01249 c 0.354619,-0.02541 0.706958,-0.07622 1.054328,-0.152018 0.719595,-0.170134 1.421168,-0.410863 2.094158,-0.718438 -0.292064,0.233233 -0.584128,0.481041 -0.905191,0.697614 -0.323133,0.214074 -0.661596,0.403366 -1.0129,0.566421 -0.731195,0.358593 -1.535301,0.541848 -2.348936,0.535184 -2.203941,-0.04165 -3.761612,-1.690933 -4.673016,-3.554705 -0.621411,-1.270281 -1.050185,-2.642602 -1.787594,-3.852492 -1.054329,-1.730498 -2.858494,-3.123643 -4.971294,-2.865421 -0.861691,0.108286 -1.669526,0.4977 -2.148013,1.249456 -1.259395,1.96373 0.548914,4.714618 2.854351,4.325204 0.196159,-0.02998 0.387968,-0.08308 0.571699,-0.158264 0.183109,-0.07851 0.353998,-0.182838 0.507487,-0.310282 0.322098,-0.269675 0.564862,-0.622438 0.702194,-1.020391 0.151418,-0.415027 0.185181,-0.864207 0.09736,-1.297352 -0.09466,-0.45272 -0.360419,-0.850673 -0.741552,-1.109934 0.443068,0.208451 0.788365,0.581831 0.963189,1.041214 0.181245,0.472711 0.228057,0.986863 0.134639,1.484772 -0.09051,0.518732 -0.317956,1.00352 -0.658697,1.403556 -0.181037,0.205744 -0.390246,0.384624 -0.621411,0.531018 -0.229093,0.14473 -0.474551,0.261345 -0.731195,0.347767 -0.520328,0.178672 -1.074213,0.236355 -1.619813,0.168676 -0.7662,-0.109744 -1.488902,-0.424816 -2.092085,-0.912104 -0.09044,-0.07189 -0.177936,-0.146596 -0.263105,-0.223549 z M 44.258011,72.26942 c -0.140561,-0.150606 -0.277725,-0.304453 -0.411375,-0.461411 0.137824,0.153312 0.273779,0.308217 0.411375,0.461411 z m 2.886956,-28.033975 c 1.340177,2.371885 -1.657099,3.106982 -3.063561,3.242341 -2.131441,0.208242 -2.572643,-1.026639 -2.156297,-2.578047 0.136502,-0.555383 0.439752,-1.055166 0.868525,-1.431253 0.428568,-0.376295 0.962152,-0.610984 1.528052,-0.672 0.557613,-0.05123 1.118126,0.05643 1.617535,0.310908 0.499408,0.254681 0.91741,0.645552 1.205746,1.128051 z m 8.366064,-4.385594 c 3.392908,3.642166 10.472859,1.795053 15.906068,5.17067 6.098119,3.785853 5.20743,11.14099 3.136057,13.848146 0.399775,-9.533355 -20.599797,-7.04069 -19.042125,-19.018816 z m 12.098885,-4.516787 c -0.13671,-0.127028 -0.277563,-0.251973 -0.414274,-0.376919 0.138782,0.127028 0.277564,0.260303 0.414274,0.376919 z m 4.876011,8.725374 -0.01243,-0.01874 C 72.283969,43.685684 72.067925,43.346664 71.827231,43.025555 71.119236,42.06139 70.10385,41.370441 68.950096,41.068072 68.182239,40.868783 67.39698,40.744671 66.605302,40.6974 c -0.80162,-0.05831 -1.619813,-0.09163 -2.44629,-0.135358 -1.657098,-0.09163 -3.353552,-0.262387 -5.010649,-0.73718 -0.414274,-0.118698 -0.828549,-0.247808 -1.228324,-0.403991 -0.207137,-0.07496 -0.399775,-0.156182 -0.604841,-0.243644 -0.205066,-0.08746 -0.414274,-0.187418 -0.621411,-0.293622 -0.779043,-0.42898 -1.500917,-0.956043 -2.148014,-1.568069 -1.275965,-1.193231 -2.278509,-2.546809 -3.283124,-3.858738 -0.947032,-1.316929 -1.963453,-2.582004 -3.044918,-3.789979 -1.066963,-1.183318 -2.328014,-2.173659 -3.728469,-2.927894 -1.449961,-0.734222 -3.024825,-1.186401 -4.641945,-1.332754 1.677604,-0.183107 3.374471,0.02497 4.958865,0.60807 1.598892,0.62402 3.060659,1.557197 4.30224,2.746722 0.810735,0.764355 1.571964,1.580313 2.278509,2.442646 5.261285,-1.041213 9.528312,-0.116614 12.807294,1.678438 l 0.07457,0.03748 c 1.043765,0.569128 2.021867,1.252164 2.916493,2.036615 0.142924,0.124946 0.283778,0.249891 0.414274,0.376919 0.698467,0.645136 1.348671,1.341292 1.945019,2.082428 l 0.04557,0.06039 c 1.936733,2.465596 2.893707,5.029064 2.895778,6.582555 z M 40.114315,26.955352 c 1.342249,0.195748 2.711426,0.733015 3.59383,1.75757 0.882405,1.024554 1.20761,2.357412 1.462389,3.625611 0.207137,0.982905 0.370776,1.984554 0.756051,2.915399 0.186423,0.45397 0.459845,0.851713 0.687697,1.280694 0.188493,0.356094 0.532341,0.67658 0.664909,1.057665 0.02382,0.05477 0.03252,0.11495 0.02569,0.174091 -0.0069,0.05935 -0.02941,0.115574 -0.06504,0.16347 -0.46813,0.520608 -1.731667,-0.05831 -2.208084,-0.291539 -0.823576,-0.410447 -1.561193,-0.976035 -2.172869,-1.665943 -1.911876,-2.134489 -2.899921,-5.206071 -2.839851,-8.002876 0.01326,-0.33954 0.04516,-0.678101 0.09528,-1.014142 z m 22.452017,24.066725 c 3.421908,2.367722 8.848902,3.977438 10.684138,8.394269 2.0983,5.031146 -0.30242,11.37214 -5.358639,13.471227 4.927794,-8.271405 -8.22542,-13.729449 -5.325499,-21.865496 z M 45.16867,61.663285 c 0.790229,-0.598907 1.654198,-1.092234 2.570573,-1.468111 0.926939,-0.373172 1.888677,-0.652216 2.870922,-0.832971 1.949161,-0.372755 3.877609,-0.464382 5.497422,-1.120347 0.800378,-0.314238 1.536751,-0.772997 2.17287,-1.353579 0.61561,-0.575166 1.087056,-1.288814 1.37539,-2.082427 0.295377,-0.837345 0.41531,-1.727166 0.352133,-2.613447 -0.07312,-0.952087 -0.287506,-1.887722 -0.63591,-2.775877 0.72208,0.75488 1.247793,1.677188 1.530536,2.685083 0.28295,1.008103 0.314227,2.070558 0.09135,3.093655 -0.253536,1.082862 -0.800585,2.074098 -1.580457,2.863338 -0.772001,0.764668 -1.703082,1.347748 -2.725926,1.707591 -0.976237,0.344226 -1.99411,0.554343 -3.026275,0.624728 -0.994258,0.0833 -1.955375,0.106204 -2.89992,0.162431 -1.909806,0.08059 -3.795791,0.454802 -5.592706,1.109933 z M 42.560813,39.143908 c -0.114961,0.443765 -0.31547,0.860668 -0.590341,1.22655 -0.51163,0.667627 -1.188968,1.188234 -1.963661,1.50976 -0.697017,0.301952 -1.435048,0.497076 -2.189503,0.578916 -0.163639,0.02082 -0.333471,0.03332 -0.497109,0.04582 -0.477865,0.01833 -0.937357,0.189917 -1.31122,0.489579 -0.373841,0.299869 -0.642415,0.711982 -0.766387,1.176364 -0.05676,0.23094 -0.09895,0.465422 -0.126333,0.701778 -0.07457,0.612234 -0.087,1.249457 -0.153281,2.019955 -0.162313,1.311097 -0.539593,2.586168 -1.11649,3.77336 -0.749837,1.58681 -1.590794,2.865421 -1.396084,4.693792 0.128424,1.186985 0.733244,1.982472 1.536936,2.802949 1.449961,1.491018 4.695863,2.157395 3.970821,5.830799 -0.437059,2.192797 -4.053675,4.493879 -9.136822,5.297697 0.505414,-0.07705 -0.648339,-2.03245 -0.720839,-2.157395 -0.544769,-0.857961 -1.141304,-1.665943 -1.574221,-2.596789 -0.849263,-1.805464 -1.242843,-3.89414 -0.894854,-5.872447 0.366634,-2.082428 1.899469,-3.677568 3.173363,-5.268544 1.516245,-1.892926 3.107037,-4.373099 3.459172,-6.830364 0.08285,-0.595574 0.140852,-1.341083 0.27342,-2.082427 0.126395,-0.82131 0.382314,-1.617006 0.758123,-2.357309 0.256518,-0.485414 0.594255,-0.922933 0.998401,-1.293188 0.210721,-0.196581 0.349752,-0.45855 0.394804,-0.744051 0.04508,-0.285293 -0.0064,-0.577667 -0.14624,-0.830264 L 26.439261,24.606456 38.078364,39.046034 c 0.132567,0.167219 0.299934,0.303201 0.490706,0.398159 0.190567,0.09496 0.399776,0.146604 0.612506,0.150977 0.212729,0.0046 0.423802,-0.0379 0.618305,-0.124529 0.194502,-0.08663 0.367668,-0.215323 0.507278,-0.376712 0.147482,-0.172842 0.230959,-0.391496 0.236552,-0.619105 0.0058,-0.227609 -0.0669,-0.450221 -0.205481,-0.630351 -0.760193,-0.976659 -1.563886,-1.972061 -2.342722,-2.950801 l -2.928961,-3.644249 -5.878575,-7.276005 -9.541257,-11.988826 10.295236,11.337006 6.257615,6.955331 3.12162,3.485985 c 1.035686,1.172407 2.071373,2.30733 3.107059,3.540127 l 0.169852,0.208243 0.03729,0.322777 c 0.05034,0.437726 0.02528,0.880866 -0.07457,1.309847 z"
     id="Combined-Shape"
     inkscape:connector-curvature="0"
     style="fill:#ff007a;fill-rule:nonzero;stroke:none;stroke-width:0.854006"
     sodipodi:nodetypes="ccccccccccccccccccccccccccccccccccccccccccccccccccccccccccccccccscccccccccccccccccccccccccccccccccccccccccccccccccccccccccccccccccccccccccccccccccccccccccccccccc" />
</svg>
