<svg width="24" height="24" viewBox="0 0 24 24" fill="none" xmlns="http://www.w3.org/2000/svg">
<path d="M12 24C18.6274 24 24 18.6274 24 12C24 5.37258 18.6274 0 12 0C5.37258 0 0 5.37258 0 12C0 18.6274 5.37258 24 12 24Z" fill="#F5F5F5"/>
<path d="M23.5 12C23.5 18.3513 18.3513 23.5 12 23.5C5.64873 23.5 0.5 18.3513 0.5 12C0.5 5.64873 5.64873 0.5 12 0.5C18.3513 0.5 23.5 5.64873 23.5 12Z" stroke="black" stroke-opacity="0.097"/>
<path d="M5 15.1791C5.02293 15.14 5.01982 15.0946 5.03022 15.0524C5.06665 14.9043 5.13211 14.7709 5.22994 14.6543C6.21868 13.4754 7.20775 12.2969 8.19682 11.1181C8.27943 11.0197 8.35957 10.9191 8.44475 10.823C8.72398 10.5079 9.07188 10.3889 9.47689 10.5062C9.88394 10.6241 10.1215 10.9107 10.1811 11.3295C10.2221 11.6177 10.1351 11.8756 9.94705 12.0996C8.88523 13.364 7.82373 14.6287 6.7632 15.8941C6.56894 16.1258 6.32358 16.2572 6.02207 16.2675C5.52105 16.2845 5.11165 15.9332 5.02143 15.4719C5.01618 15.4454 5.02004 15.416 5.00011 15.3934C5 15.3219 5 15.2506 5 15.1791Z" fill="#7E37D7"/>
<path d="M18.8199 9.34043C18.799 9.38061 18.803 9.42583 18.7942 9.46847C18.7578 9.64366 18.6771 9.7957 18.5625 9.93231C17.5455 11.1432 16.5292 12.3547 15.5121 13.5655C15.4204 13.6747 15.3375 13.7925 15.222 13.8793C14.9175 14.108 14.583 14.159 14.2328 14.0131C13.8801 13.8661 13.6795 13.5908 13.6335 13.21C13.601 12.9398 13.6738 12.695 13.8472 12.4866C14.3425 11.891 14.8417 11.2989 15.3395 10.7054C15.9085 10.0271 16.4783 9.34965 17.046 8.67044C17.2655 8.40794 17.5415 8.27754 17.8851 8.28986C18.3267 8.30561 18.7325 8.66702 18.7993 9.10503C18.8047 9.14071 18.7996 9.17896 18.82 9.21186C18.8199 9.25482 18.8199 9.29757 18.8199 9.34043Z" fill="#7E37D7"/>
<path d="M13.9347 4.9375C14.0251 4.96118 14.1176 4.97511 14.2056 5.01015C14.8151 5.25294 15.0232 6.02011 14.6153 6.53312C14.4954 6.68388 14.374 6.8342 14.2436 6.97574C13.9622 7.2809 13.6128 7.3844 13.2178 7.26065C12.8243 7.13743 12.5911 6.85713 12.5309 6.44612C12.489 6.16036 12.5728 5.90653 12.7558 5.68495C12.8648 5.55295 12.9752 5.4218 13.086 5.2913C13.2485 5.09983 13.4548 4.98614 13.7032 4.94864C13.7133 4.94714 13.725 4.9495 13.7311 4.93761C13.7989 4.9375 13.8669 4.9375 13.9347 4.9375Z" fill="#7E37D7"/>
<path d="M7.55096 18.4748C6.98641 18.468 6.54904 18.0163 6.56564 17.4536C6.5725 17.2228 6.6565 17.0199 6.80512 16.843C7.87594 15.5674 8.94654 14.2917 10.017 13.0159C11.1048 11.7197 12.1922 10.4231 13.28 9.12683C14.0407 8.22027 14.7979 7.3107 15.5645 6.40907C15.8361 6.08977 16.1952 5.98862 16.5958 6.10948C16.9879 6.22788 17.2198 6.507 17.2845 6.91126C17.3307 7.2012 17.2491 7.46317 17.0601 7.68861C15.632 9.39138 14.2036 11.0938 12.775 12.7962C11.4991 14.3167 10.223 15.8371 8.94697 17.3575C8.73578 17.6091 8.52535 17.8612 8.31384 18.1124C8.11466 18.3489 7.85911 18.4677 7.55096 18.4748Z" fill="#06B4DC"/>
<path d="M14.6291 18.3602C14.0658 18.3611 13.6356 17.9592 13.6001 17.4449C13.5818 17.1792 13.6579 16.9435 13.828 16.7404C14.504 15.9328 15.1816 15.1266 15.8586 14.3199C16.1087 14.0219 16.3605 13.7251 16.6082 13.4251C16.8099 13.1807 17.0657 13.0483 17.3822 13.0399C17.8284 13.0281 18.2435 13.3494 18.3473 13.7872C18.4234 14.1081 18.3599 14.4021 18.1483 14.6556C17.5012 15.4314 16.8505 16.2043 16.2012 16.9782C15.9143 17.3201 15.6278 17.6623 15.3403 18.0035C15.1422 18.2385 14.8865 18.3529 14.6291 18.3602Z" fill="#7E37D7"/>
<path d="M10.2408 7.17571C10.2392 7.41711 10.159 7.62915 10.004 7.81387C9.08276 8.9118 8.16034 10.0089 7.24135 11.1087C7.01816 11.3758 6.7429 11.5159 6.39296 11.5046C5.93416 11.4898 5.52165 11.1065 5.46979 10.6504C5.43625 10.3553 5.51511 10.0971 5.7053 9.87044C6.629 8.76983 7.55282 7.66933 8.47546 6.56787C8.69811 6.30204 8.97808 6.17271 9.32566 6.18942C9.76636 6.21064 10.1653 6.57269 10.2284 7.01027C10.2363 7.06524 10.241 7.1202 10.2408 7.17571Z" fill="#7E37D7"/>
<path d="M14.1505 14.8321C14.1489 15.0713 14.071 15.283 13.9175 15.4663C13.4509 16.0231 12.9874 16.5825 12.5155 17.1346C12.2479 17.4476 11.9004 17.5596 11.5028 17.4515C11.1028 17.3427 10.8626 17.0674 10.789 16.6603C10.7371 16.3735 10.8093 16.1087 10.9959 15.8839C11.4384 15.351 11.8863 14.8227 12.3296 14.2907C12.4472 14.1495 12.5717 14.0201 12.7406 13.9391C13.337 13.6531 14.0489 14.0337 14.1403 14.6878C14.1471 14.7358 14.1494 14.7837 14.1505 14.8321Z" fill="#06B4DC"/>
<path d="M9.6651 9.73856C9.66724 9.48377 9.74739 9.26969 9.90372 9.08347C10.3685 8.52985 10.8301 7.97365 11.2988 7.42335C11.5602 7.11637 11.8996 7.00269 12.2903 7.09848C12.6789 7.19373 12.925 7.45067 13.016 7.84111C13.0864 8.14348 13.0226 8.42602 12.8246 8.66603C12.4033 9.1768 11.9753 9.6821 11.5493 10.1889C11.4564 10.2994 11.3726 10.4189 11.2545 10.5055C10.9424 10.7342 10.603 10.7829 10.2499 10.6246C9.89739 10.4664 9.70474 10.1832 9.66906 9.79642C9.66681 9.77317 9.66585 9.75003 9.6651 9.73856Z" fill="#06B4DC"/>
<path d="M10.0431 19.6162C9.46158 19.6148 9.03643 19.2224 8.9941 18.7086C8.97117 18.4308 9.05764 18.1892 9.23647 17.9781C9.34597 17.8488 9.45097 17.7154 9.56455 17.5897C9.83649 17.2887 10.1761 17.1773 10.5662 17.2856C10.9564 17.394 11.1995 17.6599 11.2777 18.0607C11.3366 18.3625 11.2565 18.6331 11.062 18.8697C10.9521 19.0034 10.8412 19.1362 10.7283 19.2673C10.5308 19.4967 10.2793 19.6118 10.0431 19.6162Z" fill="#7E37D7"/>
</svg>
