<svg width="24" height="24" viewBox="0 0 24 24" fill="none" xmlns="http://www.w3.org/2000/svg">
<path d="M12 24C18.6274 24 24 18.6274 24 12C24 5.37258 18.6274 0 12 0C5.37258 0 0 5.37258 0 12C0 18.6274 5.37258 24 12 24Z" fill="#008B82"/>
<path d="M5.98731 9.68526C6.10004 9.68526 6.20283 9.68858 6.3023 9.6919C6.35203 9.69522 6.39845 9.69521 6.44487 9.69853C6.57418 9.70848 6.70349 9.71842 6.83612 9.735C6.8328 9.73831 6.82949 9.74163 6.82617 9.74826C7.12126 9.78142 7.41636 9.83447 7.7015 9.90742C7.70482 9.9041 7.70813 9.90078 7.71145 9.89747C8.84872 10.1793 9.90309 10.7396 10.7784 11.5254C11.2691 11.9664 11.6969 12.4737 12.0483 13.0308C12.3998 12.4737 12.8275 11.9664 13.3182 11.5254C14.1935 10.7396 15.2479 10.1793 16.3819 9.89747C16.3852 9.90078 16.3885 9.9041 16.3918 9.90742C16.4913 9.88089 16.5908 9.861 16.6902 9.8411C16.8792 9.80132 17.0748 9.77147 17.2671 9.74826C17.2638 9.74495 17.2605 9.74163 17.2572 9.735C17.3865 9.71842 17.5158 9.70848 17.6451 9.69853C17.6915 9.69521 17.7413 9.6919 17.7976 9.6919C17.8905 9.68858 17.9966 9.68526 18.1093 9.68526C19.114 9.68526 19.9296 8.86962 19.9296 7.86498V7.14879V6.43262H19.2134V7.86498C19.2134 8.47505 18.7194 8.96909 18.1093 8.96909C17.9866 8.96909 17.8706 8.9724 17.7645 8.97572C17.7048 8.97903 17.6484 8.98235 17.5954 8.98567C17.3003 9.00556 17.0052 9.03871 16.7167 9.09176C16.6736 9.0984 16.6272 9.10834 16.5841 9.11829C16.5675 9.12161 16.551 9.12492 16.5344 9.12824C16.289 9.17797 16.0503 9.23766 15.8116 9.3106C14.7141 9.64548 13.6995 10.2191 12.8374 10.9916C12.5556 11.2469 12.2904 11.5188 12.0483 11.8106C11.8063 11.5188 11.541 11.2436 11.2592 10.9883C10.4004 10.2158 9.38254 9.64548 8.28174 9.3106C8.03638 9.23434 7.78439 9.17134 7.5324 9.1216C7.47935 9.11166 7.4263 9.10171 7.37657 9.09176C7.08148 9.03871 6.78638 9.00224 6.49129 8.98567C6.44156 8.98235 6.38851 8.97904 6.33546 8.97904C6.22604 8.9724 6.10999 8.9724 5.98731 8.9724C5.37723 8.9724 4.8832 8.47837 4.8832 7.86829V6.43593H4.16702V7.15211V7.86829C4.16702 8.86962 4.98267 9.68526 5.98731 9.68526Z" fill="white"/>
<path d="M18.1093 11.8936C18.0397 11.8936 17.9701 11.8969 17.8971 11.9002C17.7546 11.9068 17.6153 11.9168 17.4794 11.9367C17.6319 12.4473 17.7115 12.9877 17.7115 13.5447C17.7115 16.6714 15.1684 19.2112 12.045 19.2112C8.92167 19.2112 6.37857 16.6681 6.37857 13.5447C6.37857 12.9877 6.45815 12.4473 6.61067 11.9367C6.47472 11.9201 6.33878 11.9068 6.20284 11.9035H6.19621C6.12658 11.9002 6.06027 11.8969 5.98732 11.8969C5.92764 11.8969 5.86465 11.8969 5.80496 11.8936C5.66571 12.4207 5.58945 12.9745 5.58945 13.5447C5.58945 17.1058 8.48732 20.0003 12.045 20.0003C15.606 20.0003 18.5006 17.1024 18.5006 13.5447C18.5006 12.9745 18.4276 12.4207 18.2851 11.8936C18.2287 11.8936 18.169 11.8936 18.1093 11.8936Z" fill="white"/>
<path d="M10.7552 8.02427C11.1697 7.92811 11.604 7.87506 12.0483 7.87506C12.4926 7.87506 12.9269 7.92811 13.3414 8.02427C13.5602 7.9049 13.7857 7.79549 14.0145 7.6927L14.1537 7.6297H14.1571C14.2366 7.59654 14.3162 7.56339 14.3991 7.53023C13.6697 7.24509 12.8772 7.08594 12.0483 7.08594C11.2194 7.08594 10.427 7.24177 9.69751 7.53023C9.82682 7.57997 9.95613 7.63634 10.0821 7.6927C10.3109 7.79549 10.5364 7.9049 10.7552 8.02427Z" fill="white"/>
<path d="M20.6458 7.86465C20.6458 9.26385 19.5085 10.4011 18.1093 10.4011C18.0065 10.4011 17.9137 10.4044 17.8308 10.4077C17.7844 10.4111 17.738 10.4111 17.6916 10.4144C17.4064 10.431 17.1213 10.4674 16.8427 10.5238C16.8361 10.5238 16.8328 10.5271 16.8262 10.5271C15.7022 10.7526 14.6544 11.2798 13.7957 12.0523C13.0032 12.7652 12.4064 13.6571 12.0483 14.6385C11.6902 13.6571 11.0934 12.7652 10.301 12.0523C9.43559 11.2764 8.3779 10.7493 7.25058 10.5238C6.97206 10.4674 6.68692 10.431 6.40177 10.4111C6.35867 10.4077 6.31557 10.4044 6.27246 10.4044C6.18626 10.4011 6.09342 10.3978 5.99063 10.3978C4.59143 10.3978 3.45416 9.26053 3.45416 7.86133H2.66504C2.66504 9.69488 4.15708 11.1869 5.99063 11.1869C6.00721 11.1869 6.02379 11.1869 6.03705 11.1869C6.10668 11.1869 6.17299 11.1902 6.23599 11.1936C6.44819 11.2035 6.65708 11.2234 6.86265 11.2566C7.94023 11.4223 8.95814 11.9031 9.77379 12.6392C10.9608 13.7068 11.6471 15.2353 11.6538 16.8302V16.8368V16.8534H12.4429C12.4429 16.8434 12.4429 16.8368 12.4429 16.8302C12.4495 15.2353 13.1359 13.7068 14.3229 12.6392C15.0755 11.9628 15.9939 11.4986 16.982 11.2997C17.0649 11.2831 17.1478 11.2665 17.2307 11.2566C17.4396 11.2234 17.6518 11.2035 17.8673 11.1936C17.927 11.1902 17.99 11.1902 18.0596 11.1869C18.0762 11.1869 18.0927 11.1869 18.1093 11.1869C19.9429 11.1869 21.4349 9.69488 21.4349 7.86133H20.6458V7.86465Z" fill="white"/>
<path d="M5.98733 8.25264C6.12327 8.25264 6.24595 8.25596 6.36863 8.26259C6.42831 8.26591 6.48467 8.26923 6.53772 8.27254C6.91571 8.29575 7.29701 8.34549 7.67499 8.42175C7.79104 8.44496 7.9104 8.47148 8.02645 8.50132C8.34807 8.58089 8.66305 8.67705 8.97141 8.78978C9.986 9.16445 10.9276 9.73143 11.74 10.4609C11.8461 10.557 11.9489 10.6532 12.0516 10.756C12.1544 10.6565 12.2572 10.557 12.3633 10.4642C13.1756 9.73474 14.114 9.16776 15.1286 8.7931C15.4369 8.68036 15.7519 8.5809 16.0735 8.50464C16.1796 8.47811 16.2857 8.4549 16.3918 8.43169C16.415 8.42838 16.4349 8.42506 16.4548 8.41843C16.8162 8.3488 17.1843 8.29906 17.5523 8.27585C17.612 8.27254 17.6717 8.26923 17.7347 8.26591C17.8507 8.25928 17.9767 8.25596 18.1126 8.25596C18.3248 8.25596 18.5006 8.08355 18.5006 7.86803V5.71949V5.00331H17.7844V7.54641C17.7579 7.54641 17.7313 7.54973 17.7048 7.54973C17.6352 7.55304 17.5689 7.55636 17.5059 7.55968C17.108 7.58289 16.7101 7.63593 16.3222 7.71219C16.299 7.71551 16.2725 7.72214 16.2459 7.72546C15.9276 7.79177 15.6126 7.87135 15.301 7.97081C14.9628 8.07692 14.6312 8.20291 14.3063 8.3488C13.494 8.71352 12.7314 9.19429 12.0483 9.77784C11.3653 9.19429 10.6027 8.71352 9.78706 8.3488C9.46212 8.20291 9.13056 8.07692 8.79236 7.97081C8.47075 7.86803 8.14581 7.78514 7.81093 7.71883C7.40311 7.63594 6.98865 7.58288 6.57751 7.55636C6.52115 7.55304 6.45815 7.54973 6.39515 7.54641C6.36863 7.54641 6.33879 7.5431 6.31226 7.5431V5H5.5994V5.71617V7.86472C5.5994 8.07692 5.77512 8.25264 5.98733 8.25264Z" fill="white"/>
<path d="M9.10073 13.0142C8.87195 12.8285 8.62991 12.6627 8.3746 12.5234C8.06293 12.7787 7.86731 13.1667 7.86731 13.601C7.86731 14.3703 8.49397 14.9969 9.26651 14.9969C9.69423 14.9969 10.0755 14.8046 10.3308 14.5029C10.1916 14.2476 10.0324 14.0022 9.85007 13.7701C9.77712 14.0221 9.54171 14.2078 9.26651 14.2078C8.93163 14.2078 8.65643 13.9359 8.65643 13.5977C8.65643 13.3225 8.84543 13.0871 9.10073 13.0142Z" fill="white"/>
<path d="M14.8302 14.2078C14.555 14.2078 14.3196 14.0221 14.2466 13.7701C14.0642 13.9989 13.9018 14.2443 13.7658 14.5029C14.0211 14.8046 14.4058 14.9969 14.8302 14.9969C15.5994 14.9969 16.226 14.3703 16.226 13.601C16.226 13.1667 16.0271 12.7787 15.7188 12.5234C15.4634 12.666 15.2214 12.8285 14.9926 13.0142C15.2479 13.0871 15.4369 13.3225 15.4369 13.601C15.4402 13.9359 15.165 14.2078 14.8302 14.2078Z" fill="white"/>
<path d="M23.5 12C23.5 18.3513 18.3513 23.5 12 23.5C5.64873 23.5 0.5 18.3513 0.5 12C0.5 5.64873 5.64873 0.5 12 0.5C18.3513 0.5 23.5 5.64873 23.5 12Z" stroke="white" stroke-opacity="0.3"/>
</svg>
