<?xml version="1.0" encoding="UTF-8" standalone="no"?>
<!-- Created with Inkscape (http://www.inkscape.org/) -->

<svg
   xmlns:dc="http://purl.org/dc/elements/1.1/"
   xmlns:cc="http://creativecommons.org/ns#"
   xmlns:rdf="http://www.w3.org/1999/02/22-rdf-syntax-ns#"
   xmlns:svg="http://www.w3.org/2000/svg"
   xmlns="http://www.w3.org/2000/svg"
   xmlns:sodipodi="http://sodipodi.sourceforge.net/DTD/sodipodi-0.dtd"
   xmlns:inkscape="http://www.inkscape.org/namespaces/inkscape"
   width="128"
   height="128"
   viewBox="0 0 26.458333 26.458334"
   version="1.1"
   id="svg8"
   sodipodi:docname="yfi.svg"
   inkscape:version="0.92.5 (2060ec1f9f, 2020-04-08)">
  <defs
     id="defs2" />
  <sodipodi:namedview
     id="base"
     pagecolor="#ffffff"
     bordercolor="#666666"
     borderopacity="1.0"
     inkscape:pageopacity="0.0"
     inkscape:pageshadow="2"
     inkscape:zoom="2.8"
     inkscape:cx="77.716457"
     inkscape:cy="50.31264"
     inkscape:document-units="mm"
     inkscape:current-layer="layer1"
     showgrid="false"
     units="px"
     fit-margin-top="0"
     fit-margin-left="0"
     fit-margin-right="0"
     fit-margin-bottom="0"
     inkscape:window-width="1920"
     inkscape:window-height="1043"
     inkscape:window-x="0"
     inkscape:window-y="0"
     inkscape:window-maximized="1" />
  <metadata
     id="metadata5">
    <rdf:RDF>
      <cc:Work
         rdf:about="">
        <dc:format>image/svg+xml</dc:format>
        <dc:type
           rdf:resource="http://purl.org/dc/dcmitype/StillImage" />
        <dc:title></dc:title>
      </cc:Work>
    </rdf:RDF>
  </metadata>
  <g
     inkscape:label="Layer 1"
     inkscape:groupmode="layer"
     id="layer1"
     transform="translate(-93.265621,-130.02901)">
    <g
       id="g1453">
      <g
         transform="matrix(0.90614883,0,0,0.90614883,8.7530873,14.68652)"
         id="g1446">
        <circle
           style="fill:#0065d0;fill-opacity:1;stroke:none;stroke-width:0.00192822;stroke-miterlimit:4;stroke-dasharray:none;stroke-opacity:1"
           id="path815"
           cx="107.86495"
           cy="141.88802"
           r="14.599331" />
        <path
           style="color:#000000;font-style:normal;font-variant:normal;font-weight:normal;font-stretch:normal;font-size:medium;line-height:normal;font-family:sans-serif;font-variant-ligatures:normal;font-variant-position:normal;font-variant-caps:normal;font-variant-numeric:normal;font-variant-alternates:normal;font-feature-settings:normal;text-indent:0;text-align:start;text-decoration:none;text-decoration-line:none;text-decoration-style:solid;text-decoration-color:#000000;letter-spacing:normal;word-spacing:normal;text-transform:none;writing-mode:lr-tb;direction:ltr;text-orientation:mixed;dominant-baseline:auto;baseline-shift:baseline;text-anchor:start;white-space:normal;shape-padding:0;clip-rule:nonzero;display:inline;overflow:visible;visibility:visible;opacity:1;isolation:auto;mix-blend-mode:normal;color-interpolation:sRGB;color-interpolation-filters:linearRGB;solid-color:#000000;solid-opacity:1;vector-effect:none;fill:#ffffff;fill-opacity:1;fill-rule:nonzero;stroke:none;stroke-width:1.37583327;stroke-linecap:butt;stroke-linejoin:miter;stroke-miterlimit:4;stroke-dasharray:none;stroke-dashoffset:0;stroke-opacity:1;color-rendering:auto;image-rendering:auto;shape-rendering:auto;text-rendering:auto;enable-background:accumulate"
           d="m 107.17866,135.62623 v 12.27734 h 1.375 v -12.27734 z"
           id="path922"
           inkscape:connector-curvature="0" />
        <path
           style="fill:#ffffff;fill-opacity:1;stroke:none;stroke-width:1.47227812;stroke-miterlimit:4;stroke-dasharray:none;stroke-opacity:1"
           d="m 107.93973,131.90414 v 5.2e-4 c -2.70077,-4e-5 -4.89018,2.18938 -4.89014,4.89014 0.002,2.24516 1.53289,4.20039 3.71192,4.74131 v -1.46399 c -0.0605,-0.0202 -0.12051,-0.0421 -0.17984,-0.0656 -0.10702,-0.0454 -0.21171,-0.0961 -0.31367,-0.15193 -0.10202,-0.0556 -0.20119,-0.11636 -0.29714,-0.1819 -0.096,-0.0656 -0.18858,-0.13598 -0.27751,-0.21084 -0.089,-0.0749 -0.1742,-0.15426 -0.25528,-0.23771 -0.081,-0.0834 -0.15772,-0.17088 -0.22996,-0.262 -0.0722,-0.091 -0.1398,-0.18548 -0.20257,-0.28319 -0.0629,-0.0978 -0.12083,-0.1987 -0.17363,-0.3023 -0.0526,-0.10367 -0.10008,-0.20991 -0.14211,-0.31833 -0.0422,-0.10834 -0.0789,-0.21872 -0.11007,-0.33073 -0.0311,-0.11199 -0.0567,-0.22548 -0.0765,-0.34003 -0.0197,-0.11464 -0.0337,-0.23019 -0.0419,-0.34623 -0.006,-0.082 -0.009,-0.16425 -0.009,-0.2465 5e-5,-0.11632 0.006,-0.23257 0.0176,-0.3483 0.0116,-0.1157 0.0291,-0.23072 0.0522,-0.34468 0.023,-0.11384 0.0516,-0.22647 0.0858,-0.33745 0.0345,-0.11114 0.0745,-0.22049 0.11989,-0.32763 0.0452,-0.10702 0.0958,-0.2117 0.15141,-0.31367 0.0558,-0.10202 0.1167,-0.20119 0.18242,-0.29714 0.0656,-0.0959 0.13598,-0.18857 0.21084,-0.2775 0.0749,-0.089 0.15426,-0.17422 0.23771,-0.25529 0.0833,-0.081 0.17055,-0.15771 0.26148,-0.22996 0.0911,-0.0722 0.18582,-0.13982 0.28371,-0.20257 0.0978,-0.0629 0.1987,-0.12082 0.3023,-0.17363 0.10368,-0.0526 0.20992,-0.10007 0.31833,-0.14211 0.10834,-0.0422 0.21872,-0.0789 0.33073,-0.11007 0.112,-0.0311 0.22548,-0.0567 0.34003,-0.0765 0.11447,-0.0197 0.22985,-0.0337 0.34572,-0.0419 0.0822,-0.006 0.16459,-0.009 0.24701,-0.009 0.11615,6e-5 0.23222,0.006 0.34778,0.0181 0.11569,0.0116 0.23073,0.0291 0.34468,0.0522 0.11403,0.0231 0.22682,0.0519 0.33797,0.0863 0.11095,0.0343 0.22013,0.0742 0.32711,0.11937 0.10719,0.0452 0.21205,0.0957 0.31419,0.15141 0.10203,0.0558 0.2012,0.11669 0.29714,0.18242 0.0958,0.0656 0.18823,0.13599 0.27699,0.21084 0.089,0.0749 0.1742,0.15426 0.25528,0.23771 0.081,0.0833 0.15771,0.17054 0.22996,0.26148 0.0722,0.0911 0.13982,0.18583 0.20257,0.28371 0.0629,0.0978 0.12083,0.1987 0.17363,0.3023 0.0528,0.10366 0.10043,0.20991 0.14263,0.31833 0.042,0.10835 0.0786,0.21873 0.10955,0.33073 0.0311,0.11199 0.0567,0.22548 0.0765,0.34003 0.0197,0.11464 0.0337,0.23019 0.0419,0.34623 0.006,0.082 0.009,0.16425 0.009,0.2465 -6e-5,0.11614 -0.006,0.23222 -0.0176,0.34778 -0.0115,0.11568 -0.0287,0.23072 -0.0517,0.34468 -0.0231,0.11402 -0.0519,0.22683 -0.0863,0.33797 -0.0343,0.11096 -0.0742,0.22013 -0.11937,0.32711 -0.031,0.0732 -0.068,0.14357 -0.10387,0.21446 l -0.68265,-2.14716 -1.31051,0.41806 1.33377,4.18941 4.14083,-1.61127 -0.50023,-1.28158 -1.50843,0.58602 c 0.21054,-0.4738 0.3089,-1.0312 0.30902,-1.72548 4e-5,-2.70057 -2.18906,-4.89041 -4.88962,-4.89066 z"
           id="path924"
           inkscape:connector-curvature="0" />
        <path
           style="fill:#ffffff;fill-opacity:1;stroke:none;stroke-width:1.47227812;stroke-miterlimit:4;stroke-dasharray:none;stroke-opacity:1"
           d="m 108.96809,142.14538 v 1.46399 c 0.0605,0.0202 0.1205,0.0421 0.17983,0.0656 0.10703,0.0454 0.21172,0.0961 0.31368,0.15193 0.10201,0.0557 0.20118,0.11636 0.29714,0.1819 0.096,0.0656 0.18857,0.13598 0.2775,0.21084 0.089,0.0749 0.17421,0.15426 0.25528,0.23771 0.081,0.0834 0.15772,0.17088 0.22996,0.262 0.0722,0.091 0.13981,0.18548 0.20257,0.28319 0.0629,0.0978 0.12084,0.1987 0.17364,0.3023 0.0526,0.10367 0.10007,0.20991 0.14211,0.31833 0.0422,0.10834 0.0789,0.21872 0.11007,0.33073 0.0311,0.11199 0.0567,0.22548 0.0765,0.34003 0.0197,0.11464 0.0337,0.23019 0.0419,0.34623 0.006,0.082 0.009,0.16425 0.009,0.2465 -4e-5,0.11632 -0.006,0.23257 -0.0176,0.3483 -0.0116,0.1157 -0.0291,0.23072 -0.0522,0.34468 -0.023,0.11384 -0.0516,0.22647 -0.0858,0.33745 -0.0345,0.11114 -0.0745,0.22049 -0.11989,0.32763 -0.0452,0.10702 -0.0957,0.2117 -0.15141,0.31367 -0.0558,0.10202 -0.11669,0.20119 -0.18242,0.29714 -0.0656,0.096 -0.13597,0.18857 -0.21083,0.2775 -0.0749,0.089 -0.15427,0.17422 -0.23772,0.25529 -0.0833,0.081 -0.17054,0.15771 -0.26148,0.22996 -0.0911,0.0722 -0.18582,0.13982 -0.2837,0.20257 -0.0978,0.0629 -0.19871,0.12082 -0.30231,0.17363 -0.10367,0.0526 -0.20991,0.10007 -0.31833,0.14211 -0.10834,0.0422 -0.21872,0.0789 -0.33073,0.11007 -0.11199,0.0311 -0.22548,0.0567 -0.34003,0.0765 -0.11447,0.0197 -0.22985,0.0337 -0.34571,0.0419 -0.0822,0.006 -0.1646,0.009 -0.24702,0.009 -0.11614,-6e-5 -0.23221,-0.006 -0.34778,-0.0176 -0.11569,-0.0116 -0.23073,-0.0291 -0.34468,-0.0522 -0.11402,-0.0231 -0.22682,-0.0519 -0.33796,-0.0863 -0.11096,-0.0343 -0.22013,-0.0742 -0.32712,-0.11937 -0.10719,-0.0452 -0.21205,-0.0957 -0.31419,-0.15141 -0.10202,-0.0558 -0.20119,-0.11669 -0.29714,-0.18242 -0.0958,-0.0656 -0.18822,-0.13599 -0.27698,-0.21084 -0.089,-0.0749 -0.17421,-0.15426 -0.25528,-0.23771 -0.081,-0.0833 -0.15771,-0.17055 -0.22996,-0.26149 -0.0722,-0.0911 -0.13983,-0.18582 -0.20258,-0.2837 -0.0629,-0.0978 -0.12083,-0.19871 -0.17363,-0.30231 -0.0528,-0.10366 -0.10042,-0.2099 -0.14263,-0.31832 -0.042,-0.10835 -0.0786,-0.21873 -0.10955,-0.33073 -0.0311,-0.11199 -0.0567,-0.22548 -0.0765,-0.34003 -0.0197,-0.11464 -0.0337,-0.2302 -0.0419,-0.34624 -0.006,-0.082 -0.009,-0.16424 -0.009,-0.24649 6e-5,-0.11614 0.006,-0.23223 0.0176,-0.34779 0.0115,-0.11568 0.0287,-0.23072 0.0517,-0.34468 0.0231,-0.11402 0.0519,-0.22682 0.0863,-0.33796 0.0343,-0.11096 0.0742,-0.22013 0.11938,-0.32711 0.031,-0.0733 0.0679,-0.14396 0.10387,-0.21498 l 0.68316,2.14716 1.31051,-0.41806 -1.33377,-4.18941 -4.14083,1.61127 0.50023,1.28158 1.50843,-0.58653 c -0.21067,0.47388 -0.30942,1.03202 -0.30954,1.72651 -4e-5,2.70057 2.18906,4.88989 4.88963,4.89014 v -5.3e-4 c 2.70076,4e-5 4.89018,-2.18938 4.89014,-4.89014 -0.002,-2.24516 -1.5329,-4.20039 -3.71192,-4.74131 z"
           id="path1382"
           inkscape:connector-curvature="0" />
      </g>
    </g>
  </g>
</svg>
